<?xml version="1.0" encoding="utf-8"?>
<!-- Generator: Adobe Illustrator 27.0.0, SVG Export Plug-In . SVG Version: 6.00 Build 0)  -->
<svg version="1.1" id="Layer_1" xmlns="http://www.w3.org/2000/svg" xmlns:xlink="http://www.w3.org/1999/xlink" x="0px" y="0px"
	 viewBox="0 0 1797 468" style="enable-background:new 0 0 1797 468;" xml:space="preserve">
<style type="text/css">
	.st0{fill:none;stroke:#409CFF;stroke-width:1.3443;}
</style>
<path class="st0" d="M1383.1,178.5L1383.1,178.5l-0.1-0.2c-6.9-26.3-30.9-45.7-59.3-45.7c-33.9,0-61.3,27.4-61.3,61.3
	c0,4.3,0.4,8.5,1.3,12.6l0.2,0.9l-1-0.1c-2.9-0.4-5.8-0.6-8.8-0.6c-33.9,0-61.3,27.4-61.3,61.3c0,33.8,27.5,61.3,61.3,61.3h179
	c33.9,0,61.3-27.4,61.3-61.3c0-17.8-7.6-33.9-19.8-45.1c-10.9-10-25.5-16.2-41.5-16.2h-8.1c-10.5,0-19.7-4.7-26.9-10.6
	C1390.9,190.3,1385.7,183.2,1383.1,178.5z"/>
<path class="st0" d="M132.9,23.2L132.9,23.2l-0.1-0.2c-3.4-12.9-15.2-22.4-29.2-22.4c-16.7,0-30.2,13.4-30.2,30
	c0,2.1,0.2,4.2,0.6,6.2l0.2,0.9l-0.9-0.1c-1.4-0.2-2.9-0.3-4.4-0.3c-16.7,0-30.2,13.4-30.2,30s13.5,30,30.2,30h89.2
	c16.7,0,30.2-13.4,30.2-30c0-8.7-3.8-16.6-9.8-22.1c-5.4-4.9-12.6-7.9-20.5-7.9h-4c-5.3,0-10-2.4-13.6-5.3
	C136.9,29.1,134.3,25.6,132.9,23.2z"/>
<path class="st0" d="M36.8,371.2L36.8,371.2l-0.1-0.2c-2.3-8.8-10.5-15.4-20.1-15.4c-11.5,0-20.8,9.2-20.8,20.6
	c0,1.5,0.1,2.9,0.4,4.2l0.2,0.9l-1-0.1c-1-0.1-2-0.2-3-0.2c-11.5,0-20.8,9.2-20.8,20.6s9.3,20.6,20.8,20.6h62
	c11.5,0,20.8-9.2,20.8-20.6c0-6-2.6-11.4-6.7-15.2c-3.7-3.4-8.7-5.4-14.1-5.4h-2.8c-3.8,0-7-1.7-9.6-3.7
	C39.6,375.3,37.8,372.9,36.8,371.2z"/>
<path class="st0" d="M1757.8,416.2L1757.8,416.2l-0.1-0.2c-2.3-8.8-10.5-15.4-20.1-15.4c-11.5,0-20.8,9.2-20.8,20.6
	c0,1.5,0.2,2.9,0.4,4.2l0.2,0.9l-1-0.1c-1-0.1-2-0.2-3-0.2c-11.5,0-20.8,9.2-20.8,20.6s9.3,20.6,20.8,20.6h62
	c11.5,0,20.8-9.2,20.8-20.6c0-6-2.6-11.4-6.7-15.2c-3.7-3.4-8.7-5.4-14.1-5.4h-2.8c-3.8,0-7-1.7-9.6-3.7
	C1760.6,420.3,1758.8,417.9,1757.8,416.2z"/>
</svg>
