<svg width="115" height="114" viewBox="0 0 115 114" fill="none" xmlns="http://www.w3.org/2000/svg">
<circle cx="57.3334" cy="57" r="57" fill="#BEF9CF"/>
<g clip-path="url(#clip0_3:10963)">
<path d="M56.9999 38.0869C52.133 38.0869 48.1738 42.046 48.1738 46.913C48.1738 51.7801 52.1329 55.7392 56.9999 55.7392C61.867 55.7392 65.8261 51.7799 65.8261 46.913C65.8261 42.0461 61.867 38.0869 56.9999 38.0869ZM56.9999 53.2173C53.525 53.2173 50.6956 50.3879 50.6956 46.913C50.6956 43.4381 53.525 40.6087 56.9999 40.6087C60.4749 40.6087 63.3043 43.4381 63.3043 46.913C63.3043 50.3879 60.475 53.2173 56.9999 53.2173Z" fill="#224CE8"/>
<path d="M74.6522 48.174C71.1773 48.174 68.3479 51.0033 68.3479 54.4783C68.3479 57.9532 71.1773 60.7826 74.6522 60.7826C78.1271 60.7826 80.9565 57.9532 80.9565 54.4783C80.9565 51.0033 78.1271 48.174 74.6522 48.174ZM74.6522 58.2609C72.5667 58.2609 70.8696 56.5638 70.8696 54.4783C70.8696 52.3927 72.5667 50.6957 74.6522 50.6957C76.7377 50.6957 78.4348 52.3927 78.4348 54.4783C78.4348 56.5638 76.7376 58.2609 74.6522 58.2609Z" fill="#224CE8"/>
<path d="M39.5269 48.174C36.0494 48.174 33.2226 51.0033 33.2226 54.4783C33.2226 57.9532 36.052 60.7826 39.5269 60.7826C43.0018 60.7826 45.8312 57.9532 45.8312 54.4783C45.8312 51.0033 43.0043 48.174 39.5269 48.174ZM39.5269 58.2609C37.4414 58.2609 35.7443 56.5638 35.7443 54.4783C35.7443 52.3927 37.4414 50.6957 39.5269 50.6957C41.6124 50.6957 43.3095 52.3927 43.3095 54.4783C43.3095 56.5638 41.6123 58.2609 39.5269 58.2609Z" fill="#224CE8"/>
<path d="M56.9999 58.2609C47.962 58.2609 40.6086 65.6142 40.6086 74.6522C40.6086 75.3482 41.1735 75.9131 41.8695 75.9131C42.5655 75.9131 43.1304 75.3482 43.1304 74.6522C43.1304 67.0038 49.3515 60.7827 56.9999 60.7827C64.6484 60.7827 70.8694 67.0038 70.8694 74.6522C70.8694 75.3482 71.4344 75.9131 72.1304 75.9131C72.8264 75.9131 73.3913 75.3482 73.3913 74.6522C73.3913 65.6142 66.0379 58.2609 56.9999 58.2609Z" fill="#224CE8"/>
<path d="M74.6522 63.3044C72.5768 63.3044 70.5443 63.8717 68.774 64.9435C68.1814 65.3067 67.9897 66.0808 68.3504 66.676C68.716 67.2711 69.4876 67.4603 70.0828 67.0996C71.4571 66.2648 73.0357 65.8261 74.6522 65.8261C79.5191 65.8261 83.4783 69.7851 83.4783 74.6522C83.4783 75.3482 84.0432 75.9131 84.7392 75.9131C85.4352 75.9131 86.0001 75.3482 86.0001 74.6522C86 68.3957 80.9086 63.3044 74.6522 63.3044Z" fill="#224CE8"/>
<path d="M45.2235 64.9409C43.4557 63.8717 41.4233 63.3044 39.3478 63.3044C33.0914 63.3044 28 68.3957 28 74.6522C28 75.3482 28.5649 75.9131 29.2609 75.9131C29.9569 75.9131 30.5218 75.3482 30.5218 74.6522C30.5217 69.7851 34.4809 65.8261 39.3478 65.8261C40.9643 65.8261 42.5428 66.2648 43.9147 67.097C44.5073 67.4577 45.284 67.2685 45.6472 66.6734C46.0103 66.0782 45.8186 65.304 45.2235 64.9409Z" fill="#224CE8"/>
</g>
<defs>
<clipPath id="clip0_3:10963">
<rect width="58" height="58" fill="white" transform="translate(28 28)"/>
</clipPath>
</defs>
</svg>
