<svg width="115" height="114" viewBox="0 0 115 114" fill="none" xmlns="http://www.w3.org/2000/svg">
<circle cx="57.6666" cy="57" r="57" fill="#BEF9CF"/>
<g clip-path="url(#clip0_3:10944)">
<path d="M79.963 39.7434L58.1641 28.1278C57.8407 27.9552 57.4531 27.9576 57.1321 28.1338L35.9364 39.7494C35.5888 39.9402 35.3732 40.3048 35.3732 40.7014V55.8744C35.3859 68.3469 42.7755 79.6307 54.2034 84.6276L57.1455 85.9096C57.4204 86.0295 57.7335 86.0302 58.0091 85.9108L61.3242 84.4792C72.964 79.5907 80.5365 68.198 80.5378 55.5734V40.7014C80.5378 40.3005 80.3167 39.9317 79.963 39.7434ZM78.3672 55.5734C78.3648 67.3277 71.3125 77.9338 60.4745 82.4825L60.4672 82.4861L57.5803 83.7325L55.0718 82.6381C44.4343 77.987 37.5552 67.4846 37.5431 55.8744V41.344L57.6608 30.3183L78.3672 41.3519V55.5734Z" fill="#224CE8"/>
<path d="M49.6541 55.1707C49.2647 54.7147 48.5797 54.6608 48.1237 55.0502C47.6677 55.439 47.6138 56.1245 48.0032 56.58L53.7359 63.2932C54.1186 63.7413 54.789 63.8025 55.2457 63.4306L68.5969 52.5684C69.0621 52.1905 69.1323 51.5068 68.7538 51.0417C68.3759 50.5772 67.6922 50.5063 67.2271 50.8848L54.6982 61.0772L49.6541 55.1707Z" fill="#224CE8"/>
</g>
<defs>
<clipPath id="clip0_3:10944">
<rect width="58" height="58" fill="white" transform="translate(29 28)"/>
</clipPath>
</defs>
</svg>
