<svg width="509" height="423" viewBox="0 0 509 423" fill="none" xmlns="http://www.w3.org/2000/svg">
<path d="M459.455 86.3241V93.379L459.416 93.3517C459.31 93.9748 458.95 94.5603 458.325 94.919L434.621 108.606C434.269 108.809 433.875 108.91 433.483 108.907C433.096 108.903 432.712 108.806 432.364 108.606L408.632 94.865C407.878 94.432 407.512 93.6702 407.512 92.9116V86.3241L412.489 88.7446L432.328 77.3192C433.025 76.9197 433.882 76.9197 434.578 77.3228L449.907 86.1616L453.885 88.4534L459.455 86.3241Z" fill="#B8D8EC"/>
<path d="M432.333 70.6815L408.643 84.3204C407.136 85.1864 407.136 87.3563 408.636 88.2258L432.368 101.965C433.065 102.37 433.925 102.37 434.626 101.967L458.333 88.2798C459.837 87.4121 459.833 85.2412 458.329 84.3741L434.583 70.6822C433.886 70.2805 433.029 70.2802 432.333 70.6815Z" fill="white"/>
<path d="M432.333 70.4213L408.643 84.0605C407.136 84.9262 407.136 87.096 408.636 87.9656L432.368 101.705C433.065 102.109 433.925 102.11 434.626 101.707L458.333 88.0199C459.837 87.1515 459.833 84.9813 458.329 84.1139L434.583 70.422C433.886 70.0203 433.029 70.0199 432.333 70.4213Z" fill="#EEF8FE"/>
<path d="M185.38 195.953V200.171L235.757 171.108V166.243L185.38 195.953Z" fill="#4390CD"/>
<path d="M135.39 166.243V170.462L185.121 200.171V195.307L135.39 166.243Z" fill="#79B7EB"/>
<path d="M135.39 166.276L185.121 137.213L235.497 166.276L185.767 195.985L135.39 166.276Z" fill="#CEE2F5"/>
<path d="M184.859 36.6203V186.119L216.272 167.997V18.0956L184.859 36.6203Z" fill="#98BFD6"/>
<path d="M153.616 18.0956V167.594L184.625 186.119V36.2179L153.616 18.0956Z" fill="#B8D8EC"/>
<path d="M153.616 18.122L184.625 0L216.037 18.122L185.028 36.647L153.616 18.122Z" fill="#EEF8FE"/>
<path d="M380.665 329.794L414.789 350.693L420.64 347.267L380.719 322.813L362.17 333.776L252.904 271.182L323.141 230.315L357.122 249.671L363.076 246.181L323.105 223.415L304.339 234.336L272.473 216.092L323.866 185.39L380.676 219.117L437.127 186.309L431.112 182.887L380.708 212.182L329.707 181.901L343.318 173.77L337.346 170.372L304.842 189.789L271.529 170.321L265.634 173.804L298.979 193.291L260.626 216.202L298.369 237.809L246.911 267.751L118.444 194.157L152.251 173.873L146.284 170.478L130.991 179.654L97.4318 160.19L112.579 151.301L106.579 147.888L91.4884 156.742L78.2558 149.068L72.3504 152.558L125.131 183.17L106.62 194.278L163.28 226.736L130.471 245.598L98.7702 227.482L92.8439 230.987L130.48 252.494L169.29 230.177L240.942 271.225L152.344 322.777L114.065 300.95L89.937 314.022L95.9892 317.544L113.99 307.793L125.559 314.391L54.6768 356.737L60.5824 360.174L131.526 317.793L164.923 336.833L93.7187 379.47L99.6208 382.904L112.524 375.179L128.54 384.123L134.525 380.615L118.443 371.635L176.777 336.709L158.35 326.2L189.456 308.103L250.046 344.049L255.943 340.594L195.374 304.658L246.934 274.659L356.247 337.277L298.03 371.678L337.179 394.557L323.4 403.689L329.23 407.084L343.343 398.158L373.89 416.01L379.809 412.541L309.835 371.649L342.092 352.588L433.942 405.588L439.879 402.107L348.003 349.094L380.665 329.794Z" fill="#4067F5"/>
<path d="M116.644 235.136V239.356L167.02 210.292V205.428L116.644 235.136Z" fill="#4390CD"/>
<path d="M67.1743 205.428V209.645L116.905 239.356V234.489L67.1743 205.428Z" fill="#79B7EB"/>
<path d="M67.1743 205.462L116.905 176.398L167.282 205.462L117.551 235.17L67.1743 205.462Z" fill="#CEE2F5"/>
<path d="M117.165 106.659V226.318L148.576 208.196V88.1338L117.165 106.659Z" fill="#98BFD6"/>
<path d="M85.9204 88.1338V207.79L116.93 226.318V106.256L85.9204 88.1338Z" fill="#B8D8EC"/>
<path d="M85.9204 88.1606L116.93 70.0383L148.342 88.1606L117.333 106.686L85.9204 88.1606Z" fill="#EEF8FE"/>
<path d="M49.4695 275.753V279.973L99.8457 250.912V246.045L49.4695 275.753Z" fill="#4390CD"/>
<path d="M0 246.045V250.265L49.7307 279.973V275.11L0 246.045Z" fill="#79B7EB"/>
<path d="M0 246.079L49.7307 217.015L100.107 246.079L50.3766 275.787L0 246.079Z" fill="#CEE2F5"/>
<path d="M49.4695 169.667V265.208L80.8813 247.086V151.142L49.4695 169.667Z" fill="#98BFD6"/>
<path d="M18.2256 151.142V246.684L49.235 265.208V169.264L18.2256 151.142Z" fill="#B8D8EC"/>
<path d="M18.2256 151.039L49.235 132.917L80.6468 151.039L49.6374 169.564L18.2256 151.039Z" fill="#EEF8FE"/>
<path d="M259.421 422.755C257.108 422.755 254.794 422.154 252.722 420.956L142.678 357.225L176.833 336.774L158.407 326.266L171.625 318.577L227.674 351.032C229.308 351.985 231.11 352.557 232.926 352.753C233.412 352.806 233.901 352.831 234.389 352.831C236.692 352.831 238.993 352.234 241.056 351.047L310.371 311.03L356.304 337.343L298.086 371.743L324.562 387.214L266.105 420.964C264.037 422.158 261.729 422.755 259.421 422.755ZM330.524 383.773L309.891 371.715L342.148 352.653L363.292 364.854L330.524 383.773ZM369.275 361.398L348.06 349.159L380.722 329.86L401.674 342.693L369.275 361.398ZM136.759 353.795L103.585 334.584L131.583 317.858L164.979 336.898L136.759 353.795ZM407.568 339.291L380.775 322.878L362.226 333.841L316.361 307.571L442.765 234.589L505.551 270.785C510.147 273.433 510.151 280.063 505.554 282.719L407.568 339.291ZM97.6638 331.154L62.384 310.72C56.9465 307.574 56.9731 299.714 62.4319 296.6L98.3367 276.132L165.665 315.125L152.4 322.842L114.121 301.016L89.9935 314.087L96.0456 317.61L114.046 307.859L125.616 314.456L97.6638 331.154Z" fill="#1E47DB"/>
<path d="M324.655 387.181L298.179 371.71L356.397 337.31L310.464 310.997L316.454 307.538L362.319 333.808L380.868 322.845L407.661 339.258L401.767 342.66L380.815 329.827L348.153 349.126L369.368 361.365L363.385 364.821L342.241 352.621L309.984 371.682L330.617 383.74L324.655 387.181ZM142.771 357.192L136.852 353.762L165.072 336.865L131.676 317.826L103.678 334.551L97.7567 331.121L125.709 314.424L114.139 307.826L96.1386 317.577L90.0864 314.054L114.214 300.983L152.493 322.809L165.758 315.092L171.718 318.544L158.5 326.233L176.926 336.741L142.771 357.192Z" fill="#2E57EF"/>
<path d="M483.771 181.756V206.635C483.853 209.024 482.723 211.466 480.348 212.838L240.897 351.083C238.397 352.523 235.547 353.095 232.767 352.789C230.951 352.594 229.15 352.021 227.515 351.069L37.1786 240.843C35.1531 239.67 33.8957 237.853 33.3788 235.87L32.8062 236.304V208.814L50.4205 219.19L67.7557 209.315L275.875 90.6663C279.995 88.3194 285.052 88.3333 289.173 90.6944L466.185 192.735L483.771 181.756Z" fill="#EEF8FE"/>
<path d="M232.767 279.8V352.789C230.952 352.593 229.15 352.021 227.515 351.068L37.1786 240.843C35.1531 239.67 33.8957 237.853 33.3788 235.869L32.8062 236.303V208.813L50.4205 219.19L67.7557 209.315L232.767 279.8Z" fill="#D2ECFF"/>
<path d="M483.99 182.457C483.99 182.483 483.99 182.517 483.983 182.55C483.819 184.68 482.678 186.743 480.559 187.968L421.257 222.209L241.109 326.218C238.606 327.661 235.758 328.23 232.985 327.924C231.159 327.739 229.368 327.163 227.728 326.207L120.035 263.848L37.3872 215.981C34.7076 214.424 33.3557 211.719 33.3297 209.007C33.3219 208.847 33.3297 208.687 33.3468 208.523C33.4655 205.903 34.8348 203.343 37.438 201.856L276.085 65.8053C280.209 63.4552 285.272 63.4637 289.38 65.8387L438.726 151.919L480.559 176.034C482.333 177.056 483.425 178.671 483.83 180.42C483.983 181.088 484.032 181.773 483.99 182.457Z" fill="white"/>
<path d="M483.985 180.408C483.943 180.958 483.84 181.515 483.673 182.048C483.619 182.192 483.569 182.344 483.513 182.487C482.979 183.848 481.991 185.057 480.562 185.885L419.543 221.116L241.103 324.133C238.652 325.544 235.863 326.12 233.141 325.857C231.265 325.679 229.413 325.107 227.723 324.126L121.915 262.843L37.3824 213.889C35.4212 212.755 34.1702 210.996 33.6377 209.08C33.5787 208.891 33.5364 208.706 33.5023 208.511C32.8176 205.258 34.1365 201.649 37.4329 199.773L276.088 63.7219C280.212 61.3721 285.267 61.3806 289.383 63.7556L440.698 150.977L472.631 169.386L480.551 173.951C481.042 174.229 481.483 174.559 481.863 174.931C483.417 176.385 484.12 178.422 483.985 180.408Z" fill="#EEF8FE"/>
<path d="M252.555 178.12V183.885L302.934 154.82V148.408L252.555 178.12Z" fill="#D2ECFF"/>
<path d="M203.085 148.408V154.174L252.819 183.885V177.474L203.085 148.408Z" fill="#D2ECFF"/>
<path d="M203.085 148.443L252.819 119.378L303.198 148.443L253.465 178.154L203.085 148.443Z" fill="#F8FDFF"/>
<path d="M192.15 213.267V219.033L242.53 189.969V183.558L192.15 213.267Z" fill="#D2ECFF"/>
<path d="M142.68 183.558V189.324L192.414 219.033V212.624L142.68 183.558Z" fill="#D2ECFF"/>
<path d="M142.68 183.592L192.414 154.527L242.794 183.592L193.06 213.302L142.68 183.592Z" fill="#F8FDFF"/>
<path d="M314.001 213.918V219.684L364.38 190.621V184.209L314.001 213.918Z" fill="#D2ECFF"/>
<path d="M264.011 184.209V189.974L313.746 219.684V213.275L264.011 184.209Z" fill="#D2ECFF"/>
<path d="M264.011 184.243L313.746 155.178L364.126 184.243L314.389 213.953L264.011 184.243Z" fill="#F8FDFF"/>
<path d="M253.596 249.07V254.836L303.976 225.771V219.358L253.596 249.07Z" fill="#D2ECFF"/>
<path d="M203.606 219.358V225.124L253.34 254.836V248.426L203.606 219.358Z" fill="#D2ECFF"/>
<path d="M203.606 219.391L253.34 190.327L303.719 219.391L253.986 249.103L203.606 219.391Z" fill="#F8FDFF"/>
<path d="M220.576 303.644L191.629 286.57L220.206 269.869L249.153 286.57L220.576 303.644Z" fill="#C1EBFE"/>
<path d="M220.269 282.123V294.167L249.217 277.466V265.052L220.269 282.123Z" fill="#4390CD"/>
<path d="M191.629 265.052V277.093L220.206 294.167V281.753L191.629 265.052Z" fill="#79B7EB"/>
<path d="M191.629 265.089L220.206 248.389L249.153 265.089L220.577 282.16L191.629 265.089Z" fill="#CEE2F5"/>
<path d="M198.775 265.112L220.765 278.08L242.461 265.119L220.471 252.432L198.775 265.112ZM220.769 279.527L196.315 265.109L220.467 250.992L244.92 265.102L220.769 279.527Z" fill="#03336C"/>
<path d="M205.544 265.176L220.461 273.971L235.139 265.204L220.222 256.598L205.544 265.176ZM220.465 275.421L203.085 265.169L220.218 255.158L237.598 265.183L220.465 275.421Z" fill="#03336C"/>
<path d="M249.395 286.177C248.432 286.177 247.652 285.398 247.652 284.435V278.456C247.652 278.09 247.456 277.741 247.142 277.549L244.539 275.964C243.717 275.463 243.456 274.393 243.956 273.568C244.457 272.747 245.529 272.487 246.352 272.988L248.954 274.57C250.301 275.391 251.138 276.881 251.138 278.456V284.435C251.138 285.398 250.358 286.177 249.395 286.177Z" fill="#43C9C7"/>
<path d="M241.063 291.125C240.1 291.125 239.32 290.346 239.32 289.383V283.403C239.32 283.034 239.125 282.689 238.81 282.497L236.207 280.912C235.385 280.41 235.124 279.34 235.625 278.516C236.125 277.694 237.197 277.435 238.02 277.933L240.623 279.518C241.969 280.339 242.806 281.825 242.806 283.403V289.383C242.806 290.346 242.025 291.125 241.063 291.125Z" fill="#43C9C7"/>
<path d="M233.252 295.943C232.29 295.943 231.51 295.161 231.51 294.201V288.222C231.51 287.852 231.314 287.504 230.999 287.312L228.397 285.73C227.574 285.229 227.313 284.155 227.814 283.334C228.314 282.513 229.386 282.25 230.209 282.751L232.812 284.337C234.158 285.154 234.995 286.644 234.995 288.222V294.201C234.995 295.161 234.215 295.943 233.252 295.943Z" fill="#43C9C7"/>
<path d="M192.33 286.177C193.293 286.177 194.073 285.398 194.073 284.435V278.456C194.073 278.09 194.268 277.741 194.583 277.549L197.186 275.964C198.009 275.463 198.269 274.393 197.769 273.568C197.268 272.747 196.196 272.487 195.374 272.988L192.771 274.57C191.424 275.391 190.587 276.881 190.587 278.456V284.435C190.587 285.398 191.368 286.177 192.33 286.177Z" fill="#88FCAB"/>
<path d="M200.142 291.125C201.104 291.125 201.885 290.346 201.885 289.383V283.403C201.885 283.034 202.08 282.689 202.394 282.497L204.997 280.912C205.819 280.41 206.08 279.34 205.58 278.516C205.079 277.694 204.007 277.435 203.185 277.933L200.582 279.518C199.236 280.339 198.399 281.825 198.399 283.403V289.383C198.399 290.346 199.179 291.125 200.142 291.125Z" fill="#88FCAB"/>
<path d="M208.473 295.943C209.436 295.943 210.216 295.161 210.216 294.201V288.222C210.216 287.852 210.412 287.504 210.726 287.312L213.329 285.73C214.152 285.229 214.412 284.155 213.912 283.334C213.411 282.513 212.339 282.25 211.517 282.751L208.914 284.337C207.567 285.154 206.73 286.644 206.73 288.222V294.201C206.73 295.161 207.511 295.943 208.473 295.943Z" fill="#88FCAB"/>
<path d="M104.974 236.468L76.0269 219.398L94.36 208.683L104.974 214.943L108.027 213.12L126.31 223.724L104.974 236.468ZM129.851 221.609L111.568 211.005L115.22 208.822L133.551 219.398L129.851 221.609Z" fill="#C1EBFE"/>
<path d="M162.775 270.055L133.828 252.985L152.161 242.27L162.775 248.53L165.817 246.71L184.1 257.314L162.775 270.055ZM187.641 255.199L169.358 244.595L173.021 242.409L191.352 252.985L187.641 255.199Z" fill="#C1EBFE"/>
<path d="M307.044 118.935L306.713 118.743L306.711 113.631L307.76 114.241V115.366C307.76 116.329 308.543 117.109 309.506 117.109C310.185 117.109 310.771 116.72 311.059 116.154L311.383 116.342L307.044 118.935ZM314.924 114.227L311.248 112.094V109.387C311.248 109.245 311.241 109.103 311.226 108.963L317.59 112.634L314.924 114.227ZM307.76 110.072L307 109.63L307.746 109.201C307.757 109.262 307.76 109.324 307.76 109.387V110.072Z" fill="#C1EBFE"/>
<path d="M347.114 163.306L318.167 146.234L332.564 137.821L361.593 154.657L347.114 163.306ZM365.134 152.542L336.144 135.729L336.499 135.52L347.114 141.78L351.192 139.345L369.474 149.949L365.134 152.542ZM373.015 147.834L354.732 137.23L357.359 135.659L375.692 146.234L373.015 147.834Z" fill="#C1EBFE"/>
<path d="M147.468 69.3073C147.468 69.3073 149.082 68.4829 150.158 69.0897C151.233 69.6966 149.944 70.6805 149.944 70.6805C152.723 73.251 151.692 74.0381 151.692 74.0381C150.478 76.1888 149.402 75.582 149.402 75.582C147.941 75.2702 145.284 71.7907 145.284 71.7907L147.468 69.3073Z" fill="#FDABAD"/>
<path d="M148.522 68.7095L147.135 70.9501L145.994 72.7983L145.954 72.7766L145.906 72.7549L145.867 72.7329C144.459 72.0311 131.927 65.6975 130.022 64.6861C128.008 63.614 121.33 49.3465 121.33 49.3465L122.86 47.9562L124.285 46.6573L127.341 43.8717C130.454 48.1393 134.507 59.7736 134.507 59.7736L148.522 68.7095Z" fill="#FB5162"/>
<path d="M147.135 70.8983L145.994 72.7465L145.954 72.7248L145.906 72.7031L145.867 72.6811C144.459 71.9793 131.927 65.6456 130.022 64.6343C128.008 63.5621 121.33 49.2947 121.33 49.2947L122.86 47.9044L124.285 46.6055C127.477 61.7484 138.788 70.2314 147.135 70.8983Z" fill="#EB2E41"/>
<path d="M159.945 117.998C159.769 116.722 154.388 115.602 154.388 115.602L148.985 117.159C148.763 119.987 149.189 120.762 150.416 120.936C158.597 121.202 159.696 119.75 159.696 119.75C159.696 119.75 160.122 119.274 159.945 117.998Z" fill="#FB689C"/>
<path d="M138.076 97.9617L149.275 119.475C154.377 118.021 154.882 115.987 154.882 115.987L146.256 94.2302C145.213 91.5989 142.346 90.2953 139.992 91.3817C137.651 92.4617 136.776 95.4644 138.076 97.9617Z" fill="#03336C"/>
<path d="M125.966 77.4587C125.966 77.4587 141.329 88.1144 144.252 91.0379C147.176 93.9611 145.422 101.172 138.99 97.8593C132.559 94.5459 115.602 88.6992 115.602 88.6992L116.771 78.1743L125.966 77.4587Z" fill="#03336C"/>
<path d="M140.391 98.8626C140.367 99.661 140.219 100.365 139.974 100.983C138.59 104.545 134.178 105.281 132.81 105.425C132.552 105.453 132.405 105.457 132.405 105.457C119.019 100.697 112.142 96.5416 109.002 92.1371C106.931 89.235 106.489 86.2219 106.878 82.8572C107.062 81.2934 107.422 79.6518 107.885 77.912L116.465 76.1478L118.954 75.6362L119.232 77.9899L119.285 78.4606L119.948 84.085L120.124 85.5752L127.321 90.2908L137.706 97.1026L138.132 97.3809L138.136 97.3848H138.14L140.391 98.8626Z" fill="#074B94"/>
<path d="M143.961 129.678C144.335 128.446 139.919 125.174 139.919 125.174L134.361 124.325C132.975 126.799 133.037 127.681 134.077 128.353C141.395 132.023 143.002 131.165 143.002 131.165C143.002 131.165 143.587 130.91 143.961 129.678Z" fill="#FB689C"/>
<path d="M129.178 80.8263C127.868 81.9191 126.3 82.6845 124.606 83.2088C122.977 83.7122 121.233 83.9905 119.489 84.1174C118.273 84.2034 117.061 84.2159 115.891 84.1789C111.249 84.0314 107.261 83.0983 106.418 82.8892C106.312 82.8647 106.255 82.8487 106.255 82.8487C106.222 76.9825 104.83 57.8164 106.623 52.2943C106.844 51.6068 107.118 51.1319 107.446 50.9189C108.174 50.444 108.629 49.6296 109.423 49.1955L115.588 45.8266L119.477 43.7019L120.038 43.3951L121.47 42.613C121.527 42.5803 121.589 42.5515 121.65 42.5231C122.473 42.1139 123.39 41.9706 124.266 42.0894C124.957 42.1793 125.629 42.4292 126.218 42.8384C126.427 42.9816 126.628 43.1455 126.812 43.3297C127.086 43.6038 127.32 43.8864 127.512 44.1647C128.302 45.3026 128.462 46.367 128.462 46.367C128.462 46.367 128.581 51.2339 128.716 57.5793C128.863 64.2596 129.031 72.5819 129.101 78.5953C129.105 79.0208 129.108 79.4346 129.117 79.8356C129.117 80.0528 129.117 80.2611 129.121 80.4701V80.4826L129.178 80.8263Z" fill="#FF7F74"/>
<path d="M132.272 102.248L133.427 125.676C138.669 126.466 139.979 124.885 139.979 124.885L141.263 102.286C141.418 99.553 139.361 97.2466 136.768 97.2466C134.19 97.2466 132.138 99.5292 132.272 102.248Z" fill="#074B94"/>
<path d="M129.178 80.8844C127.868 81.9772 126.301 82.7429 124.606 83.2669C122.977 83.7702 121.233 84.0486 119.489 84.1755C118.273 84.2615 117.061 84.274 115.891 84.237C111.249 84.0895 107.261 83.1563 106.418 82.9476C106.312 82.9228 106.254 82.9064 106.254 82.9064C106.222 77.0405 104.83 57.8745 106.623 52.3524L107.028 52.324L112.612 51.9429C113.692 53.2408 114.581 54.5753 115.314 55.8934C118.752 62.0707 118.752 67.9078 118.752 67.9078C118.752 67.9078 125.158 74.6542 129.1 78.6534C129.105 79.0789 129.108 79.4923 129.117 79.8937C129.117 80.1109 129.117 80.3195 129.121 80.5282V80.5407L129.178 80.8844Z" fill="#FB5162"/>
<path d="M128.039 29.6517C128.039 29.6517 129.074 26.5451 127.004 24.4744V25.5099C127.004 25.5099 121.826 25.5099 120.791 27.5806V25.5099C120.791 25.5099 117.685 27.5806 117.685 30.6868L123.898 34.8286C129.074 33.7931 130.11 29.6517 130.11 29.6517H128.039Z" fill="#03284C"/>
<path d="M122.145 47.6295C122.145 47.6295 117.587 49.0202 115.602 46.8389V35.2795L117.707 37.4004L121.551 41.2883L122.031 46.4027L122.145 47.6295Z" fill="#FDABAD"/>
<path d="M122.009 46.3648C120.695 45.6669 118.4 43.5678 117.685 37.3624L121.529 41.2504L122.009 46.3648Z" fill="#F77F76"/>
<path d="M128.746 81.3641C128.746 81.3641 130.541 80.8952 131.482 81.7385C132.424 82.5817 130.919 83.2816 130.919 83.2816C133.131 86.4622 131.928 87.0224 131.928 87.0224C130.241 88.9051 129.3 88.0618 129.3 88.0618C127.907 87.4287 126.017 83.3659 126.017 83.3659L128.746 81.3641Z" fill="#FDABAD"/>
<path d="M129.737 80.9698L117.694 68.9526C117.694 68.9526 116.469 58.6808 114.623 53.0663C114.299 52.0816 113.659 51.2348 112.799 50.6571C111.355 49.6877 109.643 49.8399 108.41 50.697C107.39 51.4062 106.696 52.5974 106.753 54.035L106.799 55.1811C106.811 55.4832 106.85 55.7811 106.918 56.0762C107.508 58.6439 110.53 71.5135 112.129 72.8793C113.812 74.309 124.944 83.3949 126.197 84.4045L126.231 84.4354L126.274 84.4702L126.307 84.5012L129.737 80.9698Z" fill="#EB2E41"/>
<path d="M124.804 29.5514C124.804 29.5514 130.191 43.9056 124.087 44.1448C117.983 44.3837 114.561 37.9213 114.561 37.9213L117.156 31.6548L124.804 29.5514Z" fill="#FDABAD"/>
<path d="M115.361 29.6829C109.803 34.2427 115.798 39.431 115.798 39.431L117.194 38.966C118.689 38.0037 118.649 36.1673 118.649 36.1673C123.441 38.2497 124.531 33.9334 126.86 35.7165C128.356 29.5862 121.876 24.3378 115.361 29.6829Z" fill="#03284C"/>
<path d="M115.602 35.3284L117.783 39.6906C117.783 39.6906 119.964 39.1453 119.964 34.2382L115.602 35.3284Z" fill="#03284C"/>
<path d="M117.084 37.7174C117.953 38.552 118.158 39.7486 117.542 40.3895C116.926 41.0305 115.722 40.8733 114.854 40.0387C113.985 39.2036 113.779 38.0074 114.395 37.3661C115.011 36.7252 116.215 36.8823 117.084 37.7174Z" fill="#FDABAD"/>
<path d="M94.798 202.699L74.4646 191.229L270.128 78.2399L288.719 88.5618L286.968 91.7149L270.163 82.3845L81.74 191.192L96.5694 199.557L94.798 202.699Z" fill="#C6E4FA"/>
<path d="M109.887 201.903L91.1279 191.322L269.594 88.2639L286.599 97.7063L284.849 100.859L269.629 92.4082L98.4033 191.285L111.659 198.763L109.887 201.903Z" fill="#C6E4FA"/>
<path d="M90.6074 212.325L198.378 274.83L200.188 271.713L92.4168 209.204L90.6074 212.325Z" fill="#C6E4FA"/>
<path d="M97.1031 202.825L95.2937 205.945L203.065 268.45L204.874 265.333L97.1031 202.825Z" fill="#C6E4FA"/>
<path d="M281.716 108.177L389.488 170.684L391.298 167.564L283.525 105.057L281.716 108.177Z" fill="#C6E4FA"/>
<path d="M288.212 98.6786L286.402 101.798L394.174 164.305L395.983 161.185L288.212 98.6786Z" fill="#C6E4FA"/>
<path d="M289.006 108.199V120.241L317.952 103.54V91.1279L289.006 108.199Z" fill="#4390CD"/>
<path d="M260.366 91.1279V103.169L288.942 120.241V107.828L260.366 91.1279Z" fill="#79B7EB"/>
<path d="M260.366 91.0351L288.942 74.3344L317.888 91.0351L289.313 108.107L260.366 91.0351Z" fill="#CEE2F5"/>
<path d="M266.991 91.0576L288.981 104.026L310.677 91.064L288.687 78.3778L266.991 91.0576ZM288.985 105.473L264.532 91.0527L288.683 76.9381L313.137 91.0456L288.985 105.473Z" fill="#03336C"/>
<path d="M274.28 91.1212L289.197 99.9181L303.875 91.1497L288.958 82.5437L274.28 91.1212ZM289.201 101.366L271.822 91.1166L288.954 81.104L306.334 91.1312L289.201 101.366Z" fill="#03336C"/>
<path d="M317.611 112.254C316.648 112.254 315.869 111.474 315.869 110.511V104.532C315.869 104.164 315.674 103.817 315.357 103.625L312.755 102.041C311.934 101.54 311.671 100.468 312.172 99.6453C312.674 98.8235 313.747 98.5629 314.568 99.0631L317.17 100.647C318.518 101.467 319.353 102.956 319.353 104.532V110.511C319.353 111.474 318.575 112.254 317.611 112.254Z" fill="#43C9C7"/>
<path d="M309.801 117.071C308.838 117.071 308.056 116.291 308.056 115.328V109.349C308.056 108.981 307.86 108.633 307.547 108.442L304.944 106.857C304.122 106.357 303.861 105.285 304.362 104.462C304.862 103.64 305.934 103.379 306.757 103.88L309.36 105.464C310.704 106.284 311.543 107.772 311.543 109.349V115.328C311.543 116.291 310.761 117.071 309.801 117.071Z" fill="#43C9C7"/>
<path d="M301.468 121.888C300.506 121.888 299.725 121.108 299.725 120.145V114.166C299.725 113.798 299.53 113.45 299.215 113.259L296.612 111.675C295.79 111.174 295.529 110.102 296.03 109.28C296.53 108.457 297.602 108.196 298.425 108.697L301.028 110.282C302.374 111.101 303.211 112.59 303.211 114.166V120.145C303.211 121.108 302.43 121.888 301.468 121.888Z" fill="#43C9C7"/>
<path d="M261.067 112.254C262.029 112.254 262.81 111.474 262.81 110.511V104.532C262.81 104.164 263.005 103.817 263.32 103.625L265.923 102.041C266.745 101.54 267.006 100.468 266.505 99.6455C266.005 98.8236 264.932 98.563 264.11 99.0628L261.507 100.648C260.161 101.467 259.324 102.956 259.324 104.532V110.511C259.324 111.474 260.105 112.254 261.067 112.254Z" fill="#88FCAB"/>
<path d="M268.878 117.071C269.841 117.071 270.621 116.291 270.621 115.328V109.349C270.621 108.981 270.816 108.633 271.131 108.442L273.733 106.857C274.556 106.357 274.817 105.285 274.316 104.462C273.816 103.64 272.743 103.379 271.921 103.88L269.319 105.464C267.972 106.284 267.135 107.772 267.135 109.349V115.328C267.135 116.291 267.916 117.071 268.878 117.071Z" fill="#88FCAB"/>
<path d="M277.21 121.888C278.172 121.888 278.953 121.108 278.953 120.145V114.166C278.953 113.798 279.148 113.45 279.462 113.259L282.065 111.675C282.888 111.174 283.148 110.102 282.648 109.28C282.148 108.457 281.076 108.196 280.253 108.697L277.65 110.282C276.304 111.101 275.467 112.59 275.467 114.166V120.145C275.467 121.108 276.247 121.888 277.21 121.888Z" fill="#88FCAB"/>
<path d="M346.807 141.787V153.828L375.754 137.127V124.715L346.807 141.787Z" fill="#4390CD"/>
<path d="M318.167 124.715V136.756L346.744 153.828V141.416L318.167 124.715Z" fill="#79B7EB"/>
<path d="M318.167 124.622L346.745 107.922L375.692 124.622L347.114 141.693L318.167 124.622Z" fill="#CEE2F5"/>
<path d="M325.31 124.644L347.3 137.613L368.999 124.651L347.009 111.965L325.31 124.644ZM347.304 139.06L322.853 124.639L347.005 110.525L371.455 124.632L347.304 139.06Z" fill="#03336C"/>
<path d="M332.083 124.708L346.999 133.505L361.677 124.736L346.757 116.13L332.083 124.708ZM347.003 134.953L329.623 124.703L346.754 114.691L364.133 124.718L347.003 134.953Z" fill="#03336C"/>
<path d="M375.934 145.842C374.97 145.842 374.188 145.061 374.188 144.099V138.12C374.188 137.751 373.993 137.404 373.68 137.213L371.078 135.628C370.253 135.127 369.994 134.055 370.495 133.233C370.996 132.411 372.066 132.15 372.891 132.65L375.493 134.235C376.84 135.054 377.676 136.543 377.676 138.12V144.099C377.676 145.061 376.894 145.842 375.934 145.842Z" fill="#43C9C7"/>
<path d="M367.6 150.658C366.636 150.658 365.858 149.878 365.858 148.915V142.937C365.858 142.568 365.662 142.22 365.346 142.029L362.744 140.445C361.923 139.944 361.663 138.872 362.161 138.05C362.662 137.228 363.736 136.967 364.557 137.467L367.159 139.052C368.506 139.871 369.342 141.36 369.342 142.937V148.915C369.342 149.878 368.563 150.658 367.6 150.658Z" fill="#43C9C7"/>
<path d="M359.791 155.475C358.828 155.475 358.046 154.695 358.046 153.732V147.753C358.046 147.385 357.85 147.038 357.538 146.846L354.935 145.261C354.111 144.761 353.851 143.689 354.352 142.867C354.854 142.044 355.924 141.783 356.748 142.284L359.35 143.868C360.698 144.688 361.533 146.177 361.533 147.753V153.732C361.533 154.695 360.751 155.475 359.791 155.475Z" fill="#43C9C7"/>
<path d="M318.867 145.842C319.831 145.842 320.613 145.061 320.613 144.099V138.12C320.613 137.751 320.808 137.404 321.121 137.213L323.723 135.628C324.548 135.127 324.807 134.055 324.306 133.233C323.808 132.411 322.735 132.15 321.914 132.65L319.308 134.235C317.964 135.054 317.125 136.543 317.125 138.12V144.099C317.125 145.061 317.907 145.842 318.867 145.842Z" fill="#88FCAB"/>
<path d="M326.678 150.658C327.642 150.658 328.42 149.878 328.42 148.915V142.937C328.42 142.568 328.616 142.22 328.932 142.029L331.534 140.445C332.355 139.944 332.619 138.872 332.117 138.05C331.616 137.228 330.543 136.967 329.721 137.467L327.119 139.052C325.772 139.871 324.937 141.36 324.937 142.937V148.915C324.937 149.878 325.715 150.658 326.678 150.658Z" fill="#88FCAB"/>
<path d="M335.014 155.475C335.973 155.475 336.755 154.695 336.755 153.732V147.753C336.755 147.385 336.951 147.038 337.264 146.846L339.866 145.261C340.691 144.761 340.95 143.689 340.449 142.867C339.951 142.044 338.878 141.783 338.056 142.284L335.451 143.868C334.107 144.688 333.268 146.177 333.268 147.753V153.732C333.268 154.695 334.05 155.475 335.014 155.475Z" fill="#88FCAB"/>
<path d="M288.073 210.319L271.382 200.69L276.884 197.608L293.279 207.401L288.073 210.319ZM222.601 208.375L216.624 205.069L230.216 197.227L236.103 200.483L222.601 208.375Z" fill="#C1EBFE"/>
<path d="M216.526 205.034L211.417 202.208L224.766 194.233L230.117 197.192L216.526 205.034Z" fill="#59C8FF"/>
<path d="M211.708 202.197L193.712 192.243L207.659 184.599L225.057 194.222L211.708 202.197Z" fill="#E6F9FF"/>
<path d="M293.423 207.402L277.029 197.609L282.127 194.753L298.631 204.487L293.423 207.402Z" fill="#59C8FF"/>
<path d="M298.22 204.426L281.716 194.693L302.754 182.907L319.987 192.231L298.22 204.426Z" fill="#E6F9FF"/>
<path d="M257.047 227.562L222.353 208.373L235.855 200.482L253.794 210.403L271.134 200.688L287.824 210.318L257.047 227.562Z" fill="#E6F9FF"/>
<path d="M253.075 210.368V221.221L316.851 186.714V175.096L253.075 210.368Z" fill="#4390CD"/>
<path d="M190.067 175.096V185.947L253.026 221.221V209.6L190.067 175.096Z" fill="#79B7EB"/>
<path d="M190.067 175.103L253.026 140.597L316.802 175.103L253.844 210.375L190.067 175.103Z" fill="#CEE2F5"/>
<path d="M306.921 175.696L254.046 205.319L253.267 204.888L200.481 175.696L253.267 146.766L253.357 146.716L306.921 175.696Z" fill="#074B94"/>
<path d="M227.99 128.976L263.277 109.863C265.073 108.89 267.11 109.089 268.613 110.042C269.917 110.868 279.421 115.308 279.421 115.308L270.821 152.157C270.821 153.852 269.851 155.417 268.279 156.255L239.549 180.927C239.549 180.927 229.762 175.871 228.367 175.254C226.707 174.519 225.477 172.951 225.477 170.986V133.06C225.477 131.376 226.435 129.819 227.99 128.976Z" fill="#43C9C7"/>
<path d="M238.925 134.444L274.213 115.33C277.565 113.514 281.756 115.783 281.756 119.414V157.624C281.756 159.32 280.786 160.885 279.215 161.723L243.927 180.552C240.575 182.341 236.412 180.07 236.412 176.453V138.528C236.412 136.843 237.37 135.287 238.925 134.444Z" fill="#88FCAB"/>
<path d="M267.9 139.74C267.9 134.562 263.998 132.474 259.186 135.08C254.372 137.686 250.472 143.997 250.472 149.176C250.472 152.972 252.568 155.104 255.582 154.947V162.808C255.582 163.706 256.106 164.432 256.834 164.817C257.562 165.202 258.495 165.246 259.315 164.781L261.455 163.566C262.191 163.148 262.641 162.4 262.641 161.593V151.195C265.734 148.08 267.9 143.598 267.9 139.74Z" fill="#074B94"/>
<path d="M238.042 130.959C236.279 130.959 234.85 129.619 234.85 127.966V115.947C234.85 110.607 237.921 105.644 242.865 102.994L255.061 96.2751C258.163 94.6118 261.824 94.6232 264.883 96.2876C267.943 97.9527 269.77 100.927 269.77 104.245V112.615C269.77 114.268 268.341 115.608 266.578 115.608C264.814 115.608 263.385 114.268 263.385 112.615V104.245C263.385 102.575 262.192 101.745 261.679 101.467C261.166 101.188 259.806 100.628 258.262 101.456L246.066 108.174C243.073 109.779 241.234 112.75 241.234 115.947V127.966C241.234 129.619 239.805 130.959 238.042 130.959Z" fill="#074B94"/>
<path d="M297.467 164.694L291.523 161.478L302.925 154.9V148.488L281.716 136.252V125.422L289.014 129.725L303.502 121.07L306.714 122.932L306.729 159.281L297.467 164.694Z" fill="#C0DCF4"/>
<path d="M291.829 161.398L286.402 158.462L303.231 148.408V154.82L291.829 161.398Z" fill="#AAD1F5"/>
<path d="M286.096 158.461L281.716 156.091V136.171L302.925 148.407L286.096 158.461Z" fill="#C8E0F5"/>
<path d="M254.117 114.937V103.935L258.47 101.537C259.071 101.215 259.645 101.103 260.151 101.103C260.229 101.103 260.306 101.105 260.38 101.11V101.474C259.634 102.301 259.2 103.391 259.2 104.527V110.506C259.2 111.043 259.444 111.524 259.827 111.844L254.117 114.937ZM262.686 110.295V104.522L263.593 105.064V109.804C263.576 109.813 263.559 109.823 263.542 109.832L262.686 110.295ZM254.117 96.991V91.6747L270.064 82.4658L272.677 83.9166L260.38 91.1031V93.7287L257.233 95.5456C256.562 95.7457 255.904 96.0162 255.269 96.3564L254.117 96.991ZM254.117 87.5098V86.0548L254.325 86.1693L274.287 74.9854V80.6856L270.029 78.3212L254.117 87.5098Z" fill="#C0DCF4"/>
<path d="M306.908 73.9211L304.332 72.4362V60.5285H299.941L306.901 56.6295L306.908 73.9211Z" fill="#022D68"/>
<path d="M306.688 84.7347L304.107 83.2459V72.3816L306.683 73.8665L306.688 84.7347Z" fill="#C0DCF4"/>
<path d="M307.125 169.64L297.858 164.626L307.121 159.214L307.125 169.64Z" fill="#C8E0F5"/>
<path d="M289.347 129.666L282.049 125.363V119.38C282.049 117.622 281.067 116.184 279.673 115.374L279.704 115.243C279.704 115.243 279.385 115.093 278.855 114.845V114.203C278.855 114.181 278.855 114.159 278.857 114.136L288.976 120.182L295.709 116.297L300.019 118.797V120.182C300.019 121.144 300.799 121.924 301.762 121.924C302.521 121.924 303.167 121.439 303.406 120.762L303.835 121.011L289.347 129.666ZM307.045 118.703L303.505 116.65V114.203C303.505 113.462 303.32 112.741 302.985 112.099L303.729 111.67L307.043 113.592L307.045 118.703ZM300.019 114.628L299.312 114.218L299.956 113.846C299.997 113.959 300.019 114.08 300.019 114.203V114.628ZM275.473 113.245C273.861 112.477 272.097 111.629 270.78 110.971V109.347C270.78 109.336 270.78 109.324 270.781 109.312L275.789 112.304C275.65 112.604 275.543 112.92 275.473 113.245ZM288.976 108.14V107.922L289.161 108.031L288.976 108.14Z" fill="#9CD0F4"/>
<path d="M254.117 91.5933V87.4285L270.029 78.2399L274.287 80.6042V82.8942L272.677 83.8352L270.064 82.3845L254.117 91.5933Z" fill="#62A2E2"/>
<path d="M257.241 95.5486L260.388 93.7317V95.1199C260.32 95.1185 260.253 95.1177 260.186 95.1177C259.196 95.1177 258.205 95.2614 257.241 95.5486Z" fill="#62A2E2"/>
<path d="M307.113 122.825L303.902 120.963L303.472 120.714C303.536 120.532 303.571 120.337 303.571 120.134V116.602L307.111 118.656L307.113 122.825ZM300.085 118.749L295.775 116.249L299.378 114.17L300.085 114.58V118.749Z" fill="#62A2E2"/>
<path d="M306.9 113.577L303.586 111.655L306.898 109.744L306.9 113.577Z" fill="#62A2E2"/>
<path d="M289.006 120.246V108.205L289.191 108.096L289.377 108.205L307.066 97.6372L307.069 104.092L306.823 103.943C306.54 103.77 306.227 103.688 305.919 103.688C305.33 103.688 304.756 103.986 304.428 104.525C303.928 105.347 304.188 106.419 305.011 106.92L307.07 108.174L307.071 109.824L303.759 111.734L303.015 112.164C302.636 111.44 302.065 110.817 301.351 110.382L298.748 108.798C298.465 108.625 298.152 108.543 297.843 108.543C297.255 108.543 296.681 108.841 296.353 109.381C295.853 110.203 296.114 111.275 296.936 111.776L299.539 113.36C299.749 113.488 299.905 113.685 299.986 113.911L299.342 114.283L295.739 116.362L289.006 120.246Z" fill="#3680C5"/>
<path d="M288.942 120.241L278.823 114.196C278.845 113.852 279.036 113.535 279.331 113.355L281.934 111.77C282.756 111.27 283.017 110.197 282.516 109.375C282.189 108.836 281.615 108.538 281.026 108.538C280.717 108.538 280.404 108.62 280.122 108.792L277.518 110.377C276.738 110.852 276.129 111.552 275.755 112.363L270.747 109.371C270.759 109.016 270.952 108.684 271.256 108.499L273.859 106.915C274.681 106.414 274.942 105.342 274.442 104.52C274.113 103.981 273.539 103.683 272.951 103.683C272.642 103.683 272.33 103.765 272.047 103.937L269.963 105.206V104.351C269.963 101.033 268.136 98.0588 265.077 96.3937C263.603 95.5918 261.989 95.1737 260.366 95.1417V91.1279L288.942 107.981V120.241ZM263.579 105.089L262.671 104.547C262.673 104.18 262.868 103.835 263.181 103.644L263.458 103.476C263.534 103.737 263.579 104.029 263.579 104.351V105.089ZM260.366 101.499V101.135C260.478 101.143 260.588 101.155 260.692 101.172C260.577 101.276 260.468 101.384 260.366 101.499Z" fill="#62A2E2"/>
<path d="M289.313 108.125L289.128 108.016L288.942 107.907L260.366 91.0539L272.663 83.8674L274.273 82.9264V85.5669L264.825 91.0883L289.278 105.509L307.002 94.9215L307.003 97.5578L289.313 108.125ZM289.275 104.061L267.285 91.0933L274.273 87.0091V89.7123L271.871 91.1157L289.251 101.365L306.384 91.1303L304.416 89.9952V87.3184L306.999 88.8083L307.001 93.4715L289.275 104.061ZM289.247 99.9172L274.33 91.1203L274.468 91.0396L289.248 99.8752L291.341 98.6662L289.247 99.9172ZM306.998 87.3707L304.416 85.8812V83.2808L306.997 84.7696L306.998 87.3707Z" fill="#A6C8EB"/>
<path d="M288.985 105.472L264.532 91.0516L273.979 85.5302V86.9724L266.991 91.0565L288.981 104.025L306.707 93.4347L306.708 94.8848L288.985 105.472ZM306.705 88.7715L304.123 87.2816V85.8444L306.705 87.3339L306.705 88.7715Z" fill="#022D68"/>
<path d="M289.201 101.349L271.822 91.0994L274.223 89.6959V90.9064L274.418 91.0233L274.28 91.104L289.197 99.9009L291.291 98.6499L304.367 91.1012V89.9789L306.334 91.114L289.201 101.349Z" fill="#022D68"/>
<path d="M307.004 108.111L304.944 106.857C304.122 106.357 303.861 105.285 304.362 104.462C304.69 103.924 305.263 103.626 305.852 103.626C306.161 103.626 306.473 103.708 306.757 103.88L307.002 104.029L307.004 108.111Z" fill="#36B2BF"/>
<path d="M301.468 121.888C300.506 121.888 299.725 121.108 299.725 120.145V114.166C299.725 114.044 299.703 113.923 299.663 113.81C299.582 113.584 299.425 113.387 299.215 113.259L296.612 111.675C295.79 111.174 295.529 110.102 296.03 109.28C296.358 108.74 296.932 108.442 297.52 108.442C297.829 108.442 298.142 108.524 298.425 108.697L301.028 110.282C301.742 110.716 302.312 111.339 302.691 112.063C303.026 112.705 303.211 113.426 303.211 114.166V120.145C303.211 120.349 303.176 120.544 303.112 120.725C302.873 121.403 302.227 121.888 301.468 121.888Z" fill="#36B2BF"/>
<path d="M259.951 111.849C259.567 111.529 259.324 111.048 259.324 110.51V104.531C259.324 103.396 259.758 102.306 260.504 101.478C260.607 101.364 260.716 101.255 260.83 101.152C261.36 101.237 261.775 101.424 262.011 101.553C262.425 101.778 263.282 102.361 263.597 103.456L263.32 103.624C263.006 103.815 262.812 104.16 262.81 104.527V110.3L259.951 111.849Z" fill="#80E2E9"/>
<path d="M270.522 110.973C270.238 110.831 269.975 110.698 269.739 110.577V105.149L271.822 103.88C272.105 103.708 272.418 103.626 272.727 103.626C273.315 103.626 273.889 103.924 274.217 104.462C274.718 105.285 274.457 106.357 273.635 106.857L271.032 108.442C270.727 108.627 270.535 108.959 270.523 109.314C270.522 109.325 270.522 109.338 270.522 109.349V110.973Z" fill="#80E2E9"/>
<path d="M278.849 114.808C278.065 114.44 276.819 113.853 275.467 113.209C275.538 112.884 275.644 112.568 275.783 112.267C276.157 111.456 276.766 110.756 277.546 110.282L280.149 108.697C280.432 108.524 280.745 108.442 281.054 108.442C281.642 108.442 282.216 108.74 282.544 109.28C283.045 110.102 282.784 111.174 281.961 111.675L279.359 113.259C279.063 113.439 278.873 113.757 278.851 114.1C278.85 114.122 278.849 114.144 278.849 114.166V114.808Z" fill="#80E2E9"/>
<path d="M254.44 205.348L254.117 205.171L254.198 205.128L254.465 205.274L307.165 175.749L307.166 175.81L254.44 205.348ZM307.165 175.556L280.446 161.101C281.514 160.216 282.145 158.933 282.145 157.567V156.089L286.526 158.459L291.952 161.395L297.896 164.611L307.163 169.625L307.165 175.556Z" fill="#A6C8EB"/>
<path d="M254.384 205.339L254.117 205.194L254.151 205.172V175.269L279.523 161.731C279.827 161.568 280.109 161.379 280.365 161.166L307.084 175.622V175.815L254.384 205.339Z" fill="#06428E"/>
<path d="M254.117 126.304V114.877L259.827 111.784L262.686 110.235L263.542 109.772C263.559 109.762 263.576 109.753 263.593 109.744V112.636C263.593 114.289 265.022 115.629 266.785 115.629C268.548 115.629 269.977 114.289 269.977 112.636V110.549C270.213 110.67 270.477 110.803 270.761 110.945C272.078 111.603 273.841 112.452 275.454 113.219C276.806 113.863 278.051 114.45 278.836 114.819C279.366 115.068 279.685 115.217 279.685 115.217L279.654 115.348C278.865 114.889 277.944 114.631 276.994 114.631C276.157 114.631 275.298 114.831 274.487 115.271L254.117 126.304Z" fill="#77CC91"/>
<path d="M254.117 175.261V154.782C254.552 154.906 255.019 154.97 255.513 154.97C255.614 154.97 255.717 154.967 255.82 154.962V162.823C255.82 163.721 256.344 164.447 257.072 164.832C257.438 165.025 257.856 165.133 258.285 165.133C258.709 165.133 259.145 165.027 259.553 164.796L261.693 163.581C262.43 163.163 262.879 162.415 262.879 161.608V151.21C265.972 148.095 268.139 143.612 268.139 139.755C268.139 136.09 266.183 133.973 263.335 133.973C262.159 133.973 260.831 134.333 259.425 135.095C257.427 136.176 255.587 137.896 254.117 139.907V126.364L274.487 115.331C275.297 114.892 276.157 114.691 276.994 114.691C277.944 114.691 278.865 114.949 279.654 115.408C281.048 116.218 282.03 117.656 282.03 119.414V157.624C282.03 158.991 281.399 160.274 280.331 161.159C280.074 161.371 279.793 161.561 279.489 161.723L254.117 175.261Z" fill="#A4E9B9"/>
<path d="M258.285 165.118C257.856 165.118 257.438 165.011 257.072 164.817C256.344 164.432 255.82 163.706 255.82 162.808V154.947C255.717 154.952 255.614 154.955 255.513 154.955C255.019 154.955 254.552 154.892 254.117 154.767V139.893C255.587 137.881 257.427 136.161 259.425 135.08C260.831 134.319 262.159 133.958 263.335 133.958C266.183 133.958 268.139 136.075 268.139 139.74C268.139 143.597 265.972 148.08 262.879 151.195V161.593C262.879 162.4 262.43 163.148 261.693 163.566L259.553 164.781C259.145 165.013 258.709 165.118 258.285 165.118Z" fill="#06428E"/>
<path d="M266.785 115.608C265.022 115.608 263.593 114.268 263.593 112.615V104.245C263.593 103.922 263.549 103.631 263.473 103.37C263.158 102.275 262.301 101.692 261.887 101.467C261.651 101.338 261.236 101.151 260.706 101.066C260.602 101.049 260.493 101.037 260.38 101.029C260.306 101.024 260.229 101.021 260.151 101.021C259.645 101.021 259.071 101.133 258.47 101.456L254.117 103.853V96.9097L255.269 96.2752C255.904 95.935 256.562 95.6644 257.233 95.4643C258.197 95.1771 259.189 95.0334 260.178 95.0334C260.246 95.0334 260.313 95.0342 260.38 95.0356C262.004 95.0676 263.617 95.4856 265.091 96.2876C268.15 97.9527 269.977 100.927 269.977 104.245V112.615C269.977 114.268 268.548 115.608 266.785 115.608Z" fill="#06428E"/>
<path d="M253.596 86.0497V85.9208L253.713 85.9852L253.596 86.0497Z" fill="#C0DCF4"/>
<path d="M209.694 164.518L201.002 159.504L201.014 132.209L235.634 112.218C235.284 113.45 235.101 114.733 235.101 116.038V125.27L228.297 128.955C226.742 129.798 225.784 131.354 225.784 133.038V135.257L203.169 148.473V154.239L215.265 161.465L209.694 164.518Z" fill="#DFEFFB"/>
<path d="M215.181 161.4L203.085 154.174V148.408L220.33 158.579L215.181 161.4Z" fill="#C5E3FC"/>
<path d="M220.33 158.646L203.085 148.476L225.7 135.26V155.703L220.33 158.646Z" fill="#E8F3FC"/>
<path d="M201.002 128.005L201.005 122.333L253.915 91.7789V97.0892L243.103 103.046C241.669 103.814 240.393 104.777 239.304 105.887L201.002 128.005ZM241.472 121.773V115.999C241.472 112.802 243.31 109.83 246.303 108.226L253.915 104.033V115.033L241.472 121.773Z" fill="#DFEFFB"/>
<path d="M216.104 97.766V65.2217L244.896 81.3526L216.104 97.766Z" fill="#03316B"/>
<path d="M201.002 106.435L201.024 56.6295L216.285 65.179V97.7233L201.002 106.435Z" fill="#3F8BCA"/>
<path d="M201.002 118.222L201.007 106.49L216.29 97.7779L245.082 81.3644L253.704 86.1944L253.911 86.0803V87.6686L201.002 118.222Z" fill="#DFEFFB"/>
<path d="M201.002 169.254L201.006 159.474L209.698 164.488L201.002 169.254Z" fill="#E8F3FC"/>
<path d="M201.002 122.332L201.004 118.166L253.913 87.6132V91.778L201.002 122.332Z" fill="#71B0E8"/>
<path d="M201.002 132.121L201.004 127.956L239.305 105.839C237.556 107.621 236.288 109.783 235.622 112.13L201.002 132.121Z" fill="#71B0E8"/>
<path d="M253.728 205.415L201.002 175.876V175.81L253.621 204.91L253.936 205.084V205.173L254.051 205.237L253.728 205.415ZM201.002 175.626L201.005 169.283L209.701 164.517L215.272 161.464L220.421 158.642L225.791 155.699V162.04L201.002 175.626Z" fill="#C1D9F2"/>
<path d="M253.936 204.991L253.621 204.817L201.002 175.717V175.533L225.791 161.947V170.87C225.791 172.836 227.021 174.404 228.681 175.138C230.076 175.756 239.863 180.812 239.863 180.812L239.924 180.759C240.506 180.975 241.132 181.092 241.771 181.092C242.599 181.092 243.448 180.896 244.251 180.467L253.936 175.3V204.991Z" fill="#074892"/>
<path d="M239.549 180.916C239.549 180.916 229.762 175.86 228.367 175.243C226.707 174.508 225.477 172.94 225.477 170.975V133.049C225.477 131.364 226.435 129.808 227.99 128.965L234.793 125.28V128.066C234.793 129.72 236.223 131.06 237.986 131.06C239.749 131.06 241.178 129.72 241.178 128.066V121.822L253.621 115.082V126.509L238.935 134.464C237.38 135.307 236.422 136.863 236.422 138.548V176.473C236.422 178.555 237.801 180.19 239.61 180.863L239.549 180.916Z" fill="#94DDAA"/>
<path d="M241.448 181.094C240.808 181.094 240.182 180.977 239.6 180.761C237.791 180.088 236.412 178.453 236.412 176.371V138.446C236.412 136.761 237.37 135.205 238.925 134.362L253.612 126.408V140.149C251.672 142.919 250.436 146.193 250.436 149.109C250.436 152.024 251.672 153.958 253.612 154.627V175.303L243.927 180.47C243.124 180.898 242.275 181.094 241.448 181.094Z" fill="#88FCAB"/>
<path d="M253.647 154.685C251.708 154.015 250.472 152.082 250.472 149.166C250.472 146.251 251.708 142.977 253.647 140.207V154.685Z" fill="#074892"/>
<path d="M238.042 131.038C236.279 131.038 234.85 129.698 234.85 128.045V116.027C234.85 114.721 235.033 113.438 235.383 112.206C236.049 109.86 237.317 107.697 239.066 105.915C240.155 104.805 241.432 103.842 242.865 103.073L253.678 97.1165V104.06L246.066 108.253C243.073 109.858 241.234 112.829 241.234 116.027V128.045C241.234 129.698 239.805 131.038 238.042 131.038Z" fill="#074892"/>
<path d="M254.233 86.0493L254.117 85.9852L254.233 85.9208V86.0493Z" fill="#DFEFFB"/>
<path d="M253.713 205.192L253.596 205.127V205.038L253.794 205.149L253.713 205.192Z" fill="#9BC0E8"/>
<path d="M253.793 205.151L253.596 205.041V175.35L253.828 175.226V205.13L253.793 205.151Z" fill="#063F8C"/>
<path d="M253.596 115.013V104.013L253.828 103.886V114.888L253.596 115.013Z" fill="#B4D4F1"/>
<path d="M253.596 126.504V115.077L253.828 114.951V126.379L253.596 126.504Z" fill="#33ABBD"/>
<path d="M253.596 97.0482V91.7379L253.828 91.6043V96.9206L253.596 97.0482ZM253.596 87.5731V85.9848L253.712 85.9208L253.828 85.9844V87.4394L253.596 87.5731Z" fill="#B4D4F1"/>
<path d="M253.596 91.7814V87.6166L253.828 87.4829V91.6478L253.596 91.7814Z" fill="#5C9CDF"/>
<path d="M253.596 175.298V154.622C253.672 154.649 253.749 154.673 253.828 154.695V175.175L253.596 175.298ZM253.596 140.145V126.403L253.828 126.277V139.821C253.749 139.928 253.672 140.036 253.596 140.145Z" fill="#78D9E6"/>
<path d="M253.828 154.691C253.749 154.669 253.672 154.644 253.596 154.618V140.14C253.672 140.031 253.749 139.924 253.828 139.816V154.691Z" fill="#063F8C"/>
<path d="M253.596 104.057V97.1137L253.828 96.9861V103.93L253.596 104.057Z" fill="#063F8C"/>
<path d="M253.596 95.547V106.398L317.375 71.8923V60.2747L253.596 95.547Z" fill="#B8D8EC"/>
<path d="M190.587 60.2747V71.1255L253.546 106.398V94.7806L190.587 60.2747Z" fill="#B8D8EC"/>
<path d="M190.587 60.2824L253.546 25.7761L317.325 60.2824L254.364 95.5548L190.587 60.2824Z" fill="#EEF8FE"/>
<path d="M303.544 163.112C303.544 163.112 299.869 158.978 297.572 158.059C295.276 157.14 298.95 160.815 298.95 160.815C295.735 164.49 298.95 165.869 302.625 164.95C306.3 164.031 303.544 163.112 303.544 163.112Z" fill="#FDABAD"/>
<path d="M338.195 173.554C339.948 173.379 341.483 174.265 341.953 178.971C342.425 183.677 342.28 191.86 342.28 191.86L339.091 206.587L335.572 206.118L337.068 191.194L335.412 179.477C335.412 179.477 334.694 173.905 338.195 173.554Z" fill="#042D56"/>
<path d="M330.286 245.923C330.605 244.803 335.568 244.483 335.568 244.483L340.207 246.563C340.047 249.122 339.567 249.762 338.447 249.762C331.085 248.963 330.286 247.523 330.286 247.523C330.286 247.523 329.966 247.043 330.286 245.923Z" fill="#042D56"/>
<path d="M329.623 207.1L332.502 228.375L334.905 245.656C334.905 245.656 336.025 246.935 340.504 246.296L339.384 226.936L339.907 203.736L329.623 207.1Z" fill="#FB5162"/>
<path d="M319.35 251.13C319.67 250.011 324.629 249.691 324.629 249.691L329.268 251.77C329.109 254.33 328.629 254.97 327.509 254.97C320.15 254.17 319.35 252.73 319.35 252.73C319.35 252.73 319.031 252.25 319.35 251.13Z" fill="#042D56"/>
<path d="M323.653 209.725L322.853 229.561L323.653 251.48C323.653 251.48 324.773 252.76 329.252 252.12L330.219 233.24L335.42 204.257L323.653 209.725Z" fill="#FF7E74"/>
<path d="M338.63 211.583C336.348 213.574 332.188 214.356 325.192 211.274C323.266 212.234 322.853 211.231 322.853 211.231V182.307C322.853 181.238 323.198 180.22 323.813 179.39C324.229 178.824 324.769 178.345 325.406 177.996L335.128 172.685C335.832 172.3 336.625 172.163 337.386 172.264C338.143 172.362 338.868 172.699 339.44 173.265C340.571 174.382 340.77 175.715 340.77 175.715L340.13 195.232L340.77 204.513C341.349 206.212 340.983 209.536 338.63 211.583Z" fill="#03336C"/>
<path d="M325.05 162.338C325.05 162.338 323.93 174.657 328.729 173.537C333.528 172.417 334.808 166.658 334.808 166.658L331.448 162.338H325.05Z" fill="#FDABAD"/>
<path d="M330.102 170.67L329.623 175.789C329.623 175.789 333.302 176.909 334.905 175.15V170.67H330.102Z" fill="#FDABAD"/>
<path d="M327.894 166.961C325.814 166.481 326.614 164.561 326.614 164.561C326.614 164.561 323.895 163.441 323.895 161.201C323.895 158.961 325.974 157.521 325.974 157.521L327.094 158.321C327.094 158.321 333.333 157.841 335.253 161.521C337.172 165.201 334.613 171.761 334.613 171.761H331.9L329.494 167.921L327.894 166.961Z" fill="#03336C"/>
<path d="M327.019 167.661C327.019 168.659 327.83 169.469 328.828 169.469C329.827 169.469 330.638 168.659 330.638 167.661C330.638 166.662 329.827 165.853 328.828 165.853C327.83 165.853 327.019 166.662 327.019 167.661Z" fill="#FDABAD"/>
<path d="M333.372 213.389C331.221 213.389 328.53 212.798 325.192 211.33C324.567 211.64 324.101 211.746 323.76 211.746C323.042 211.746 322.853 211.288 322.853 211.288V182.615L329.284 180.043C331.691 188.466 323.507 195.926 323.749 203.868C323.895 208.671 328.349 213.122 333.553 213.122C335.21 213.122 336.938 212.67 338.63 211.64C337.435 212.681 335.729 213.389 333.372 213.389Z" fill="#02285B"/>
<path d="M330.839 157.893C329.876 155.487 328.191 157.412 328.191 157.412C325.315 153.92 322.795 156.39 324.213 159.283C323.467 159.215 322.827 159.988 324.099 161.263L335.411 162.947C334.931 157.893 330.839 157.893 330.839 157.893Z" fill="#03336C"/>
<path d="M316.816 171.138C340.278 178.864 333.126 180.295 329.976 184.3C327.726 187.164 313.094 176.861 313.094 176.861L300.983 165.265L303.78 162.468L316.816 171.138Z" fill="#03336C"/>
<path d="M404.915 196.893L375.968 179.822L394.3 169.108L404.915 175.367L415.16 169.247L433.493 179.822L404.915 196.893Z" fill="#C1EBFE"/>
<path d="M404.608 175.374V187.415L433.559 170.715V158.302L404.608 175.374Z" fill="#4390CD"/>
<path d="M375.968 158.302V170.344L404.542 187.415V175.003L375.968 158.302Z" fill="#79B7EB"/>
<path d="M375.968 158.21L404.542 141.509L433.493 158.21L404.915 175.281L375.968 158.21Z" fill="#CEE2F5"/>
<path d="M383.114 158.231L405.105 171.2L426.8 158.238L404.81 145.552L383.114 158.231ZM405.108 172.647L380.655 158.227L404.806 144.112L429.26 158.22L405.108 172.647Z" fill="#03336C"/>
<path d="M389.884 158.296L404.8 167.093L419.478 158.324L404.562 149.718L389.884 158.296ZM404.804 168.54L387.424 158.291L404.559 148.278L421.938 158.306L404.804 168.54Z" fill="#03336C"/>
<path d="M433.733 179.428C432.769 179.428 431.991 178.648 431.991 177.685V171.707C431.991 171.338 431.795 170.991 431.483 170.799L428.877 169.215C428.056 168.714 427.796 167.642 428.294 166.82C428.795 165.998 429.869 165.737 430.69 166.237L433.292 167.821C434.639 168.641 435.478 170.13 435.478 171.707V177.685C435.478 178.648 434.696 179.428 433.733 179.428Z" fill="#43C9C7"/>
<path d="M425.403 184.245C424.439 184.245 423.657 183.465 423.657 182.502V176.524C423.657 176.155 423.465 175.808 423.149 175.616L420.547 174.032C419.726 173.531 419.463 172.459 419.964 171.637C420.465 170.815 421.535 170.554 422.36 171.054L424.962 172.638C426.309 173.458 427.145 174.947 427.145 176.524V182.502C427.145 183.465 426.366 184.245 425.403 184.245Z" fill="#43C9C7"/>
<path d="M417.59 189.062C416.627 189.062 415.848 188.282 415.848 187.32V181.341C415.848 180.972 415.653 180.625 415.34 180.433L412.734 178.849C411.913 178.348 411.654 177.276 412.151 176.454C412.652 175.632 413.726 175.37 414.547 175.871L417.149 177.456C418.497 178.275 419.336 179.764 419.336 181.341V187.32C419.336 188.282 418.553 189.062 417.59 189.062Z" fill="#43C9C7"/>
<path d="M376.668 179.428C377.632 179.428 378.41 178.648 378.41 177.685V171.707C378.41 171.338 378.606 170.991 378.922 170.799L381.524 169.215C382.345 168.714 382.609 167.642 382.107 166.82C381.606 165.998 380.533 165.737 379.711 166.237L377.109 167.821C375.762 168.641 374.927 170.13 374.927 171.707V177.685C374.927 178.648 375.705 179.428 376.668 179.428Z" fill="#88FCAB"/>
<path d="M385.003 184.245C385.963 184.245 386.745 183.465 386.745 182.502V176.524C386.745 176.155 386.941 175.808 387.253 175.616L389.856 174.032C390.68 173.531 390.94 172.459 390.439 171.637C389.941 170.815 388.867 170.554 388.046 171.054L385.444 172.638C384.097 173.458 383.258 174.947 383.258 176.524V182.502C383.258 183.465 384.04 184.245 385.003 184.245Z" fill="#88FCAB"/>
<path d="M392.811 189.062C393.775 189.062 394.553 188.282 394.553 187.32V181.341C394.553 180.972 394.749 180.625 395.065 180.433L397.667 178.849C398.488 178.348 398.751 177.276 398.25 176.454C397.749 175.632 396.679 175.37 395.854 175.871L393.252 177.456C391.905 178.275 391.069 179.764 391.069 181.341V187.32C391.069 188.282 391.848 189.062 392.811 189.062Z" fill="#88FCAB"/>
<path fill-rule="evenodd" clip-rule="evenodd" d="M404.805 167.008L390.028 158.172L404.805 167.007L406.913 165.79L406.902 165.798L404.805 167.008Z" fill="url(#paint0_linear_3:3490)"/>
<path fill-rule="evenodd" clip-rule="evenodd" d="M407.098 165.824L407.108 165.816L420.169 158.275V158.276L407.098 165.824ZM390.223 158.198L390.027 158.081V156.87V158.081L390.223 158.198Z" fill="url(#paint1_linear_3:3490)"/>
<path d="M104.667 214.949V226.99L133.614 210.289V197.878L104.667 214.949Z" fill="#4390CD"/>
<path d="M76.0269 197.878V209.919L104.603 226.99V214.58L76.0269 197.878Z" fill="#79B7EB"/>
<path d="M76.0269 197.915L104.603 181.214L133.551 197.915L104.974 214.986L76.0269 197.915Z" fill="#CEE2F5"/>
<path d="M82.6519 197.937L104.642 210.906L126.338 197.944L104.348 185.257L82.6519 197.937ZM104.646 212.353L80.1926 197.932L104.344 183.818L128.797 197.925L104.646 212.353Z" fill="#03336C"/>
<path d="M89.9422 198.001L104.859 206.798L119.537 198.029L104.62 189.423L89.9422 198.001ZM104.863 208.244L87.4829 197.996L104.616 187.984L121.996 198.011L104.863 208.244Z" fill="#03336C"/>
<path d="M133.272 219.004C132.309 219.004 131.529 218.222 131.529 217.262V211.282C131.529 210.913 131.334 210.564 131.019 210.376L128.416 208.79C127.594 208.289 127.333 207.216 127.833 206.394C128.334 205.573 129.406 205.314 130.228 205.811L132.831 207.397C134.178 208.215 135.015 209.704 135.015 211.282V217.262C135.015 218.222 134.235 219.004 133.272 219.004Z" fill="#43C9C7"/>
<path d="M125.461 223.952C124.498 223.952 123.718 223.17 123.718 222.21V216.231C123.718 215.861 123.523 215.513 123.208 215.321L120.605 213.739C119.783 213.238 119.522 212.164 120.023 211.343C120.523 210.522 121.595 210.259 122.418 210.76L125.02 212.345C126.367 213.163 127.204 214.653 127.204 216.231V222.21C127.204 223.17 126.423 223.952 125.461 223.952Z" fill="#43C9C7"/>
<path d="M117.129 228.77C116.167 228.77 115.387 227.988 115.387 227.024V221.045C115.387 220.679 115.191 220.33 114.877 220.139L112.274 218.557C111.452 218.055 111.191 216.982 111.691 216.161C112.191 215.336 113.263 215.076 114.086 215.578L116.689 217.163C118.036 217.981 118.872 219.47 118.872 221.045V227.024C118.872 227.988 118.092 228.77 117.129 228.77Z" fill="#43C9C7"/>
<path d="M76.2075 219.004C77.1702 219.004 77.9505 218.222 77.9505 217.262V211.282C77.9505 210.913 78.1457 210.564 78.4603 210.376L81.0631 208.79C81.8857 208.289 82.1459 207.216 81.6458 206.394C81.1452 205.573 80.0731 205.314 79.2509 205.811L76.648 207.397C75.3014 208.215 74.4646 209.704 74.4646 211.282V217.262C74.4646 218.222 75.2449 219.004 76.2075 219.004Z" fill="#88FCAB"/>
<path d="M84.5393 223.952C85.502 223.952 86.2823 223.17 86.2823 222.21V216.231C86.2823 215.861 86.4774 215.513 86.7924 215.321L89.3949 213.739C90.2172 213.238 90.4777 212.164 89.9776 211.343C89.4767 210.522 88.4049 210.259 87.5823 210.76L84.9798 212.345C83.6332 213.163 82.7964 214.653 82.7964 216.231V222.21C82.7964 223.17 83.5767 223.952 84.5393 223.952Z" fill="#88FCAB"/>
<path d="M92.8709 228.77C93.8335 228.77 94.6138 227.988 94.6138 227.024V221.045C94.6138 220.679 94.809 220.33 95.1236 220.139L97.7265 218.557C98.5491 218.055 98.8096 216.982 98.3091 216.161C97.8089 215.336 96.7368 215.076 95.9142 215.578L93.3113 217.163C91.9647 217.981 91.1279 219.47 91.1279 221.045V227.024C91.1279 227.988 91.9082 228.77 92.8709 228.77Z" fill="#88FCAB"/>
<path fill-rule="evenodd" clip-rule="evenodd" d="M120.141 169.048V167.806H115.082H120.141V169.048H120.141Z" fill="url(#paint2_linear_3:3490)"/>
<path fill-rule="evenodd" clip-rule="evenodd" d="M104.667 207.167L119.836 198.41V196.837H119.836V198.41L104.667 207.167Z" fill="url(#paint3_linear_3:3490)"/>
<path d="M162.468 248.539V260.579L191.415 243.879V231.465L162.468 248.539Z" fill="#4390CD"/>
<path d="M133.828 231.465V243.509L162.405 260.579V248.166L133.828 231.465Z" fill="#79B7EB"/>
<path d="M133.828 231.502L162.404 214.802L191.352 231.502L162.775 248.576L133.828 231.502Z" fill="#CEE2F5"/>
<path d="M140.973 231.522L162.963 244.49L184.66 231.529L162.67 218.841L140.973 231.522ZM162.968 245.94L138.514 231.518L162.666 217.405L187.119 231.511L162.968 245.94Z" fill="#03336C"/>
<path d="M147.743 231.589L162.66 240.387L177.338 231.617L162.421 223.011L147.743 231.589ZM162.664 241.834L145.284 231.585L162.417 221.571L179.797 231.599L162.664 241.834Z" fill="#03336C"/>
<path d="M191.594 252.592C190.631 252.592 189.851 251.81 189.851 250.847V244.871C189.851 244.501 189.655 244.153 189.341 243.961L186.738 242.379C185.915 241.878 185.655 240.804 186.155 239.983C186.656 239.162 187.728 238.899 188.55 239.4L191.153 240.986C192.5 241.803 193.336 243.293 193.336 244.871V250.847C193.336 251.81 192.556 252.592 191.594 252.592Z" fill="#43C9C7"/>
<path d="M183.262 257.536C182.299 257.536 181.519 256.758 181.519 255.795V249.815C181.519 249.449 181.324 249.101 181.009 248.909L178.407 247.323C177.584 246.826 177.324 245.752 177.824 244.931C178.325 244.106 179.396 243.847 180.219 244.348L182.822 245.93C184.168 246.751 185.005 248.24 185.005 249.815V255.795C185.005 256.758 184.225 257.536 183.262 257.536Z" fill="#43C9C7"/>
<path d="M175.451 262.354C174.488 262.354 173.708 261.576 173.708 260.613V254.633C173.708 254.264 173.513 253.919 173.198 253.727L170.595 252.141C169.773 251.64 169.512 250.57 170.013 249.745C170.513 248.924 171.585 248.665 172.408 249.162L175.011 250.748C176.357 251.569 177.194 253.058 177.194 254.633V260.613C177.194 261.576 176.414 262.354 175.451 262.354Z" fill="#43C9C7"/>
<path d="M134.529 252.592C135.492 252.592 136.272 251.81 136.272 250.847V244.871C136.272 244.501 136.467 244.153 136.782 243.961L139.385 242.379C140.207 241.878 140.468 240.804 139.968 239.983C139.467 239.162 138.395 238.899 137.572 239.4L134.97 240.986C133.623 241.803 132.786 243.293 132.786 244.871V250.847C132.786 251.81 133.567 252.592 134.529 252.592Z" fill="#88FCAB"/>
<path d="M142.34 257.536C143.303 257.536 144.083 256.758 144.083 255.795V249.815C144.083 249.449 144.278 249.101 144.593 248.909L147.196 247.323C148.018 246.826 148.279 245.752 147.779 244.931C147.278 244.106 146.206 243.847 145.383 244.348L142.781 245.93C141.434 246.751 140.597 248.24 140.597 249.815V255.795C140.597 256.758 141.378 257.536 142.34 257.536Z" fill="#88FCAB"/>
<path d="M150.672 262.354C151.635 262.354 152.415 261.576 152.415 260.613V254.633C152.415 254.264 152.61 253.919 152.925 253.727L155.527 252.141C156.35 251.64 156.611 250.57 156.11 249.745C155.61 248.924 154.538 248.665 153.715 249.162L151.112 250.748C149.766 251.569 148.929 253.058 148.929 254.633V260.613C148.929 261.576 149.709 262.354 150.672 262.354Z" fill="#88FCAB"/>
<path fill-rule="evenodd" clip-rule="evenodd" d="M147.367 223.456V201.132H162.209H147.367V223.456Z" fill="url(#paint4_linear_3:3490)"/>
<defs>
<linearGradient id="paint0_linear_3:3490" x1="404.905" y1="127.641" x2="404.905" y2="167.007" gradientUnits="userSpaceOnUse">
<stop stop-color="#F2F2F2"/>
<stop offset="1" stop-color="#FB679C"/>
</linearGradient>
<linearGradient id="paint1_linear_3:3490" x1="405.1" y1="127.667" x2="405.1" y2="167.033" gradientUnits="userSpaceOnUse">
<stop stop-color="#F2F2F2"/>
<stop offset="1" stop-color="#FB679C"/>
</linearGradient>
<linearGradient id="paint2_linear_3:3490" x1="105.069" y1="167.806" x2="105.069" y2="207.172" gradientUnits="userSpaceOnUse">
<stop stop-color="#F2F2F2"/>
<stop offset="1" stop-color="#FB679C"/>
</linearGradient>
<linearGradient id="paint3_linear_3:3490" x1="104.764" y1="167.801" x2="104.764" y2="207.167" gradientUnits="userSpaceOnUse">
<stop stop-color="#F2F2F2"/>
<stop offset="1" stop-color="#FB679C"/>
</linearGradient>
<linearGradient id="paint4_linear_3:3490" x1="162.439" y1="201.132" x2="162.439" y2="240.499" gradientUnits="userSpaceOnUse">
<stop stop-color="#F2F2F2"/>
<stop offset="1" stop-color="#FB679C"/>
</linearGradient>
</defs>
</svg>
