<?xml version="1.0" encoding="utf-8"?>
<!-- Generator: Adobe Illustrator 27.0.0, SVG Export Plug-In . SVG Version: 6.00 Build 0)  -->
<svg version="1.1" id="Layer_1" xmlns="http://www.w3.org/2000/svg" xmlns:xlink="http://www.w3.org/1999/xlink" x="0px" y="0px"
	 viewBox="0 0 248 259" style="enable-background:new 0 0 248 259;" xml:space="preserve">
<style type="text/css">
	.st0{fill:none;stroke:#3B64FB;}
</style>
<path class="st0" d="M236,0.5H20C13.6,0.5,8.5,5.6,8.5,12v227c0,6.4,5.1,11.5,11.5,11.5h216c6.4,0,11.5-5.1,11.5-11.5V12
	C247.5,5.6,242.4,0.5,236,0.5z"/>
<path class="st0" d="M228,8.5H12C5.6,8.5,0.5,13.6,0.5,20v227c0,6.4,5.1,11.5,11.5,11.5h216c6.4,0,11.5-5.1,11.5-11.5V20
	C239.5,13.6,234.4,8.5,228,8.5z"/>
</svg>
