<svg width="500" height="460" viewBox="0 0 500 460" fill="none" xmlns="http://www.w3.org/2000/svg">
<path d="M499.996 322.706V330.012L499.956 329.983C499.845 330.629 499.474 331.235 498.826 331.606L474.279 345.78C473.915 345.99 473.506 346.095 473.101 346.091C472.7 346.088 472.302 345.987 471.941 345.78L447.365 331.55C446.585 331.102 446.206 330.313 446.206 329.528V322.706L451.36 325.212L471.905 313.381C472.626 312.967 473.513 312.967 474.235 313.385L490.108 322.538L494.228 324.911L499.996 322.706Z" fill="#F4F4F4"/>
<path d="M471.909 306.507L447.377 320.631C445.817 321.528 445.817 323.775 447.37 324.675L471.946 338.903C472.668 339.322 473.558 339.323 474.284 338.905L498.834 324.731C500.391 323.833 500.387 321.584 498.83 320.687L474.239 306.508C473.518 306.092 472.631 306.091 471.909 306.507Z" fill="white"/>
<path d="M471.909 306.238L447.377 320.362C445.817 321.258 445.817 323.505 447.37 324.406L471.946 338.634C472.668 339.052 473.558 339.053 474.284 338.636L498.834 324.462C500.391 323.563 500.387 321.315 498.83 320.417L474.239 306.238C473.518 305.822 472.631 305.822 471.909 306.238Z" fill="white"/>
<path d="M53.7905 22.7797V30.0855L53.75 30.0572C53.6396 30.7025 53.2677 31.3088 52.6198 31.6803L28.0732 45.8535C27.7088 46.0641 27.3002 46.169 26.8952 46.1653C26.494 46.162 26.0964 46.0607 25.7357 45.8535L1.1596 31.6243C0.379178 31.176 0 30.387 0 29.6015V22.7797L5.15376 25.2863L25.6988 13.4547C26.4203 13.041 27.3076 13.041 28.0291 13.4584L43.9026 22.6115L48.0219 24.9848L53.7905 22.7797Z" fill="#F4F4F4"/>
<path d="M25.7034 6.58101L1.17154 20.7049C-0.38931 21.6016 -0.389272 23.8487 1.16422 24.7491L25.7403 38.9772C26.4618 39.3957 27.3527 39.3965 28.0779 38.9786L52.6281 24.8051C54.1853 23.9065 54.1816 21.6583 52.6244 20.7605L28.0337 6.58175C27.3122 6.16577 26.425 6.1654 25.7034 6.58101Z" fill="white"/>
<path d="M25.7034 6.31148L1.17154 20.4357C-0.38931 21.3321 -0.389272 23.5792 1.16422 24.4796L25.7403 38.708C26.4618 39.1262 27.3527 39.1269 28.0779 38.7095L52.6281 24.5359C54.1853 23.6366 54.1816 21.3892 52.6244 20.4909L28.0337 6.31221C27.3122 5.89623 26.425 5.89587 25.7034 6.31148Z" fill="white"/>
<g filter="url(#filter0_ddd_3:3889)">
<rect x="78.928" y="7.05237" width="182.06" height="182.06" rx="12.6285" fill="white"/>
</g>
<g clip-path="url(#clip0_3:3889)">
<path fill-rule="evenodd" clip-rule="evenodd" d="M180.496 74.6107L194.252 98.4312L208.008 122.259H180.496H152.985L166.741 98.4312L180.496 74.6107Z" fill="#8C1F7E"/>
<path fill-rule="evenodd" clip-rule="evenodd" d="M159.632 74.6107L173.387 98.4312L187.135 122.259H159.632H132.12L145.876 98.4312L159.632 74.6107Z" fill="#F39000"/>
<path fill-rule="evenodd" clip-rule="evenodd" d="M170.06 92.6788L173.387 98.4312L187.135 122.259H180.496H159.632H152.985L166.741 98.4312L170.06 92.6788Z" fill="#E30613"/>
</g>
<g filter="url(#filter1_ddd_3:3889)">
<rect x="277.826" y="45.9901" width="182.06" height="182.06" rx="12.6285" fill="white"/>
</g>
<path fill-rule="evenodd" clip-rule="evenodd" d="M396.626 110H378.957L392.411 152.883H410L396.626 110Z" fill="#00B1E9"/>
<path fill-rule="evenodd" clip-rule="evenodd" d="M379.23 164H361.561L378.948 110H396.626L379.23 164Z" fill="#00A2E2"/>
<path fill-rule="evenodd" clip-rule="evenodd" d="M378.957 110H396.626L387.674 137.781L378.957 110Z" fill="#00919D"/>
<path fill-rule="evenodd" clip-rule="evenodd" d="M379.23 164H361.561L341.375 110H359.044L379.23 164Z" fill="#16A961"/>
<path fill-rule="evenodd" clip-rule="evenodd" d="M341.374 110H359.044L345.589 152.883H328L341.374 110Z" fill="#8DBE22"/>
<path fill-rule="evenodd" clip-rule="evenodd" d="M341.375 110H359.044L351.025 135.818L341.375 110Z" fill="#008A3A"/>
<path fill-rule="evenodd" clip-rule="evenodd" d="M379.23 164H361.561L369.74 138.599L379.23 164Z" fill="#154F9E"/>
<g filter="url(#filter2_ddd_3:3889)">
<rect x="79" y="206" width="182.06" height="182.06" rx="12.6285" fill="white"/>
</g>
<g clip-path="url(#clip1_3:3889)">
<path fill-rule="evenodd" clip-rule="evenodd" d="M151.253 316.371H133.759V265H189.417V278.207H180.363L170.331 294.345L160.299 278.207H151.253V316.371Z" fill="#D60B4E"/>
<path fill-rule="evenodd" clip-rule="evenodd" d="M189.417 278.207V316.371H181.129V291.456L170.39 307.755H170.171L159.541 291.616V316.371H151.253V329.09H205.951V278.207H189.417Z" fill="#2B2D79"/>
</g>
<g filter="url(#filter3_ddd_3:3889)">
<rect x="278" y="245" width="182.06" height="182.06" rx="12.6285" fill="white"/>
</g>
<g clip-path="url(#clip2_3:3889)">
<path fill-rule="evenodd" clip-rule="evenodd" d="M368.851 304.992C392.52 304.992 408.65 330.866 397.273 349.994C396.372 351.577 395.063 352.894 393.481 353.81C391.899 354.726 390.1 355.209 388.269 355.209C386.437 355.209 384.639 354.726 383.056 353.81C381.474 352.894 380.166 351.577 379.265 349.994C376.916 345.952 377.519 341.592 377.793 337.178L377.699 337.069L377.284 337.76L370.856 345.611C370.267 346.36 369.592 347.038 368.843 347.631C368.359 347.989 367.771 348.18 367.168 348.175C366.694 348.174 366.227 348.058 365.808 347.837C365.389 347.616 365.031 347.297 364.764 346.908C364.094 346.011 363.747 344.916 363.778 343.8C363.788 342.96 363.888 342.124 364.075 341.305C364.271 340.411 364.654 339.074 365.242 337.294C365.343 336.921 365.461 336.602 365.555 336.33C365.649 336.058 365.743 335.841 365.805 335.646L365.704 335.545C364.193 337.434 362.697 339.431 361.241 341.53C360.019 343.245 359.046 344.541 358.32 345.416C357.742 346.124 357.088 346.768 356.371 347.336C355.931 347.709 355.382 347.932 354.805 347.973C354.31 347.974 353.824 347.842 353.399 347.591C352.973 347.341 352.623 346.982 352.385 346.551C351.73 345.363 351.421 344.017 351.493 342.665C351.493 340.592 352.244 337.258 353.748 332.662C354.597 329.854 355.644 327.109 356.88 324.446C357.96 322.519 359.228 321.547 360.607 321.547C361.371 321.518 362.119 321.773 362.705 322.262C362.976 322.488 363.192 322.772 363.337 323.092C363.482 323.412 363.552 323.761 363.543 324.112C363.385 326.292 362.932 328.441 362.196 330.501C361.844 331.566 361.491 332.763 361.131 334.107L361.225 334.224C361.804 333.457 362.739 332.144 364.028 330.283C365.529 327.957 367.204 325.746 369.039 323.669C370.48 322.06 371.819 321.26 373.017 321.26C373.586 321.273 374.129 321.501 374.536 321.897C375.054 322.368 375.454 322.954 375.702 323.607C375.99 324.321 376.136 325.084 376.133 325.853C376.133 326.63 375.663 328.698 374.708 331.993C374.504 332.677 374.355 333.221 374.246 333.61C374.136 333.999 374.042 334.333 373.948 334.62L374.066 334.737C374.285 334.473 374.481 334.24 374.645 334.03L375.225 333.377C375.436 333.151 375.632 332.926 375.82 332.716C376.242 332.242 377.307 330.967 379.006 328.908C379.786 327.804 380.675 326.781 381.661 325.853C382.158 325.365 382.818 325.072 383.516 325.029C383.96 325.013 384.4 325.114 384.791 325.323C385.182 325.532 385.51 325.841 385.74 326.219C386.323 327.284 386.595 328.49 386.523 329.701C386.48 331.204 386.354 332.703 386.147 334.193C385.904 336.82 385.56 339.727 385.56 342.362C385.56 365.842 406.426 338.895 390.72 319.387C388.098 316.14 384.772 313.522 380.99 311.728C377.208 309.935 373.066 309.011 368.875 309.026C353.56 309.026 341.142 321.112 341.142 336.019C341.142 364.699 366.667 350.476 386.304 361.964C381.104 365.275 375.053 367.029 368.875 367.016C351.281 367.016 337.023 353.134 337.023 336.019C337.023 318.905 351.281 304.992 368.851 304.992Z" fill="#A22C87"/>
</g>
<path d="M105.79 231.78V239.086L105.75 239.057C105.64 239.703 105.268 240.309 104.62 240.68L80.0732 254.853C79.7088 255.064 79.3002 255.169 78.8952 255.165C78.494 255.162 78.0964 255.061 77.7357 254.853L53.1596 240.624C52.3792 240.176 52 239.387 52 238.601V231.78L57.1538 234.286L77.6988 222.455C78.4203 222.041 79.3076 222.041 80.0291 222.458L95.9026 231.612L100.022 233.985L105.79 231.78Z" fill="#F4F4F4"/>
<path d="M77.7034 215.581L53.1715 229.705C51.6107 230.602 51.6107 232.849 53.1642 233.749L77.7403 247.977C78.4618 248.396 79.3527 248.396 80.0779 247.979L104.628 233.805C106.185 232.906 106.182 230.658 104.624 229.76L80.0337 215.582C79.3122 215.166 78.425 215.165 77.7034 215.581Z" fill="white"/>
<path d="M77.7034 215.311L53.1715 229.436C51.6107 230.332 51.6107 232.579 53.1642 233.48L77.7403 247.708C78.4618 248.126 79.3527 248.127 80.0779 247.709L104.628 233.536C106.185 232.637 106.182 230.389 104.624 229.491L80.0337 215.312C79.3122 214.896 78.425 214.896 77.7034 215.311Z" fill="white"/>
<path d="M105.79 231.78V239.086L105.75 239.057C105.64 239.703 105.268 240.309 104.62 240.68L80.0732 254.853C79.7088 255.064 79.3002 255.169 78.8952 255.165C78.494 255.162 78.0964 255.061 77.7357 254.853L53.1596 240.624C52.3792 240.176 52 239.387 52 238.601V231.78L57.1538 234.286L77.6988 222.455C78.4203 222.041 79.3076 222.041 80.0291 222.458L95.9026 231.612L100.022 233.985L105.79 231.78Z" fill="#F4F4F4"/>
<path d="M77.7034 215.581L53.1715 229.705C51.6107 230.602 51.6107 232.849 53.1642 233.749L77.7403 247.977C78.4618 248.396 79.3527 248.396 80.0779 247.979L104.628 233.805C106.185 232.906 106.182 230.658 104.624 229.76L80.0337 215.582C79.3122 215.166 78.425 215.165 77.7034 215.581Z" fill="white"/>
<path d="M77.7034 215.311L53.1715 229.436C51.6107 230.332 51.6107 232.579 53.1642 233.48L77.7403 247.708C78.4618 248.126 79.3527 248.127 80.0779 247.709L104.628 233.536C106.185 232.637 106.182 230.389 104.624 229.491L80.0337 215.312C79.3122 214.896 78.425 214.896 77.7034 215.311Z" fill="white"/>
<path d="M303.79 175.78V183.086L303.75 183.057C303.64 183.703 303.268 184.309 302.62 184.68L278.073 198.853C277.709 199.064 277.3 199.169 276.895 199.165C276.494 199.162 276.096 199.061 275.736 198.853L251.16 184.624C250.379 184.176 250 183.387 250 182.601V175.78L255.154 178.286L275.699 166.455C276.42 166.041 277.308 166.041 278.029 166.458L293.903 175.612L298.022 177.985L303.79 175.78Z" fill="#F4F4F4"/>
<path d="M275.703 159.581L251.172 173.705C249.611 174.602 249.611 176.849 251.164 177.749L275.74 191.977C276.462 192.396 277.353 192.396 278.078 191.979L302.628 177.805C304.185 176.906 304.182 174.658 302.624 173.76L278.034 159.582C277.312 159.166 276.425 159.165 275.703 159.581Z" fill="white"/>
<path d="M275.703 159.311L251.172 173.436C249.611 174.332 249.611 176.579 251.164 177.48L275.74 191.708C276.462 192.126 277.353 192.127 278.078 191.709L302.628 177.536C304.185 176.637 304.182 174.389 302.624 173.491L278.034 159.312C277.312 158.896 276.425 158.896 275.703 159.311Z" fill="white"/>
<defs>
<filter id="filter0_ddd_3:3889" x="59.2099" y="0.479687" width="221.496" height="221.496" filterUnits="userSpaceOnUse" color-interpolation-filters="sRGB">
<feFlood flood-opacity="0" result="BackgroundImageFix"/>
<feColorMatrix in="SourceAlpha" type="matrix" values="0 0 0 0 0 0 0 0 0 0 0 0 0 0 0 0 0 0 127 0" result="hardAlpha"/>
<feOffset/>
<feGaussianBlur stdDeviation="0.410793"/>
<feColorMatrix type="matrix" values="0 0 0 0 0 0 0 0 0 0 0 0 0 0 0 0 0 0 0.04 0"/>
<feBlend mode="normal" in2="BackgroundImageFix" result="effect1_dropShadow_3:3889"/>
<feColorMatrix in="SourceAlpha" type="matrix" values="0 0 0 0 0 0 0 0 0 0 0 0 0 0 0 0 0 0 127 0" result="hardAlpha"/>
<feOffset dy="1.64317"/>
<feGaussianBlur stdDeviation="2.46476"/>
<feColorMatrix type="matrix" values="0 0 0 0 0 0 0 0 0 0 0 0 0 0 0 0 0 0 0.04 0"/>
<feBlend mode="normal" in2="effect1_dropShadow_3:3889" result="effect2_dropShadow_3:3889"/>
<feColorMatrix in="SourceAlpha" type="matrix" values="0 0 0 0 0 0 0 0 0 0 0 0 0 0 0 0 0 0 127 0" result="hardAlpha"/>
<feOffset dy="13.1454"/>
<feGaussianBlur stdDeviation="9.85902"/>
<feColorMatrix type="matrix" values="0 0 0 0 0 0 0 0 0 0 0 0 0 0 0 0 0 0 0.06 0"/>
<feBlend mode="normal" in2="effect2_dropShadow_3:3889" result="effect3_dropShadow_3:3889"/>
<feBlend mode="normal" in="SourceGraphic" in2="effect3_dropShadow_3:3889" result="shape"/>
</filter>
<filter id="filter1_ddd_3:3889" x="258.108" y="39.4175" width="221.496" height="221.496" filterUnits="userSpaceOnUse" color-interpolation-filters="sRGB">
<feFlood flood-opacity="0" result="BackgroundImageFix"/>
<feColorMatrix in="SourceAlpha" type="matrix" values="0 0 0 0 0 0 0 0 0 0 0 0 0 0 0 0 0 0 127 0" result="hardAlpha"/>
<feOffset/>
<feGaussianBlur stdDeviation="0.410793"/>
<feColorMatrix type="matrix" values="0 0 0 0 0 0 0 0 0 0 0 0 0 0 0 0 0 0 0.04 0"/>
<feBlend mode="normal" in2="BackgroundImageFix" result="effect1_dropShadow_3:3889"/>
<feColorMatrix in="SourceAlpha" type="matrix" values="0 0 0 0 0 0 0 0 0 0 0 0 0 0 0 0 0 0 127 0" result="hardAlpha"/>
<feOffset dy="1.64317"/>
<feGaussianBlur stdDeviation="2.46476"/>
<feColorMatrix type="matrix" values="0 0 0 0 0 0 0 0 0 0 0 0 0 0 0 0 0 0 0.04 0"/>
<feBlend mode="normal" in2="effect1_dropShadow_3:3889" result="effect2_dropShadow_3:3889"/>
<feColorMatrix in="SourceAlpha" type="matrix" values="0 0 0 0 0 0 0 0 0 0 0 0 0 0 0 0 0 0 127 0" result="hardAlpha"/>
<feOffset dy="13.1454"/>
<feGaussianBlur stdDeviation="9.85902"/>
<feColorMatrix type="matrix" values="0 0 0 0 0 0 0 0 0 0 0 0 0 0 0 0 0 0 0.06 0"/>
<feBlend mode="normal" in2="effect2_dropShadow_3:3889" result="effect3_dropShadow_3:3889"/>
<feBlend mode="normal" in="SourceGraphic" in2="effect3_dropShadow_3:3889" result="shape"/>
</filter>
<filter id="filter2_ddd_3:3889" x="59.282" y="199.427" width="221.496" height="221.496" filterUnits="userSpaceOnUse" color-interpolation-filters="sRGB">
<feFlood flood-opacity="0" result="BackgroundImageFix"/>
<feColorMatrix in="SourceAlpha" type="matrix" values="0 0 0 0 0 0 0 0 0 0 0 0 0 0 0 0 0 0 127 0" result="hardAlpha"/>
<feOffset/>
<feGaussianBlur stdDeviation="0.410793"/>
<feColorMatrix type="matrix" values="0 0 0 0 0 0 0 0 0 0 0 0 0 0 0 0 0 0 0.04 0"/>
<feBlend mode="normal" in2="BackgroundImageFix" result="effect1_dropShadow_3:3889"/>
<feColorMatrix in="SourceAlpha" type="matrix" values="0 0 0 0 0 0 0 0 0 0 0 0 0 0 0 0 0 0 127 0" result="hardAlpha"/>
<feOffset dy="1.64317"/>
<feGaussianBlur stdDeviation="2.46476"/>
<feColorMatrix type="matrix" values="0 0 0 0 0 0 0 0 0 0 0 0 0 0 0 0 0 0 0.04 0"/>
<feBlend mode="normal" in2="effect1_dropShadow_3:3889" result="effect2_dropShadow_3:3889"/>
<feColorMatrix in="SourceAlpha" type="matrix" values="0 0 0 0 0 0 0 0 0 0 0 0 0 0 0 0 0 0 127 0" result="hardAlpha"/>
<feOffset dy="13.1454"/>
<feGaussianBlur stdDeviation="9.85902"/>
<feColorMatrix type="matrix" values="0 0 0 0 0 0 0 0 0 0 0 0 0 0 0 0 0 0 0.06 0"/>
<feBlend mode="normal" in2="effect2_dropShadow_3:3889" result="effect3_dropShadow_3:3889"/>
<feBlend mode="normal" in="SourceGraphic" in2="effect3_dropShadow_3:3889" result="shape"/>
</filter>
<filter id="filter3_ddd_3:3889" x="258.282" y="238.427" width="221.496" height="221.496" filterUnits="userSpaceOnUse" color-interpolation-filters="sRGB">
<feFlood flood-opacity="0" result="BackgroundImageFix"/>
<feColorMatrix in="SourceAlpha" type="matrix" values="0 0 0 0 0 0 0 0 0 0 0 0 0 0 0 0 0 0 127 0" result="hardAlpha"/>
<feOffset/>
<feGaussianBlur stdDeviation="0.410793"/>
<feColorMatrix type="matrix" values="0 0 0 0 0 0 0 0 0 0 0 0 0 0 0 0 0 0 0.04 0"/>
<feBlend mode="normal" in2="BackgroundImageFix" result="effect1_dropShadow_3:3889"/>
<feColorMatrix in="SourceAlpha" type="matrix" values="0 0 0 0 0 0 0 0 0 0 0 0 0 0 0 0 0 0 127 0" result="hardAlpha"/>
<feOffset dy="1.64317"/>
<feGaussianBlur stdDeviation="2.46476"/>
<feColorMatrix type="matrix" values="0 0 0 0 0 0 0 0 0 0 0 0 0 0 0 0 0 0 0.04 0"/>
<feBlend mode="normal" in2="effect1_dropShadow_3:3889" result="effect2_dropShadow_3:3889"/>
<feColorMatrix in="SourceAlpha" type="matrix" values="0 0 0 0 0 0 0 0 0 0 0 0 0 0 0 0 0 0 127 0" result="hardAlpha"/>
<feOffset dy="13.1454"/>
<feGaussianBlur stdDeviation="9.85902"/>
<feColorMatrix type="matrix" values="0 0 0 0 0 0 0 0 0 0 0 0 0 0 0 0 0 0 0.06 0"/>
<feBlend mode="normal" in2="effect2_dropShadow_3:3889" result="effect3_dropShadow_3:3889"/>
<feBlend mode="normal" in="SourceGraphic" in2="effect3_dropShadow_3:3889" result="shape"/>
</filter>
<clipPath id="clip0_3:3889">
<rect width="75.88" height="47.6486" fill="white" transform="translate(132.12 74.6107)"/>
</clipPath>
<clipPath id="clip1_3:3889">
<rect width="72.1928" height="64.09" fill="white" transform="translate(133.759 265)"/>
</clipPath>
<clipPath id="clip2_3:3889">
<rect width="64" height="62" fill="white" transform="translate(337 305)"/>
</clipPath>
</defs>
</svg>
