<svg width="73" height="61" viewBox="0 0 73 61" fill="none" xmlns="http://www.w3.org/2000/svg">
<path fill-rule="evenodd" clip-rule="evenodd" d="M33.6697 32.1504C33.234 32.4034 32.9248 32.5861 32.5593 32.811C32.2079 32.2066 31.8565 31.6303 31.5333 31.054C29.1438 26.9217 26.7263 22.8035 24.3931 18.629C23.859 17.6732 23.2827 17.2796 22.1442 17.2937C17.1545 17.364 12.1648 17.3218 7.18914 17.3218C6.73936 17.3218 6.27553 17.3218 5.76953 17.3218C5.76953 16.858 5.76953 16.5066 5.76953 16.0849C5.91009 16.0568 6.0647 16.0147 6.21931 16.0147C11.4198 16.0147 16.6063 16.0287 21.8069 16.0006C24.0276 15.9865 23.4232 16.3098 24.5055 14.4545C26.9793 10.2238 29.4109 5.96497 31.8565 1.72021C32.0814 1.32666 32.3344 0.933105 32.5734 0.539551C32.9248 0.736328 33.248 0.904993 33.6838 1.15799C30.718 6.3023 27.7523 11.4326 24.7445 16.6753C27.7102 21.8055 30.6759 26.9498 33.6697 32.1504ZM23.9433 16.0568C23.7606 16.352 23.5216 16.5488 23.5497 16.7034C23.5779 16.872 23.859 17.0126 24.0276 17.1532C24.1822 16.9845 24.4352 16.8158 24.4493 16.6472C24.4493 16.4785 24.1822 16.3098 23.9433 16.0568Z" fill="#AFEDC1"/>
<path fill-rule="evenodd" clip-rule="evenodd" d="M9.32549 44.4208C6.31762 39.1922 3.36596 34.09 0.414307 28.9738C0.807861 28.7349 1.11708 28.5381 1.49658 28.3132C1.70741 28.6646 1.9323 29.016 2.14313 29.3815C4.70123 33.8089 7.27339 38.2224 9.78932 42.6639C10.2672 43.4932 10.7732 43.8305 11.743 43.8164C16.7327 43.7602 21.7084 43.7883 26.6981 43.7883C27.2041 43.7883 27.696 43.7883 28.2723 43.7883C28.3004 44.21 28.3285 44.5473 28.3707 44.9831C28.1317 45.0112 27.935 45.0674 27.7382 45.0674C22.8328 45.0674 17.9415 45.0674 13.0361 45.0674C12.6988 45.0674 12.3615 45.1096 12.0382 45.0533C10.8997 44.8847 10.2391 45.3344 9.66282 46.3605C7.34366 50.535 4.92612 54.6532 2.53668 58.7856C2.19935 59.3618 1.86202 59.9381 1.51063 60.5425C1.14519 60.3176 0.850027 60.1349 0.414307 59.8678C3.38002 54.7516 6.33167 49.6214 9.32549 44.4208ZM10.0564 45.0393C10.2672 44.7863 10.5343 44.6176 10.5202 44.463C10.5202 44.2943 10.2672 44.0132 10.1126 44.0132C9.95799 44.0132 9.67688 44.2522 9.64877 44.4208C9.63471 44.5614 9.87365 44.7582 10.0564 45.0393Z" fill="#AFEDC1"/>
<path fill-rule="evenodd" clip-rule="evenodd" d="M48.3717 16.6753C45.3638 11.4748 42.4262 6.35856 39.4324 1.18614C39.8119 0.961251 40.1351 0.750418 40.5287 0.511475C40.7958 0.961251 41.0488 1.38292 41.3018 1.81864C43.8317 6.20395 46.3898 10.5893 48.8917 15.0027C49.3134 15.7476 49.7913 16.0287 50.6627 16.0287C55.7368 15.9866 60.7967 16.0147 65.8708 16.0147C66.3346 16.0147 66.7844 16.0147 67.3185 16.0147C67.3185 16.4504 67.3185 16.8299 67.3185 17.3219C66.7984 17.3219 66.2924 17.3219 65.8005 17.3219C60.7686 17.3219 55.7368 17.35 50.7189 17.2937C49.8053 17.2797 49.2993 17.603 48.8496 18.3901C46.3055 22.8738 43.7193 27.3294 41.1331 31.785C40.9504 32.1082 40.7395 32.4175 40.5287 32.7829C40.1633 32.558 39.8259 32.3612 39.4324 32.1363C42.4121 26.978 45.3638 21.8758 48.3717 16.6753ZM49.7491 16.6191C49.468 16.4364 49.2572 16.2115 49.0885 16.2396C48.9198 16.2677 48.7933 16.5347 48.6387 16.7034C48.8214 16.858 48.9901 17.111 49.1588 17.111C49.3274 17.111 49.4961 16.858 49.7491 16.6191Z" fill="#AFEDC1"/>
<path fill-rule="evenodd" clip-rule="evenodd" d="M44.8015 45.0814C44.8015 44.6035 44.8015 44.2522 44.8015 43.8024C45.3497 43.8024 45.8557 43.8024 46.3476 43.8024C51.2952 43.8024 56.2427 43.7602 61.1762 43.8305C62.3147 43.8445 62.8769 43.451 63.425 42.4952C65.9129 38.0818 68.471 33.7105 71.001 29.3112C71.1837 28.9879 71.3945 28.6787 71.6053 28.3273C71.9567 28.524 72.266 28.7068 72.6736 28.9317C72.4768 29.3112 72.28 29.7188 72.0551 30.0983C69.5251 34.4836 67.0233 38.897 64.423 43.2542C63.8889 44.1538 63.9592 44.7722 64.4511 45.6296C67.0092 49.9587 69.497 54.3299 72.013 58.6731C72.2238 59.0385 72.4206 59.404 72.6736 59.8397C72.3362 60.0646 72.013 60.2895 71.6335 60.5565C71.3945 60.1489 71.1415 59.7694 70.9166 59.3759C68.4288 55.0608 65.9129 50.7598 63.4672 46.4167C62.9191 45.4328 62.3147 45.0111 61.134 45.0393C56.1443 45.1236 51.1687 45.0814 46.179 45.0814C45.7292 45.0814 45.2794 45.0814 44.8015 45.0814ZM63.6499 44.463C63.3969 44.2522 63.2283 43.9992 63.0596 43.9992C62.8909 43.9992 62.7363 44.2521 62.5677 44.4068C62.7082 44.5754 62.8347 44.8425 63.0034 44.8706C63.158 44.8706 63.3548 44.6457 63.6499 44.463Z" fill="#AFEDC1"/>
</svg>
