<svg width="65" height="64" viewBox="0 0 65 64" fill="none" xmlns="http://www.w3.org/2000/svg">
<circle cx="32.3335" cy="32" r="32" fill="white" fill-opacity="0.2"/>
<g clip-path="url(#clip0_35:21389)">
<path d="M31.9824 20.2609C28.9616 20.2609 26.5042 22.7182 26.5042 25.7391C26.5042 28.7601 28.9615 31.2174 31.9824 31.2174C35.0033 31.2174 37.4607 28.76 37.4607 25.7391C37.4607 22.7183 35.0033 20.2609 31.9824 20.2609ZM31.9824 29.6522C29.8256 29.6522 28.0694 27.896 28.0694 25.7391C28.0694 23.5823 29.8256 21.8261 31.9824 21.8261C34.1393 21.8261 35.8954 23.5823 35.8954 25.7391C35.8954 27.896 34.1393 29.6522 31.9824 29.6522Z" fill="white"/>
<path d="M42.9389 26.5218C40.7821 26.5218 39.0259 28.278 39.0259 30.4348C39.0259 32.5917 40.7821 34.3478 42.9389 34.3478C45.0957 34.3478 46.8519 32.5917 46.8519 30.4348C46.8519 28.278 45.0957 26.5218 42.9389 26.5218ZM42.9389 32.7826C41.6444 32.7826 40.5911 31.7293 40.5911 30.4348C40.5911 29.1404 41.6444 28.087 42.9389 28.087C44.2334 28.087 45.2867 29.1404 45.2867 30.4348C45.2867 31.7293 44.2333 32.7826 42.9389 32.7826Z" fill="white"/>
<path d="M21.1371 26.5218C18.9787 26.5218 17.2241 28.278 17.2241 30.4348C17.2241 32.5917 18.9803 34.3478 21.1371 34.3478C23.294 34.3478 25.0502 32.5917 25.0502 30.4348C25.0502 28.278 23.2955 26.5218 21.1371 26.5218ZM21.1371 32.7826C19.8427 32.7826 18.7893 31.7293 18.7893 30.4348C18.7893 29.1404 19.8427 28.087 21.1371 28.087C22.4316 28.087 23.485 29.1404 23.485 30.4348C23.485 31.7293 22.4315 32.7826 21.1371 32.7826Z" fill="white"/>
<path d="M31.9823 32.7826C26.3725 32.7826 21.8083 37.3468 21.8083 42.9565C21.8083 43.3885 22.159 43.7391 22.591 43.7391C23.023 43.7391 23.3736 43.3885 23.3736 42.9565C23.3736 38.2092 27.235 34.3479 31.9823 34.3479C36.7296 34.3479 40.5909 38.2092 40.5909 42.9565C40.5909 43.3885 40.9416 43.7391 41.3736 43.7391C41.8056 43.7391 42.1562 43.3885 42.1562 42.9565C42.1562 37.3468 37.592 32.7826 31.9823 32.7826Z" fill="white"/>
<path d="M42.9389 35.913C41.6508 35.913 40.3892 36.2652 39.2904 36.9304C38.9226 37.1558 38.8036 37.6363 39.0274 38.0057C39.2544 38.3752 39.7333 38.4925 40.1027 38.2687C40.9557 37.7506 41.9356 37.4782 42.9389 37.4782C45.9598 37.4782 48.4172 39.9356 48.4172 42.9565C48.4172 43.3885 48.7678 43.7391 49.1998 43.7391C49.6318 43.7391 49.9825 43.3885 49.9825 42.9565C49.9824 39.0732 46.8222 35.913 42.9389 35.913Z" fill="white"/>
<path d="M24.6729 36.9288C23.5756 36.2652 22.3141 35.913 21.0259 35.913C17.1426 35.913 13.9824 39.0732 13.9824 42.9565C13.9824 43.3885 14.3331 43.7391 14.7651 43.7391C15.1971 43.7391 15.5477 43.3885 15.5477 42.9565C15.5476 39.9356 18.0051 37.4782 21.0259 37.4782C22.0292 37.4782 23.009 37.7506 23.8605 38.2671C24.2283 38.4909 24.7104 38.3735 24.9358 38.0041C25.1612 37.6347 25.0422 37.1542 24.6729 36.9288Z" fill="white"/>
</g>
<defs>
<clipPath id="clip0_35:21389">
<rect width="36" height="36" fill="white" transform="translate(13.9824 14)"/>
</clipPath>
</defs>
</svg>
