<svg width="127" height="32" viewBox="0 0 127 32" fill="none" xmlns="http://www.w3.org/2000/svg">
<path d="M24.775 7.73602V7.73602C24.775 6.44016 23.7245 5.38965 22.4287 5.38965H22M27.004 23.6356V27.7962C27.004 29.2324 25.8397 30.3966 24.4036 30.3966H3.6004C2.16424 30.3966 1 29.2324 1 27.7962V7.99004C1 6.55389 2.16424 5.38965 3.6004 5.38965H6" stroke="#88FCAB" stroke-width="1.83908"/>
<path d="M6.5 9.08046C5.99215 9.08046 5.58046 9.49215 5.58046 10C5.58046 10.5078 5.99215 10.9195 6.5 10.9195V9.08046ZM26.1587 13V13.9195H27.9978V13H26.1587ZM6.5 10.9195H25.2208V9.08046H6.5V10.9195ZM26.1587 11.8574V13H27.9978V11.8574H26.1587ZM25.2208 10.9195C25.7388 10.9195 26.1587 11.3394 26.1587 11.8574H27.9978C27.9978 10.3237 26.7545 9.08046 25.2208 9.08046V10.9195Z" fill="#88FCAB"/>
<mask id="path-3-inside-1_89:100" fill="white">
<path d="M17.7168 19.9206C17.7168 17.7869 19.4465 16.0571 21.5802 16.0571H28.7871C29.4025 16.0571 29.9015 16.5561 29.9015 17.1716V22.6696C29.9015 23.2851 29.4025 23.784 28.7871 23.784H21.5802C19.4465 23.784 17.7168 22.0543 17.7168 19.9206Z"/>
</mask>
<path d="M17.7168 19.9206C17.7168 17.7869 19.4465 16.0571 21.5802 16.0571H28.7871C29.4025 16.0571 29.9015 16.5561 29.9015 17.1716V22.6696C29.9015 23.2851 29.4025 23.784 28.7871 23.784H21.5802C19.4465 23.784 17.7168 22.0543 17.7168 19.9206Z" stroke="#88FCAB" stroke-width="3.67816" mask="url(#path-3-inside-1_89:100)"/>
<path d="M18.9797 6.58142C18.9797 3.8322 16.751 1.60352 14.0018 1.60352C11.2526 1.60352 9.02393 3.8322 9.02393 6.58142" stroke="#88FCAB" stroke-width="1.83908"/>
<path d="M43.396 6.5826H40.0241V24H43.396V6.5826ZM51.7921 18.8641C51.7921 17.7029 51.5539 16.7279 51.0775 15.9389C50.616 15.1499 50.0131 14.547 49.2688 14.1301C48.5393 13.7133 47.7503 13.5049 46.9018 13.5049C46.0532 13.5049 45.294 13.7208 44.6241 14.1525C43.9542 14.5842 43.4257 15.202 43.0387 16.0059C42.6516 16.7949 42.4581 17.7476 42.4581 18.8641C42.4581 19.9657 42.6516 20.9185 43.0387 21.7223C43.4257 22.5262 43.9542 23.144 44.6241 23.5757C45.294 24.0074 46.0532 24.2233 46.9018 24.2233C47.7503 24.2233 48.5393 24.0149 49.2688 23.5981C50.0131 23.1812 50.616 22.5783 51.0775 21.7893C51.5539 20.9854 51.7921 20.0104 51.7921 18.8641ZM48.2416 18.8641C48.2416 19.4 48.1299 19.8689 47.9066 20.2709C47.6833 20.6579 47.3856 20.9631 47.0134 21.1864C46.6413 21.3948 46.2319 21.499 45.7853 21.499C45.3982 21.499 45.0186 21.3948 44.6465 21.1864C44.2892 20.978 43.9914 20.6803 43.7533 20.2932C43.5151 19.8913 43.396 19.4149 43.396 18.8641C43.396 18.3133 43.5151 17.8444 43.7533 17.4573C43.9914 17.0554 44.2892 16.7502 44.6465 16.5418C45.0186 16.3334 45.3982 16.2292 45.7853 16.2292C46.2319 16.2292 46.6413 16.3408 47.0134 16.5641C47.3856 16.7725 47.6833 17.0777 47.9066 17.4796C48.1299 17.8667 48.2416 18.3282 48.2416 18.8641ZM59.0535 24.2233C60.3635 24.2233 61.4726 23.9702 62.3807 23.4641C63.3036 22.9579 64.0331 22.1987 64.569 21.1864L61.5545 20.4495C61.3014 20.8961 60.959 21.2311 60.5273 21.4544C60.1104 21.6777 59.6043 21.7893 59.0088 21.7893C58.4878 21.7893 58.0486 21.6777 57.6914 21.4544C57.3341 21.2162 57.0661 20.8738 56.8875 20.4272C56.7088 19.9806 56.6195 19.4447 56.6195 18.8194C56.6344 18.1347 56.7237 17.569 56.8875 17.1224C57.0661 16.6609 57.3266 16.3185 57.669 16.0952C58.0114 15.8719 58.4357 15.7602 58.9418 15.7602C59.3438 15.7602 59.6936 15.8495 59.9914 16.0282C60.2891 16.2068 60.5198 16.4599 60.6836 16.7874C60.8473 17.1149 60.9292 17.502 60.9292 17.9486C60.9292 18.0528 60.8994 18.1868 60.8399 18.3505C60.7952 18.4994 60.7357 18.6259 60.6613 18.7301L61.4651 17.7029H55.1234V19.5787H64.502C64.5318 19.4745 64.5467 19.3479 64.5467 19.199C64.5467 19.0353 64.5467 18.8715 64.5467 18.7078C64.5467 17.6062 64.3308 16.6683 63.8991 15.8942C63.4674 15.1201 62.8421 14.5321 62.0234 14.1301C61.2046 13.7133 60.1998 13.5049 59.0088 13.5049C57.8179 13.5049 56.7833 13.7208 55.905 14.1525C55.0415 14.5842 54.3791 15.202 53.9176 16.0059C53.4561 16.8097 53.2254 17.7625 53.2254 18.8641C53.2254 19.9508 53.4635 20.8961 53.9399 21.7C54.4163 22.5039 55.0862 23.1291 55.9496 23.5757C56.8279 24.0074 57.8626 24.2233 59.0535 24.2233Z" fill="#88FCAB"/>
<path d="M65.155 13.7282L70.4472 24.6476L73.7744 18.5291L77.1685 24.6476L82.4607 13.7282H78.9326L76.7889 18.9981L73.752 12.9466L70.8268 18.9981L68.6831 13.7282H65.155ZM86.2288 20.7845C86.2288 20.5314 86.2883 20.323 86.4074 20.1592C86.5265 19.9806 86.7051 19.8466 86.9433 19.7573C87.1815 19.668 87.5016 19.6233 87.9035 19.6233C88.4245 19.6233 88.9158 19.6978 89.3773 19.8466C89.8537 19.9806 90.2705 20.1816 90.6278 20.4495V18.9534C90.4491 18.7599 90.1812 18.5738 89.8239 18.3952C89.4666 18.2165 89.0349 18.0677 88.5287 17.9486C88.0375 17.8295 87.4792 17.7699 86.854 17.7699C85.5737 17.7699 84.5838 18.0602 83.8841 18.6408C83.1844 19.2065 82.8346 19.9806 82.8346 20.9631C82.8346 21.6628 82.9983 22.2583 83.3259 22.7495C83.6682 23.2408 84.1148 23.6129 84.6657 23.866C85.2313 24.1042 85.8417 24.2233 86.4967 24.2233C87.1517 24.2233 87.7621 24.1117 88.3278 23.8883C88.8935 23.6502 89.355 23.3078 89.7122 22.8612C90.0695 22.3997 90.2482 21.8414 90.2482 21.1864L89.8909 19.8466C89.8909 20.323 89.7867 20.7249 89.5783 21.0524C89.3698 21.3799 89.1019 21.6256 88.7744 21.7893C88.4469 21.9531 88.0896 22.035 87.7025 22.035C87.4346 22.035 87.1889 21.9903 86.9656 21.901C86.7423 21.7968 86.5637 21.6553 86.4297 21.4767C86.2957 21.2832 86.2288 21.0524 86.2288 20.7845ZM84.7326 16.8767C84.8815 16.7874 85.1197 16.6758 85.4472 16.5418C85.7747 16.3929 86.1543 16.2664 86.586 16.1622C87.0326 16.058 87.4867 16.0059 87.9482 16.0059C88.2608 16.0059 88.5362 16.0356 88.7744 16.0952C89.0274 16.1547 89.2359 16.2515 89.3996 16.3855C89.5634 16.5194 89.6825 16.6832 89.7569 16.8767C89.8462 17.0554 89.8909 17.2712 89.8909 17.5243V24H93.1287V16.7651C93.1287 16.0505 92.9203 15.4476 92.5035 14.9563C92.0867 14.4651 91.521 14.0929 90.8064 13.8398C90.0918 13.5719 89.2805 13.4379 88.3724 13.4379C87.4048 13.4379 86.5116 13.5644 85.6928 13.8175C84.8741 14.0706 84.1744 14.3386 83.5938 14.6214L84.7326 16.8767ZM95.6534 6.5826V24H99.0476V6.5826H95.6534ZM101.672 6.5826V24H105.066V6.5826H101.672ZM112.916 24.2233C114.226 24.2233 115.335 23.9702 116.243 23.4641C117.166 22.9579 117.895 22.1987 118.431 21.1864L115.417 20.4495C115.164 20.8961 114.821 21.2311 114.39 21.4544C113.973 21.6777 113.467 21.7893 112.871 21.7893C112.35 21.7893 111.911 21.6777 111.554 21.4544C111.196 21.2162 110.929 20.8738 110.75 20.4272C110.571 19.9806 110.482 19.4447 110.482 18.8194C110.497 18.1347 110.586 17.569 110.75 17.1224C110.929 16.6609 111.189 16.3185 111.531 16.0952C111.874 15.8719 112.298 15.7602 112.804 15.7602C113.206 15.7602 113.556 15.8495 113.854 16.0282C114.151 16.2068 114.382 16.4599 114.546 16.7874C114.71 17.1149 114.792 17.502 114.792 17.9486C114.792 18.0528 114.762 18.1868 114.702 18.3505C114.658 18.4994 114.598 18.6259 114.524 18.7301L115.328 17.7029H108.986V19.5787H118.364C118.394 19.4745 118.409 19.3479 118.409 19.199C118.409 19.0353 118.409 18.8715 118.409 18.7078C118.409 17.6062 118.193 16.6683 117.762 15.8942C117.33 15.1201 116.705 14.5321 115.886 14.1301C115.067 13.7133 114.062 13.5049 112.871 13.5049C111.68 13.5049 110.646 13.7208 109.767 14.1525C108.904 14.5842 108.241 15.202 107.78 16.0059C107.319 16.8097 107.088 17.7625 107.088 18.8641C107.088 19.9508 107.326 20.8961 107.802 21.7C108.279 22.5039 108.949 23.1291 109.812 23.5757C110.69 24.0074 111.725 24.2233 112.916 24.2233ZM119.285 13.7282V16.5194H126.163V13.7282H119.285ZM121.094 10.1554V24H124.332V10.1554H121.094Z" fill="white"/>
</svg>
