<svg width="390" height="259" viewBox="0 0 390 259" fill="none" xmlns="http://www.w3.org/2000/svg">
<g clip-path="url(#clip0_6:18517)">
<path d="M300.815 128.664C300.815 129.189 300.659 129.704 300.366 130.141C300.074 130.578 299.659 130.919 299.173 131.12C298.687 131.321 298.153 131.374 297.637 131.271C297.121 131.169 296.647 130.916 296.275 130.544C295.904 130.172 295.65 129.698 295.548 129.182C295.445 128.667 295.498 128.132 295.699 127.646C295.9 127.16 296.241 126.745 296.678 126.453C297.116 126.161 297.63 126.005 298.156 126.005C298.505 126.005 298.85 126.073 299.173 126.207C299.496 126.341 299.789 126.537 300.036 126.783C300.283 127.03 300.478 127.323 300.612 127.646C300.746 127.969 300.815 128.314 300.815 128.664ZM299.499 128.664C299.492 128.401 299.408 128.146 299.258 127.931C299.108 127.715 298.898 127.548 298.654 127.451C298.41 127.354 298.143 127.33 297.885 127.383C297.628 127.436 297.392 127.563 297.206 127.749C297.02 127.934 296.893 128.171 296.84 128.428C296.787 128.685 296.811 128.952 296.908 129.196C297.006 129.44 297.173 129.65 297.388 129.801C297.604 129.951 297.858 130.034 298.121 130.041C298.304 130.047 298.485 130.015 298.655 129.948C298.825 129.881 298.979 129.78 299.108 129.651C299.237 129.521 299.338 129.367 299.406 129.198C299.473 129.028 299.505 128.846 299.499 128.664Z" fill="#7996FF"/>
<path d="M345.48 31.3772H330.435C330.332 31.3452 330.223 31.3378 330.116 31.3558C330.01 31.3737 329.909 31.4164 329.822 31.4804C329.735 31.5444 329.665 31.628 329.616 31.7243C329.567 31.8207 329.542 31.9271 329.542 32.035C329.542 32.143 329.567 32.2494 329.616 32.3458C329.665 32.4421 329.735 32.5257 329.822 32.5897C329.909 32.6537 330.01 32.6964 330.116 32.7143C330.223 32.7323 330.332 32.7249 330.435 32.6929H345.48C345.583 32.7249 345.692 32.7323 345.798 32.7143C345.905 32.6964 346.006 32.6537 346.093 32.5897C346.179 32.5257 346.25 32.4421 346.299 32.3458C346.347 32.2494 346.373 32.143 346.373 32.035C346.373 31.9271 346.347 31.8207 346.299 31.7243C346.25 31.628 346.179 31.5444 346.093 31.4804C346.006 31.4164 345.905 31.3737 345.798 31.3558C345.692 31.3378 345.583 31.3452 345.48 31.3772Z" fill="#7996FF"/>
<path d="M325.641 31.3703H322.699C322.556 31.4121 322.43 31.4991 322.341 31.6183C322.251 31.7376 322.203 31.8826 322.203 32.0316C322.203 32.1807 322.251 32.3257 322.341 32.4449C322.43 32.5642 322.556 32.6512 322.699 32.6929H325.641C325.743 32.7229 325.851 32.7285 325.957 32.7094C326.062 32.6902 326.161 32.6469 326.247 32.5827C326.332 32.5185 326.402 32.4353 326.449 32.3397C326.497 32.244 326.522 32.1386 326.522 32.0316C326.522 31.9247 326.497 31.8192 326.449 31.7236C326.402 31.6279 326.332 31.5447 326.247 31.4805C326.161 31.4164 326.062 31.373 325.957 31.3539C325.851 31.3348 325.743 31.3404 325.641 31.3703Z" fill="#7996FF"/>
<path d="M338.412 36.6193C338.412 36.802 338.339 36.9773 338.21 37.1064C338.081 37.2356 337.906 37.3082 337.723 37.3082H335.87C335.727 37.2665 335.601 37.1794 335.512 37.0602C335.422 36.941 335.374 36.7959 335.374 36.6469C335.374 36.4979 335.422 36.3528 335.512 36.2336C335.601 36.1143 335.727 36.0273 335.87 35.9856H337.751C337.919 35.9918 338.08 36.0598 338.202 36.1766C338.324 36.2935 338.399 36.451 338.412 36.6193ZM333.239 36.6193C333.239 36.802 333.166 36.9773 333.037 37.1064C332.908 37.2356 332.733 37.3082 332.55 37.3082H329.257C329.114 37.2665 328.988 37.1794 328.899 37.0602C328.809 36.941 328.761 36.7959 328.761 36.6469C328.761 36.4979 328.809 36.3528 328.899 36.2336C328.988 36.1143 329.114 36.0273 329.257 35.9856H332.55C332.723 35.985 332.891 36.05 333.018 36.1675C333.146 36.285 333.225 36.4464 333.239 36.6193ZM326.653 36.6193C326.653 36.802 326.581 36.9773 326.451 37.1064C326.322 37.2356 326.147 37.3082 325.964 37.3082H322.679C322.535 37.2665 322.41 37.1794 322.32 37.0602C322.231 36.941 322.183 36.7959 322.183 36.6469C322.183 36.4979 322.231 36.3528 322.32 36.2336C322.41 36.1143 322.535 36.0273 322.679 35.9856H325.964C326.138 35.985 326.305 36.05 326.433 36.1675C326.561 36.285 326.639 36.4464 326.653 36.6193Z" fill="#7996FF"/>
<path d="M101.316 75.3604C101.14 75.3692 100.973 75.4457 100.851 75.5739C100.729 75.7021 100.662 75.8723 100.662 76.0492V77.5716C100.63 77.6747 100.622 77.7838 100.64 77.8903C100.658 77.9967 100.701 78.0975 100.765 78.1844C100.829 78.2713 100.913 78.342 101.009 78.3907C101.105 78.4394 101.212 78.4647 101.32 78.4647C101.428 78.4647 101.534 78.4394 101.63 78.3907C101.727 78.342 101.81 78.2713 101.874 78.1844C101.938 78.0975 101.981 77.9967 101.999 77.8903C102.017 77.7838 102.01 77.6747 101.978 77.5716V76.0492C101.978 75.8712 101.909 75.7 101.786 75.5716C101.662 75.4432 101.494 75.3675 101.316 75.3604Z" fill="#7996FF"/>
<path d="M99.5944 73.8586H98.0651C97.9247 73.9022 97.802 73.9896 97.7148 74.108C97.6276 74.2263 97.5806 74.3695 97.5806 74.5165C97.5806 74.6635 97.6276 74.8066 97.7148 74.925C97.802 75.0434 97.9247 75.1307 98.0651 75.1743H99.5944C99.6974 75.2064 99.8066 75.2137 99.9131 75.1958C100.02 75.1778 100.12 75.1352 100.207 75.0711C100.294 75.0071 100.365 74.9236 100.413 74.8272C100.462 74.7309 100.488 74.6244 100.488 74.5165C100.488 74.4085 100.462 74.3021 100.413 74.2058C100.365 74.1094 100.294 74.0259 100.207 73.9619C100.12 73.8978 100.02 73.8551 99.9131 73.8372C99.8066 73.8193 99.6974 73.8266 99.5944 73.8586Z" fill="#7996FF"/>
<path d="M101.316 70.6899C101.14 70.6988 100.973 70.7752 100.851 70.9035C100.729 71.0317 100.662 71.2019 100.662 71.3788V72.9011C100.63 73.0042 100.622 73.1134 100.64 73.2199C100.658 73.3263 100.701 73.4271 100.765 73.514C100.829 73.6009 100.913 73.6716 101.009 73.7203C101.105 73.7689 101.212 73.7943 101.32 73.7943C101.428 73.7943 101.534 73.7689 101.63 73.7203C101.727 73.6716 101.81 73.6009 101.874 73.514C101.938 73.4271 101.981 73.3263 101.999 73.2199C102.017 73.1134 102.01 73.0042 101.978 72.9011V71.3788C101.978 71.2008 101.909 71.0296 101.786 70.9012C101.662 70.7728 101.494 70.6971 101.316 70.6899Z" fill="#7996FF"/>
<path d="M104.568 73.7484H103.038C102.895 73.7901 102.77 73.8772 102.68 73.9964C102.591 74.1156 102.542 74.2607 102.542 74.4097C102.542 74.5588 102.591 74.7038 102.68 74.823C102.77 74.9423 102.895 75.0293 103.038 75.071H104.568C104.711 75.0293 104.836 74.9423 104.926 74.823C105.015 74.7038 105.064 74.5588 105.064 74.4097C105.064 74.2607 105.015 74.1156 104.926 73.9964C104.836 73.8772 104.711 73.7901 104.568 73.7484Z" fill="#7996FF"/>
<path d="M266.916 32.7067C266.827 32.7056 266.738 32.7229 266.656 32.7576C266.574 32.7922 266.5 32.8435 266.438 32.9082C266.377 32.9729 266.329 33.0496 266.299 33.1334C266.269 33.2173 266.256 33.3065 266.262 33.3956V34.9248C266.305 35.0652 266.393 35.188 266.511 35.2751C266.629 35.3623 266.772 35.4094 266.919 35.4094C267.066 35.4094 267.21 35.3623 267.328 35.2751C267.446 35.188 267.534 35.0652 267.577 34.9248V33.3405C267.564 33.1721 267.489 33.0146 267.367 32.8978C267.245 32.7809 267.085 32.7129 266.916 32.7067Z" fill="#7996FF"/>
<path d="M265.194 31.1705H263.665C263.524 31.2141 263.402 31.3015 263.314 31.4199C263.227 31.5382 263.18 31.6814 263.18 31.8284C263.18 31.9754 263.227 32.1185 263.314 32.2369C263.402 32.3553 263.524 32.4426 263.665 32.4862H265.194C265.297 32.5183 265.406 32.5256 265.513 32.5077C265.619 32.4897 265.72 32.447 265.807 32.383C265.894 32.319 265.964 32.2355 266.013 32.1391C266.062 32.0428 266.087 31.9363 266.087 31.8284C266.087 31.7204 266.062 31.614 266.013 31.5176C265.964 31.4213 265.894 31.3378 265.807 31.2737C265.72 31.2097 265.619 31.167 265.513 31.1491C265.406 31.1312 265.297 31.1385 265.194 31.1705Z" fill="#7996FF"/>
<path d="M266.916 28.0087C266.745 28.017 266.583 28.0886 266.462 28.2096C266.341 28.3306 266.27 28.4922 266.261 28.6631V30.1923C266.229 30.2954 266.222 30.4046 266.24 30.511C266.258 30.6175 266.301 30.7182 266.365 30.8052C266.429 30.8921 266.512 30.9627 266.609 31.0114C266.705 31.0601 266.811 31.0855 266.919 31.0855C267.027 31.0855 267.134 31.0601 267.23 31.0114C267.326 30.9627 267.41 30.8921 267.474 30.8052C267.538 30.7182 267.581 30.6175 267.599 30.511C267.617 30.4046 267.609 30.2954 267.577 30.1923V28.6631C267.569 28.4911 267.496 28.3285 267.374 28.2074C267.251 28.0862 267.088 28.0153 266.916 28.0087Z" fill="#7996FF"/>
<path d="M270.168 31.0673H268.638C268.498 31.1109 268.375 31.1982 268.288 31.3166C268.201 31.435 268.154 31.5781 268.154 31.7251C268.154 31.8721 268.201 32.0153 268.288 32.1336C268.375 32.252 268.498 32.3394 268.638 32.383H270.168C270.271 32.415 270.38 32.4223 270.486 32.4044C270.593 32.3865 270.694 32.3438 270.78 32.2798C270.867 32.2157 270.938 32.1322 270.987 32.0358C271.035 31.9395 271.061 31.8331 271.061 31.7251C271.061 31.6172 271.035 31.5107 270.987 31.4144C270.938 31.318 270.867 31.2345 270.78 31.1705C270.694 31.1064 270.593 31.0637 270.486 31.0458C270.38 31.0279 270.271 31.0352 270.168 31.0673Z" fill="#7996FF"/>
<path d="M205.54 -3.44217e-05H190.488C190.386 -0.0299778 190.277 -0.0356065 190.172 -0.0164763C190.067 0.00265384 189.968 0.0460172 189.882 0.110182C189.796 0.174346 189.727 0.257549 189.679 0.353199C189.631 0.44885 189.606 0.554324 189.606 0.661265C189.606 0.768206 189.631 0.873677 189.679 0.969327C189.727 1.06498 189.796 1.14818 189.882 1.21235C189.968 1.27651 190.067 1.31987 190.172 1.339C190.277 1.35813 190.386 1.3525 190.488 1.32256H205.54C205.683 1.28083 205.808 1.19381 205.898 1.07457C205.987 0.955337 206.036 0.810312 206.036 0.661265C206.036 0.512218 205.987 0.36719 205.898 0.247952C205.808 0.128715 205.683 0.0416987 205.54 -3.44217e-05Z" fill="#7996FF"/>
<path d="M185.701 -7.82683e-06H182.759C182.656 -0.0320264 182.547 -0.0393675 182.441 -0.0214398C182.334 -0.00351219 182.233 0.039184 182.147 0.103203C182.06 0.167221 181.989 0.250771 181.94 0.347114C181.892 0.443457 181.866 0.549896 181.866 0.657846C181.866 0.765796 181.892 0.872236 181.94 0.968579C181.989 1.06492 182.06 1.14847 182.147 1.21249C182.233 1.27651 182.334 1.3192 182.441 1.33713C182.547 1.35506 182.656 1.34772 182.759 1.3157H185.701C185.841 1.2721 185.964 1.18473 186.051 1.06636C186.138 0.947999 186.185 0.80485 186.185 0.657846C186.185 0.510842 186.138 0.367693 186.051 0.24933C185.964 0.130966 185.841 0.0435944 185.701 -7.82683e-06Z" fill="#7996FF"/>
<path d="M198.444 5.24904C198.444 5.42592 198.377 5.59611 198.255 5.72435C198.133 5.85259 197.966 5.92905 197.79 5.93789H195.902C195.762 5.89429 195.639 5.80692 195.552 5.68856C195.465 5.57019 195.418 5.42704 195.418 5.28004C195.418 5.13303 195.465 4.98989 195.552 4.87152C195.639 4.75316 195.762 4.66579 195.902 4.62218H197.79C197.956 4.62986 198.114 4.6976 198.235 4.81285C198.355 4.92811 198.429 5.08308 198.444 5.24904ZM193.271 5.24904C193.271 5.42592 193.203 5.59611 193.081 5.72435C192.96 5.85259 192.793 5.92905 192.617 5.93789H189.324C189.221 5.96991 189.112 5.97725 189.005 5.95932C188.899 5.9414 188.798 5.8987 188.711 5.83468C188.624 5.77067 188.553 5.68711 188.505 5.59077C188.456 5.49443 188.431 5.38799 188.431 5.28004C188.431 5.17209 188.456 5.06565 188.505 4.96931C188.553 4.87296 188.624 4.78941 188.711 4.72539C188.798 4.66137 188.899 4.61868 189.005 4.60075C189.112 4.58282 189.221 4.59017 189.324 4.62218H192.617C192.787 4.6249 192.95 4.69043 193.074 4.80616C193.199 4.9219 193.276 5.07965 193.292 5.24904H193.271ZM186.686 5.24904C186.686 5.42592 186.618 5.59611 186.496 5.72435C186.374 5.85259 186.208 5.92905 186.031 5.93789H182.738C182.635 5.96991 182.526 5.97725 182.42 5.95932C182.313 5.9414 182.212 5.8987 182.126 5.83468C182.039 5.77067 181.968 5.68711 181.919 5.59077C181.871 5.49443 181.845 5.38799 181.845 5.28004C181.845 5.17209 181.871 5.06565 181.919 4.96931C181.968 4.87296 182.039 4.78941 182.126 4.72539C182.212 4.66137 182.313 4.61868 182.42 4.60075C182.526 4.58282 182.635 4.59017 182.738 4.62218H186.045C186.217 4.62148 186.384 4.68549 186.511 4.80156C186.639 4.91762 186.718 5.0773 186.734 5.24904H186.686Z" fill="#7996FF"/>
<path d="M367.302 68.9748C367.301 69.4358 367.436 69.8869 367.692 70.2709C367.947 70.6548 368.311 70.9543 368.736 71.1314C369.162 71.3085 369.631 71.3552 370.083 71.2656C370.535 71.1759 370.951 70.954 371.277 70.628C371.603 70.302 371.825 69.8865 371.914 69.4342C372.004 68.9819 371.957 68.5132 371.78 68.0875C371.603 67.6617 371.304 67.2982 370.92 67.0428C370.536 66.7875 370.085 66.652 369.624 66.6533C369.008 66.6533 368.418 66.8979 367.982 67.3333C367.547 67.7686 367.302 68.3591 367.302 68.9748Z" fill="#7996FF"/>
<path d="M62.5338 182.883H77.5852C77.7256 182.839 77.8484 182.752 77.9356 182.634C78.0227 182.515 78.0698 182.372 78.0698 182.225C78.0698 182.078 78.0227 181.935 77.9356 181.817C77.8484 181.698 77.7256 181.611 77.5852 181.567H62.5338C62.3935 181.611 62.2707 181.698 62.1835 181.817C62.0963 181.935 62.0493 182.078 62.0493 182.225C62.0493 182.372 62.0963 182.515 62.1835 182.634C62.2707 182.752 62.3935 182.839 62.5338 182.883Z" fill="#7996FF"/>
<path d="M54.8053 182.89H57.7467C57.8871 182.846 58.0098 182.759 58.097 182.641C58.1842 182.522 58.2312 182.379 58.2312 182.232C58.2312 182.085 58.1842 181.942 58.097 181.824C58.0098 181.705 57.8871 181.618 57.7467 181.574H54.8053C54.7022 181.542 54.593 181.535 54.4866 181.553C54.3801 181.571 54.2794 181.613 54.1924 181.677C54.1055 181.741 54.0349 181.825 53.9862 181.921C53.9375 182.018 53.9121 182.124 53.9121 182.232C53.9121 182.34 53.9375 182.446 53.9862 182.543C54.0349 182.639 54.1055 182.723 54.1924 182.787C54.2794 182.851 54.3801 182.893 54.4866 182.911C54.593 182.929 54.7022 182.922 54.8053 182.89Z" fill="#7996FF"/>
<path d="M346.898 193.595C346.898 193.595 347.794 200.008 340.306 199.856C340.306 199.856 346.74 199.925 346.568 205.939C346.568 205.939 347.146 201.207 353.057 200.146C353.057 200.146 348.063 201.296 346.898 193.595Z" fill="#7996FF"/>
<path d="M382.664 103.135C382.664 103.135 383.559 109.548 376.071 109.403C376.071 109.403 382.505 109.465 382.333 115.486C382.333 115.486 382.912 110.754 388.815 109.693C388.815 109.693 383.828 110.836 382.664 103.135Z" fill="#7996FF"/>
<path d="M145.072 16.3121C145.072 16.3121 145.974 22.7253 138.479 22.5738C138.479 22.5738 144.913 22.6427 144.748 28.6632C144.748 28.6632 145.327 23.9239 151.23 22.87C151.23 22.87 146.243 24.0135 145.072 16.3121Z" fill="#7996FF"/>
<path d="M80.5889 34.0293C80.5889 34.0293 81.4844 40.4425 73.9966 40.2978C73.9966 40.2978 80.4305 40.3598 80.2651 46.3804C80.2651 46.3804 80.8438 41.6411 86.7472 40.5872C86.7472 40.5803 81.7531 41.7238 80.5889 34.0293Z" fill="#7996FF"/>
<path d="M119.674 6.61292C119.674 6.61292 119.984 8.8448 117.374 8.79658C117.374 8.79658 119.619 8.79657 119.557 10.9182C119.668 10.3844 119.948 9.90021 120.354 9.53692C120.761 9.17363 121.274 8.95036 121.817 8.8999C121.817 8.8999 120.081 9.29943 119.674 6.61292Z" fill="#7996FF"/>
<path d="M236.978 83.6748C236.978 83.6748 237.288 85.9067 234.685 85.8585C234.685 85.8585 236.923 85.8585 236.861 87.9801C236.973 87.4452 237.253 86.9603 237.661 86.5969C238.069 86.2335 238.583 86.0108 239.128 85.9618C239.128 85.9618 237.385 86.382 236.978 83.6748Z" fill="#7996FF"/>
<path d="M19.6323 121.878C19.6323 121.878 19.9423 124.117 17.3315 124.062C17.3315 124.062 19.5772 124.062 19.5152 126.184C19.6253 125.649 19.9045 125.165 20.3114 124.801C20.7182 124.438 21.2313 124.215 21.7746 124.165C21.7746 124.165 20.0318 124.565 19.6323 121.878Z" fill="#7996FF"/>
<path d="M214.674 182.132C214.674 182.132 214.991 184.371 212.38 184.316C212.38 184.316 214.619 184.316 214.564 186.438C214.674 185.903 214.953 185.419 215.36 185.055C215.767 184.692 216.28 184.469 216.823 184.419C216.823 184.419 215.08 184.826 214.674 182.132Z" fill="#7996FF"/>
<path d="M125.922 146.112H111.311C110.413 146.127 109.545 145.784 108.899 145.159C108.253 144.533 107.882 143.677 107.867 142.778C107.853 141.879 108.196 141.012 108.821 140.366C109.446 139.72 110.302 139.349 111.201 139.334C111.225 138.213 111.608 137.129 112.293 136.241C112.978 135.353 113.929 134.708 115.007 134.4C116.085 134.092 117.234 134.137 118.284 134.529C119.335 134.921 120.232 135.639 120.845 136.579C121.765 136.444 122.702 136.65 123.481 137.157C124.259 137.664 124.826 138.438 125.075 139.334H125.929C126.828 139.334 127.69 139.691 128.325 140.327C128.961 140.962 129.318 141.824 129.318 142.723C129.318 143.622 128.961 144.484 128.325 145.12C127.69 145.755 126.828 146.112 125.929 146.112H125.922ZM111.311 140.34C110.987 140.322 110.663 140.371 110.358 140.483C110.053 140.595 109.775 140.768 109.539 140.992C109.303 141.215 109.116 141.484 108.987 141.782C108.859 142.081 108.793 142.402 108.793 142.727C108.793 143.051 108.859 143.373 108.987 143.671C109.116 143.969 109.303 144.238 109.539 144.461C109.775 144.685 110.053 144.858 110.358 144.97C110.663 145.082 110.987 145.131 111.311 145.113H125.922C126.533 145.081 127.108 144.815 127.529 144.371C127.949 143.927 128.184 143.338 128.184 142.727C128.184 142.115 127.949 141.526 127.529 141.082C127.108 140.638 126.533 140.372 125.922 140.34H124.234L124.165 139.913C124.108 139.527 123.97 139.157 123.761 138.827C123.553 138.498 123.277 138.215 122.953 137.998C122.629 137.781 122.263 137.633 121.879 137.566C121.494 137.498 121.1 137.511 120.721 137.605L120.356 137.694L120.17 137.364C119.714 136.54 118.997 135.891 118.132 135.519C117.266 135.147 116.302 135.074 115.39 135.311C114.479 135.548 113.672 136.081 113.097 136.827C112.522 137.573 112.211 138.489 112.214 139.43C112.214 139.554 112.214 139.678 112.214 139.802L112.262 140.347L111.311 140.34Z" fill="#7996FF"/>
<path d="M386.611 22.4497H372.035C371.136 22.4643 370.268 22.1213 369.622 21.496C368.976 20.8708 368.605 20.0145 368.59 19.1157C368.576 18.2168 368.919 17.349 369.544 16.703C370.169 16.0571 371.025 15.686 371.924 15.6714C371.944 14.5478 372.324 13.4602 373.008 12.569C373.692 11.6777 374.645 11.0299 375.726 10.7212C376.806 10.4125 377.957 10.4592 379.009 10.8543C380.061 11.2495 380.958 11.9723 381.568 12.916C382.488 12.78 383.426 12.985 384.205 13.4926C384.984 14.0001 385.551 14.7751 385.798 15.6714H386.652C387.551 15.6714 388.413 16.0285 389.048 16.6641C389.684 17.2997 390.041 18.1617 390.041 19.0606C390.041 19.9594 389.684 20.8215 389.048 21.4571C388.413 22.0926 387.551 22.4497 386.652 22.4497H386.611ZM372.035 16.6703C371.71 16.6528 371.386 16.7016 371.081 16.8137C370.776 16.9258 370.498 17.0988 370.262 17.3222C370.026 17.5455 369.839 17.8145 369.71 18.1128C369.582 18.4111 369.516 18.7324 369.516 19.0571C369.516 19.3818 369.582 19.7031 369.71 20.0014C369.839 20.2997 370.026 20.5687 370.262 20.7921C370.498 21.0154 370.776 21.1884 371.081 21.3005C371.386 21.4126 371.71 21.4614 372.035 21.444H386.645C387.256 21.4112 387.831 21.1454 388.252 20.7014C388.673 20.2573 388.907 19.6689 388.907 19.0571C388.907 18.4454 388.673 17.8569 388.252 17.4129C387.831 16.9689 387.256 16.7031 386.645 16.6703H384.957L384.888 16.2501C384.831 15.8641 384.693 15.4944 384.484 15.1647C384.276 14.835 384 14.5525 383.676 14.3353C383.352 14.1181 382.986 13.9709 382.602 13.9033C382.217 13.8356 381.823 13.8489 381.444 13.9424L381.079 14.0251L380.893 13.6944C380.434 12.8758 379.716 12.2324 378.852 11.8647C377.988 11.4969 377.027 11.4255 376.119 11.6615C375.21 11.8975 374.405 12.4276 373.829 13.1693C373.254 13.9109 372.94 14.8222 372.937 15.761C372.937 15.885 372.937 16.009 372.937 16.1261L372.985 16.6703H372.035Z" fill="#7996FF"/>
<path d="M160.344 59.7578H145.733C145.288 59.765 144.846 59.6845 144.432 59.5209C144.018 59.3572 143.64 59.1137 143.321 58.8041C143.001 58.4945 142.745 58.1249 142.568 57.7165C142.391 57.3081 142.296 56.8688 142.289 56.4237C142.282 55.9786 142.362 55.5365 142.526 55.1225C142.69 54.7086 142.933 54.3309 143.243 54.0111C143.552 53.6912 143.922 53.4355 144.33 53.2585C144.739 53.0815 145.178 52.9867 145.623 52.9795C145.647 51.8583 146.03 50.7744 146.715 49.8865C147.399 48.9986 148.351 48.3533 149.429 48.0452C150.507 47.7372 151.656 47.7825 152.706 48.1746C153.757 48.5667 154.654 49.2849 155.267 50.224C156.186 50.0883 157.123 50.2936 157.901 50.8012C158.679 51.3088 159.244 52.0837 159.49 52.9795H160.344C161.243 52.9795 162.105 53.3365 162.74 53.9721C163.376 54.6077 163.733 55.4697 163.733 56.3686C163.733 57.2675 163.376 58.1295 162.74 58.7651C162.105 59.4007 161.243 59.7578 160.344 59.7578ZM145.733 54.0058C145.409 53.9884 145.085 54.0372 144.78 54.1493C144.475 54.2614 144.196 54.4344 143.961 54.6577C143.725 54.8811 143.537 55.1501 143.409 55.4484C143.281 55.7467 143.215 56.068 143.215 56.3927C143.215 56.7174 143.281 57.0387 143.409 57.337C143.537 57.6353 143.725 57.9043 143.961 58.1277C144.196 58.351 144.475 58.524 144.78 58.6361C145.085 58.7482 145.409 58.797 145.733 58.7796H160.344C160.668 58.797 160.992 58.7482 161.297 58.6361C161.602 58.524 161.881 58.351 162.116 58.1277C162.352 57.9043 162.54 57.6353 162.668 57.337C162.796 57.0387 162.862 56.7174 162.862 56.3927C162.862 56.068 162.796 55.7467 162.668 55.4484C162.54 55.1501 162.352 54.8811 162.116 54.6577C161.881 54.4344 161.602 54.2614 161.297 54.1493C160.992 54.0372 160.668 53.9884 160.344 54.0058H158.656L158.594 53.5856C158.536 53.1997 158.399 52.83 158.19 52.5003C157.981 52.1706 157.706 51.8881 157.382 51.6709C157.058 51.4537 156.692 51.3065 156.307 51.2389C155.923 51.1712 155.529 51.1845 155.15 51.278L154.778 51.3675L154.592 51.03C154.134 50.2095 153.417 49.564 152.553 49.1948C151.69 48.8256 150.728 48.7535 149.818 48.9899C148.909 49.2263 148.104 49.7577 147.529 50.5009C146.954 51.2441 146.643 52.1571 146.643 53.0966C146.643 53.2205 146.643 53.3446 146.643 53.4617L146.691 54.0058H145.733Z" fill="#7996FF"/>
<path d="M206.111 247.084C203.101 247.93 199.877 247.548 197.148 246.02C194.419 244.492 192.408 241.944 191.556 238.935L182.181 205.822C181.328 202.807 181.707 199.578 183.235 196.843C184.764 194.108 187.315 192.092 190.33 191.239C193.344 190.386 196.574 190.766 199.309 192.294C202.043 193.822 204.059 196.374 204.913 199.388L214.288 232.508C214.71 234.002 214.833 235.564 214.65 237.106C214.467 238.647 213.982 240.138 213.222 241.492C212.463 242.846 211.444 244.036 210.224 244.996C209.003 245.956 207.606 246.665 206.111 247.084Z" fill="#88FCAB"/>
<path d="M192.741 246.808C190.504 244.615 189.23 241.623 189.199 238.49C189.168 235.358 190.382 232.341 192.575 230.104L216.685 205.532C217.771 204.425 219.064 203.542 220.49 202.935C221.917 202.327 223.449 202.007 225 201.991C226.55 201.976 228.089 202.266 229.527 202.845C230.965 203.425 232.276 204.282 233.383 205.367C234.494 206.452 235.381 207.745 235.992 209.172C236.604 210.6 236.927 212.134 236.945 213.686C236.963 215.239 236.675 216.78 236.097 218.221C235.519 219.663 234.662 220.976 233.576 222.086L209.466 246.657C208.379 247.767 207.084 248.653 205.654 249.261C204.224 249.87 202.689 250.191 201.135 250.205C199.581 250.219 198.04 249.926 196.599 249.343C195.159 248.761 193.847 247.899 192.741 246.808Z" fill="#88FCAB"/>
<path d="M240.698 199.615C241.828 201.317 242.427 203.315 242.421 205.358C242.416 207.4 241.805 209.395 240.666 211.09C239.527 212.785 237.911 214.105 236.023 214.883C234.135 215.66 232.058 215.861 230.056 215.459C228.053 215.057 226.215 214.071 224.773 212.625C223.33 211.179 222.349 209.338 221.953 207.335C221.556 205.331 221.762 203.255 222.545 201.369C223.327 199.482 224.651 197.87 226.35 196.736C227.48 195.981 228.749 195.456 230.082 195.192C231.416 194.928 232.789 194.93 234.122 195.198C235.455 195.465 236.722 195.993 237.85 196.751C238.979 197.509 239.947 198.483 240.698 199.615Z" fill="#FFB083"/>
<path d="M225.151 203.859C224.459 204.037 223.724 203.933 223.108 203.57C222.492 203.207 222.045 202.615 221.865 201.923L220.949 198.362C220.86 198.018 220.84 197.661 220.889 197.31C220.939 196.958 221.057 196.62 221.238 196.315C221.418 196.01 221.657 195.743 221.941 195.531C222.225 195.318 222.548 195.163 222.891 195.076C223.583 194.898 224.317 195.002 224.932 195.365C225.546 195.728 225.992 196.32 226.17 197.011L227.093 200.573C227.269 201.266 227.164 202.001 226.8 202.616C226.436 203.232 225.843 203.679 225.151 203.859Z" fill="#FFB083"/>
<path d="M235.532 191.597L231.867 200.883C231.593 201.573 231.055 202.126 230.374 202.421C229.692 202.715 228.921 202.727 228.23 202.453C227.889 202.318 227.577 202.117 227.313 201.861C227.049 201.606 226.839 201.301 226.693 200.964C226.547 200.626 226.469 200.264 226.463 199.897C226.458 199.529 226.524 199.165 226.659 198.823L230.324 189.544C230.459 189.202 230.659 188.89 230.915 188.625C231.17 188.361 231.475 188.149 231.812 188.003C232.149 187.856 232.512 187.778 232.88 187.772C233.247 187.765 233.612 187.832 233.954 187.967C234.296 188.101 234.609 188.302 234.873 188.557C235.138 188.813 235.349 189.118 235.496 189.455C235.642 189.792 235.721 190.155 235.727 190.522C235.733 190.89 235.667 191.255 235.532 191.597Z" fill="#FFB083"/>
<path d="M241.993 193.547L237.564 202.502C237.401 202.831 237.175 203.125 236.899 203.367C236.622 203.609 236.301 203.794 235.953 203.912C235.605 204.029 235.237 204.077 234.871 204.053C234.504 204.028 234.146 203.932 233.817 203.769C233.151 203.439 232.644 202.858 232.406 202.154C232.168 201.45 232.22 200.681 232.549 200.015L236.978 191.06C237.141 190.73 237.367 190.436 237.644 190.195C237.92 189.953 238.242 189.767 238.59 189.65C238.938 189.532 239.305 189.484 239.672 189.509C240.038 189.533 240.397 189.629 240.726 189.792C241.391 190.122 241.899 190.703 242.136 191.407C242.374 192.111 242.323 192.881 241.993 193.547Z" fill="#FFB083"/>
<path d="M246.802 198.527L240.602 206.359C240.141 206.941 239.468 207.317 238.731 207.403C237.993 207.49 237.252 207.28 236.669 206.821C236.087 206.36 235.711 205.687 235.625 204.949C235.538 204.212 235.748 203.47 236.207 202.887L242.407 195.055C242.868 194.473 243.541 194.097 244.278 194.011C245.015 193.924 245.757 194.134 246.34 194.593C246.922 195.054 247.298 195.727 247.384 196.465C247.471 197.202 247.261 197.944 246.802 198.527Z" fill="#FFB083"/>
<path d="M172.687 153.044L186.454 153.585L185.615 174.923C185.59 175.565 185.439 176.195 185.17 176.779C184.901 177.362 184.52 177.886 184.048 178.322C183.576 178.758 183.024 179.097 182.421 179.319C181.818 179.542 181.178 179.643 180.536 179.618L176.523 179.46C175.881 179.435 175.251 179.284 174.668 179.015C174.084 178.746 173.56 178.365 173.124 177.893C172.688 177.422 172.349 176.869 172.127 176.266C171.904 175.663 171.803 175.023 171.828 174.381L172.667 153.043L172.687 153.044Z" fill="#FFB083"/>
<path d="M186.465 152.849L172.688 152.305L172.475 157.719C172.268 163.023 176.608 167.68 181.885 167.301C182.215 167.274 182.546 167.232 182.877 167.177C183.959 166.978 185.001 166.596 185.956 166.048L186.465 152.849Z" fill="#FA945C"/>
<path d="M181.341 151.301C190.478 148.716 196.271 140.916 194.281 133.88C192.29 126.844 183.269 123.237 174.132 125.822C164.994 128.408 159.201 136.207 161.192 143.243C163.183 150.279 172.204 153.887 181.341 151.301Z" fill="#1B2A67"/>
<path d="M190.07 147.72C198.386 146.307 204.381 140.775 203.462 135.363C202.543 129.95 195.057 126.708 186.741 128.12C178.426 129.533 172.43 135.065 173.35 140.477C174.269 145.89 181.755 149.132 190.07 147.72Z" fill="#1B2A67"/>
<path d="M186.656 139.77C192.85 134.044 194.85 126.135 191.124 122.104C187.397 118.073 179.355 119.446 173.162 125.171C166.968 130.896 164.968 138.806 168.695 142.837C172.421 146.868 180.463 145.495 186.656 139.77Z" fill="#1B2A67"/>
<path d="M194.449 149.426C195.826 157.003 191.824 164.105 185.563 165.221C179.294 166.344 173.115 161.088 171.786 153.476L170.718 147.49C169.34 139.913 173.342 132.817 179.604 131.695C185.873 130.579 192.052 135.828 193.381 143.446L194.449 149.426Z" fill="#FFB083"/>
<path d="M181.065 130.792C177.62 127.658 171.565 129.173 167.591 134.181C163.616 139.189 163.203 145.795 166.674 148.93C170.146 152.064 176.167 150.548 180.141 145.54C184.116 140.533 184.529 133.913 181.065 130.792Z" fill="#1B2A67"/>
<path d="M183.352 147.738C183.218 147.739 183.087 147.696 182.979 147.617C182.87 147.538 182.79 147.426 182.75 147.298C182.71 147.171 182.712 147.033 182.756 146.906C182.8 146.78 182.883 146.67 182.994 146.594C183.611 146.186 184.327 145.954 185.066 145.922C185.805 145.891 186.539 146.061 187.189 146.415C187.26 146.457 187.323 146.512 187.373 146.578C187.423 146.644 187.46 146.719 187.481 146.799C187.502 146.879 187.507 146.962 187.496 147.044C187.485 147.126 187.458 147.205 187.416 147.276C187.374 147.348 187.319 147.41 187.253 147.46C187.187 147.511 187.112 147.547 187.033 147.568C186.953 147.589 186.869 147.595 186.787 147.584C186.705 147.572 186.626 147.545 186.555 147.504C186.112 147.268 185.613 147.156 185.112 147.178C184.611 147.2 184.124 147.355 183.703 147.628C183.601 147.701 183.478 147.739 183.352 147.738Z" fill="#86294E"/>
<path d="M194.221 147.738C194.094 147.738 193.969 147.7 193.863 147.628C193.444 147.354 192.958 147.198 192.458 147.176C191.957 147.155 191.46 147.268 191.018 147.504C190.947 147.547 190.868 147.575 190.786 147.587C190.704 147.598 190.62 147.593 190.54 147.572C190.459 147.551 190.384 147.514 190.318 147.463C190.253 147.412 190.198 147.349 190.157 147.276C190.115 147.205 190.087 147.127 190.075 147.045C190.063 146.963 190.068 146.88 190.088 146.8C190.109 146.72 190.145 146.645 190.195 146.579C190.244 146.513 190.306 146.457 190.378 146.415C191.028 146.059 191.763 145.887 192.504 145.919C193.244 145.951 193.962 146.184 194.58 146.594C194.69 146.67 194.773 146.78 194.817 146.906C194.861 147.033 194.863 147.17 194.823 147.298C194.783 147.426 194.703 147.538 194.594 147.617C194.486 147.696 194.355 147.739 194.221 147.738Z" fill="#86294E"/>
<path d="M186.197 149.433C186.196 149.571 186.154 149.706 186.076 149.82C185.997 149.934 185.886 150.022 185.757 150.072C185.628 150.123 185.487 150.133 185.352 150.101C185.217 150.07 185.095 149.999 185.001 149.897C184.907 149.795 184.846 149.667 184.826 149.53C184.806 149.393 184.828 149.253 184.889 149.128C184.949 149.004 185.046 148.901 185.166 148.832C185.287 148.763 185.425 148.733 185.563 148.744C185.736 148.758 185.897 148.836 186.015 148.964C186.132 149.092 186.197 149.259 186.197 149.433Z" fill="#86294E"/>
<path d="M192.499 149.681C192.499 149.819 192.457 149.954 192.378 150.068C192.3 150.183 192.189 150.27 192.06 150.321C191.931 150.371 191.789 150.381 191.654 150.349C191.52 150.318 191.397 150.247 191.303 150.145C191.21 150.043 191.149 149.915 191.129 149.778C191.109 149.641 191.131 149.501 191.191 149.377C191.252 149.252 191.349 149.149 191.469 149.08C191.589 149.011 191.727 148.981 191.866 148.992C192.039 149.006 192.2 149.084 192.317 149.212C192.435 149.34 192.5 149.507 192.499 149.681Z" fill="#86294E"/>
<path d="M194.029 154.254H193.822C192.503 154.227 191.248 153.681 190.33 152.734C189.412 151.786 188.904 150.515 188.918 149.196C188.931 147.877 189.465 146.616 190.403 145.688C191.34 144.76 192.606 144.24 193.925 144.24C195.245 144.24 196.511 144.76 197.448 145.688C198.386 146.616 198.92 147.877 198.933 149.196C198.947 150.515 198.439 151.786 197.521 152.734C196.603 153.681 195.348 154.227 194.029 154.254ZM194.029 144.79C192.919 144.792 191.852 145.224 191.053 145.994C190.253 146.764 189.782 147.813 189.737 148.923C189.715 149.487 189.804 150.051 190 150.581C190.196 151.111 190.494 151.597 190.878 152.012C191.262 152.426 191.724 152.761 192.237 152.997C192.751 153.233 193.306 153.365 193.87 153.386C195.009 153.425 196.117 153.014 196.956 152.243C197.583 151.667 198.023 150.917 198.222 150.09C198.422 149.262 198.37 148.394 198.075 147.596C197.78 146.798 197.254 146.106 196.564 145.607C195.874 145.109 195.052 144.826 194.201 144.797L194.029 144.79Z" fill="#FFD2D4"/>
<path d="M182.924 154.454H182.69C181.543 154.409 180.435 154.024 179.507 153.349C178.579 152.674 177.871 151.739 177.474 150.662C177.076 149.585 177.007 148.414 177.275 147.298C177.542 146.182 178.135 145.17 178.977 144.39C179.533 143.868 180.189 143.463 180.905 143.199C181.621 142.935 182.383 142.818 183.145 142.854C184.654 142.926 186.076 143.584 187.109 144.687C188.141 145.791 188.702 147.254 188.674 148.765C188.645 150.276 188.028 151.716 186.955 152.78C185.881 153.843 184.436 154.446 182.924 154.461V154.454ZM182.924 143.825C181.677 143.824 180.478 144.307 179.579 145.171C178.68 146.036 178.151 147.215 178.102 148.461C178.078 149.094 178.177 149.726 178.397 150.32C178.616 150.914 178.95 151.459 179.38 151.924C179.81 152.389 180.327 152.765 180.902 153.03C181.477 153.295 182.099 153.444 182.731 153.469C184.01 153.519 185.257 153.06 186.197 152.191C187.136 151.322 187.693 150.116 187.743 148.837C187.793 147.558 187.333 146.311 186.465 145.372C185.596 144.432 184.389 143.876 183.11 143.825H182.924Z" fill="#FFD2D4"/>
<path d="M187.719 149.556L189.854 149.639C189.973 149.643 190.09 149.599 190.177 149.518C190.265 149.437 190.317 149.325 190.322 149.205C190.326 149.086 190.283 148.97 190.202 148.882C190.12 148.794 190.008 148.742 189.888 148.737L187.753 148.654C187.694 148.652 187.636 148.662 187.581 148.683C187.526 148.704 187.475 148.735 187.432 148.775C187.389 148.816 187.355 148.864 187.331 148.918C187.307 148.971 187.293 149.029 187.292 149.088C187.289 149.147 187.298 149.206 187.318 149.261C187.338 149.316 187.368 149.367 187.408 149.411C187.448 149.454 187.495 149.49 187.549 149.515C187.602 149.54 187.66 149.554 187.719 149.556Z" fill="#FFD2D4"/>
<path d="M191.997 152.581C191.935 153.331 191.067 154.013 190.054 154.11C189.042 154.206 188.263 153.669 188.325 152.918C188.387 152.167 189.262 151.485 190.275 151.389C191.287 151.292 192.059 151.823 191.997 152.581Z" fill="#86294E"/>
<path d="M191.556 156.645C191.485 157.514 191.073 158.32 190.409 158.886C189.746 159.451 188.884 159.73 188.015 159.662C186.128 159.586 185.039 157.719 185.108 155.977C187.28 155.768 189.472 155.995 191.556 156.645Z" fill="#86294E"/>
<path d="M188.304 157.706C186.809 157.533 185.893 157.017 185.804 155.901C187.639 155.794 189.479 155.999 191.246 156.507C190.991 157.52 189.765 157.878 188.304 157.706Z" fill="#FFD2D4"/>
<path d="M183.896 160.33H180.19C178.696 160.329 177.256 159.774 176.146 158.773L173.825 156.707C173.782 156.666 173.748 156.617 173.725 156.562C173.702 156.508 173.69 156.449 173.69 156.39C173.69 156.331 173.702 156.272 173.725 156.218C173.748 156.164 173.782 156.114 173.825 156.073C173.864 156.029 173.912 155.993 173.965 155.968C174.018 155.942 174.076 155.927 174.134 155.924C174.193 155.921 174.252 155.93 174.308 155.949C174.364 155.969 174.415 155.999 174.459 156.039L176.78 158.105C177.723 158.96 178.951 159.431 180.224 159.428H183.93C184.05 159.43 184.163 159.478 184.247 159.563C184.331 159.649 184.378 159.763 184.378 159.883C184.378 159.944 184.366 160.005 184.341 160.062C184.316 160.119 184.28 160.17 184.235 160.212C184.19 160.254 184.136 160.286 184.078 160.307C184.019 160.327 183.957 160.335 183.896 160.33Z" fill="#201028"/>
<path d="M183.896 160.778H182.387C182.263 160.789 182.137 160.774 182.019 160.733C181.9 160.693 181.791 160.629 181.699 160.544C181.607 160.46 181.533 160.357 181.483 160.242C181.432 160.128 181.406 160.004 181.406 159.879C181.406 159.754 181.432 159.63 181.483 159.515C181.533 159.401 181.607 159.298 181.699 159.214C181.791 159.129 181.9 159.065 182.019 159.024C182.137 158.984 182.263 158.969 182.387 158.98H183.889C184.114 159 184.323 159.103 184.476 159.269C184.628 159.436 184.713 159.653 184.713 159.879C184.713 160.105 184.628 160.322 184.476 160.489C184.323 160.655 184.114 160.758 183.889 160.778H183.896Z" fill="#FFD2D4"/>
<path d="M178.914 154.589C180.331 150.676 178.308 146.355 174.395 144.937C170.481 143.52 166.16 145.543 164.743 149.457C163.325 153.37 165.349 157.691 169.262 159.109C173.175 160.526 177.496 158.503 178.914 154.589Z" fill="#89D3F3"/>
<path d="M176.591 152.201C176.731 148.65 174.212 145.668 170.965 145.541C167.719 145.413 164.974 148.188 164.835 151.739C164.695 155.289 167.214 158.271 170.46 158.399C173.707 158.526 176.452 155.751 176.591 152.201Z" fill="#7996FF"/>
<path d="M171.641 152.009C171.579 153.448 170.629 154.578 169.513 154.53C168.397 154.482 167.543 153.283 167.598 151.85C167.653 150.418 168.603 149.281 169.719 149.322C170.835 149.364 171.696 150.569 171.641 152.009Z" fill="#E0EEF7"/>
<path d="M190.026 257.217L153.979 258.23C151.093 258.115 148.372 256.859 146.412 254.738C144.452 252.617 143.415 249.804 143.529 246.919L145.802 186.596C145.863 185.056 146.397 183.573 147.331 182.348C148.266 181.122 149.555 180.215 151.024 179.749L177.889 171.186L199.367 181.485C200.688 182.116 201.795 183.12 202.55 184.374C203.306 185.628 203.677 187.076 203.617 188.539L201.33 246.76C201.218 249.646 199.963 252.368 197.844 254.329C195.724 256.29 192.912 257.329 190.026 257.217Z" fill="#88FCAB"/>
<path d="M203.624 188.545C203.748 194.835 203.679 201.124 203.576 207.399C203.473 213.675 203.266 219.957 203.046 226.239C202.825 232.522 202.508 238.79 202.095 245.059C202.087 246.694 201.836 248.319 201.351 249.881C200.556 252.194 199.009 254.175 196.956 255.505C194.903 256.835 192.463 257.438 190.026 257.217C191.57 257.19 193.091 256.837 194.488 256.18C195.885 255.524 197.128 254.579 198.134 253.408C199.125 252.279 199.854 250.945 200.27 249.502C200.635 248.029 200.785 246.512 200.717 244.997C200.8 238.714 201.02 232.432 201.248 226.157C201.475 219.881 201.785 213.613 202.198 207.337C202.612 201.062 203.011 194.807 203.624 188.545Z" fill="#75CF91"/>
<path d="M171.828 167.354L186.078 168.273C186.42 168.295 186.755 168.384 187.062 168.536C187.37 168.687 187.645 168.897 187.871 169.155C188.098 169.412 188.271 169.712 188.382 170.037C188.492 170.361 188.538 170.704 188.516 171.046L187.77 182.609L168.316 181.354L169.061 169.805C169.105 169.115 169.422 168.47 169.942 168.012C170.463 167.555 171.143 167.324 171.834 167.368L171.828 167.354Z" fill="#88FCAB"/>
<path d="M129.8 239.541C126.909 238.338 124.613 236.036 123.417 233.142C122.221 230.248 122.223 226.997 123.421 224.104L136.627 192.32C137.221 190.887 138.092 189.586 139.19 188.49C140.287 187.394 141.59 186.525 143.024 185.932C144.457 185.34 145.993 185.036 147.545 185.037C149.096 185.039 150.631 185.346 152.064 185.942C153.496 186.537 154.797 187.408 155.892 188.506C156.988 189.604 157.856 190.907 158.448 192.34C159.039 193.774 159.343 195.31 159.341 196.861C159.339 198.411 159.031 199.947 158.436 201.379L145.237 233.162C144.036 236.055 141.734 238.352 138.839 239.548C135.945 240.744 132.693 240.741 129.8 239.541Z" fill="#88FCAB"/>
<path d="M152.064 185.942C154.217 186.659 156.113 187.991 157.519 189.772C158.937 191.618 159.797 193.831 159.999 196.15C160.309 198.465 159.565 200.924 158.718 202.915L156.224 209.053C154.516 213.117 152.78 217.188 150.955 221.197L148.199 227.218C147.214 229.195 146.284 231.199 145.251 233.162C145.905 231.048 146.677 228.974 147.38 226.88L149.687 220.68C151.23 216.547 152.904 212.456 154.578 208.378L157.161 202.281C157.622 201.327 157.996 200.334 158.277 199.312C158.538 198.31 158.658 197.276 158.635 196.24C158.563 194.092 157.915 192.003 156.759 190.191C155.603 188.38 153.981 186.912 152.064 185.942Z" fill="#75CF91"/>
<path d="M184.771 222.878L178.75 222.492C177.669 222.412 176.663 221.912 175.948 221.097C175.233 220.283 174.866 219.22 174.927 218.138L175.106 215.431C175.14 214.895 175.28 214.37 175.517 213.888C175.754 213.405 176.083 212.974 176.487 212.619C176.891 212.264 177.36 211.992 177.869 211.819C178.378 211.645 178.916 211.574 179.453 211.608L185.466 211.994L184.771 222.878ZM179.26 214.302C179.077 214.288 178.892 214.31 178.718 214.369C178.544 214.427 178.383 214.519 178.245 214.641C178.107 214.762 177.995 214.91 177.915 215.075C177.835 215.24 177.788 215.42 177.779 215.604L177.6 218.318C177.586 218.501 177.609 218.686 177.667 218.861C177.726 219.036 177.819 219.197 177.941 219.335C178.063 219.473 178.212 219.585 178.378 219.665C178.544 219.744 178.724 219.79 178.908 219.799L182.229 220.012L182.58 214.501L179.26 214.302Z" fill="#CD1A3B"/>
<path d="M190.612 231.53L185.411 231.192C184.66 231.144 183.926 230.948 183.251 230.616C182.575 230.284 181.972 229.822 181.476 229.256C180.979 228.69 180.599 228.033 180.357 227.32C180.115 226.607 180.016 225.854 180.066 225.103L181.14 208.384C181.264 206.518 197.9 207.592 197.783 209.459L196.701 226.177C196.654 226.929 196.459 227.664 196.127 228.34C195.795 229.016 195.333 229.62 194.767 230.117C194.202 230.615 193.544 230.995 192.83 231.238C192.117 231.48 191.363 231.579 190.612 231.53Z" fill="#FF4365"/>
<path d="M196.123 209.913C196.081 210.602 192.988 210.933 189.234 210.685C185.48 210.437 182.442 209.7 182.49 209.032C182.539 208.364 185.618 208.012 189.379 208.253C193.14 208.494 196.164 209.238 196.123 209.913Z" fill="#CD1A3B"/>
<path d="M123.256 228.919C123.281 227.368 123.61 225.838 124.226 224.415C124.842 222.991 125.732 221.703 126.846 220.624C127.959 219.545 129.275 218.696 130.717 218.125C132.158 217.554 133.699 217.273 135.249 217.298L169.692 217.842C171.242 217.866 172.773 218.196 174.196 218.812C175.619 219.428 176.907 220.318 177.987 221.431C179.066 222.545 179.915 223.86 180.486 225.302C181.056 226.744 181.337 228.285 181.313 229.835C181.289 231.386 180.959 232.916 180.343 234.339C179.727 235.763 178.837 237.051 177.723 238.13C176.61 239.209 175.294 240.058 173.853 240.629C172.411 241.2 170.87 241.481 169.32 241.456L134.877 240.912C133.327 240.888 131.796 240.558 130.373 239.942C128.95 239.326 127.662 238.436 126.583 237.323C125.503 236.209 124.654 234.894 124.084 233.452C123.513 232.01 123.232 230.469 123.256 228.919Z" fill="#88FCAB"/>
<path d="M135.249 217.298C139.671 216.995 144.087 216.892 148.503 216.816C152.918 216.74 157.334 216.768 161.742 216.816L168.362 216.967C170.525 216.967 173.081 217.277 175.078 218.483C177.126 219.594 178.813 221.267 179.942 223.305C181.02 225.303 181.487 227.574 181.285 229.835C181.156 227.693 180.454 225.625 179.254 223.846C178.053 222.067 176.397 220.643 174.458 219.723C173.518 219.293 172.524 218.992 171.503 218.827C170.454 218.679 169.393 218.626 168.335 218.669L161.715 218.614C157.299 218.524 152.89 218.428 148.482 218.194C144.073 217.959 139.658 217.739 135.249 217.298Z" fill="#75CF91"/>
<path d="M190.822 233.829C194.47 229.431 193.863 222.909 189.465 219.26C185.067 215.611 178.544 216.219 174.896 220.617C171.247 225.014 171.855 231.537 176.252 235.186C180.65 238.834 187.173 238.227 190.822 233.829Z" fill="#FFB083"/>
<path d="M177.51 222.299C177.203 222.193 176.919 222.027 176.676 221.812C176.433 221.596 176.235 221.335 176.093 221.042C175.951 220.75 175.868 220.432 175.849 220.108C175.829 219.783 175.874 219.458 175.981 219.151L177.083 215.962C177.189 215.654 177.355 215.371 177.57 215.128C177.786 214.885 178.048 214.686 178.34 214.544C178.632 214.402 178.95 214.319 179.274 214.3C179.599 214.281 179.924 214.326 180.231 214.432C180.538 214.539 180.822 214.704 181.065 214.92C181.308 215.136 181.506 215.397 181.648 215.689C181.79 215.982 181.873 216.299 181.893 216.624C181.912 216.948 181.867 217.273 181.76 217.581L180.658 220.763C180.444 221.384 179.992 221.894 179.402 222.182C178.812 222.47 178.131 222.512 177.51 222.299Z" fill="#FFB083"/>
<path d="M197.322 223.649L188.112 224.504C187.429 224.565 186.75 224.354 186.222 223.916C185.694 223.479 185.361 222.851 185.294 222.168C185.231 221.485 185.441 220.805 185.879 220.277C186.317 219.748 186.946 219.415 187.629 219.351L196.819 218.497C197.157 218.465 197.497 218.501 197.821 218.601C198.146 218.702 198.447 218.865 198.708 219.082C198.969 219.299 199.184 219.565 199.343 219.865C199.501 220.166 199.598 220.494 199.629 220.832C199.697 221.511 199.491 222.19 199.059 222.718C198.626 223.247 198.001 223.581 197.322 223.649Z" fill="#FFB083"/>
<path d="M195.379 232.095L186.176 231.502C185.49 231.456 184.851 231.14 184.398 230.624C183.945 230.107 183.715 229.432 183.758 228.747C183.78 228.407 183.869 228.075 184.019 227.769C184.169 227.464 184.379 227.191 184.635 226.966C184.89 226.742 185.188 226.57 185.511 226.461C185.833 226.351 186.174 226.306 186.514 226.329L195.689 226.908C196.375 226.954 197.014 227.269 197.467 227.786C197.92 228.302 198.15 228.977 198.107 229.663C198.064 230.346 197.754 230.984 197.243 231.44C196.732 231.895 196.062 232.13 195.379 232.095Z" fill="#FFB083"/>
<path d="M288.973 200.731C288.687 200.729 288.412 200.615 288.208 200.414C288.007 200.211 287.895 199.936 287.895 199.65C287.895 199.364 288.007 199.089 288.208 198.885L298.541 188.552C298.639 188.441 298.758 188.35 298.892 188.287C299.026 188.223 299.172 188.188 299.32 188.183C299.469 188.179 299.616 188.204 299.754 188.259C299.892 188.314 300.017 188.396 300.122 188.501C300.226 188.606 300.308 188.732 300.362 188.87C300.416 189.008 300.442 189.156 300.436 189.304C300.431 189.452 300.395 189.598 300.331 189.732C300.267 189.865 300.176 189.985 300.064 190.082L289.731 200.414C289.53 200.616 289.258 200.73 288.973 200.731Z" fill="#89D3F3"/>
<path d="M281.637 194.394C281.35 194.394 281.075 194.28 280.872 194.077C280.669 193.874 280.555 193.599 280.555 193.312V178.743C280.543 178.594 280.562 178.445 280.611 178.303C280.66 178.162 280.737 178.033 280.839 177.923C280.94 177.814 281.063 177.726 281.2 177.666C281.336 177.606 281.484 177.575 281.633 177.575C281.783 177.575 281.93 177.606 282.067 177.666C282.204 177.726 282.327 177.814 282.428 177.923C282.529 178.033 282.607 178.162 282.655 178.303C282.704 178.445 282.723 178.594 282.711 178.743V193.312C282.712 193.454 282.685 193.594 282.631 193.726C282.578 193.857 282.499 193.976 282.399 194.077C282.299 194.177 282.18 194.257 282.05 194.311C281.919 194.366 281.778 194.394 281.637 194.394Z" fill="#89D3F3"/>
<path d="M309.866 208.054H295.29C295.019 208.032 294.766 207.909 294.581 207.709C294.397 207.51 294.294 207.248 294.294 206.976C294.294 206.704 294.397 206.442 294.581 206.242C294.766 206.042 295.019 205.919 295.29 205.898H309.866C310.015 205.886 310.164 205.905 310.305 205.954C310.446 206.002 310.576 206.08 310.686 206.181C310.795 206.282 310.883 206.405 310.943 206.542C311.003 206.679 311.034 206.826 311.034 206.976C311.034 207.125 311.003 207.273 310.943 207.41C310.883 207.546 310.795 207.669 310.686 207.77C310.576 207.872 310.446 207.949 310.305 207.998C310.164 208.047 310.015 208.066 309.866 208.054Z" fill="#89D3F3"/>
<path d="M180.431 253.38H269.596C272.083 253.38 272.847 251.369 272.847 248.875H175.926C175.926 250.07 176.4 251.216 177.245 252.061C178.09 252.906 179.236 253.38 180.431 253.38Z" fill="#6EACCE"/>
<path d="M175.258 248.875H206.862C206.862 251.369 204.575 253.38 201.751 253.38H175.127C172.213 253.339 172.344 248.875 175.258 248.875Z" fill="#6EACCE"/>
<path d="M208.839 250.191H272.84C273.762 250.191 274.655 249.868 275.364 249.28C276.074 248.691 276.555 247.873 276.725 246.967L285.357 209.948C285.465 209.376 285.446 208.787 285.301 208.224C285.156 207.66 284.888 207.135 284.517 206.687C284.146 206.238 283.681 205.877 283.155 205.629C282.628 205.38 282.054 205.251 281.471 205.25H217.463C216.541 205.249 215.648 205.571 214.938 206.16C214.228 206.749 213.747 207.567 213.578 208.474L204.947 245.507C204.841 246.078 204.862 246.666 205.008 247.228C205.155 247.791 205.423 248.314 205.795 248.761C206.166 249.208 206.631 249.568 207.158 249.815C207.684 250.062 208.258 250.19 208.839 250.191Z" fill="#E0EEF7"/>
<path d="M213.599 208.474C213.787 207.475 214.352 206.587 215.177 205.994C215.79 206.434 216.264 207.039 216.544 207.74C216.824 208.441 216.896 209.207 216.754 209.948L208.088 246.967C207.896 247.962 207.332 248.846 206.511 249.44C205.897 249.002 205.422 248.398 205.141 247.698C204.861 246.999 204.786 246.233 204.926 245.493L213.599 208.474Z" fill="#6EACCE"/>
<path d="M253.835 232.418H243.337C242.825 232.419 242.317 232.319 241.844 232.123C241.37 231.928 240.94 231.641 240.578 231.278C240.216 230.916 239.929 230.486 239.733 230.013C239.537 229.539 239.437 229.032 239.438 228.52C239.438 227.485 239.849 226.494 240.58 225.763C241.311 225.031 242.303 224.621 243.337 224.621H253.835C254.869 224.621 255.861 225.031 256.592 225.763C257.323 226.494 257.734 227.485 257.734 228.52C257.735 229.032 257.635 229.539 257.439 230.013C257.243 230.486 256.956 230.916 256.594 231.278C256.232 231.641 255.802 231.928 255.328 232.123C254.855 232.319 254.347 232.419 253.835 232.418Z" fill="white"/>
<path d="M184.805 250.122H181.65C181.502 250.122 181.356 250.093 181.219 250.036C181.082 249.979 180.958 249.896 180.854 249.791C180.749 249.686 180.667 249.561 180.611 249.424C180.555 249.287 180.526 249.14 180.527 248.992C180.527 248.694 180.646 248.409 180.856 248.198C181.067 247.988 181.352 247.869 181.65 247.869H184.805C185.103 247.869 185.389 247.988 185.599 248.198C185.81 248.409 185.928 248.694 185.928 248.992C185.929 249.14 185.9 249.287 185.844 249.424C185.788 249.561 185.706 249.686 185.602 249.791C185.497 249.896 185.373 249.979 185.236 250.036C185.1 250.093 184.953 250.122 184.805 250.122Z" fill="#6EACCE"/>
<path d="M190.95 250.122H187.802C187.654 250.122 187.507 250.093 187.37 250.036C187.234 249.979 187.109 249.896 187.005 249.791C186.901 249.686 186.818 249.561 186.762 249.424C186.706 249.287 186.678 249.14 186.679 248.992C186.679 248.694 186.797 248.409 187.008 248.198C187.218 247.988 187.504 247.869 187.802 247.869H190.95C191.247 247.869 191.533 247.988 191.744 248.198C191.954 248.409 192.072 248.694 192.072 248.992C192.073 249.14 192.045 249.287 191.989 249.424C191.933 249.561 191.85 249.686 191.746 249.791C191.642 249.896 191.518 249.979 191.381 250.036C191.244 250.093 191.098 250.122 190.95 250.122Z" fill="#6EACCE"/>
<path d="M197.101 250.122H193.953C193.804 250.123 193.657 250.094 193.52 250.038C193.382 249.981 193.257 249.898 193.152 249.793C193.047 249.688 192.964 249.563 192.907 249.426C192.851 249.288 192.822 249.141 192.823 248.992C192.823 248.844 192.853 248.698 192.909 248.561C192.966 248.424 193.05 248.3 193.155 248.196C193.26 248.091 193.384 248.009 193.521 247.953C193.658 247.897 193.805 247.868 193.953 247.869H197.101C197.399 247.869 197.684 247.988 197.895 248.198C198.106 248.409 198.224 248.694 198.224 248.992C198.225 249.14 198.196 249.287 198.14 249.424C198.084 249.561 198.002 249.686 197.897 249.791C197.793 249.896 197.669 249.979 197.532 250.036C197.396 250.093 197.249 250.122 197.101 250.122Z" fill="#6EACCE"/>
<path d="M203.266 250.122H200.097C199.949 250.122 199.803 250.093 199.666 250.036C199.529 249.979 199.405 249.896 199.301 249.791C199.197 249.686 199.114 249.561 199.058 249.424C199.002 249.287 198.974 249.14 198.975 248.992C198.975 248.694 199.093 248.409 199.303 248.198C199.514 247.988 199.8 247.869 200.097 247.869H203.266C203.565 247.869 203.851 247.987 204.063 248.198C204.274 248.408 204.394 248.694 204.396 248.992C204.396 249.292 204.277 249.579 204.065 249.791C203.853 250.003 203.566 250.122 203.266 250.122Z" fill="#6EACCE"/>
<path d="M320.571 258.54H51.2301C50.8755 258.54 50.5244 258.47 50.1967 258.334C49.8691 258.198 49.5714 257.999 49.3207 257.749C49.07 257.498 48.8711 257.2 48.7353 256.873C48.5996 256.545 48.5298 256.194 48.5298 255.839C48.5289 255.484 48.5981 255.133 48.7335 254.805C48.8689 254.477 49.0677 254.179 49.3187 253.928C49.5696 253.677 49.8676 253.478 50.1957 253.343C50.5237 253.207 50.8752 253.138 51.2301 253.139H320.571C321.287 253.139 321.974 253.424 322.48 253.93C322.987 254.436 323.271 255.123 323.271 255.839C323.269 256.555 322.984 257.241 322.478 257.747C321.972 258.253 321.286 258.538 320.571 258.54Z" fill="#05228B"/>
<path d="M91.5484 236.551C91.5484 236.551 89.5645 221.659 85.9756 218.001" stroke="#1B2A67" stroke-width="0.571747" stroke-miterlimit="10" stroke-linecap="round"/>
<path d="M86.5542 209.121C87.5117 212.297 87.3188 215.163 86.1133 215.528C84.9079 215.893 83.1651 213.613 82.2076 210.437C82.2045 210.405 82.2045 210.373 82.2076 210.341C81.3947 207.516 85.6518 206.208 86.5542 209.032V209.121Z" fill="#FFD2D4"/>
<path d="M92.2509 216.217C89.0753 217.174 86.2096 216.981 85.8445 215.783C85.4794 214.584 87.7595 212.827 90.9352 211.87H91.0316C93.8559 211.057 95.1647 215.314 92.3473 216.217H92.2509Z" fill="#FFD2D4"/>
<path d="M81.3881 219.496C84.5637 218.538 86.8438 216.788 86.4787 215.59C86.1136 214.391 83.2549 214.212 80.0792 215.149H79.9828C77.1792 216.038 78.4673 220.308 81.2985 219.496H81.3881Z" fill="#FFD2D4"/>
<path d="M86.7333 223.105C87.6288 219.909 87.3671 217.05 86.1616 216.713C84.9561 216.375 83.2546 218.69 82.3591 221.886C82.3591 221.886 82.3591 221.948 82.3591 221.982C81.6083 224.82 85.9067 226.026 86.7333 223.202C86.7126 223.167 86.7264 223.14 86.7333 223.105Z" fill="#FFD2D4"/>
<path d="M89.7984 222.182C87.2841 220.012 85.9133 217.491 86.733 216.54C87.5528 215.59 90.2531 216.575 92.7605 218.738L92.8363 218.807C95.0406 220.756 92.1474 224.138 89.8742 222.251L89.7984 222.182Z" fill="#FFD2D4"/>
<path d="M87.6151 215.941C87.7058 216.236 87.7069 216.551 87.6183 216.846C87.5297 217.142 87.3554 217.404 87.1174 217.6C86.8795 217.796 86.5887 217.917 86.2819 217.948C85.975 217.979 85.666 217.917 85.394 217.772C85.122 217.627 84.8992 217.404 84.7539 217.132C84.6086 216.86 84.5474 216.551 84.578 216.244C84.6086 215.938 84.7296 215.647 84.9257 215.409C85.1218 215.171 85.3841 214.996 85.6794 214.908C85.8744 214.848 86.0791 214.828 86.282 214.848C86.4848 214.867 86.6818 214.927 86.8616 215.023C87.0414 215.119 87.2005 215.249 87.3298 215.407C87.4591 215.565 87.556 215.746 87.6151 215.941Z" fill="#D15E79"/>
<path d="M85.6931 226.97C89.8262 230.214 92.1614 234.113 90.9353 235.677C89.7091 237.24 85.3625 235.863 81.2431 232.618C77.1238 229.374 76.001 223.911 76.001 223.911C76.001 223.911 81.5669 223.718 85.6931 226.97Z" fill="#89D3F3"/>
<path d="M100.173 231.888C95.8262 235.973 91.0387 237.95 89.4956 236.304C87.9526 234.657 90.2258 230.007 94.5725 225.923C98.9191 221.838 105.257 221.5 105.257 221.5C105.257 221.5 104.526 227.796 100.173 231.888Z" fill="#89D3F3"/>
<path d="M96.9764 254.035H82.7309L80.2373 236.118H99.47L96.9764 254.035Z" fill="#1B2A67"/>
<path d="M100.207 234.051H79.4936C78.9343 234.051 78.481 234.504 78.481 235.064V239.7C78.481 240.259 78.9343 240.712 79.4936 240.712H100.207C100.767 240.712 101.22 240.259 101.22 239.7V235.064C101.22 234.504 100.767 234.051 100.207 234.051Z" fill="#1B2A67"/>
<path d="M133.307 102.184L140.367 109.761L194.208 87.3049L133.307 102.184Z" fill="#75CF91"/>
<path d="M135.821 77.1926L130.503 85.2109L134.099 93.0706L126.032 94.4415L118.903 110.092L195.93 86.7814L135.821 77.1926Z" fill="#88FCAB"/>
<path d="M134.099 93.0706L130.503 85.2108L172.22 87.1603L134.099 93.0706Z" fill="#75CF91"/>
<path d="M130.041 170.814H128.264C128.122 170.813 127.982 170.785 127.852 170.729C127.721 170.674 127.603 170.594 127.504 170.492C127.405 170.391 127.326 170.271 127.274 170.14C127.221 170.008 127.195 169.868 127.196 169.726C127.195 169.584 127.223 169.443 127.278 169.311C127.332 169.18 127.413 169.061 127.514 168.961C127.616 168.862 127.736 168.784 127.869 168.732C128.001 168.68 128.143 168.655 128.285 168.658C131.081 168.693 133.858 168.658 136.902 168.521H136.951C137.222 168.536 137.478 168.654 137.667 168.851C137.856 169.047 137.964 169.307 137.969 169.579C137.974 169.852 137.876 170.116 137.695 170.319C137.514 170.523 137.263 170.65 136.992 170.677C134.553 170.766 132.315 170.814 130.041 170.814ZM119.612 170.422H119.516C116.54 170.167 113.619 169.781 110.822 169.285C110.682 169.261 110.548 169.209 110.428 169.133C110.308 169.057 110.204 168.958 110.123 168.841C110.042 168.724 109.984 168.593 109.954 168.454C109.924 168.315 109.922 168.171 109.948 168.031C110.003 167.752 110.164 167.504 110.398 167.341C110.632 167.178 110.92 167.112 111.201 167.157C113.957 167.646 116.795 168.018 119.702 168.266C119.987 168.292 120.25 168.43 120.435 168.649C120.619 168.868 120.71 169.151 120.687 169.437C120.663 169.705 120.539 169.955 120.34 170.137C120.142 170.32 119.882 170.421 119.612 170.422ZM102.57 167.308C102.462 167.309 102.356 167.292 102.253 167.26C99.4417 166.397 96.6935 165.341 94.0282 164.098C93.8924 164.043 93.7694 163.96 93.6665 163.856C93.5636 163.751 93.483 163.627 93.4296 163.491C93.3762 163.354 93.3511 163.208 93.3559 163.061C93.3607 162.915 93.3953 162.771 93.4574 162.638C93.5196 162.505 93.6082 162.387 93.7177 162.289C93.8272 162.192 93.9553 162.117 94.0944 162.071C94.2335 162.025 94.3806 162.007 94.5267 162.019C94.6728 162.031 94.8149 162.073 94.9444 162.142C97.5172 163.344 100.171 164.363 102.887 165.193C103.024 165.237 103.15 165.307 103.259 165.401C103.369 165.494 103.458 165.608 103.522 165.737C103.586 165.865 103.624 166.005 103.633 166.148C103.643 166.292 103.623 166.435 103.576 166.571C103.498 166.776 103.361 166.952 103.181 167.078C103.002 167.203 102.789 167.271 102.57 167.274V167.308ZM86.933 159.944C86.7212 159.944 86.5145 159.879 86.3406 159.758C83.8852 158.124 81.5613 156.299 79.3901 154.303C79.18 154.109 79.0554 153.84 79.0438 153.554C79.0322 153.269 79.1345 152.99 79.3281 152.78C79.5218 152.57 79.791 152.446 80.0765 152.434C80.3619 152.422 80.6404 152.525 80.8505 152.718C82.9423 154.637 85.1785 156.392 87.5392 157.967C87.7308 158.097 87.8758 158.285 87.9528 158.503C88.0297 158.721 88.0347 158.959 87.9668 159.18C87.899 159.401 87.7619 159.595 87.5759 159.732C87.3898 159.87 87.1645 159.944 86.933 159.944ZM74.2099 148.234C74.0473 148.234 73.8868 148.197 73.7402 148.127C73.5936 148.056 73.4645 147.954 73.3627 147.827C71.5267 145.519 69.8709 143.074 68.4098 140.512C68.2655 140.259 68.2276 139.959 68.3044 139.678C68.3813 139.397 68.5666 139.158 68.8197 139.014C69.0727 138.869 69.3727 138.831 69.6537 138.908C69.9347 138.985 70.1736 139.17 70.3179 139.423C71.7274 141.888 73.3233 144.242 75.0917 146.463C75.2197 146.622 75.3 146.814 75.3232 147.016C75.3465 147.219 75.3116 147.424 75.2228 147.607C75.134 147.79 74.9948 147.945 74.8216 148.052C74.6484 148.159 74.4482 148.215 74.2444 148.213L74.2099 148.234ZM65.6613 133.224C65.4427 133.225 65.2289 133.159 65.0481 133.036C64.8673 132.914 64.7281 132.739 64.6487 132.535C63.603 129.772 62.7918 126.926 62.2239 124.028C62.1968 123.889 62.1973 123.746 62.2253 123.607C62.2534 123.469 62.3085 123.337 62.3875 123.219C62.4665 123.102 62.5678 123.001 62.6857 122.923C62.8036 122.845 62.9358 122.791 63.0747 122.764C63.2135 122.736 63.3564 122.737 63.495 122.765C63.6337 122.793 63.7655 122.848 63.8829 122.927C64.0003 123.006 64.1009 123.107 64.1791 123.225C64.2573 123.343 64.3116 123.475 64.3387 123.614C64.8883 126.395 65.667 129.125 66.667 131.777C66.7654 132.043 66.7547 132.337 66.6373 132.595C66.5199 132.853 66.3053 133.054 66.0402 133.155C65.9192 133.201 65.7908 133.224 65.6613 133.224ZM62.217 116.285C61.9429 116.284 61.6795 116.179 61.48 115.991C61.2806 115.803 61.1599 115.546 61.1424 115.272C61.0253 113.509 60.9702 111.649 60.9702 109.761V109.321C60.9702 108.384 60.9702 107.447 61.0184 106.503C61.0291 106.223 61.1475 105.958 61.349 105.763C61.5505 105.568 61.8195 105.458 62.0999 105.456H62.1344C62.2764 105.461 62.4162 105.493 62.5457 105.552C62.6752 105.61 62.792 105.693 62.8892 105.797C62.9864 105.901 63.0623 106.023 63.1124 106.156C63.1626 106.289 63.186 106.43 63.1814 106.572C63.1814 107.495 63.1332 108.411 63.1263 109.328V109.761C63.1263 111.615 63.1883 113.419 63.2917 115.141C63.301 115.283 63.2824 115.424 63.2368 115.558C63.1913 115.692 63.1197 115.816 63.0263 115.922C62.9329 116.028 62.8194 116.115 62.6923 116.177C62.5652 116.24 62.4271 116.276 62.2859 116.285H62.217Z" fill="#7996FF"/>
<path d="M71.2958 99.1326C69.6426 99.1326 68.0238 99.1326 66.4256 99.0775C66.1388 99.0775 65.8637 98.9635 65.6609 98.7607C65.4581 98.5579 65.3441 98.2828 65.3441 97.996C65.3441 97.7092 65.4581 97.4341 65.6609 97.2313C65.8637 97.0284 66.1388 96.9145 66.4256 96.9145C69.2132 96.9834 72.0903 96.9834 75.057 96.9145C75.2003 96.9026 75.3445 96.9214 75.4799 96.9696C75.6154 97.0178 75.7391 97.0943 75.8427 97.194C75.9463 97.2937 76.0275 97.4143 76.0809 97.5479C76.1343 97.6814 76.1586 97.8248 76.1522 97.9684C76.1559 98.1101 76.1315 98.2512 76.0804 98.3834C76.0293 98.5156 75.9526 98.6364 75.8546 98.7389C75.7567 98.8413 75.6394 98.9234 75.5096 98.9803C75.3798 99.0372 75.24 99.0679 75.0983 99.0706C73.8515 99.1188 72.5633 99.1326 71.2958 99.1326ZM83.7985 98.7744C83.5259 98.7619 83.268 98.6468 83.0767 98.4522C82.8854 98.2576 82.7747 97.9979 82.7669 97.7251C82.759 97.4523 82.8546 97.1867 83.0344 96.9814C83.2142 96.7761 83.465 96.6464 83.7365 96.6183C86.5332 96.4599 89.4333 96.2463 92.3609 95.9914C92.5077 95.9679 92.6577 95.9748 92.8017 96.0118C92.9457 96.0489 93.0805 96.1152 93.1977 96.2066C93.3149 96.2981 93.412 96.4127 93.4829 96.5434C93.5538 96.674 93.597 96.8179 93.6098 96.966C93.6227 97.1141 93.6048 97.2633 93.5574 97.4042C93.51 97.5451 93.434 97.6747 93.3343 97.7849C93.2345 97.8951 93.1131 97.9836 92.9777 98.0448C92.8422 98.106 92.6955 98.1387 92.5469 98.1407C89.5986 98.4024 86.6779 98.616 83.8605 98.7675L83.7985 98.7744ZM57.7943 98.6366H57.7048C54.7014 98.4093 51.7738 98.0855 49.0115 97.6929C48.7286 97.6504 48.474 97.4974 48.3036 97.2676C48.1332 97.0378 48.0608 96.7498 48.1022 96.4667C48.1465 96.1855 48.2986 95.9326 48.5262 95.7616C48.7538 95.5906 49.039 95.5149 49.3215 95.5506C52.0355 95.9432 54.9149 96.2394 57.877 96.4874C58.1491 96.517 58.3999 96.6487 58.5788 96.8559C58.7576 97.0631 58.8512 97.3305 58.8407 97.604C58.8302 97.8775 58.7164 98.1369 58.5222 98.3298C58.3281 98.5227 58.0679 98.6348 57.7943 98.6435V98.6366ZM101.082 97.2589C100.813 97.2483 100.558 97.1381 100.367 96.9499C100.175 96.7616 100.06 96.5088 100.045 96.2406C100.029 95.9723 100.114 95.708 100.283 95.4989C100.452 95.2899 100.692 95.1511 100.958 95.1097C103.761 94.7791 106.62 94.4209 109.534 93.9938C109.675 93.9734 109.818 93.981 109.956 94.016C110.093 94.051 110.223 94.1128 110.337 94.1979C110.451 94.283 110.547 94.3896 110.619 94.5118C110.692 94.634 110.74 94.7693 110.76 94.9099C110.78 95.0506 110.773 95.1939 110.738 95.3317C110.703 95.4694 110.641 95.5989 110.556 95.7128C110.471 95.8266 110.364 95.9226 110.242 95.9953C110.12 96.0679 109.985 96.1157 109.844 96.1361C106.909 96.5494 104.03 96.9283 101.206 97.252L101.082 97.2589ZM40.6282 96.1568C40.5502 96.1631 40.4719 96.1631 40.394 96.1568C38.3274 95.6883 36.2608 95.1579 34.3458 94.5862C33.5261 94.3451 32.7202 94.0902 31.928 93.8284C31.6539 93.7371 31.4274 93.5406 31.2982 93.2823C31.169 93.0239 31.1478 92.7248 31.2391 92.4507C31.3305 92.1767 31.5269 91.9502 31.7853 91.821C32.0437 91.6918 32.3428 91.6705 32.6168 91.7619C33.3883 92.0168 34.1736 92.2648 34.9658 92.5059C36.8464 93.0638 38.8303 93.5736 40.8693 94.0351C41.1275 94.0945 41.355 94.2467 41.5085 94.4627C41.6619 94.6787 41.7308 94.9436 41.7019 95.207C41.673 95.4704 41.5484 95.714 41.3517 95.8917C41.1551 96.0693 40.9 96.1685 40.6351 96.1705L40.6282 96.1568ZM24.2335 90.6115C24.0691 90.6086 23.9071 90.571 23.7582 90.5013C21.0978 89.2193 18.5494 87.7169 16.1395 86.01C16.0134 85.9322 15.9046 85.8294 15.8199 85.7078C15.7352 85.5863 15.6763 85.4486 15.647 85.3034C15.6177 85.1582 15.6185 85.0085 15.6494 84.8636C15.6804 84.7187 15.7407 84.5817 15.8268 84.4611C15.9129 84.3405 16.0228 84.2389 16.1498 84.1625C16.2768 84.0862 16.4181 84.0368 16.5649 84.0173C16.7118 83.9978 16.8611 84.0087 17.0036 84.0493C17.1461 84.09 17.2787 84.1594 17.3932 84.2534C19.7064 85.8879 22.151 87.3279 24.7019 88.5587C24.9289 88.6615 25.1135 88.8394 25.2244 89.0625C25.3353 89.2856 25.3658 89.5401 25.3108 89.7831C25.2557 90.0261 25.1184 90.2426 24.9221 90.396C24.7258 90.5495 24.4826 90.6305 24.2335 90.6253V90.6115ZM61.4315 89.6402C61.2898 89.6411 61.1493 89.614 61.0181 89.5604C60.8869 89.5068 60.7677 89.4278 60.6672 89.3279C60.5666 89.2281 60.4869 89.1093 60.4324 88.9785C60.378 88.8476 60.35 88.7073 60.35 88.5656V88.1799C60.35 85.4589 60.2398 82.6691 60.0262 79.955C60.0043 79.67 60.0965 79.3879 60.2825 79.1709C60.4685 78.9539 60.7332 78.8196 61.0182 78.7977C61.3032 78.7758 61.5852 78.868 61.8022 79.054C62.0193 79.24 62.1535 79.5047 62.1754 79.7897C62.3959 82.5795 62.5061 85.4038 62.5061 88.1799V88.5656C62.5052 88.7085 62.4759 88.8498 62.4197 88.9812C62.3636 89.1126 62.2818 89.2315 62.1792 89.3309C62.0766 89.4303 61.9551 89.5083 61.822 89.5602C61.6889 89.6121 61.5468 89.637 61.4039 89.6333L61.4315 89.6402ZM10.2981 80.4854C10.1478 80.4856 9.99908 80.4544 9.8615 80.3939C9.72391 80.3335 9.60045 80.2449 9.49898 80.1341C7.48842 77.9355 5.74712 75.5051 4.31193 72.8943C4.23651 72.7695 4.1871 72.6307 4.16666 72.4864C4.14623 72.342 4.1552 72.195 4.19304 72.0542C4.23087 71.9134 4.29678 71.7817 4.38682 71.667C4.47685 71.5523 4.58915 71.457 4.71695 71.3868C4.84476 71.3167 4.98544 71.273 5.13053 71.2586C5.27562 71.2442 5.42212 71.2593 5.56124 71.3029C5.70036 71.3466 5.82922 71.4179 5.94007 71.5126C6.05091 71.6073 6.14146 71.7235 6.20627 71.8541C7.56036 74.3153 9.20216 76.6069 11.0971 78.6806C11.1929 78.7849 11.2672 78.9071 11.3156 79.0402C11.364 79.1733 11.3856 79.3146 11.3792 79.4561C11.3728 79.5976 11.3385 79.7364 11.2783 79.8646C11.218 79.9927 11.1331 80.1077 11.0282 80.203C10.8218 80.391 10.5495 80.49 10.2705 80.4785L10.2981 80.4854ZM59.9849 72.3225C59.7303 72.3217 59.484 72.2317 59.2889 72.068C59.0938 71.9044 58.9623 71.6776 58.9172 71.427C58.4483 68.6113 57.8135 65.8258 57.0159 63.085C56.9757 62.9493 56.9625 62.807 56.9773 62.6663C56.992 62.5255 57.0343 62.389 57.1018 62.2646C57.1693 62.1402 57.2606 62.0303 57.3706 61.9412C57.4805 61.852 57.607 61.7855 57.7427 61.7452C57.8784 61.7049 58.0207 61.6918 58.1614 61.7066C58.3022 61.7213 58.4387 61.7636 58.5631 61.8311C58.6875 61.8986 58.7974 61.9899 58.8865 62.0999C58.9756 62.2098 59.0422 62.3362 59.0825 62.4719C59.9064 65.2943 60.5642 68.1626 61.0526 71.0619C61.0987 71.3439 61.0321 71.6326 60.8671 71.8659C60.7021 72.0992 60.4521 72.2582 60.1709 72.3087L59.9849 72.3225ZM1.96295 65.434C1.72687 65.4336 1.49742 65.3559 1.3096 65.2129C1.12179 65.0699 0.98594 64.8693 0.922786 64.6418C0.7942 64.155 0.670207 63.6659 0.550806 63.1746C0.170268 61.5954 -0.023937 59.977 -0.027832 58.3526C-0.027875 57.4303 0.0412056 56.5092 0.178825 55.5972C0.192981 55.4509 0.236789 55.3091 0.30758 55.1804C0.378372 55.0516 0.474662 54.9386 0.590569 54.8483C0.706475 54.758 0.839567 54.6922 0.981727 54.6551C1.12389 54.6179 1.27213 54.6101 1.41741 54.6321C1.56269 54.6541 1.70195 54.7055 1.8267 54.7832C1.95146 54.8608 2.05908 54.9631 2.14301 55.0837C2.22694 55.2043 2.28541 55.3407 2.31485 55.4847C2.3443 55.6286 2.34409 55.7771 2.31426 55.921C2.18967 56.7301 2.12749 57.5477 2.12828 58.3664C2.13701 59.81 2.31269 61.2478 2.6518 62.651C2.76201 63.1195 2.87912 63.5879 3.00311 64.0287C3.04277 64.1653 3.05473 64.3085 3.03829 64.4498C3.02186 64.591 2.97737 64.7276 2.90742 64.8515C2.83748 64.9753 2.74349 65.0839 2.63099 65.171C2.51848 65.258 2.38972 65.3216 2.25227 65.3582C2.16836 65.3924 2.08037 65.4156 1.9905 65.4271L1.96295 65.434ZM55.0045 55.7487C54.8014 55.7481 54.6025 55.6902 54.4307 55.5818C54.259 55.4734 54.1212 55.3188 54.0332 55.1357C52.8363 52.5922 51.3501 50.1952 49.6039 47.9923C49.5134 47.8819 49.4456 47.7548 49.4043 47.6182C49.3629 47.4817 49.3489 47.3383 49.3629 47.1963C49.377 47.0543 49.4189 46.9164 49.4863 46.7906C49.5536 46.6648 49.6451 46.5535 49.7554 46.463C49.8658 46.3726 49.9929 46.3047 50.1295 46.2634C50.2661 46.2221 50.4094 46.208 50.5515 46.2221C50.6935 46.2362 50.8313 46.2781 50.9571 46.3454C51.0829 46.4128 51.1942 46.5042 51.2847 46.6146C53.1343 48.9518 54.7083 51.4944 55.9758 54.1919C56.0378 54.3194 56.074 54.4579 56.0823 54.5994C56.0905 54.7409 56.0707 54.8826 56.024 55.0165C55.9772 55.1503 55.9045 55.2735 55.8099 55.3791C55.7153 55.4847 55.6008 55.5705 55.4729 55.6316C55.3275 55.7045 55.1671 55.7422 55.0045 55.7419V55.7487ZM4.67013 48.9705C4.42314 48.978 4.1807 48.9028 3.98128 48.7569C3.75397 48.5823 3.60525 48.3247 3.56779 48.0405C3.53034 47.7564 3.60721 47.4689 3.78152 47.2414C5.64195 44.8467 7.93391 42.8211 10.5391 41.2691C10.6599 41.1837 10.7969 41.124 10.9417 41.0937C11.0864 41.0633 11.2359 41.063 11.3808 41.0927C11.5257 41.1224 11.6629 41.1816 11.7841 41.2664C11.9052 41.3513 12.0076 41.4601 12.085 41.5861C12.1625 41.7122 12.2132 41.8527 12.2341 41.9991C12.255 42.1456 12.2457 42.2947 12.2067 42.4374C12.1677 42.5801 12.0999 42.7132 12.0073 42.8286C11.9148 42.944 11.7996 43.0392 11.6689 43.1083C9.28155 44.5205 7.17895 46.3661 5.4692 48.5503C5.37415 48.6737 5.25353 48.7752 5.11561 48.8477C4.97769 48.9202 4.82573 48.9621 4.67013 48.9705ZM44.0862 42.5504C43.8763 42.5509 43.6707 42.4911 43.4938 42.3781C41.1723 40.8632 38.6099 39.7544 35.9164 39.0992C35.7589 39.0881 35.6057 39.0426 35.4677 38.9659C35.3296 38.8893 35.21 38.7833 35.1172 38.6555C35.0245 38.5277 34.9609 38.3811 34.9309 38.2261C34.9008 38.071 34.9051 37.9113 34.9434 37.7581C34.9817 37.6049 35.0531 37.4619 35.1526 37.3393C35.252 37.2166 35.3771 37.1172 35.5191 37.0481C35.6611 36.9789 35.8165 36.9417 35.9744 36.9391C36.1323 36.9364 36.2888 36.9683 36.4331 37.0327C39.3604 37.7439 42.1445 38.9507 44.6648 40.6009C44.8602 40.7273 45.0094 40.9136 45.0898 41.132C45.1702 41.3503 45.1776 41.5889 45.1108 41.8118C45.044 42.0347 44.9066 42.2299 44.7194 42.3681C44.5321 42.5062 44.3051 42.5799 44.0724 42.5779L44.0862 42.5504ZM19.0671 39.795C18.8096 39.7912 18.5619 39.6956 18.3686 39.5255C18.1753 39.3554 18.049 39.1219 18.0124 38.867C17.9759 38.6121 18.0315 38.3525 18.1693 38.1349C18.3071 37.9174 18.518 37.7561 18.764 37.6802C21.5299 36.8665 24.375 36.3515 27.2507 36.144H27.5744C27.8562 36.155 28.1242 36.2691 28.3274 36.4647C28.5306 36.6603 28.6549 36.9237 28.6766 37.2049C28.6803 37.3466 28.6559 37.4876 28.6048 37.6198C28.5537 37.752 28.477 37.8729 28.379 37.9753C28.281 38.0777 28.1638 38.1598 28.034 38.2167C27.9042 38.2737 27.7644 38.3044 27.6227 38.307H27.3816C24.6697 38.5045 21.9865 38.9894 19.3771 39.7536C19.2771 39.7864 19.1724 39.8027 19.0671 39.8018V39.795Z" fill="#7996FF"/>
<path d="M278.868 47.1519H336.587C340.058 47.1519 343.387 48.5308 345.841 50.9853C348.296 53.4398 349.675 56.7689 349.675 60.2401V90.0122C349.675 93.4834 348.296 96.8124 345.841 99.2669C343.387 101.721 340.058 103.1 336.587 103.1H298.844L285.24 115.024V103.045H278.84C275.369 103.045 272.04 101.666 269.585 99.2118C267.131 96.7573 265.752 93.4283 265.752 89.9571V60.2056C265.761 56.7356 267.148 53.4113 269.607 50.9634C272.067 48.5155 275.398 47.1446 278.868 47.1519Z" fill="#89D3F3"/>
<path d="M287.264 65.5786H328.189C328.624 65.5786 329.041 65.4059 329.348 65.0984C329.656 64.791 329.829 64.374 329.829 63.9392C329.829 63.5043 329.656 63.0873 329.348 62.7799C329.041 62.4724 328.624 62.2997 328.189 62.2997H287.264C286.83 62.2997 286.413 62.4724 286.105 62.7799C285.798 63.0873 285.625 63.5043 285.625 63.9392C285.625 64.374 285.798 64.791 286.105 65.0984C286.413 65.4059 286.83 65.5786 287.264 65.5786Z" fill="white"/>
<path d="M287.264 76.4901H328.189C328.624 76.4901 329.041 76.3174 329.348 76.0099C329.656 75.7025 329.829 75.2855 329.829 74.8506C329.829 74.4158 329.656 73.9988 329.348 73.6914C329.041 73.3839 328.624 73.2112 328.189 73.2112H287.264C286.83 73.2112 286.413 73.3839 286.105 73.6914C285.798 73.9988 285.625 74.4158 285.625 74.8506C285.625 75.2855 285.798 75.7025 286.105 76.0099C286.413 76.3174 286.83 76.4901 287.264 76.4901Z" fill="white"/>
<path d="M322.182 87.4015H328.189C328.624 87.4015 329.041 87.2288 329.348 86.9213C329.656 86.6138 329.829 86.1968 329.829 85.762C329.829 85.3272 329.656 84.9102 329.348 84.6027C329.041 84.2953 328.624 84.1226 328.189 84.1226H322.182C321.748 84.1226 321.331 84.2953 321.023 84.6027C320.716 84.9102 320.543 85.3272 320.543 85.762C320.543 86.1968 320.716 86.6138 321.023 86.9213C321.331 87.2288 321.748 87.4015 322.182 87.4015Z" fill="white"/>
<path d="M308.543 87.4015H314.543C314.978 87.4015 315.395 87.2288 315.702 86.9213C316.01 86.6138 316.183 86.1968 316.183 85.762C316.183 85.3272 316.01 84.9102 315.702 84.6027C315.395 84.2953 314.978 84.1226 314.543 84.1226H308.543C308.108 84.1226 307.691 84.2953 307.384 84.6027C307.077 84.9102 306.904 85.3272 306.904 85.762C306.904 86.1968 307.077 86.6138 307.384 86.9213C307.691 87.2288 308.108 87.4015 308.543 87.4015Z" fill="white"/>
<path d="M287.264 87.4015H300.904C301.339 87.4015 301.756 87.2288 302.063 86.9213C302.37 86.6138 302.543 86.1968 302.543 85.762C302.543 85.3272 302.37 84.9102 302.063 84.6027C301.756 84.2953 301.339 84.1226 300.904 84.1226H287.264C286.83 84.1226 286.413 84.2953 286.105 84.6027C285.798 84.9102 285.625 85.3272 285.625 85.762C285.625 86.1968 285.798 86.6138 286.105 86.9213C286.413 87.2288 286.83 87.4015 287.264 87.4015Z" fill="white"/>
<path d="M271.566 106.6H227.376C225.289 106.6 223.289 107.428 221.813 108.904C220.338 110.379 219.509 112.38 219.509 114.466V139.954C219.509 141.939 220.261 143.851 221.613 145.306C222.965 146.76 224.817 147.649 226.797 147.793L217.732 162.707L241.738 147.807H271.593C273.68 147.807 275.681 146.978 277.156 145.503C278.631 144.027 279.46 142.026 279.46 139.94V114.453C279.458 113.418 279.252 112.395 278.854 111.44C278.457 110.485 277.874 109.619 277.141 108.889C276.408 108.16 275.538 107.582 274.581 107.189C273.625 106.796 272.6 106.596 271.566 106.6Z" fill="#46B5E6"/>
<path d="M253.182 124.718C255.224 122.676 255.224 119.366 253.182 117.324C251.14 115.282 247.83 115.282 245.788 117.324C243.746 119.366 243.746 122.676 245.788 124.718C247.83 126.76 251.14 126.76 253.182 124.718Z" fill="#89D3F3" stroke="#89D3F3" stroke-width="1.90123" stroke-linecap="round" stroke-linejoin="round"/>
<path d="M261.818 138.618H237.116C237.115 137.577 237.32 136.546 237.717 135.584C238.115 134.622 238.698 133.748 239.434 133.012C240.17 132.275 241.043 131.691 242.005 131.293C242.966 130.894 243.997 130.689 245.038 130.689H253.917C256.016 130.694 258.027 131.532 259.508 133.019C260.989 134.505 261.82 136.519 261.818 138.618Z" fill="#89D3F3" stroke="#89D3F3" stroke-width="1.90123" stroke-linecap="round" stroke-linejoin="round"/>
<path d="M344.674 176.105C343.211 176.105 341.752 175.955 340.32 175.657C340.181 175.629 340.049 175.574 339.931 175.495C339.813 175.415 339.712 175.313 339.634 175.195C339.556 175.076 339.502 174.944 339.476 174.804C339.449 174.665 339.45 174.521 339.48 174.383C339.541 174.104 339.708 173.861 339.946 173.704C340.184 173.547 340.474 173.489 340.754 173.542C342.985 174.003 345.28 174.066 347.532 173.728C347.673 173.707 347.816 173.714 347.955 173.748C348.093 173.782 348.223 173.843 348.337 173.927C348.452 174.012 348.548 174.118 348.622 174.24C348.695 174.362 348.744 174.497 348.765 174.637C348.787 174.778 348.78 174.922 348.746 175.06C348.712 175.198 348.651 175.328 348.566 175.442C348.482 175.557 348.375 175.654 348.254 175.727C348.132 175.8 347.997 175.849 347.856 175.871C346.802 176.025 345.739 176.103 344.674 176.105ZM354.476 173.584C354.237 173.582 354.005 173.502 353.817 173.356C353.628 173.209 353.493 173.004 353.434 172.773C353.374 172.541 353.392 172.297 353.486 172.077C353.58 171.857 353.744 171.675 353.952 171.558C355.941 170.451 357.72 169.003 359.208 167.281C359.396 167.063 359.662 166.929 359.948 166.908C360.234 166.886 360.517 166.98 360.734 167.167C360.952 167.354 361.086 167.62 361.107 167.906C361.128 168.192 361.035 168.475 360.848 168.693C359.195 170.611 357.215 172.22 354.999 173.446C354.84 173.536 354.659 173.584 354.476 173.584ZM333.9 173.005C333.698 173.005 333.499 172.948 333.328 172.84C331.186 171.488 329.3 169.77 327.755 167.763C327.596 167.535 327.53 167.255 327.572 166.98C327.614 166.706 327.76 166.457 327.979 166.287C328.199 166.117 328.476 166.038 328.752 166.067C329.028 166.095 329.283 166.229 329.464 166.44C330.847 168.249 332.543 169.796 334.472 171.007C334.67 171.132 334.823 171.318 334.907 171.536C334.991 171.755 335.001 171.996 334.937 172.221C334.872 172.446 334.736 172.645 334.549 172.786C334.362 172.927 334.134 173.004 333.9 173.005ZM363.665 162.899C363.538 162.9 363.412 162.877 363.293 162.831C363.161 162.782 363.039 162.708 362.936 162.613C362.832 162.517 362.748 162.402 362.689 162.274C362.63 162.146 362.597 162.007 362.592 161.866C362.587 161.725 362.61 161.585 362.659 161.453C363.448 159.316 363.851 157.056 363.851 154.778C363.873 154.507 363.996 154.254 364.196 154.069C364.395 153.885 364.657 153.783 364.929 153.783C365.201 153.783 365.463 153.885 365.663 154.069C365.863 154.254 365.986 154.507 366.007 154.778C366.011 157.313 365.561 159.828 364.678 162.204C364.6 162.409 364.462 162.586 364.281 162.711C364.1 162.835 363.885 162.901 363.665 162.899ZM325.317 161.825C325.085 161.825 324.86 161.75 324.674 161.613C324.488 161.475 324.351 161.281 324.284 161.06C323.656 159.023 323.338 156.903 323.34 154.771C323.34 154.371 323.34 153.972 323.374 153.579C323.402 153.298 323.534 153.037 323.744 152.848C323.955 152.66 324.228 152.557 324.511 152.56C324.797 152.576 325.064 152.704 325.255 152.917C325.447 153.13 325.545 153.411 325.53 153.696C325.53 154.055 325.53 154.385 325.53 154.771C325.531 156.688 325.816 158.594 326.378 160.426C326.424 160.562 326.443 160.706 326.433 160.849C326.424 160.992 326.386 161.131 326.321 161.259C326.257 161.388 326.168 161.502 326.06 161.595C325.951 161.689 325.825 161.76 325.689 161.804C325.567 161.834 325.441 161.841 325.317 161.825ZM364.34 150.969C364.099 150.969 363.865 150.889 363.675 150.74C363.485 150.591 363.35 150.383 363.293 150.149C362.752 147.935 361.818 145.835 360.538 143.949C360.391 143.712 360.341 143.428 360.398 143.155C360.456 142.883 360.616 142.643 360.846 142.485C361.076 142.328 361.358 142.266 361.633 142.311C361.908 142.357 362.155 142.507 362.322 142.73C363.753 144.824 364.798 147.157 365.408 149.618C365.445 149.777 365.446 149.943 365.411 150.102C365.376 150.262 365.305 150.411 365.205 150.54C365.105 150.669 364.977 150.773 364.831 150.846C364.685 150.919 364.524 150.959 364.361 150.962L364.34 150.969ZM326.102 147.752C325.955 147.752 325.81 147.721 325.675 147.662C325.545 147.606 325.427 147.525 325.329 147.423C325.23 147.321 325.153 147.201 325.101 147.069C325.049 146.937 325.024 146.796 325.026 146.654C325.029 146.513 325.06 146.373 325.117 146.243C326.13 143.92 327.551 141.797 329.312 139.974C329.41 139.873 329.528 139.791 329.657 139.735C329.787 139.678 329.926 139.648 330.068 139.645C330.209 139.643 330.35 139.668 330.481 139.72C330.613 139.772 330.733 139.849 330.835 139.947C330.936 140.045 331.018 140.162 331.074 140.292C331.131 140.422 331.161 140.561 331.164 140.702C331.166 140.844 331.141 140.984 331.089 141.116C331.037 141.247 330.96 141.368 330.862 141.469C329.282 143.109 328.006 145.017 327.094 147.104C327.01 147.297 326.871 147.461 326.695 147.576C326.518 147.691 326.313 147.752 326.102 147.752ZM356.412 139.327C356.187 139.329 355.967 139.259 355.785 139.127C353.93 137.808 351.853 136.833 349.654 136.248C349.415 136.145 349.222 135.959 349.109 135.725C348.996 135.491 348.971 135.224 349.039 134.973C349.107 134.722 349.262 134.504 349.478 134.359C349.693 134.213 349.954 134.15 350.212 134.181C352.651 134.827 354.956 135.903 357.018 137.357C357.206 137.488 357.348 137.677 357.422 137.894C357.495 138.112 357.497 138.348 357.427 138.567C357.357 138.785 357.218 138.976 357.032 139.11C356.845 139.245 356.621 139.316 356.391 139.313L356.412 139.327ZM335.904 137.598C335.655 137.603 335.412 137.522 335.216 137.369C335.02 137.215 334.882 136.999 334.827 136.756C334.772 136.513 334.803 136.258 334.914 136.035C335.025 135.812 335.209 135.634 335.436 135.531C337.72 134.433 340.18 133.749 342.703 133.513C342.845 133.5 342.988 133.515 343.124 133.557C343.259 133.599 343.386 133.667 343.495 133.758C343.604 133.849 343.695 133.96 343.761 134.086C343.827 134.212 343.868 134.35 343.881 134.491C343.895 134.633 343.88 134.776 343.838 134.911C343.795 135.047 343.727 135.173 343.636 135.283C343.545 135.392 343.434 135.483 343.308 135.549C343.182 135.615 343.045 135.656 342.903 135.669C340.635 135.874 338.423 136.488 336.373 137.481C336.221 137.556 336.054 137.596 335.884 137.598H335.904Z" fill="#89D3F3"/>
<path d="M357.059 150.927H331.951V165.166H357.059V150.927Z" fill="#46B5E5"/>
<path d="M353.615 149.805V148.062C353.615 147.444 353.86 146.852 354.297 146.415C354.733 145.979 355.326 145.733 355.943 145.733C356.249 145.733 356.551 145.794 356.833 145.911C357.115 146.028 357.371 146.199 357.587 146.416C357.803 146.632 357.973 146.889 358.09 147.171C358.206 147.454 358.265 147.756 358.264 148.062V150.948H353.615" fill="#89D3F3"/>
<path d="M353.663 148.027V162.845H336.545V148.027C336.545 147.412 336.79 146.821 337.225 146.386C337.661 145.951 338.251 145.706 338.867 145.706H355.792L355.324 145.802C354.844 145.945 354.423 146.238 354.124 146.639C353.825 147.04 353.663 147.527 353.663 148.027Z" fill="#E0EEF7"/>
<path d="M341.402 148.11H337.606V152.009H341.402V148.11Z" fill="#89D3F3"/>
<path d="M342.566 148.089H352.217" stroke="#89D3F3" stroke-width="0.454642" stroke-linecap="round" stroke-linejoin="round"/>
<path d="M342.566 149.405H352.217" stroke="#89D3F3" stroke-width="0.454642" stroke-linecap="round" stroke-linejoin="round"/>
<path d="M342.566 150.714H352.217" stroke="#89D3F3" stroke-width="0.454642" stroke-linecap="round" stroke-linejoin="round"/>
<path d="M342.655 152.03H352.306" stroke="#89D3F3" stroke-width="0.454642" stroke-linecap="round" stroke-linejoin="round"/>
<path d="M337.606 153.324H352.216" stroke="#89D3F3" stroke-width="0.454642" stroke-linecap="round" stroke-linejoin="round"/>
<path d="M337.606 154.633H352.216" stroke="#89D3F3" stroke-width="0.454642" stroke-linecap="round" stroke-linejoin="round"/>
<path d="M337.606 155.915H352.216" stroke="#89D3F3" stroke-width="0.454642" stroke-linecap="round" stroke-linejoin="round"/>
<path d="M337.606 157.23H344.708" stroke="#89D3F3" stroke-width="0.454642" stroke-linecap="round" stroke-linejoin="round"/>
<path d="M350.894 165.166H331.951V150.927L350.894 165.166Z" fill="#89D3F3"/>
<path d="M338.123 165.166H357.059V150.927L338.123 165.166Z" fill="#89D3F3"/>
<path d="M357.059 165.166H331.95L343.227 159.145C343.603 158.886 344.048 158.748 344.504 158.748C344.961 158.748 345.407 158.886 345.782 159.145L357.059 165.166Z" fill="#89D3F3"/>
</g>
<defs>
<clipPath id="clip0_6:18517">
<rect width="390" height="258.54" fill="white"/>
</clipPath>
</defs>
</svg>
