<svg width="425" height="463" viewBox="0 0 425 463" fill="none" xmlns="http://www.w3.org/2000/svg">
<path opacity="0.5" d="M314.841 460.435L172.217 377.448C166.718 374.249 167.174 366.161 172.997 363.599C175.28 362.595 177.906 362.745 180.059 364.005L322.499 447.307C327.709 450.353 327.46 457.965 322.062 460.664C319.77 461.81 317.055 461.724 314.841 460.435Z" fill="#0E30AF"/>
<g clip-path="url(#clip0_18_3539)">
<path d="M175 8.15695C175 8.15695 185.721 1.99634 186.598 1.44567C190.04 -0.705383 194.704 -0.516086 199.969 2.51259L323.078 73.6005C333.197 79.4342 341.371 93.5967 341.336 105.212L340.476 407.306C340.576 409.517 340.162 411.722 339.266 413.746C338.37 415.771 337.017 417.56 335.313 418.973C331.47 421.479 327.495 423.776 323.405 425.857L175 8.15695Z" fill="#0025AD"/>
<path d="M311.273 80.4321C321.392 86.283 329.566 100.428 329.532 112.044L328.637 414.137C328.637 425.77 320.359 430.451 310.258 424.6L187.132 353.529C177.013 347.679 168.839 333.533 168.874 321.918L169.734 19.8241C169.734 8.19124 177.994 3.51055 188.113 9.3614L311.273 80.4321Z" fill="#153FE0"/>
<path d="M310.568 88.0903C314.088 90.3966 317.014 93.5019 319.108 97.1531C321.201 100.804 322.402 104.898 322.614 109.102L321.771 409.199C321.771 416.908 316.281 420.023 309.57 416.082L187.837 345.803C184.302 343.506 181.36 340.404 179.251 336.753C177.143 333.101 175.928 329.003 175.706 324.792L176.618 24.7461C176.618 17.0368 182.107 13.9221 188.836 17.8628L216.662 33.9354C217.488 34.4715 218.199 35.1682 218.752 35.984C219.305 36.7998 219.688 37.7183 219.88 38.685L222.048 50.0425C222.37 51.6532 223.009 53.1839 223.928 54.5457C224.847 55.9076 226.027 57.0734 227.4 57.9756L271.849 83.5989C274.396 85.0616 276.616 84.356 277.235 81.878L279.455 73.0501C279.834 71.5702 281.176 71.14 282.69 72.0176L310.568 88.0903Z" fill="#4269FF"/>
<path d="M161.285 134.707V151.004L283.465 221.558C285.735 222.869 288.311 223.559 290.933 223.559C293.555 223.559 296.131 222.869 298.401 221.558C300.65 220.237 302.514 218.35 303.809 216.087C305.104 213.823 305.785 211.26 305.785 208.652C305.785 206.044 305.104 203.481 303.809 201.217C302.514 198.954 300.65 197.067 298.401 195.746L177.048 125.587C175.449 124.666 173.635 124.182 171.789 124.183C169.944 124.185 168.131 124.673 166.534 125.597C164.936 126.521 163.61 127.85 162.689 129.449C161.767 131.048 161.283 132.862 161.285 134.707Z" fill="url(#paint0_linear_18_3539)"/>
<path d="M158.428 78.0918C158.428 78.0918 161.75 76.1989 162.3 75.8547C163.099 75.4537 163.992 75.2817 164.882 75.3576C165.772 75.4335 166.624 75.7545 167.342 76.2849L271.178 136.222C273.19 137.548 274.862 139.33 276.058 141.423C277.254 143.515 277.94 145.86 278.061 148.268L277.855 217.101C277.931 217.918 277.804 218.742 277.486 219.498C277.168 220.254 276.668 220.921 276.031 221.438C275.428 221.851 271.711 223.95 271.711 223.95L158.428 78.0918Z" fill="#FB5162"/>
<path d="M274.12 150.505L273.931 219.339C273.931 223.761 270.782 225.534 266.927 223.314L163.109 163.377C161.093 162.055 159.418 160.274 158.221 158.18C157.025 156.087 156.341 153.74 156.226 151.331L156.415 82.4974C156.415 78.0748 159.564 76.2852 163.402 78.505L267.237 138.459C269.253 139.781 270.928 141.562 272.125 143.656C273.321 145.749 274.005 148.096 274.12 150.505Z" fill="url(#paint1_linear_18_3539)"/>
<path d="M273.684 204.244C273.684 208.666 270.535 210.439 266.681 208.219L162.862 148.282C160.846 146.96 159.171 145.179 157.975 143.085C157.172 141.68 156.6 140.161 156.275 138.585L156.226 156.622C156.341 159.03 157.025 161.377 158.221 163.471C159.418 165.564 161.093 167.345 163.109 168.667L266.927 228.604C270.782 230.824 273.931 229.052 273.931 224.629L274.019 204.244H273.684Z" fill="#940211" fill-opacity="0.3"/>
<path d="M184.895 111.029V122.231C184.895 123.66 183.845 124.623 182.451 123.952L182.09 123.763L169.201 116.312C168.489 115.766 167.903 115.073 167.484 114.28C167.065 113.487 166.823 112.613 166.774 111.717V100.514C166.773 100.143 166.843 99.7749 166.981 99.4302C167.071 99.2271 167.203 99.0457 167.369 98.8982C167.535 98.7507 167.73 98.6406 167.942 98.5753C168.154 98.51 168.378 98.4911 168.598 98.5199C168.818 98.5486 169.03 98.6243 169.218 98.7419L169.562 98.9139L182.107 106.159L182.451 106.382C183.526 107.203 184.305 108.351 184.671 109.652C184.81 110.098 184.885 110.562 184.895 111.029Z" fill="url(#paint2_linear_18_3539)"/>
<path d="M249.014 141.626C249.318 141.823 249.572 142.089 249.755 142.403C249.937 142.717 250.043 143.07 250.063 143.432C250.063 144.104 249.581 144.362 249.014 144.035L237.518 137.392C237.211 137.197 236.956 136.931 236.773 136.617C236.591 136.302 236.486 135.949 236.469 135.585C236.441 135.454 236.456 135.317 236.511 135.195C236.566 135.072 236.659 134.971 236.775 134.904C236.892 134.837 237.026 134.809 237.16 134.823C237.293 134.837 237.419 134.893 237.518 134.983L249.014 141.626Z" fill="white"/>
<path d="M179.165 158.971C179.274 159.043 179.372 159.13 179.457 159.23C179.703 159.493 179.849 159.834 179.87 160.193C179.87 160.302 179.84 160.409 179.784 160.503L177.702 164.134C177.581 164.34 177.323 164.358 177.065 164.134C176.954 164.058 176.85 163.972 176.755 163.876C176.593 163.708 176.479 163.5 176.425 163.273C176.37 163.046 176.377 162.808 176.446 162.585L178.528 159.006C178.648 158.971 178.924 158.971 179.165 158.971Z" fill="white"/>
<path d="M183.294 160.692C183.585 160.884 183.829 161.138 184.011 161.435C184.192 161.733 184.306 162.067 184.344 162.413V167.231C184.344 167.885 183.862 168.143 183.294 167.816C182.988 167.621 182.732 167.355 182.549 167.041C182.367 166.726 182.262 166.373 182.245 166.009V161.208C182.245 160.554 182.709 160.296 183.294 160.692Z" fill="white"/>
<path d="M198.403 144.482C198.696 144.671 198.943 144.925 199.124 145.222C199.306 145.52 199.418 145.855 199.453 146.203V151.004C199.453 151.675 198.988 151.95 198.403 151.606C198.096 151.411 197.841 151.145 197.658 150.831C197.476 150.516 197.371 150.162 197.354 149.799V144.998C197.354 144.43 197.853 144.155 198.403 144.482Z" fill="white"/>
<path d="M203.979 147.717C204.273 147.906 204.52 148.159 204.702 148.457C204.884 148.755 204.995 149.09 205.029 149.438V154.239C205.029 154.91 204.547 155.186 203.979 154.841C203.683 154.655 203.435 154.402 203.253 154.104C203.071 153.805 202.96 153.469 202.929 153.121V148.302C203.015 147.648 203.394 147.373 203.979 147.717Z" fill="white"/>
<path d="M209.554 150.935C209.848 151.124 210.095 151.377 210.277 151.675C210.459 151.973 210.571 152.308 210.604 152.656V157.474C210.604 158.128 210.122 158.403 209.554 158.059C209.259 157.873 209.01 157.62 208.828 157.322C208.646 157.023 208.535 156.687 208.505 156.338V151.537C208.505 150.866 208.969 150.591 209.554 150.935Z" fill="white"/>
<path d="M217.918 155.753C218.221 155.95 218.473 156.217 218.653 156.532C218.833 156.846 218.935 157.198 218.95 157.56V162.413C218.95 163.084 218.468 163.342 217.901 163.015C217.608 162.826 217.361 162.572 217.179 162.275C216.998 161.977 216.885 161.642 216.851 161.294V156.493C216.868 155.684 217.333 155.426 217.918 155.753Z" fill="white"/>
<path d="M223.493 158.971C223.797 159.168 224.049 159.435 224.229 159.75C224.408 160.064 224.51 160.417 224.526 160.778V165.579C224.526 166.25 224.044 166.509 223.459 166.182C223.157 165.982 222.906 165.715 222.727 165.401C222.548 165.087 222.445 164.736 222.426 164.375V159.574C222.443 158.971 222.908 158.644 223.493 158.971Z" fill="white"/>
<path d="M234.644 165.407C234.934 165.599 235.177 165.853 235.356 166.151C235.535 166.448 235.644 166.782 235.677 167.128V171.929C235.677 172.601 235.212 172.859 234.627 172.532C234.325 172.333 234.075 172.065 233.895 171.751C233.716 171.437 233.613 171.086 233.594 170.725V165.924C233.594 165.339 233.99 165.08 234.644 165.407Z" fill="white"/>
<path d="M242.302 169.83C242.607 170.027 242.861 170.294 243.043 170.608C243.226 170.922 243.331 171.274 243.352 171.637V176.438C243.352 177.109 242.887 177.384 242.302 177.04C241.995 176.845 241.74 176.579 241.557 176.265C241.374 175.95 241.27 175.597 241.252 175.233V170.432C241.252 169.761 241.717 169.503 242.302 169.83Z" fill="white"/>
<path d="M247.878 173.048C248.168 173.24 248.413 173.494 248.594 173.791C248.776 174.089 248.889 174.422 248.927 174.769V179.621C248.927 180.292 248.445 180.568 247.878 180.224C247.571 180.028 247.315 179.762 247.133 179.448C246.95 179.134 246.845 178.78 246.828 178.417V173.616C246.828 172.979 247.293 172.738 247.878 173.048Z" fill="white"/>
<path d="M253.453 176.266C253.743 176.458 253.988 176.712 254.17 177.009C254.351 177.307 254.465 177.64 254.503 177.987V182.788C254.503 183.459 254.021 183.734 253.453 183.39C253.146 183.195 252.891 182.929 252.708 182.614C252.525 182.3 252.421 181.946 252.403 181.583V176.868C252.403 176.18 252.92 175.939 253.453 176.266Z" fill="white"/>
<path d="M259.029 179.484C259.33 179.685 259.581 179.952 259.763 180.265C259.945 180.579 260.053 180.929 260.078 181.29V186.092C260.078 186.763 259.597 187.038 259.029 186.694C258.722 186.499 258.466 186.233 258.284 185.918C258.101 185.604 257.997 185.25 257.979 184.887V180.086C257.979 179.415 258.444 179.157 259.029 179.484Z" fill="white"/>
<path d="M251.199 208.187C250.459 208.118 249.746 207.876 249.117 207.482L244.316 204.677C242.806 203.682 241.552 202.346 240.655 200.776C239.758 199.206 239.244 197.448 239.153 195.642C239.089 194.996 239.199 194.344 239.471 193.754C239.743 193.164 240.168 192.657 240.702 192.287C241.298 192.021 241.953 191.916 242.602 191.983C243.251 192.049 243.872 192.284 244.402 192.665L249.289 195.487C250.072 195.944 250.775 196.525 251.371 197.208L251.199 208.187Z" fill="url(#paint3_linear_18_3539)"/>
<path d="M168.013 151.812C168.309 151.999 168.558 152.252 168.74 152.55C168.922 152.849 169.032 153.185 169.063 153.533V158.334C169.063 159.006 168.599 159.264 168.013 158.937C167.712 158.738 167.461 158.47 167.282 158.156C167.102 157.843 166.999 157.491 166.981 157.13V152.329C166.981 151.744 167.446 151.468 168.013 151.812Z" fill="white"/>
<path d="M184.086 152.26C184.393 152.455 184.649 152.721 184.831 153.036C185.014 153.35 185.118 153.704 185.136 154.067C185.136 154.721 184.671 154.996 184.086 154.652L165.966 144.19C165.672 144.001 165.425 143.748 165.243 143.45C165.061 143.152 164.949 142.816 164.916 142.469C164.916 141.798 165.398 141.539 165.983 141.866L184.086 152.26Z" fill="white"/>
<path d="M184.878 114.626V113.817L182.451 112.423V109.222L184.86 110.616C184.832 110.306 184.769 110 184.671 109.704L182.451 108.413V106.434L182.107 106.211L181.763 106.021V108.018L178.029 105.849C177.452 105.016 176.707 104.313 175.843 103.784C175.191 103.365 174.407 103.2 173.64 103.32L169.906 101.169V99.1725L169.562 98.966L169.218 98.7939V100.773L166.981 99.4823C166.883 99.7067 166.819 99.9445 166.792 100.188L169.218 101.582V104.782L166.792 103.354V104.163L169.235 105.574V109.584L166.792 108.173V108.964L169.218 110.375V113.576L166.792 112.182C166.83 112.491 166.893 112.796 166.981 113.094L169.218 114.385V116.364L169.545 116.587L169.889 116.777V114.781L173.606 116.932C174.189 117.77 174.939 118.479 175.809 119.014C176.458 119.44 177.247 119.6 178.011 119.461L181.728 121.63V123.626L182.073 123.815L182.417 124.004V122.025L184.654 123.316C184.751 123.092 184.81 122.854 184.826 122.61L182.417 121.216V118.033L184.843 119.427V118.635L182.399 117.224V113.215L184.878 114.626ZM169.906 101.978L172.883 103.698C172.569 103.99 172.325 104.348 172.17 104.748C172.015 105.148 171.953 105.577 171.988 106.004V106.4L169.906 105.195V101.978ZM169.906 105.97L171.988 107.192V111.184L169.906 109.979V105.97ZM169.906 113.989V110.788L171.988 112.01V112.389C172.011 113.548 172.306 114.685 172.849 115.71L169.906 113.989ZM175.826 118.188C174.918 117.596 174.163 116.798 173.621 115.859C173.08 114.92 172.768 113.867 172.711 112.784V106.383C172.711 104.387 174.139 103.595 175.878 104.662C176.785 105.254 177.541 106.052 178.082 106.991C178.623 107.93 178.935 108.983 178.992 110.065V116.484C178.923 118.394 177.53 119.203 175.791 118.188H175.826ZM181.746 120.821L178.786 119.1C179.096 118.81 179.336 118.453 179.488 118.056C179.64 117.66 179.7 117.234 179.663 116.811V116.415L181.763 117.62L181.746 120.821ZM181.746 116.811L179.646 115.607V111.597L181.746 112.819V116.811ZM181.746 112.01L179.663 110.805V110.41C179.63 109.25 179.33 108.113 178.786 107.088L181.763 108.809L181.746 112.01Z" fill="url(#paint4_linear_18_3539)"/>
<path d="M179.25 133.434C179.542 133.624 179.786 133.877 179.965 134.175C180.144 134.473 180.253 134.808 180.283 135.155V140.042C180.283 140.696 179.818 140.971 179.233 140.627C178.932 140.428 178.681 140.161 178.502 139.847C178.322 139.533 178.219 139.181 178.201 138.82V134.019C178.201 133.365 178.665 133.159 179.25 133.434Z" fill="white"/>
<path d="M192.828 141.281C193.123 141.468 193.372 141.72 193.554 142.019C193.736 142.317 193.847 142.654 193.878 143.002V147.803C193.878 148.474 193.413 148.75 192.828 148.405C192.521 148.21 192.265 147.944 192.083 147.63C191.9 147.315 191.796 146.962 191.778 146.598V141.797C191.778 141.195 192.243 140.937 192.828 141.281Z" fill="white"/>
<path d="M168.099 126.998C168.391 127.188 168.636 127.441 168.814 127.739C168.993 128.038 169.102 128.373 169.132 128.719V133.537C169.132 134.191 168.667 134.467 168.082 134.122C167.792 133.932 167.548 133.678 167.369 133.38C167.19 133.082 167.081 132.748 167.05 132.402V127.601C167.05 126.912 167.514 126.654 168.099 126.998Z" fill="white"/>
<path d="M255.656 139.853C255.947 140.043 256.192 140.296 256.371 140.594C256.55 140.892 256.658 141.227 256.688 141.574C256.688 142.245 256.224 142.52 255.639 142.176L237.535 131.714C237.24 131.527 236.991 131.274 236.809 130.976C236.627 130.677 236.516 130.341 236.486 129.993C236.486 129.339 236.95 129.081 237.535 129.408L255.656 139.853Z" fill="white"/>
<path d="M173.761 130.216C174.053 130.406 174.297 130.659 174.476 130.958C174.655 131.256 174.764 131.591 174.794 131.937V136.756C174.794 137.41 174.329 137.685 173.744 137.341C173.442 137.142 173.192 136.874 173.012 136.56C172.833 136.246 172.73 135.895 172.711 135.534V130.733C172.625 130.13 173.09 129.872 173.761 130.216Z" fill="white"/>
<path d="M184.809 136.6C185.104 136.787 185.353 137.039 185.535 137.338C185.717 137.636 185.828 137.973 185.859 138.321V143.122C185.859 143.793 185.394 144.069 184.809 143.725C184.507 143.525 184.257 143.258 184.077 142.944C183.898 142.63 183.795 142.279 183.776 141.918V137.117C183.776 136.6 184.241 136.308 184.809 136.6Z" fill="white"/>
<path d="M173.589 155.031C173.884 155.217 174.133 155.47 174.315 155.768C174.497 156.067 174.608 156.403 174.639 156.752V161.553C174.639 162.224 174.174 162.482 173.589 162.155C173.287 161.956 173.037 161.689 172.857 161.375C172.678 161.061 172.575 160.709 172.556 160.348V155.547C172.539 154.962 173.021 154.687 173.589 155.031Z" fill="white"/>
<path d="M188.87 163.841C189.16 164.033 189.405 164.287 189.587 164.585C189.768 164.882 189.882 165.216 189.92 165.562V170.38C189.92 171.034 189.438 171.292 188.87 170.965C188.563 170.77 188.308 170.504 188.125 170.19C187.942 169.875 187.838 169.522 187.82 169.158V164.357C187.82 163.772 188.285 163.514 188.87 163.841Z" fill="white"/>
<path d="M229.069 162.189C229.359 162.381 229.602 162.635 229.78 162.932C229.959 163.23 230.069 163.564 230.101 163.91V168.711C230.101 169.382 229.637 169.64 229.052 169.313C228.75 169.114 228.499 168.847 228.32 168.533C228.14 168.219 228.037 167.868 228.019 167.507V162.705C228.019 162.12 228.484 161.862 229.069 162.189Z" fill="white"/>
<path d="M258.271 200.702C259.784 201.693 261.04 203.029 261.937 204.599C262.834 206.169 263.347 207.93 263.434 209.736C263.434 213.04 261.094 214.382 258.271 212.713L253.384 209.891C252.609 209.424 251.907 208.844 251.302 208.17C249.426 206.181 248.321 203.587 248.187 200.856C248.187 198.396 249.478 197.036 251.336 197.174C252.076 197.243 252.789 197.485 253.419 197.879L258.271 200.702Z" fill="url(#paint5_linear_18_3539)"/>
<path d="M131.394 185.111L129.449 186.075C128.329 186.636 127.379 187.485 126.696 188.535L133.459 194.489L131.394 185.111Z" fill="#078B89"/>
<path d="M131.394 151.95V264.838C131.402 269.113 132.547 273.309 134.712 276.996C136.877 280.682 139.985 283.726 143.715 285.815L263.055 352.359C274.275 358.159 288.334 351.12 292.086 348.711C296.311 345.993 299.786 342.257 302.192 337.846C304.597 333.435 305.856 328.491 305.853 323.467V208.618C305.87 211.239 305.189 213.818 303.879 216.09C302.57 218.361 300.679 220.243 298.401 221.541C296.131 222.852 293.555 223.542 290.933 223.542C288.311 223.542 285.735 222.852 283.464 221.541L161.285 150.987L147.157 142.83C145.557 141.909 143.744 141.425 141.898 141.426C140.053 141.428 138.24 141.916 136.642 142.84C135.045 143.764 133.719 145.093 132.798 146.692C131.876 148.291 131.392 150.105 131.394 151.95Z" fill="url(#paint6_linear_18_3539)"/>
<path opacity="0.2" d="M275.773 336.097C275.992 336.097 276.202 336.01 276.357 335.855C276.511 335.701 276.599 335.49 276.599 335.271V237.063C276.599 236.835 276.508 236.616 276.347 236.455C276.185 236.293 275.966 236.203 275.738 236.203C275.51 236.203 275.291 236.293 275.13 236.455C274.968 236.616 274.878 236.835 274.878 237.063V335.271C274.877 335.386 274.901 335.499 274.946 335.604C274.992 335.709 275.059 335.804 275.143 335.881C275.228 335.959 275.327 336.018 275.435 336.055C275.544 336.093 275.658 336.107 275.773 336.097Z" fill="#088785"/>
<path d="M125.664 192.149V217.962C125.654 219.492 126.052 220.997 126.817 222.322C127.582 223.647 128.687 224.743 130.017 225.499L146.847 235.222C148.309 236.068 149.969 236.514 151.659 236.516C153.348 236.517 155.009 236.073 156.472 235.229C157.936 234.384 159.151 233.169 159.996 231.706C160.841 230.243 161.285 228.583 161.285 226.893V221.731C161.293 217.731 160.246 213.799 158.249 210.334C156.251 206.868 153.375 203.991 149.91 201.992C141.203 196.95 130.086 190.497 126.696 188.553C126.02 189.63 125.662 190.877 125.664 192.149Z" fill="#29B3B1"/>
<path d="M141.839 215.449C141.96 217.603 142.585 219.699 143.664 221.567C144.743 223.436 146.246 225.024 148.052 226.205C151.493 228.183 154.298 226.583 154.315 222.642C154.198 220.485 153.574 218.386 152.495 216.515C151.416 214.643 149.911 213.052 148.103 211.87C144.662 209.891 141.857 211.491 141.839 215.449Z" fill="#7BDECC"/>
<path d="M240.14 396.884C236.749 396.884 234 394.098 234 390.661C234 388.849 234.764 387.218 235.984 386.081C237.077 385.061 238.537 384.439 240.14 384.439H240.937C242.976 384.439 244.512 382.573 245.025 381.64C245.716 378.97 248.113 377 250.965 377C254.356 377 257.105 379.786 257.105 383.222V384.439H257.86C261.251 384.439 264 387.225 264 390.661C264 394.098 261.251 396.884 257.86 396.884H240.14Z" fill="white"/>
</g>
<path d="M152.959 61.5349C149.115 61.5349 146 58.3776 146 54.4828C146 52.4293 146.866 50.5808 148.248 49.292C149.487 48.1364 151.142 47.4307 152.959 47.4307H153.862C156.173 47.4307 157.914 45.3162 158.495 44.259C159.278 41.2327 161.995 39 165.227 39C169.07 39 172.185 42.1573 172.185 46.0521V47.4307H173.041C176.885 47.4307 180 50.588 180 54.4828C180 58.3776 176.885 61.5349 173.041 61.5349H152.959Z" fill="white"/>
<path d="M393.137 247.353C388.643 247.353 385 243.66 385 239.106C385 236.704 386.013 234.543 387.629 233.036C389.078 231.684 391.013 230.859 393.137 230.859H394.194C396.896 230.859 398.932 228.386 399.612 227.15C400.527 223.611 403.705 221 407.484 221C411.978 221 415.621 224.692 415.621 229.247V230.859H416.623C421.117 230.859 424.76 234.551 424.76 239.106C424.76 243.66 421.117 247.353 416.623 247.353H393.137Z" fill="white"/>
<path d="M47.6011 142C37.8803 142 30 134.014 30 124.162C30 118.968 32.1905 114.293 35.6864 111.033C38.8211 108.11 43.0054 106.325 47.6011 106.325H49.8862C55.7316 106.325 60.1346 100.976 61.6054 98.3022C63.5852 90.6473 70.4581 85 78.6324 85C88.3532 85 96.2335 92.9862 96.2335 102.838V106.325H98.3989C108.12 106.325 116 114.311 116 124.162C116 134.014 108.12 142 98.3989 142H47.6011Z" fill="white"/>
<path d="M6.95856 308.535C3.11545 308.535 0 305.378 0 301.483C0 299.429 0.866024 297.581 2.24812 296.292C3.48742 295.136 5.14167 294.431 6.95856 294.431H7.862C10.173 294.431 11.9137 292.316 12.4951 291.259C13.2779 288.233 15.9951 286 19.2268 286C23.0699 286 26.1853 289.157 26.1853 293.052V294.431H27.0414C30.8845 294.431 34 297.588 34 301.483C34 305.378 30.8845 308.535 27.0414 308.535H6.95856Z" fill="white"/>
<defs>
<linearGradient id="paint0_linear_18_3539" x1="207.696" y1="200.512" x2="262.35" y2="141.436" gradientUnits="userSpaceOnUse">
<stop stop-color="#43C9C7"/>
<stop offset="1" stop-color="#1FABA9"/>
</linearGradient>
<linearGradient id="paint1_linear_18_3539" x1="404.009" y1="338.214" x2="134.818" y2="71.2947" gradientUnits="userSpaceOnUse">
<stop stop-color="#7D00EB"/>
<stop offset="0.0625" stop-color="#FFC145"/>
<stop offset="1" stop-color="#FF6883"/>
</linearGradient>
<linearGradient id="paint2_linear_18_3539" x1="206.164" y1="141.505" x2="162.885" y2="98.5697" gradientUnits="userSpaceOnUse">
<stop stop-color="#D1AB11"/>
<stop offset="1" stop-color="#F2E257"/>
</linearGradient>
<linearGradient id="paint3_linear_18_3539" x1="5384.02" y1="4050.85" x2="5134.1" y2="3864.01" gradientUnits="userSpaceOnUse">
<stop stop-color="#D1AB11"/>
<stop offset="1" stop-color="#F2E257"/>
</linearGradient>
<linearGradient id="paint4_linear_18_3539" x1="205.992" y1="141.316" x2="162.971" y2="98.6736" gradientUnits="userSpaceOnUse">
<stop stop-color="#BF9C10"/>
<stop offset="1" stop-color="#C2B546"/>
</linearGradient>
<linearGradient id="paint5_linear_18_3539" x1="6640.03" y1="4017.26" x2="6470.36" y2="3845.38" gradientUnits="userSpaceOnUse">
<stop stop-color="#570099"/>
<stop offset="1" stop-color="#6637B8"/>
</linearGradient>
<linearGradient id="paint6_linear_18_3539" x1="152.526" y1="312.987" x2="303.254" y2="150.04" gradientUnits="userSpaceOnUse">
<stop stop-color="#43C9C7"/>
<stop offset="1" stop-color="#C0F8D1"/>
</linearGradient>
<clipPath id="clip0_18_3539">
<rect width="215.673" height="427.113" fill="white" transform="translate(125.664)"/>
</clipPath>
</defs>
</svg>
