<svg width="420" height="379" viewBox="0 0 420 379" fill="none" xmlns="http://www.w3.org/2000/svg">
<g clip-path="url(#clip0_10:2988)">
<path d="M359.172 286.58L258.988 228.792C258.855 228.704 258.746 228.585 258.671 228.445C258.596 228.304 258.557 228.148 258.557 227.989C258.557 227.829 258.596 227.673 258.671 227.533C258.746 227.392 258.855 227.273 258.988 227.185L309.432 198.95C309.536 198.849 309.661 198.774 309.799 198.729C309.936 198.683 310.081 198.669 310.224 198.688C310.368 198.706 310.505 198.757 310.626 198.835C310.747 198.914 310.849 199.019 310.924 199.142C310.999 199.265 311.046 199.404 311.06 199.548C311.075 199.691 311.057 199.836 311.008 199.972C310.959 200.108 310.88 200.231 310.777 200.332C310.674 200.433 310.549 200.51 310.413 200.557L261.414 227.973L361.566 285.696C361.699 285.784 361.808 285.904 361.883 286.044C361.958 286.184 361.997 286.341 361.997 286.5C361.997 286.659 361.958 286.816 361.883 286.956C361.808 287.096 361.699 287.216 361.566 287.304" fill="#96E9CE"/>
<path d="M61.7736 248.607C61.6112 248.61 61.4507 248.571 61.3075 248.494L20.0713 225.53C19.9096 225.45 19.7739 225.327 19.68 225.173C19.586 225.019 19.5378 224.842 19.541 224.662C19.5413 224.489 19.5876 224.318 19.6751 224.169C19.7626 224.019 19.8882 223.895 20.0392 223.81L223.633 110.563C223.78 110.48 223.946 110.436 224.115 110.436C224.284 110.436 224.45 110.48 224.597 110.563L314.591 163.322C314.73 163.365 314.858 163.44 314.964 163.54C315.07 163.64 315.153 163.763 315.205 163.899C315.257 164.035 315.277 164.182 315.264 164.327C315.251 164.473 315.205 164.613 315.13 164.738C315.055 164.863 314.953 164.97 314.83 165.05C314.708 165.129 314.569 165.18 314.425 165.199C314.28 165.217 314.133 165.202 313.994 165.156C313.856 165.109 313.73 165.031 313.626 164.929L224.051 112.459L22.53 224.662L62.2396 246.758C62.4308 246.86 62.5824 247.023 62.6698 247.221C62.7573 247.419 62.7756 247.64 62.7218 247.85C62.668 248.06 62.5452 248.245 62.3732 248.376C62.2012 248.508 61.99 248.578 61.7736 248.574V248.607Z" fill="#96E9CE"/>
<path opacity="0.5" d="M316.969 240.812L249.764 202.019C248.301 201.167 248.494 199.705 250.165 198.805L269.916 187.411L342.409 229.194L322.658 240.603C321.793 241.081 320.827 241.349 319.839 241.385C318.851 241.421 317.868 241.225 316.969 240.812Z" fill="#BEBFCA"/>
<path d="M412.507 188.006V174.619H390.764L342.36 146.673C341.628 146.341 340.827 146.185 340.023 146.219C339.219 146.252 338.435 146.474 337.732 146.866L289.521 174.683H267.778V188.102C267.804 188.339 267.89 188.565 268.028 188.759C268.166 188.953 268.351 189.108 268.566 189.211L337.989 229.29C338.721 229.627 339.522 229.786 340.327 229.752C341.131 229.719 341.917 229.494 342.617 229.097L411.366 189.404C411.657 189.283 411.913 189.092 412.112 188.848C412.311 188.604 412.447 188.315 412.507 188.006Z" fill="url(#paint0_linear_10:2988)"/>
<path d="M338.005 215.936L268.63 175.857C267.441 175.165 267.602 173.976 268.968 173.189L337.732 133.495C338.433 133.098 339.218 132.874 340.023 132.84C340.828 132.807 341.629 132.965 342.361 133.302L411.655 173.382C412.845 174.057 412.684 175.262 411.318 176.049L342.569 215.743C341.875 216.124 341.102 216.34 340.31 216.374C339.518 216.407 338.73 216.257 338.005 215.936Z" fill="url(#paint1_linear_10:2988)"/>
<path d="M338.246 211.243L276.665 175.712C275.62 175.101 275.749 174.105 276.97 173.35L337.909 138.156C338.532 137.811 339.227 137.617 339.938 137.589C340.65 137.561 341.358 137.7 342.006 137.995L403.62 173.51C404.664 174.121 404.536 175.117 403.331 175.889L342.392 211.066C341.765 211.423 341.061 211.625 340.341 211.655C339.62 211.686 338.902 211.545 338.246 211.243Z" fill="#224CE8"/>
<path d="M338.407 208.27L281.872 175.631C280.908 175.069 281.02 174.024 282.145 173.446L338.134 141.096C338.704 140.776 339.342 140.595 339.995 140.567C340.648 140.539 341.299 140.665 341.894 140.936L398.43 173.574C399.394 174.137 399.281 175.181 398.156 175.744L342.168 208.109C341.596 208.426 340.959 208.605 340.306 208.633C339.654 208.661 339.003 208.537 338.407 208.27Z" fill="#4F74FF"/>
<path opacity="0.5" d="M338.857 199.432L297.17 175.326C296.447 174.924 296.544 174.201 297.363 173.719L338.664 149.887C339.085 149.649 339.557 149.515 340.04 149.496C340.524 149.476 341.005 149.572 341.444 149.774L383.13 173.88C383.853 174.298 383.757 175.021 382.937 175.487L341.637 199.335C341.214 199.57 340.741 199.702 340.258 199.718C339.775 199.735 339.294 199.637 338.857 199.432Z" fill="#224CE8"/>
<path d="M338.857 172.482L332.252 168.673L335.852 166.584L342.457 170.393L338.857 172.482Z" fill="#42FFFF"/>
<path d="M351.135 171.951L344.53 175.76L340.93 173.671L347.535 169.862L351.135 171.951Z" fill="#42FFFF"/>
<path d="M337.363 173.35L333.747 175.439L330.131 173.35L333.747 171.26L337.363 173.35Z" fill="#42FFFF"/>
<path d="M349.833 180.549L346.218 182.638L335.82 176.628L339.42 174.539L349.833 180.549Z" fill="#42FFFF"/>
<path d="M340.143 65.2449L283.64 32.6224L340.143 -0.000244141L396.662 32.6224L340.143 65.2449Z" fill="#BCD5FF"/>
<path d="M340.143 190.481L283.64 157.858L340.143 125.235L396.662 157.858L340.143 190.481Z" fill="white"/>
<path d="M396.662 32.6224V157.858L340.143 190.48V65.245L396.662 32.6224Z" fill="#E9F1FF"/>
<path d="M283.64 32.6224V157.858L340.143 190.48V65.245L283.64 32.6224Z" fill="#224CE8"/>
<g opacity="0.51">
<path opacity="0.51" d="M287.464 40.9308V153.487L336.318 181.69V69.1341L287.464 40.9308Z" fill="#BECCFF"/>
</g>
<path d="M388.176 62.8824V66.1929L348.627 89.0287V85.7183L388.176 62.8824Z" fill="#4553C7"/>
<path d="M388.176 76.8799V80.1904L348.627 103.026V99.7157L388.176 76.8799Z" fill="#4553C7"/>
<path d="M388.176 90.8771V94.1875L348.627 117.023V113.713L388.176 90.8771Z" fill="#4553C7"/>
<path d="M388.176 104.874V108.185L348.627 131.02V127.71L388.176 104.874Z" fill="#4553C7"/>
<path d="M388.176 118.871V122.182L348.627 145.018V141.707L388.176 118.871Z" fill="#4553C7"/>
<path d="M388.176 132.853V136.163L348.627 158.999V155.705L388.176 132.853Z" fill="#4553C7"/>
<path d="M340.143 64.1361L284.604 32.0599L283.64 32.6224L340.143 65.245L396.662 32.6224L395.697 32.0599L340.143 64.1361Z" fill="white"/>
<path opacity="0.78" d="M340.143 56.6795H325.31L283.64 32.6223L328.974 6.45996H340.143V56.6795Z" fill="url(#paint2_linear_10:2988)"/>
<path d="M340.143 53.8029L299.148 30.1314L340.143 6.45996L381.154 30.1314L340.143 53.8029Z" fill="url(#paint3_linear_10:2988)"/>
<path d="M381.154 30.1317V33.0083L340.143 56.6798V53.8032L381.154 30.1317Z" fill="white"/>
<path d="M299.148 30.1317V33.0083L340.143 56.6798V53.8032L299.148 30.1317Z" fill="url(#paint4_linear_10:2988)"/>
<path d="M324.249 30.5011L322.433 29.4566L322.578 28.6049L339.42 18.802L341.766 19.9108L341.332 20.6501L324.249 30.5011Z" fill="#3F38FC"/>
<path d="M339.516 19.5898L341.332 20.6504L342.505 19.9755L339.516 18.2399L321.261 28.7819L322.434 29.4569L339.516 19.5898Z" fill="url(#paint5_linear_10:2988)"/>
<path d="M329.761 33.683L327.946 32.6223L328.09 31.7706L344.932 21.9678L347.278 23.0927L346.844 23.8159L329.761 33.683Z" fill="#3F38FC"/>
<path d="M345.028 22.7717L346.843 23.8162L348.017 23.1413L345.028 21.4218L326.772 31.9478L327.945 32.6227L345.028 22.7717Z" fill="url(#paint6_linear_10:2988)"/>
<path d="M335.273 36.8488L333.458 35.8042L333.602 34.9525L350.444 25.1497L352.79 26.2585L352.356 26.9817L335.273 36.8488Z" fill="#3F38FC"/>
<path d="M350.541 25.9373L352.357 26.9819L353.53 26.3069L350.541 24.5874L332.285 35.1295L333.458 35.8044L350.541 25.9373Z" fill="url(#paint7_linear_10:2988)"/>
<path d="M340.786 40.0149L338.97 38.9704L339.115 38.1186L355.956 28.3158L358.303 29.4407L357.869 30.1639L340.786 40.0149Z" fill="#3F38FC"/>
<path d="M356.053 29.1191L357.869 30.1637L359.042 29.4888L356.053 27.7532L337.797 38.2953L338.97 38.9702L356.053 29.1191Z" fill="url(#paint8_linear_10:2988)"/>
<g opacity="0.51">
<path opacity="0.51" d="M283.64 138.059L340.143 103.942V65.245L283.64 32.6224V138.059Z" fill="#4553C7"/>
</g>
<path d="M337.909 70.8859C337.866 70.1064 337.64 69.3481 337.249 68.6724C336.858 67.9967 336.313 67.4226 335.659 66.9969C335.429 66.8306 335.159 66.7282 334.877 66.7C334.595 66.6718 334.31 66.7188 334.052 66.8362L332.445 67.7683H333.425C333.409 67.9339 333.409 68.1008 333.425 68.2664C333.47 69.0456 333.696 69.8035 334.087 70.479C334.478 71.1545 335.022 71.7287 335.675 72.1554C335.826 72.2451 335.988 72.3153 336.157 72.3644L335.691 73.2321L337.298 72.3161C337.513 72.1489 337.681 71.93 337.788 71.6798C337.895 71.4297 337.936 71.1565 337.909 70.8859Z" fill="url(#paint9_linear_10:2988)"/>
<path d="M336.302 71.8177C336.302 73.264 335.306 73.8425 334.052 73.1194C333.398 72.6936 332.853 72.1196 332.462 71.4439C332.072 70.7682 331.845 70.0098 331.802 69.2304C331.802 67.8001 332.815 67.2055 334.052 67.9287C334.708 68.3535 335.253 68.9273 335.644 69.6032C336.035 70.2791 336.26 71.0379 336.302 71.8177Z" fill="url(#paint10_linear_10:2988)"/>
<path d="M335.353 71.2712C335.353 72.0908 334.775 72.4282 334.052 72.0265C333.676 71.7782 333.365 71.4453 333.141 71.0545C332.918 70.6638 332.789 70.2261 332.766 69.7766C332.766 68.9571 333.345 68.6196 334.052 69.0374C334.431 69.2795 334.746 69.6084 334.973 69.9968C335.199 70.3853 335.33 70.8222 335.353 71.2712Z" fill="#3F38FC"/>
<path d="M290.517 41.7666C290.475 40.9872 290.248 40.2288 289.858 39.5531C289.467 38.8774 288.922 38.3034 288.268 37.8776C288.038 37.7114 287.768 37.609 287.486 37.5807C287.203 37.5525 286.919 37.5995 286.661 37.7169L285.054 38.649H286.034C286.017 38.8146 286.017 38.9815 286.034 39.1472C286.078 39.9263 286.305 40.6842 286.695 41.3597C287.086 42.0352 287.63 42.6095 288.284 43.0362C288.435 43.1258 288.597 43.196 288.766 43.2451L288.3 44.1129L289.907 43.1969C290.121 43.0296 290.29 42.8107 290.397 42.5605C290.503 42.3104 290.545 42.0372 290.517 41.7666Z" fill="url(#paint11_linear_10:2988)"/>
<path d="M288.911 42.6982C288.911 44.1445 287.914 44.7231 286.661 43.9999C286.007 43.5741 285.462 43.0001 285.071 42.3244C284.68 41.6487 284.454 40.8904 284.411 40.1109C284.411 38.6806 285.423 38.1021 286.661 38.8092C287.316 39.234 287.861 39.8078 288.252 40.4837C288.643 41.1596 288.869 41.9185 288.911 42.6982Z" fill="url(#paint12_linear_10:2988)"/>
<path d="M287.914 42.1522C287.914 42.9717 287.335 43.3092 286.612 42.9075C286.237 42.6592 285.925 42.3262 285.702 41.9355C285.479 41.5447 285.35 41.1071 285.327 40.6576C285.327 39.838 285.905 39.5006 286.612 39.9184C286.991 40.1605 287.307 40.4894 287.533 40.8778C287.76 41.2663 287.89 41.7032 287.914 42.1522Z" fill="#3F38FC"/>
<path d="M337.909 183.04C337.866 182.26 337.64 181.502 337.249 180.826C336.858 180.151 336.313 179.577 335.659 179.151C335.429 178.985 335.159 178.882 334.877 178.854C334.595 178.826 334.31 178.873 334.052 178.99L332.445 179.922H333.425C333.409 180.082 333.409 180.244 333.425 180.404C333.468 181.186 333.694 181.947 334.085 182.625C334.476 183.303 335.02 183.88 335.675 184.309C335.826 184.399 335.988 184.469 336.157 184.518L335.691 185.386L337.298 184.47C337.513 184.303 337.681 184.084 337.788 183.834C337.895 183.584 337.936 183.31 337.909 183.04Z" fill="url(#paint13_linear_10:2988)"/>
<path d="M336.302 183.972C336.302 185.418 335.306 185.997 334.052 185.274C333.398 184.848 332.853 184.274 332.462 183.598C332.072 182.923 331.845 182.164 331.802 181.385C331.802 179.955 332.815 179.36 334.052 180.083C334.708 180.508 335.253 181.082 335.644 181.758C336.035 182.434 336.26 183.192 336.302 183.972Z" fill="url(#paint14_linear_10:2988)"/>
<path d="M335.353 183.426C335.353 184.245 334.775 184.583 334.052 184.181C333.678 183.931 333.368 183.597 333.145 183.207C332.922 182.817 332.792 182.38 332.766 181.931C332.766 181.111 333.345 180.774 334.052 181.192C334.431 181.434 334.746 181.763 334.973 182.151C335.199 182.54 335.33 182.977 335.353 183.426Z" fill="#3F38FC"/>
<path d="M290.517 153.953C290.475 153.173 290.248 152.415 289.858 151.739C289.467 151.064 288.922 150.49 288.268 150.064C288.038 149.898 287.768 149.795 287.486 149.767C287.203 149.739 286.919 149.786 286.661 149.903L285.054 150.835H286.034C286.018 150.996 286.018 151.157 286.034 151.317C286.077 152.099 286.303 152.86 286.694 153.538C287.084 154.216 287.629 154.793 288.284 155.222C288.435 155.312 288.597 155.382 288.766 155.431L288.3 156.299L289.907 155.383C290.121 155.216 290.29 154.997 290.397 154.747C290.503 154.497 290.545 154.224 290.517 153.953Z" fill="url(#paint15_linear_10:2988)"/>
<path d="M288.911 154.853C288.911 156.299 287.914 156.877 286.661 156.154C286.007 155.729 285.462 155.154 285.071 154.479C284.68 153.803 284.454 153.045 284.411 152.265C284.411 150.835 285.423 150.24 286.661 150.964C287.316 151.388 287.861 151.962 288.252 152.638C288.643 153.314 288.869 154.073 288.911 154.853Z" fill="url(#paint16_linear_10:2988)"/>
<path d="M287.914 154.306C287.914 155.126 287.335 155.463 286.612 155.062C286.239 154.811 285.928 154.478 285.705 154.088C285.482 153.697 285.352 153.261 285.327 152.812C285.327 151.992 285.905 151.655 286.612 152.072C286.991 152.315 287.307 152.643 287.533 153.032C287.76 153.42 287.89 153.857 287.914 154.306Z" fill="#3F38FC"/>
<path opacity="0.5" d="M68.1855 334.486L0.979812 295.676C-0.48258 294.841 -0.289737 293.362 1.38157 292.462L21.1479 281.004L93.6408 322.787L73.8905 334.181C73.0305 334.676 72.0657 334.962 71.0745 335.015C70.0833 335.068 69.0936 334.887 68.1855 334.486Z" fill="#BEBFCA"/>
<path d="M163.723 281.679V268.277H141.916L93.4641 240.363C92.7327 240.025 91.9315 239.867 91.1268 239.901C90.322 239.934 89.5368 240.159 88.8359 240.556L40.6252 268.357H18.9946V281.792C19.0221 282.028 19.1087 282.253 19.2463 282.447C19.3839 282.641 19.5682 282.797 19.7821 282.901L89.2055 322.98C89.9392 323.308 90.7392 323.462 91.5424 323.428C92.3455 323.395 93.1299 323.175 93.8338 322.787L162.566 283.11C162.863 282.986 163.124 282.791 163.326 282.541C163.528 282.291 163.665 281.995 163.723 281.679Z" fill="url(#paint17_linear_10:2988)"/>
<path d="M89.2224 309.593L19.799 269.53C18.6098 268.839 18.7705 267.634 20.1364 266.846L88.8849 227.153C89.5888 226.764 90.3732 226.545 91.1764 226.511C91.9795 226.478 92.7795 226.632 93.5132 226.96L162.937 267.039C164.126 267.73 163.965 268.919 162.599 269.723L93.8506 309.416C93.1472 309.807 92.3617 310.027 91.5577 310.057C90.7536 310.088 89.9536 309.929 89.2224 309.593Z" fill="url(#paint18_linear_10:2988)"/>
<path d="M89.463 304.9L27.93 269.385C26.8855 268.775 27.014 267.778 28.2354 267.007L89.1737 231.829C89.7943 231.478 90.4892 231.279 91.2015 231.249C91.9137 231.218 92.6232 231.356 93.2717 231.652L154.805 267.184C155.865 267.794 155.721 268.791 154.515 269.546L93.577 304.74C92.951 305.085 92.2532 305.279 91.539 305.307C90.8248 305.334 90.114 305.195 89.463 304.9Z" fill="#224CE8"/>
<path d="M89.6232 301.928L33.0881 269.289C32.1239 268.727 32.2364 267.682 33.3613 267.12L89.3501 234.786C89.9215 234.468 90.5597 234.29 91.213 234.265C91.8663 234.24 92.5164 234.369 93.1105 234.642L149.71 267.264C150.674 267.827 150.562 268.871 149.437 269.45L93.464 301.799C92.8827 302.132 92.2289 302.317 91.5596 302.339C90.8902 302.362 90.2255 302.221 89.6232 301.928Z" fill="#4F74FF"/>
<path opacity="0.5" d="M90.0732 293.105L48.387 269C47.6638 268.582 47.7602 267.859 48.5798 267.393L89.8803 243.545C90.3029 243.311 90.7744 243.179 91.2571 243.159C91.7397 243.14 92.2203 243.233 92.6605 243.432L134.347 267.537C135.07 267.955 134.973 268.662 134.154 269.144L92.8533 292.977C92.4319 293.213 91.9611 293.348 91.4784 293.37C90.9958 293.393 90.5146 293.302 90.0732 293.105Z" fill="#224CE8"/>
<path d="M90.0734 266.155L83.4685 262.33L87.0682 260.241L93.6892 264.066L90.0734 266.155Z" fill="#42FFFF"/>
<path d="M102.351 265.609L95.7463 269.434L92.1465 267.345L98.7514 263.52L102.351 265.609Z" fill="#42FFFF"/>
<path d="M88.5796 267.023L84.9638 269.096L81.348 267.023L84.9638 264.934L88.5796 267.023Z" fill="#42FFFF"/>
<path d="M101.05 274.222L97.4343 276.295L87.0369 270.285L90.6366 268.212L101.05 274.222Z" fill="#42FFFF"/>
<path d="M91.3593 158.918L34.8563 126.296L91.3593 93.6572L147.878 126.296L91.3593 158.918Z" fill="#BCD5FF"/>
<path d="M91.3593 284.138L34.8563 251.515L91.3593 218.893L147.878 251.515L91.3593 284.138Z" fill="white"/>
<path d="M147.879 126.296V251.515L91.3597 284.138V158.918L147.879 126.296Z" fill="#E9F1FF"/>
<path d="M34.8563 126.296V251.515L91.3593 284.138V158.918L34.8563 126.296Z" fill="#224CE8"/>
<g opacity="0.51">
<path opacity="0.51" d="M38.6808 134.604V247.16L87.5344 275.364V162.808L38.6808 134.604Z" fill="#BECCFF"/>
</g>
<path d="M139.393 156.556V159.851L99.844 182.703V179.392L139.393 156.556Z" fill="#4553C7"/>
<path d="M139.393 170.537V173.848L99.844 196.684V193.373L139.393 170.537Z" fill="#4553C7"/>
<path d="M139.393 184.534V187.845L99.844 210.681V207.37L139.393 184.534Z" fill="#4553C7"/>
<path d="M139.393 198.532V201.842L99.844 224.678V221.368L139.393 198.532Z" fill="#4553C7"/>
<path d="M139.393 212.529V215.839L99.844 238.675V235.365L139.393 212.529Z" fill="#4553C7"/>
<path d="M139.393 226.526V229.836L99.844 252.672V249.362L139.393 226.526Z" fill="#4553C7"/>
<path d="M91.3593 157.794L35.8205 125.734L34.8563 126.296L91.3593 158.919L147.878 126.296L146.914 125.734L91.3593 157.794Z" fill="white"/>
<path opacity="0.78" d="M91.3593 150.337H76.5265L34.8563 126.296L80.1905 100.118H91.3593V150.337Z" fill="url(#paint19_linear_10:2988)"/>
<path d="M91.3588 147.461L50.3636 123.789L91.3588 100.118L132.37 123.789L91.3588 147.461Z" fill="url(#paint20_linear_10:2988)"/>
<path d="M132.371 123.789V126.666L91.3597 150.337V147.461L132.371 123.789Z" fill="white"/>
<path d="M50.3636 123.789V126.666L91.3588 150.337V147.461L50.3636 123.789Z" fill="url(#paint21_linear_10:2988)"/>
<path d="M75.466 124.174L73.6501 123.114L73.7947 122.262L90.6363 112.459L92.9826 113.584L92.5487 114.307L75.466 124.174Z" fill="#3F38FC"/>
<path d="M90.7326 113.263L92.5485 114.308L93.7217 113.633L90.7326 111.913L72.4768 122.439L73.6499 123.114L90.7326 113.263Z" fill="url(#paint22_linear_10:2988)"/>
<path d="M80.9772 127.341L79.1613 126.296L79.3059 125.444L96.1475 115.641L98.4938 116.75L98.0599 117.49L80.9772 127.341Z" fill="#3F38FC"/>
<path d="M96.2442 116.429L98.0601 117.489L99.2333 116.798L96.2442 115.079L77.9884 125.621L79.1615 126.296L96.2442 116.429Z" fill="url(#paint23_linear_10:2988)"/>
<path d="M86.4898 130.523L84.6738 129.462L84.8185 128.61L101.66 118.807L104.006 119.932L103.572 120.655L86.4898 130.523Z" fill="#3F38FC"/>
<path d="M101.757 119.611L103.573 120.655L104.746 119.98L101.757 118.261L83.501 128.787L84.6741 129.462L101.757 119.611Z" fill="url(#paint24_linear_10:2988)"/>
<path d="M92.0019 133.688L90.1859 132.644L90.3305 131.792L107.172 121.989L109.518 123.098L109.085 123.821L92.0019 133.688Z" fill="#3F38FC"/>
<path d="M107.269 122.777L109.085 123.821L110.258 123.146L107.269 121.427L89.0131 131.969L90.1862 132.644L107.269 122.777Z" fill="url(#paint25_linear_10:2988)"/>
<g opacity="0.51">
<path opacity="0.51" d="M34.8563 231.733L91.3593 197.616V158.918L34.8563 126.296V231.733Z" fill="#4553C7"/>
</g>
<path d="M89.1256 164.559C89.0826 163.778 88.8567 163.017 88.4659 162.339C88.0751 161.66 87.5304 161.083 86.8758 160.654C86.6445 160.491 86.374 160.391 86.0917 160.366C85.8095 160.34 85.5256 160.39 85.2688 160.51L83.6617 161.442H84.6421C84.6247 161.602 84.6247 161.764 84.6421 161.924C84.685 162.703 84.9111 163.462 85.302 164.137C85.6929 164.813 86.2376 165.387 86.8919 165.813C87.0427 165.907 87.2046 165.983 87.374 166.038L86.908 166.889L88.515 165.973C88.7271 165.808 88.8941 165.591 89.0008 165.344C89.1075 165.097 89.1504 164.827 89.1256 164.559Z" fill="url(#paint26_linear_10:2988)"/>
<path d="M87.5188 165.491C87.5188 166.921 86.5225 167.5 85.269 166.793C84.6144 166.364 84.0697 165.787 83.6789 165.108C83.2881 164.43 83.0622 163.669 83.0192 162.888C83.0192 161.458 84.0316 160.879 85.269 161.602C85.926 162.025 86.4728 162.598 86.864 163.275C87.2553 163.951 87.4797 164.711 87.5188 165.491Z" fill="url(#paint27_linear_10:2988)"/>
<path d="M86.5696 164.945C86.5696 165.764 85.9911 166.102 85.2679 165.684C84.8947 165.437 84.5841 165.107 84.361 164.719C84.1378 164.331 84.0081 163.897 83.9823 163.45C83.9823 162.615 84.5608 162.293 85.2679 162.695C85.6471 162.94 85.9628 163.272 86.1891 163.663C86.4153 164.054 86.5457 164.494 86.5696 164.945Z" fill="#3F38FC"/>
<path d="M41.7341 135.44C41.6912 134.658 41.4652 133.898 41.0744 133.219C40.6836 132.541 40.1389 131.964 39.4843 131.535C39.253 131.371 38.9825 131.272 38.7003 131.246C38.418 131.221 38.1341 131.27 37.8773 131.39L36.2703 132.322H37.2505C37.2331 132.482 37.2331 132.644 37.2505 132.804C37.2935 133.584 37.5196 134.342 37.9105 135.018C38.3014 135.694 38.8461 136.268 39.5004 136.693C39.6513 136.788 39.8132 136.863 39.9825 136.918L39.5164 137.77L41.1235 136.87C41.338 136.703 41.5065 136.484 41.6133 136.234C41.7202 135.984 41.7617 135.71 41.7341 135.44Z" fill="url(#paint28_linear_10:2988)"/>
<path d="M40.1268 136.372C40.1268 137.802 39.1305 138.381 37.877 137.674C37.2224 137.244 36.6778 136.667 36.287 135.989C35.8962 135.311 35.6702 134.55 35.6272 133.768C35.6272 132.338 36.6396 131.76 37.877 132.483C38.534 132.906 39.0808 133.479 39.472 134.155C39.8633 134.832 40.0878 135.592 40.1268 136.372Z" fill="url(#paint29_linear_10:2988)"/>
<path d="M39.1791 135.826C39.1791 136.645 38.6006 136.983 37.8774 136.565C37.5042 136.318 37.1936 135.988 36.9705 135.6C36.7473 135.212 36.6176 134.778 36.5918 134.331C36.5918 133.495 37.1704 133.174 37.8774 133.576C38.2567 133.821 38.5723 134.153 38.7986 134.544C39.0248 134.935 39.1552 135.375 39.1791 135.826Z" fill="#3F38FC"/>
<path d="M89.1256 276.713C89.0826 275.932 88.8567 275.171 88.4659 274.493C88.0751 273.815 87.5304 273.238 86.8758 272.808C86.6445 272.645 86.374 272.545 86.0917 272.52C85.8095 272.494 85.5256 272.544 85.2688 272.664L83.6617 273.596H84.6421C84.6247 273.756 84.6247 273.918 84.6421 274.078C84.685 274.857 84.9111 275.616 85.302 276.291C85.6929 276.967 86.2376 277.541 86.8919 277.967C87.0427 278.061 87.2046 278.137 87.374 278.192L86.908 279.044L88.515 278.128C88.7271 277.962 88.8941 277.746 89.0008 277.498C89.1075 277.251 89.1504 276.981 89.1256 276.713Z" fill="url(#paint30_linear_10:2988)"/>
<path d="M87.5188 277.694C87.5188 279.124 86.5225 279.703 85.269 278.995C84.6144 278.566 84.0697 277.989 83.6789 277.311C83.2881 276.633 83.0622 275.872 83.0192 275.09C83.0192 273.66 84.0316 273.082 85.269 273.805C85.926 274.228 86.4728 274.801 86.864 275.477C87.2553 276.154 87.4797 276.913 87.5188 277.694Z" fill="url(#paint31_linear_10:2988)"/>
<path d="M86.5696 277.099C86.5696 277.919 85.9911 278.256 85.2679 277.838C84.8947 277.592 84.5841 277.261 84.361 276.874C84.1378 276.486 84.0081 276.051 83.9823 275.605C83.9823 274.769 84.5608 274.448 85.2679 274.849C85.6471 275.095 85.9628 275.427 86.1891 275.818C86.4153 276.209 86.5457 276.648 86.5696 277.099Z" fill="#3F38FC"/>
<path d="M41.7341 247.594C41.6912 246.813 41.4652 246.052 41.0744 245.374C40.6836 244.695 40.1389 244.118 39.4843 243.689C39.253 243.525 38.9825 243.426 38.7003 243.401C38.418 243.375 38.1341 243.425 37.8773 243.545L36.2703 244.477H37.2505C37.2331 244.637 37.2331 244.798 37.2505 244.959C37.2935 245.738 37.5196 246.496 37.9105 247.172C38.3014 247.848 38.8461 248.422 39.5004 248.848C39.6513 248.942 39.8132 249.018 39.9825 249.073L39.5164 249.924L41.1235 249.008C41.3355 248.843 41.5026 248.626 41.6093 248.379C41.716 248.132 41.7589 247.862 41.7341 247.594Z" fill="url(#paint32_linear_10:2988)"/>
<path d="M40.1268 248.526C40.1268 249.956 39.1305 250.535 37.877 249.828C37.2224 249.399 36.6778 248.822 36.287 248.143C35.8962 247.465 35.6702 246.704 35.6272 245.923C35.6272 244.493 36.6396 243.914 37.877 244.637C38.534 245.06 39.0808 245.633 39.472 246.31C39.8633 246.986 40.0878 247.746 40.1268 248.526Z" fill="url(#paint33_linear_10:2988)"/>
<path d="M39.1791 247.98C39.1791 248.799 38.6006 249.137 37.8774 248.719C37.5042 248.472 37.1936 248.142 36.9705 247.754C36.7473 247.366 36.6176 246.932 36.5918 246.485C36.5918 245.65 37.1704 245.328 37.8774 245.73C38.2567 245.976 38.5723 246.308 38.7986 246.699C39.0248 247.09 39.1552 247.529 39.1791 247.98Z" fill="#3F38FC"/>
<path opacity="0.5" d="M204.188 338.76C202.742 337.909 202.919 336.446 204.606 335.546L224.34 324.153L296.833 365.935L277.083 377.329C276.22 377.812 275.255 378.085 274.267 378.127C273.279 378.169 272.295 377.978 271.394 377.57" fill="#BEBFCA"/>
<path d="M366.931 324.796V311.441H345.124L296.736 283.479C296.001 283.147 295.198 282.991 294.391 283.025C293.585 283.058 292.797 283.28 292.092 283.672L243.881 311.489H222.186V324.908C222.206 325.147 222.29 325.375 222.428 325.57C222.567 325.766 222.755 325.92 222.974 326.017L292.429 366.08C293.162 366.412 293.963 366.568 294.767 366.534C295.57 366.501 296.355 366.279 297.058 365.887L365.822 326.194C366.106 326.067 366.355 325.874 366.548 325.631C366.741 325.387 366.873 325.101 366.931 324.796Z" fill="url(#paint34_linear_10:2988)"/>
<path d="M292.43 352.726L223.023 312.646C221.834 311.955 221.978 310.766 223.344 309.963L292.093 270.269C292.799 269.881 293.587 269.661 294.392 269.628C295.198 269.594 296.001 269.748 296.737 270.076L366.144 310.155C367.334 310.846 367.189 312.052 365.823 312.839L297.058 352.533C296.355 352.921 295.57 353.141 294.767 353.174C293.964 353.207 293.164 353.054 292.43 352.726Z" fill="url(#paint35_linear_10:2988)"/>
<path d="M292.43 352.726L223.023 312.646C221.834 311.955 221.978 310.766 223.344 309.963L292.093 270.269C292.799 269.881 293.587 269.661 294.392 269.628C295.198 269.594 296.001 269.748 296.737 270.076L366.144 310.155C367.334 310.846 367.189 312.052 365.823 312.839L297.058 352.533C296.355 352.921 295.57 353.141 294.767 353.174C293.964 353.207 293.164 353.054 292.43 352.726Z" fill="url(#paint36_linear_10:2988)"/>
<path d="M292.736 348.033L231.203 312.502C230.159 311.891 230.287 310.895 231.508 310.14L292.447 274.946C293.069 274.597 293.764 274.401 294.477 274.373C295.189 274.345 295.897 274.486 296.545 274.785L358.078 310.3C359.138 310.911 359.01 311.907 357.788 312.679L296.85 347.856C296.225 348.203 295.528 348.399 294.814 348.429C294.1 348.46 293.389 348.324 292.736 348.033Z" fill="#224CE8"/>
<path d="M292.832 345.044L236.297 312.405C235.333 311.859 235.461 310.879 236.57 310.236L292.559 277.919C293.13 277.594 293.771 277.411 294.428 277.383C295.084 277.355 295.738 277.484 296.335 277.758L352.87 310.397C353.835 310.943 353.706 312.004 352.597 312.566L296.608 344.899C296.034 345.217 295.393 345.396 294.737 345.421C294.081 345.446 293.429 345.317 292.832 345.044Z" fill="#4553C7"/>
<path d="M293.282 309.272L286.677 305.447L290.277 303.374L296.898 307.183L293.282 309.272Z" fill="#42FFFF"/>
<path d="M305.575 308.725L298.954 312.55L295.355 310.461L301.96 306.652L305.575 308.725Z" fill="#42FFFF"/>
<path d="M291.787 310.139L288.172 312.212L284.572 310.139L288.172 308.05L291.787 310.139Z" fill="#42FFFF"/>
<path d="M304.257 317.339L300.658 319.428L290.244 313.418L293.844 311.329L304.257 317.339Z" fill="#42FFFF"/>
<path opacity="0.4" d="M366.947 293.394L337.426 293.571L296.737 270.093C296.003 269.757 295.2 269.598 294.393 269.628C293.587 269.659 292.799 269.879 292.092 270.269L250.856 294.085L222.219 294.262V311.65C222.269 311.862 222.366 312.06 222.502 312.229C222.638 312.399 222.81 312.536 223.006 312.63L292.414 352.71C293.147 353.038 293.947 353.192 294.751 353.158C295.554 353.125 296.338 352.905 297.042 352.517L365.806 312.823C366.061 312.698 366.288 312.522 366.473 312.307C366.658 312.091 366.798 311.841 366.883 311.57L366.947 293.394Z" fill="#94E8CE"/>
<path d="M366.931 295.13V281.727H345.124L296.736 253.797C296.002 253.461 295.2 253.302 294.393 253.333C293.586 253.364 292.798 253.583 292.092 253.974L243.881 281.792H222.186V295.226C222.208 295.464 222.292 295.692 222.43 295.887C222.569 296.082 222.756 296.237 222.974 296.335L292.381 336.415C293.115 336.743 293.915 336.896 294.718 336.863C295.521 336.83 296.306 336.61 297.009 336.222L365.774 296.528C366.066 296.407 366.324 296.216 366.526 295.972C366.727 295.729 366.866 295.44 366.931 295.13Z" fill="url(#paint37_linear_10:2988)"/>
<path d="M292.43 323.044L223.023 282.965C221.834 282.29 221.978 281.085 223.344 280.297L292.093 240.604C292.799 240.215 293.587 239.995 294.392 239.962C295.198 239.929 296.001 240.082 296.737 240.411L366.144 280.49C367.334 281.181 367.189 282.37 365.823 283.158L297.058 322.851C296.358 323.248 295.572 323.472 294.768 323.506C293.963 323.54 293.162 323.381 292.43 323.044Z" fill="url(#paint38_linear_10:2988)"/>
<path d="M292.736 318.351L231.203 282.836C230.159 282.226 230.287 281.229 231.508 280.458L292.447 245.28C293.067 244.929 293.762 244.73 294.475 244.7C295.187 244.669 295.896 244.807 296.545 245.103L358.078 280.635C359.138 281.245 359.01 282.242 357.788 282.997L296.85 318.191C296.224 318.536 295.526 318.73 294.812 318.757C294.098 318.785 293.387 318.646 292.736 318.351Z" fill="#224CE8"/>
<path d="M292.832 315.378L236.297 282.74C235.333 282.177 235.461 281.213 236.57 280.57L292.559 248.237C293.133 247.92 293.773 247.741 294.428 247.713C295.083 247.685 295.736 247.809 296.335 248.076L352.87 280.715C353.835 281.277 353.706 282.322 352.597 282.9L296.608 315.218C296.035 315.538 295.395 315.72 294.739 315.748C294.083 315.775 293.43 315.649 292.832 315.378Z" fill="#4F74FF"/>
<path d="M293.282 279.606L286.677 275.781L290.277 273.692L296.898 277.517L293.282 279.606Z" fill="#42FFFF"/>
<path d="M305.575 279.06L298.954 282.884L295.355 280.795L301.96 276.97L305.575 279.06Z" fill="#42FFFF"/>
<path d="M291.787 280.474L288.172 282.547L284.572 280.474L288.172 278.385L291.787 280.474Z" fill="#42FFFF"/>
<path d="M304.257 287.673L300.658 289.746L290.244 283.736L293.844 281.663L304.257 287.673Z" fill="#42FFFF"/>
</g>
<defs>
<linearGradient id="paint0_linear_10:2988" x1="381.588" y1="148.425" x2="268.807" y2="238.852" gradientUnits="userSpaceOnUse">
<stop stop-color="#BCD5FF"/>
<stop offset="0.15" stop-color="#A3BEFF"/>
<stop offset="0.39" stop-color="#82A0FF"/>
<stop offset="0.61" stop-color="#6A8AFF"/>
<stop offset="0.82" stop-color="#5C7DFF"/>
<stop offset="1" stop-color="#5778FF"/>
</linearGradient>
<linearGradient id="paint1_linear_10:2988" x1="404.482" y1="177.893" x2="246.959" y2="129.312" gradientUnits="userSpaceOnUse">
<stop stop-color="#C0D6FF"/>
<stop offset="0.3" stop-color="#C5DBFF"/>
<stop offset="0.65" stop-color="#D3E9FF"/>
<stop offset="1" stop-color="#E9FFFF"/>
</linearGradient>
<linearGradient id="paint2_linear_10:2988" x1="283.64" y1="31.5617" x2="340.143" y2="31.5617" gradientUnits="userSpaceOnUse">
<stop stop-color="#E9FFFF"/>
<stop offset="0.04" stop-color="#D3EBFF"/>
<stop offset="0.11" stop-color="#B2CCFF"/>
<stop offset="0.18" stop-color="#96B2FF"/>
<stop offset="0.27" stop-color="#7F9DFF"/>
<stop offset="0.36" stop-color="#6D8CFF"/>
<stop offset="0.48" stop-color="#6081FF"/>
<stop offset="0.64" stop-color="#597AFF"/>
<stop offset="1" stop-color="#5778FF"/>
</linearGradient>
<linearGradient id="paint3_linear_10:2988" x1="15564.6" y1="894.14" x2="19749.4" y2="894.14" gradientUnits="userSpaceOnUse">
<stop stop-color="#C0D6FF"/>
<stop offset="0.3" stop-color="#C5DBFF"/>
<stop offset="0.65" stop-color="#D3E9FF"/>
<stop offset="1" stop-color="#E9FFFF"/>
</linearGradient>
<linearGradient id="paint4_linear_10:2988" x1="319.653" y1="44.386" x2="319.653" y2="17.838" gradientUnits="userSpaceOnUse">
<stop stop-color="#5778FF"/>
<stop offset="0.18" stop-color="#5C7DFF"/>
<stop offset="0.39" stop-color="#6A8AFF"/>
<stop offset="0.61" stop-color="#82A0FF"/>
<stop offset="0.85" stop-color="#A3BEFF"/>
<stop offset="1" stop-color="#BCD5FF"/>
</linearGradient>
<linearGradient id="paint5_linear_10:2988" x1="4568.32" y1="184.701" x2="4849.18" y2="184.701" gradientUnits="userSpaceOnUse">
<stop stop-color="#5778FF"/>
<stop offset="0.18" stop-color="#5C7DFF"/>
<stop offset="0.39" stop-color="#6A8AFF"/>
<stop offset="0.61" stop-color="#82A0FF"/>
<stop offset="0.85" stop-color="#A3BEFF"/>
<stop offset="1" stop-color="#BCD5FF"/>
</linearGradient>
<linearGradient id="paint6_linear_10:2988" x1="4646.7" y1="209.822" x2="4927.56" y2="209.822" gradientUnits="userSpaceOnUse">
<stop stop-color="#5778FF"/>
<stop offset="0.18" stop-color="#5C7DFF"/>
<stop offset="0.39" stop-color="#6A8AFF"/>
<stop offset="0.61" stop-color="#82A0FF"/>
<stop offset="0.85" stop-color="#A3BEFF"/>
<stop offset="1" stop-color="#BCD5FF"/>
</linearGradient>
<linearGradient id="paint7_linear_10:2988" x1="4725.09" y1="235.355" x2="5005.94" y2="235.355" gradientUnits="userSpaceOnUse">
<stop stop-color="#5778FF"/>
<stop offset="0.18" stop-color="#5C7DFF"/>
<stop offset="0.39" stop-color="#6A8AFF"/>
<stop offset="0.61" stop-color="#82A0FF"/>
<stop offset="0.85" stop-color="#A3BEFF"/>
<stop offset="1" stop-color="#BCD5FF"/>
</linearGradient>
<linearGradient id="paint8_linear_10:2988" x1="4803.47" y1="260.619" x2="5084.32" y2="260.619" gradientUnits="userSpaceOnUse">
<stop stop-color="#5778FF"/>
<stop offset="0.18" stop-color="#5C7DFF"/>
<stop offset="0.39" stop-color="#6A8AFF"/>
<stop offset="0.61" stop-color="#82A0FF"/>
<stop offset="0.85" stop-color="#A3BEFF"/>
<stop offset="1" stop-color="#BCD5FF"/>
</linearGradient>
<linearGradient id="paint9_linear_10:2988" x1="3258.54" y1="712.463" x2="3277.04" y2="712.463" gradientUnits="userSpaceOnUse">
<stop stop-color="#C0D6FF"/>
<stop offset="0.3" stop-color="#C5DBFF"/>
<stop offset="0.65" stop-color="#D3E9FF"/>
<stop offset="1" stop-color="#E9FFFF"/>
</linearGradient>
<linearGradient id="paint10_linear_10:2988" x1="2736.01" y1="643.378" x2="2748.61" y2="643.378" gradientUnits="userSpaceOnUse">
<stop stop-color="#5778FF"/>
<stop offset="0.18" stop-color="#5C7DFF"/>
<stop offset="0.39" stop-color="#6A8AFF"/>
<stop offset="0.61" stop-color="#82A0FF"/>
<stop offset="0.85" stop-color="#A3BEFF"/>
<stop offset="1" stop-color="#BCD5FF"/>
</linearGradient>
<linearGradient id="paint11_linear_10:2988" x1="3049.8" y1="564.838" x2="3068.3" y2="564.838" gradientUnits="userSpaceOnUse">
<stop stop-color="#C0D6FF"/>
<stop offset="0.3" stop-color="#C5DBFF"/>
<stop offset="0.65" stop-color="#D3E9FF"/>
<stop offset="1" stop-color="#E9FFFF"/>
</linearGradient>
<linearGradient id="paint12_linear_10:2988" x1="2555.92" y1="508.41" x2="2568.52" y2="508.41" gradientUnits="userSpaceOnUse">
<stop stop-color="#5778FF"/>
<stop offset="0.18" stop-color="#5C7DFF"/>
<stop offset="0.39" stop-color="#6A8AFF"/>
<stop offset="0.61" stop-color="#82A0FF"/>
<stop offset="0.85" stop-color="#A3BEFF"/>
<stop offset="1" stop-color="#BCD5FF"/>
</linearGradient>
<linearGradient id="paint13_linear_10:2988" x1="3258.54" y1="1281.05" x2="3277.04" y2="1281.05" gradientUnits="userSpaceOnUse">
<stop stop-color="#C0D6FF"/>
<stop offset="0.3" stop-color="#C5DBFF"/>
<stop offset="0.65" stop-color="#D3E9FF"/>
<stop offset="1" stop-color="#E9FFFF"/>
</linearGradient>
<linearGradient id="paint14_linear_10:2988" x1="2736.01" y1="1161.05" x2="2748.61" y2="1161.05" gradientUnits="userSpaceOnUse">
<stop stop-color="#5778FF"/>
<stop offset="0.18" stop-color="#5C7DFF"/>
<stop offset="0.39" stop-color="#6A8AFF"/>
<stop offset="0.61" stop-color="#82A0FF"/>
<stop offset="0.85" stop-color="#A3BEFF"/>
<stop offset="1" stop-color="#BCD5FF"/>
</linearGradient>
<linearGradient id="paint15_linear_10:2988" x1="3049.8" y1="1133.46" x2="3068.3" y2="1133.46" gradientUnits="userSpaceOnUse">
<stop stop-color="#C0D6FF"/>
<stop offset="0.3" stop-color="#C5DBFF"/>
<stop offset="0.65" stop-color="#D3E9FF"/>
<stop offset="1" stop-color="#E9FFFF"/>
</linearGradient>
<linearGradient id="paint16_linear_10:2988" x1="2555.92" y1="1026.64" x2="2568.52" y2="1026.64" gradientUnits="userSpaceOnUse">
<stop stop-color="#5778FF"/>
<stop offset="0.18" stop-color="#5C7DFF"/>
<stop offset="0.39" stop-color="#6A8AFF"/>
<stop offset="0.61" stop-color="#82A0FF"/>
<stop offset="0.85" stop-color="#A3BEFF"/>
<stop offset="1" stop-color="#BCD5FF"/>
</linearGradient>
<linearGradient id="paint17_linear_10:2988" x1="132.804" y1="242.106" x2="20.0291" y2="332.535" gradientUnits="userSpaceOnUse">
<stop stop-color="#BCD5FF"/>
<stop offset="0.15" stop-color="#A3BEFF"/>
<stop offset="0.39" stop-color="#82A0FF"/>
<stop offset="0.61" stop-color="#6A8AFF"/>
<stop offset="0.82" stop-color="#5C7DFF"/>
<stop offset="1" stop-color="#5778FF"/>
</linearGradient>
<linearGradient id="paint18_linear_10:2988" x1="30870.7" y1="48648.6" x2="25691.1" y2="55841.8" gradientUnits="userSpaceOnUse">
<stop stop-color="#C0D6FF"/>
<stop offset="0.3" stop-color="#C5DBFF"/>
<stop offset="0.65" stop-color="#D3E9FF"/>
<stop offset="1" stop-color="#E9FFFF"/>
</linearGradient>
<linearGradient id="paint19_linear_10:2988" x1="34.8563" y1="125.219" x2="91.3593" y2="125.219" gradientUnits="userSpaceOnUse">
<stop stop-color="#E9FFFF"/>
<stop offset="0.04" stop-color="#D3EBFF"/>
<stop offset="0.11" stop-color="#B2CCFF"/>
<stop offset="0.18" stop-color="#96B2FF"/>
<stop offset="0.27" stop-color="#7F9DFF"/>
<stop offset="0.36" stop-color="#6D8CFF"/>
<stop offset="0.48" stop-color="#6081FF"/>
<stop offset="0.64" stop-color="#597AFF"/>
<stop offset="1" stop-color="#5778FF"/>
</linearGradient>
<linearGradient id="paint20_linear_10:2988" x1="2620.45" y1="3746.94" x2="6805.24" y2="3746.94" gradientUnits="userSpaceOnUse">
<stop stop-color="#C0D6FF"/>
<stop offset="0.3" stop-color="#C5DBFF"/>
<stop offset="0.65" stop-color="#D3E9FF"/>
<stop offset="1" stop-color="#E9FFFF"/>
</linearGradient>
<linearGradient id="paint21_linear_10:2988" x1="1858.25" y1="2404.27" x2="1858.25" y2="1965.69" gradientUnits="userSpaceOnUse">
<stop stop-color="#5778FF"/>
<stop offset="0.18" stop-color="#5C7DFF"/>
<stop offset="0.39" stop-color="#6A8AFF"/>
<stop offset="0.61" stop-color="#82A0FF"/>
<stop offset="0.85" stop-color="#A3BEFF"/>
<stop offset="1" stop-color="#BCD5FF"/>
</linearGradient>
<linearGradient id="paint22_linear_10:2988" x1="1030.62" y1="931.04" x2="1311.48" y2="931.04" gradientUnits="userSpaceOnUse">
<stop stop-color="#5778FF"/>
<stop offset="0.18" stop-color="#5C7DFF"/>
<stop offset="0.39" stop-color="#6A8AFF"/>
<stop offset="0.61" stop-color="#82A0FF"/>
<stop offset="0.85" stop-color="#A3BEFF"/>
<stop offset="1" stop-color="#BCD5FF"/>
</linearGradient>
<linearGradient id="paint23_linear_10:2988" x1="1109" y1="957.477" x2="1389.86" y2="957.477" gradientUnits="userSpaceOnUse">
<stop stop-color="#5778FF"/>
<stop offset="0.18" stop-color="#5C7DFF"/>
<stop offset="0.39" stop-color="#6A8AFF"/>
<stop offset="0.61" stop-color="#82A0FF"/>
<stop offset="0.85" stop-color="#A3BEFF"/>
<stop offset="1" stop-color="#BCD5FF"/>
</linearGradient>
<linearGradient id="paint24_linear_10:2988" x1="1187.38" y1="981.631" x2="1468.24" y2="981.631" gradientUnits="userSpaceOnUse">
<stop stop-color="#5778FF"/>
<stop offset="0.18" stop-color="#5C7DFF"/>
<stop offset="0.39" stop-color="#6A8AFF"/>
<stop offset="0.61" stop-color="#82A0FF"/>
<stop offset="0.85" stop-color="#A3BEFF"/>
<stop offset="1" stop-color="#BCD5FF"/>
</linearGradient>
<linearGradient id="paint25_linear_10:2988" x1="1265.77" y1="1008.13" x2="1546.62" y2="1008.13" gradientUnits="userSpaceOnUse">
<stop stop-color="#5778FF"/>
<stop offset="0.18" stop-color="#5C7DFF"/>
<stop offset="0.39" stop-color="#6A8AFF"/>
<stop offset="0.61" stop-color="#82A0FF"/>
<stop offset="0.85" stop-color="#A3BEFF"/>
<stop offset="1" stop-color="#BCD5FF"/>
</linearGradient>
<linearGradient id="paint26_linear_10:2988" x1="2162.09" y1="1185.82" x2="2180.58" y2="1185.82" gradientUnits="userSpaceOnUse">
<stop stop-color="#C0D6FF"/>
<stop offset="0.3" stop-color="#C5DBFF"/>
<stop offset="0.65" stop-color="#D3E9FF"/>
<stop offset="1" stop-color="#E9FFFF"/>
</linearGradient>
<linearGradient id="paint27_linear_10:2988" x1="1790.64" y1="1074.64" x2="1803.24" y2="1074.64" gradientUnits="userSpaceOnUse">
<stop stop-color="#5778FF"/>
<stop offset="0.18" stop-color="#5C7DFF"/>
<stop offset="0.39" stop-color="#6A8AFF"/>
<stop offset="0.61" stop-color="#82A0FF"/>
<stop offset="0.85" stop-color="#A3BEFF"/>
<stop offset="1" stop-color="#BCD5FF"/>
</linearGradient>
<linearGradient id="paint28_linear_10:2988" x1="1953.88" y1="1038.37" x2="1972.37" y2="1038.37" gradientUnits="userSpaceOnUse">
<stop stop-color="#C0D6FF"/>
<stop offset="0.3" stop-color="#C5DBFF"/>
<stop offset="0.65" stop-color="#D3E9FF"/>
<stop offset="1" stop-color="#E9FFFF"/>
</linearGradient>
<linearGradient id="paint29_linear_10:2988" x1="1610.55" y1="940.351" x2="1623.15" y2="940.351" gradientUnits="userSpaceOnUse">
<stop stop-color="#5778FF"/>
<stop offset="0.18" stop-color="#5C7DFF"/>
<stop offset="0.39" stop-color="#6A8AFF"/>
<stop offset="0.61" stop-color="#82A0FF"/>
<stop offset="0.85" stop-color="#A3BEFF"/>
<stop offset="1" stop-color="#BCD5FF"/>
</linearGradient>
<linearGradient id="paint30_linear_10:2988" x1="2162.09" y1="1753.73" x2="2180.58" y2="1753.73" gradientUnits="userSpaceOnUse">
<stop stop-color="#C0D6FF"/>
<stop offset="0.3" stop-color="#C5DBFF"/>
<stop offset="0.65" stop-color="#D3E9FF"/>
<stop offset="1" stop-color="#E9FFFF"/>
</linearGradient>
<linearGradient id="paint31_linear_10:2988" x1="1790.64" y1="1591.89" x2="1803.24" y2="1591.89" gradientUnits="userSpaceOnUse">
<stop stop-color="#5778FF"/>
<stop offset="0.18" stop-color="#5C7DFF"/>
<stop offset="0.39" stop-color="#6A8AFF"/>
<stop offset="0.61" stop-color="#82A0FF"/>
<stop offset="0.85" stop-color="#A3BEFF"/>
<stop offset="1" stop-color="#BCD5FF"/>
</linearGradient>
<linearGradient id="paint32_linear_10:2988" x1="1953.37" y1="1606.28" x2="1971.86" y2="1606.28" gradientUnits="userSpaceOnUse">
<stop stop-color="#C0D6FF"/>
<stop offset="0.3" stop-color="#C5DBFF"/>
<stop offset="0.65" stop-color="#D3E9FF"/>
<stop offset="1" stop-color="#E9FFFF"/>
</linearGradient>
<linearGradient id="paint33_linear_10:2988" x1="1610.55" y1="1457.56" x2="1623.15" y2="1457.56" gradientUnits="userSpaceOnUse">
<stop stop-color="#5778FF"/>
<stop offset="0.18" stop-color="#5C7DFF"/>
<stop offset="0.39" stop-color="#6A8AFF"/>
<stop offset="0.61" stop-color="#82A0FF"/>
<stop offset="0.85" stop-color="#A3BEFF"/>
<stop offset="1" stop-color="#BCD5FF"/>
</linearGradient>
<linearGradient id="paint34_linear_10:2988" x1="336.008" y1="285.23" x2="223.25" y2="375.675" gradientUnits="userSpaceOnUse">
<stop stop-color="#BCD5FF"/>
<stop offset="0.15" stop-color="#A3BEFF"/>
<stop offset="0.39" stop-color="#82A0FF"/>
<stop offset="0.61" stop-color="#6A8AFF"/>
<stop offset="0.82" stop-color="#5C7DFF"/>
<stop offset="1" stop-color="#5778FF"/>
</linearGradient>
<linearGradient id="paint35_linear_10:2988" x1="45523.5" y1="45351.1" x2="40345" y2="52543.8" gradientUnits="userSpaceOnUse">
<stop stop-color="#C0D6FF"/>
<stop offset="0.3" stop-color="#C5DBFF"/>
<stop offset="0.65" stop-color="#D3E9FF"/>
<stop offset="1" stop-color="#E9FFFF"/>
</linearGradient>
<linearGradient id="paint36_linear_10:2988" x1="45523.5" y1="45351.1" x2="40345" y2="52543.8" gradientUnits="userSpaceOnUse">
<stop stop-color="#C0D6FF"/>
<stop offset="0.3" stop-color="#C5DBFF"/>
<stop offset="0.65" stop-color="#D3E9FF"/>
<stop offset="1" stop-color="#E9FFFF"/>
</linearGradient>
<linearGradient id="paint37_linear_10:2988" x1="77941.4" y1="18148" x2="72246.2" y2="26061.5" gradientUnits="userSpaceOnUse">
<stop stop-color="#BCD5FF"/>
<stop offset="0.15" stop-color="#A3BEFF"/>
<stop offset="0.39" stop-color="#82A0FF"/>
<stop offset="0.61" stop-color="#6A8AFF"/>
<stop offset="0.82" stop-color="#5C7DFF"/>
<stop offset="1" stop-color="#5778FF"/>
</linearGradient>
<linearGradient id="paint38_linear_10:2988" x1="42851.7" y1="43984.1" x2="37672.2" y2="51177.2" gradientUnits="userSpaceOnUse">
<stop stop-color="#C0D6FF"/>
<stop offset="0.3" stop-color="#C5DBFF"/>
<stop offset="0.65" stop-color="#D3E9FF"/>
<stop offset="1" stop-color="#E9FFFF"/>
</linearGradient>
<clipPath id="clip0_10:2988">
<rect width="419.498" height="378.165" fill="white"/>
</clipPath>
</defs>
</svg>
