<svg width="373" height="318" viewBox="0 0 373 318" fill="none" xmlns="http://www.w3.org/2000/svg">
<path fill-rule="evenodd" clip-rule="evenodd" d="M251.887 129.785C257.398 133.624 264.679 135.989 271.149 137.64C273.753 138.305 276.384 138.748 279.019 138.959C279.756 135.421 280.234 131.911 280.393 128.483C292.378 128.545 289.983 111.88 289.983 111.88L259.843 95.4974C259.046 94.9539 258.212 94.4796 257.35 94.0607L257.26 94.0088V94.0122C250.762 90.8894 242.325 91.2737 233.002 95.7432C228.141 105.191 243.769 124.128 251.887 129.785Z" fill="url(#paint0_linear_10:3006)"/>
<path fill-rule="evenodd" clip-rule="evenodd" d="M88.6668 296.048L64.8102 283.27L64.7202 283.218L64.4779 283.076H64.4951C63.5673 282.526 62.6915 281.889 61.871 281.165C56.9688 276.852 54.0435 269.53 54.0435 259.729C54.0435 236.52 70.4395 208.239 90.6679 196.561C91.7376 195.942 92.797 195.395 93.846 194.893C93.1951 192.268 92.8454 189.333 92.8454 186.103C92.8454 171.164 100.213 153.955 111.004 141.253C116.494 147.477 123.127 154.232 129.266 160.571C121.351 172.227 116.259 186.21 116.259 198.632C116.259 201.858 116.626 204.804 117.27 207.429C116.221 207.91 115.172 208.478 114.078 209.083C93.8598 220.747 77.4742 249.042 77.4742 272.247C77.4742 284.122 81.767 292.375 88.6702 296.035L88.6668 296.048ZM109.179 218.555C109.266 218.483 109.352 218.41 109.439 218.337L109.435 218.341C109.349 218.413 109.266 218.483 109.179 218.555Z" fill="url(#paint1_linear_10:3006)"/>
<path d="M255.865 11.7287C252.346 11.1179 248.149 12.0135 243.662 14.5897C242.959 14.9831 242.278 15.4215 241.595 15.8806C240.98 8.65045 237.88 3.64803 233.264 1.37726C230.384 -0.0429032 226.886 -0.393242 223.016 0.459231C220.51 1.00444 217.851 2.05364 215.103 3.62557C206.836 8.38818 199.449 16.9073 194.568 26.4512C191.491 25.5987 187.664 26.2339 183.531 28.5927C182.697 29.0724 181.882 29.6194 181.068 30.2077C172.076 36.7409 165.129 49.4961 165.129 60.1342C165.129 61.8823 165.327 63.4748 165.677 64.895C165.108 65.1592 164.536 65.4646 163.941 65.7924C152.925 72.1045 144 87.4153 144 99.9757C144 111.225 151.168 116.467 160.578 112.885C161.678 112.47 162.798 111.944 163.941 111.268L169.064 108.341L169.13 108.298L171.746 106.812L176.979 103.798L189.18 96.8075L197.029 92.2866L200.79 90.1469L209.21 85.3188L211.827 83.8124L213.014 83.1342L214.445 82.3267L217.059 80.8184L226.577 75.3589L241.727 66.6637V66.5568C241.925 66.4688 242.146 66.3583 242.344 66.2515C242.783 66.0529 243.223 65.813 243.662 65.5526C255.997 58.4724 266 41.3274 266 27.2606C266 18.305 261.977 12.7554 255.865 11.7287Z" fill="#4970FF"/>
<path fill-rule="evenodd" clip-rule="evenodd" d="M131.685 157.145C125.561 150.854 119.26 144.228 113.818 138.083C117.761 133.96 122.071 130.443 126.592 127.829C132.045 124.685 137.193 123.193 141.752 123.193C143.546 123.193 145.249 123.425 146.845 123.879C155.808 106.236 169.372 90.4566 184.556 81.6943C192.436 77.1418 199.879 74.9884 206.471 74.9884C211.061 74.9884 215.237 76.034 218.861 78.0419L218.868 78.0385L218.972 78.1008L219.311 78.298L240.672 89.7365C237.456 88.2652 233.838 87.5001 229.922 87.5001C227.551 87.5001 225.076 87.7805 222.507 88.3482C217.902 89.3591 213.017 91.2979 207.973 94.199C192.799 102.999 179.239 118.741 170.279 136.38C168.694 135.937 166.997 135.712 165.214 135.712C160.641 135.712 155.476 137.197 150.016 140.337C148.483 141.22 146.987 142.234 145.491 143.321C140.454 147.005 135.77 151.758 131.685 157.145ZM181.915 126.316C187.368 118.236 193.686 111.145 200.423 105.54C200.392 105.568 200.357 105.599 200.326 105.627C193.627 111.222 187.343 118.281 181.915 126.316Z" fill="url(#paint2_linear_10:3006)"/>
<path fill-rule="evenodd" clip-rule="evenodd" d="M126.6 127.819C107.946 138.593 92.8245 164.675 92.8245 186.081C92.8245 189.311 93.1741 192.247 93.825 194.871L117.228 207.413C196.906 219.15 170.255 136.401 170.255 136.401L146.852 123.869C141.209 122.266 134.199 123.436 126.6 127.819Z" fill="url(#paint3_linear_10:3006)"/>
<path d="M296.491 137.849C296.491 149.575 292.454 162.983 285.135 175.62C278.211 187.564 269.203 197.313 259.62 203.333C259.053 203.69 258.502 204.025 257.931 204.361C257.169 204.79 256.449 205.171 255.781 205.507L254.967 205.912L251.91 207.394V207.823L205.779 234.46L183.346 247.408L111.606 288.834C110.866 289.263 110.125 289.668 109.405 290.028C108.304 290.579 107.206 291.056 106.133 291.461C103.121 292.607 100.279 293.206 97.627 293.206C88.0961 293.206 82.4081 285.368 82.4081 272.23C82.4081 268.719 82.8166 265.015 83.6267 261.238C84.9214 255.007 87.2825 248.553 90.6025 242.225C91.1772 241.076 91.8247 239.93 92.4652 238.808C98.9425 227.626 107.518 218.573 116.547 213.338C117.481 212.815 118.413 212.338 119.368 211.884L123.021 210.163L122.069 206.224C121.494 203.928 121.207 201.37 121.207 198.625C121.207 188.568 124.907 177.171 130.907 167.138C134.417 161.239 138.721 155.789 143.543 151.344C145.122 149.887 146.746 148.53 148.442 147.308C149.782 146.328 151.163 145.421 152.527 144.635C157.021 142.032 161.414 140.667 165.188 140.667C166.527 140.667 167.767 140.834 168.94 141.145L172.859 142.267L174.698 138.635C183.585 121.125 196.629 106.48 210.46 98.5039C214.116 96.399 217.699 94.8203 221.165 93.8198C221.975 93.581 222.764 93.3629 223.55 93.1967C225.772 92.6982 227.898 92.4559 229.93 92.4559C233.327 92.4559 236.404 93.1518 239.129 94.4881C239.461 94.6543 239.797 94.8204 240.109 95.0142C244.291 97.403 247.469 101.44 249.47 106.816C250.619 109.897 251.381 113.408 251.713 117.278L252.437 125.663L255.518 123.562L259.413 120.934C260.648 120.1 261.798 119.383 262.875 118.736C264.166 117.995 265.454 117.327 266.745 116.776C271 114.817 275.106 113.792 278.807 113.792C279.762 113.792 280.697 113.837 281.6 114.007L281.96 114.055C291.211 115.63 296.491 124.303 296.491 137.849Z" fill="#C3E8F7"/>
<path d="M237.043 94.3619C237.375 94.5246 237.707 94.6978 238.026 94.8882C244.604 98.641 248.699 106.493 249.623 117.145L250.236 124.218L252.5 125.7L251.773 117.298C250.849 106.645 246.753 98.7967 240.176 95.0404C239.857 94.85 239.525 94.677 239.196 94.5143C236.651 93.2507 233.774 92.579 230.641 92.4959C232.951 92.7729 235.097 93.3926 237.043 94.3619Z" fill="#9AC6E8"/>
<path d="M281.917 114.066L281.571 114.017C280.75 113.882 279.895 113.82 279.023 113.809L279.421 113.865L279.764 113.913C289.004 115.489 294.301 124.164 294.301 137.721C294.301 149.444 290.271 162.852 282.952 175.474C276.021 187.418 267.02 197.184 257.42 203.201C256.863 203.551 256.305 203.89 255.744 204.219C254.969 204.659 254.259 205.043 253.588 205.379L252.788 205.774L249.728 207.269V207.685L203.586 234.321L181.156 247.273L109.41 288.699C108.676 289.125 107.935 289.523 107.204 289.886C106.11 290.433 105.023 290.914 103.947 291.326C100.935 292.479 98.075 293.061 95.4439 293.061H95.3885C96.0983 293.158 96.8356 293.213 97.5938 293.213C100.225 293.213 103.085 292.632 106.096 291.479C107.17 291.067 108.26 290.585 109.354 290.038C110.085 289.675 110.822 289.277 111.559 288.851L183.306 247.425L205.736 234.474L251.874 207.837V207.422L254.934 205.926L255.737 205.531C256.409 205.196 257.126 204.811 257.891 204.372C258.452 204.043 259.009 203.703 259.573 203.357C269.17 197.337 278.175 187.571 285.102 175.63C292.417 163.004 296.45 149.596 296.45 137.877C296.45 124.317 291.157 115.641 281.917 114.066Z" fill="#9AC6E8"/>
<path fill-rule="evenodd" clip-rule="evenodd" d="M92.2677 297.444C90.9902 297.094 89.7785 296.616 88.6361 296.01C81.7329 292.351 77.4401 284.098 77.4401 272.223C77.4401 249.017 93.8256 220.723 114.044 209.059C115.138 208.453 116.187 207.886 117.236 207.404C116.592 204.78 116.225 201.834 116.225 198.607C116.225 186.186 121.317 172.203 129.231 160.546C130.021 159.387 130.838 158.244 131.679 157.133C135.764 151.746 140.448 146.993 145.485 143.309C146.981 142.222 148.477 141.208 150.01 140.325C155.47 137.185 160.635 135.7 165.208 135.7C166.991 135.7 168.688 135.925 170.273 136.368C179.233 118.729 192.794 102.987 207.967 94.187C213.012 91.2858 217.896 89.3471 222.501 88.3362C225.07 87.7684 227.545 87.488 229.916 87.488C233.832 87.488 237.45 88.2531 240.666 89.7245C240.88 89.8249 241.095 89.9252 241.306 90.0291C241.877 90.3129 242.438 90.6211 242.985 90.95C240.465 90.1434 237.744 89.7313 234.86 89.7313C228.268 89.7313 220.829 91.8847 212.946 96.4372C208.615 98.9368 204.415 102.008 200.417 105.528C193.68 111.133 187.362 118.224 181.909 126.304C179.306 130.161 176.899 134.239 174.739 138.49C173.289 138.123 171.751 137.936 170.142 137.936C165.582 137.936 160.434 139.428 154.985 142.575C154.583 142.807 154.185 143.042 153.791 143.288C153.787 143.292 153.784 143.292 153.78 143.295C153.749 143.313 153.718 143.333 153.687 143.351C153.676 143.358 153.67 143.361 153.659 143.368C153.635 143.382 153.611 143.399 153.59 143.413C153.569 143.423 153.552 143.437 153.531 143.448C153.521 143.455 153.507 143.465 153.493 143.472C153.465 143.489 153.438 143.506 153.41 143.524C153.406 143.527 153.403 143.531 153.396 143.534C150.72 145.22 148.12 147.221 145.641 149.468C144.918 150.074 144.204 150.7 143.509 151.341C138.707 155.783 134.386 161.232 130.879 167.124C124.904 177.171 121.193 188.554 121.193 198.607C121.193 199.051 121.2 199.494 121.213 199.93V200.068C121.21 200.079 121.21 200.089 121.21 200.103V200.214C121.21 200.252 121.21 200.29 121.207 200.325V200.837C121.207 204.067 121.553 206.999 122.204 209.623C121.155 210.129 120.095 210.676 119.025 211.296C115.695 213.217 112.468 215.589 109.405 218.313C109.318 218.386 109.231 218.458 109.145 218.531C102.903 223.745 97.118 230.728 92.4547 238.805C91.8073 239.933 91.1599 241.065 90.5956 242.194C87.2478 248.529 84.9041 254.989 83.6128 261.245C82.8061 264.998 82.4045 268.709 82.4045 272.223C82.4045 272.59 82.408 272.954 82.4184 273.314C82.408 273.694 82.4045 274.079 82.4045 274.46C82.4045 285.548 86.1504 293.466 92.2677 297.444ZM296.297 133.577C295.39 123.648 291.207 116.963 284.425 114.668C282.348 112.335 279.928 110.486 277.228 109.15C277.121 109.094 277.006 109.042 276.899 108.987L276.736 108.9C277.425 108.848 278.104 108.821 278.772 108.821C280.16 108.821 281.507 108.935 282.802 109.163C292.419 110.787 299.222 118.559 300.967 131.178C299.44 131.864 297.886 132.657 296.317 133.564C296.31 133.571 296.304 133.574 296.297 133.577Z" fill="#224CE8"/>
<path fill-rule="evenodd" clip-rule="evenodd" d="M287.786 148.892C293.297 152.735 300.578 155.096 307.049 156.751C309.652 157.415 312.283 157.855 314.917 158.07C315.655 154.531 316.129 151.021 316.292 147.594C328.274 147.656 325.878 130.986 325.878 130.986L295.738 114.608C294.945 114.064 294.111 113.59 293.246 113.168L293.159 113.116L293.156 113.119C286.661 110.003 278.22 110.381 268.897 114.85C264.04 124.301 279.664 143.238 287.786 148.892Z" fill="url(#paint4_linear_10:3006)"/>
<path fill-rule="evenodd" clip-rule="evenodd" d="M124.554 315.155L93.1714 298.011L93.0814 297.959L92.8425 297.821H92.8599C92.6625 297.703 92.4652 297.582 92.2713 297.454C86.1539 293.476 82.4081 285.558 82.4081 274.469C82.4081 274.089 82.4115 273.704 82.4219 273.324C82.8581 254.186 94.1546 231.887 109.405 218.326L109.408 218.323C112.472 215.598 115.699 213.227 119.029 211.306C120.099 210.686 121.158 210.139 122.207 209.633L153.14 226.535C152.101 227.019 151.056 227.584 149.969 228.186C129.747 239.85 113.362 268.141 113.362 291.35C113.362 303.225 117.658 311.478 124.561 315.137L124.554 315.155ZM121.21 200.847V200.736V200.847ZM121.21 200.705V200.608V200.705ZM121.21 200.591V200.48V200.591ZM121.21 200.452V200.362V200.452ZM121.21 200.334C121.214 200.3 121.214 200.262 121.214 200.224C121.214 200.262 121.214 200.3 121.21 200.334ZM121.214 200.199V200.113V200.199ZM121.217 200.078V199.968V200.078ZM121.217 199.957V199.94C121.217 199.912 121.22 199.884 121.22 199.857C121.22 199.891 121.217 199.922 121.217 199.957ZM121.22 199.822C121.22 199.794 121.22 199.763 121.224 199.736C121.22 199.763 121.22 199.794 121.22 199.822ZM121.224 199.708C121.224 199.673 121.224 199.635 121.227 199.6C121.224 199.635 121.224 199.673 121.224 199.708ZM121.227 199.562V199.49V199.562ZM121.231 199.445C121.231 199.414 121.231 199.379 121.234 199.344C121.231 199.379 121.231 199.414 121.231 199.445ZM121.234 199.303C121.234 199.282 121.238 199.258 121.238 199.237C121.238 199.261 121.234 199.282 121.234 199.303ZM121.238 199.185C121.241 199.164 121.241 199.14 121.241 199.116C121.241 199.14 121.241 199.161 121.238 199.185ZM121.245 199.04C121.245 199.022 121.245 199.002 121.248 198.981C121.245 199.002 121.245 199.022 121.245 199.04ZM121.248 198.925C121.248 198.905 121.252 198.884 121.252 198.863C121.252 198.884 121.248 198.905 121.248 198.925ZM121.255 198.804C121.255 198.777 121.255 198.752 121.259 198.725C121.255 198.749 121.255 198.777 121.255 198.804ZM121.259 198.666C121.262 198.648 121.262 198.631 121.262 198.614C121.262 198.631 121.262 198.648 121.259 198.666ZM121.272 198.396C121.272 198.385 121.276 198.371 121.276 198.361C121.276 198.371 121.272 198.385 121.272 198.396ZM121.279 198.292V198.264V198.292ZM121.286 198.129C121.29 198.119 121.29 198.112 121.29 198.102C121.29 198.108 121.29 198.119 121.286 198.129ZM121.293 198.022V198.018V198.022ZM121.31 197.762V197.741V197.762Z" fill="url(#paint5_linear_10:3006)"/>
<path fill-rule="evenodd" clip-rule="evenodd" d="M206.195 155.482C206.14 155.468 206.084 155.454 206.025 155.437L175.234 138.618C173.642 138.168 171.939 137.936 170.145 137.936C165.586 137.936 160.438 139.428 154.989 142.575C154.587 142.807 154.189 143.043 153.794 143.289C154.189 143.043 154.587 142.807 154.989 142.575C160.438 139.428 165.586 137.936 170.145 137.936C171.755 137.936 173.292 138.123 174.743 138.49C174.909 138.532 175.072 138.573 175.234 138.618C181.622 126.051 190.342 114.429 200.323 105.615C200.355 105.588 200.389 105.556 200.42 105.529C204.419 102.008 208.618 98.9371 212.949 96.4375C220.832 91.885 228.272 89.7316 234.864 89.7316C237.747 89.7316 240.469 90.1437 242.989 90.9503C244.481 91.4246 245.904 92.0374 247.251 92.7852L247.258 92.7817L247.365 92.8475L247.704 93.0414L276.74 108.901L276.903 108.987C273.607 107.419 269.885 106.605 265.838 106.605C263.47 106.605 260.988 106.882 258.419 107.454C253.818 108.461 248.937 110.4 243.892 113.304C228.715 122.105 215.155 137.846 206.195 155.482ZM153.4 143.534C153.407 143.531 153.41 143.528 153.413 143.524C153.41 143.528 153.407 143.531 153.4 143.534ZM153.497 143.472C153.51 143.465 153.524 143.455 153.535 143.448C153.521 143.455 153.51 143.465 153.497 143.472ZM153.594 143.413C153.614 143.399 153.638 143.382 153.663 143.368C153.638 143.382 153.614 143.399 153.594 143.413ZM153.69 143.351C153.722 143.334 153.753 143.313 153.784 143.296C153.753 143.313 153.722 143.334 153.69 143.351Z" fill="url(#paint6_linear_10:3006)"/>
<path fill-rule="evenodd" clip-rule="evenodd" d="M153.119 226.556L122.186 209.655C121.535 207.031 121.189 204.098 121.189 200.868V200.356C121.193 200.321 121.193 200.283 121.193 200.245V200.134C121.193 200.121 121.192 200.11 121.196 200.1V199.979C121.196 199.944 121.199 199.913 121.199 199.878V199.844C121.199 199.816 121.199 199.785 121.203 199.757V199.729C121.203 199.695 121.203 199.657 121.206 199.622V199.511C121.21 199.497 121.21 199.484 121.21 199.466C121.21 199.435 121.21 199.4 121.213 199.366V199.324C121.213 199.304 121.217 199.283 121.217 199.259V199.207C121.22 199.182 121.22 199.162 121.22 199.137C121.22 199.113 121.224 199.089 121.224 199.061C121.224 199.044 121.224 199.023 121.227 199.002V198.947C121.227 198.926 121.231 198.905 121.231 198.885C121.231 198.864 121.231 198.847 121.234 198.826C121.234 198.798 121.234 198.77 121.238 198.746V198.687C121.241 198.67 121.241 198.653 121.241 198.635C121.244 198.563 121.248 198.49 121.251 198.417C121.251 198.407 121.255 198.393 121.255 198.383C121.255 198.358 121.258 198.338 121.258 198.313V198.286C121.262 198.241 121.265 198.196 121.265 198.151C121.269 198.14 121.269 198.13 121.269 198.123C121.269 198.095 121.272 198.071 121.272 198.043V198.04C121.279 197.953 121.283 197.87 121.289 197.784V197.763C122.397 180.785 132.33 161.557 145.624 149.499C148.103 147.253 150.703 145.252 153.379 143.566C153.386 143.562 153.389 143.559 153.393 143.555C153.42 143.538 153.448 143.521 153.476 143.503C153.489 143.496 153.5 143.486 153.514 143.479C153.534 143.469 153.552 143.455 153.573 143.444C153.593 143.431 153.618 143.413 153.642 143.399C153.652 143.392 153.659 143.389 153.669 143.382C153.701 143.365 153.732 143.344 153.763 143.327C153.766 143.323 153.77 143.323 153.773 143.32C154.168 143.074 154.566 142.839 154.968 142.607C160.417 139.46 165.565 137.968 170.124 137.968C171.918 137.968 173.621 138.199 175.213 138.65L206.004 155.468C204.471 155.056 202.833 154.848 201.116 154.848C196.543 154.848 191.374 156.333 185.911 159.47C184.381 160.356 182.885 161.367 181.39 162.454C164.883 174.526 152.129 198.095 152.129 217.752C152.129 220.982 152.492 223.925 153.136 226.549C153.133 226.553 153.126 226.553 153.122 226.556H153.119Z" fill="url(#paint7_linear_10:3006)"/>
<path d="M318.698 128.311C312.238 127.182 304.532 128.837 296.296 133.597C295.004 134.324 293.755 135.134 292.501 135.982C291.373 122.623 285.681 113.379 277.206 109.183C271.92 106.559 265.498 105.912 258.394 107.487C253.793 108.494 248.911 110.433 243.867 113.338C228.69 122.138 215.129 137.879 206.17 155.515C200.52 153.94 193.496 155.113 185.907 159.472C184.377 160.358 182.881 161.369 181.386 162.456C164.879 174.528 152.125 198.097 152.125 217.754C152.125 220.984 152.488 223.927 153.132 226.551C152.087 227.04 151.038 227.604 149.944 228.21C129.722 239.873 113.337 268.165 113.337 291.374C113.337 312.159 126.496 321.846 143.771 315.227C145.789 314.462 147.846 313.489 149.944 312.239L159.35 306.831L159.471 306.752L164.273 304.006L173.88 298.436L196.279 285.519L210.688 277.166L217.591 273.212L233.049 264.291L237.854 261.507L240.031 260.254L242.659 258.762L247.458 255.975L264.93 245.887L292.744 229.82V229.622C293.107 229.459 293.512 229.255 293.876 229.058C294.683 228.691 295.489 228.248 296.296 227.767C318.941 214.684 337.303 183.003 337.303 157.01C337.303 140.462 329.919 130.208 318.698 128.311Z" fill="#D9FFF4"/>
<path d="M197.151 249.218H197.126H197.151ZM197.178 249.218C200.585 249.215 204.268 248.505 208.132 247.041C204.265 248.505 200.585 249.215 197.178 249.218ZM188.859 247.608C188.811 247.588 188.762 247.567 188.71 247.543C187.748 247.099 186.778 246.577 185.892 246.002L185.605 245.244C185.394 244.752 185.241 244.226 185.03 243.703L184.975 243.471C184.795 242.945 184.639 242.426 184.507 241.903C184.352 241.328 184.22 240.726 184.092 240.127C183.933 239.525 183.825 238.898 183.697 238.271C183.566 237.541 183.49 236.807 183.41 236.077C183.251 234.872 183.175 233.646 183.095 232.369C183.071 231.635 183.046 230.877 183.046 230.091C183.046 230.877 183.071 231.635 183.095 232.369C183.175 233.646 183.251 234.872 183.41 236.077C183.49 236.807 183.566 237.541 183.697 238.271C183.825 238.898 183.933 239.525 184.092 240.127C184.22 240.726 184.352 241.328 184.507 241.903C184.639 242.426 184.795 242.945 184.975 243.471L185.03 243.703C185.241 244.226 185.394 244.752 185.605 245.244L185.892 246.002C186.782 246.577 187.748 247.099 188.71 247.543C188.762 247.567 188.811 247.588 188.859 247.608ZM208.201 247.013C208.212 247.009 208.225 247.003 208.239 246.999C208.225 247.003 208.212 247.009 208.201 247.013ZM208.378 246.947C208.423 246.926 208.471 246.909 208.516 246.892C210.635 246.085 212.826 245.012 215.049 243.731C219.771 240.975 224.313 237.434 228.52 233.269C224.313 237.434 219.771 240.975 215.049 243.731C212.826 245.012 210.635 246.085 208.516 246.892C208.471 246.909 208.423 246.926 208.378 246.947ZM200.242 180.723C200.284 180.66 200.329 180.598 200.374 180.532C200.329 180.598 200.284 180.66 200.242 180.723ZM200.381 180.522C200.401 180.494 200.419 180.47 200.439 180.442C200.419 180.47 200.398 180.494 200.381 180.522ZM200 180.065C202.364 176.984 204.892 174.069 207.533 171.368C207.762 171.126 207.997 170.894 208.239 170.659C206.924 172.106 205.643 173.605 204.4 175.149C202.894 176.728 201.426 178.369 200 180.065Z" fill="#778988"/>
<path fill-rule="evenodd" clip-rule="evenodd" d="M185.892 245.998L185.605 245.24C185.394 244.748 185.241 244.222 185.03 243.699L184.975 243.467C184.795 242.941 184.639 242.422 184.507 241.899C184.352 241.324 184.22 240.722 184.092 240.123C183.933 239.521 183.825 238.894 183.697 238.268C183.566 237.537 183.49 236.803 183.41 236.073C183.251 234.868 183.175 233.642 183.095 232.365C183.071 231.631 183.046 230.873 183.046 230.087C183.046 229.253 183.071 228.363 183.123 227.528C183.147 226.878 183.175 226.223 183.23 225.569C183.251 225.074 183.306 224.603 183.358 224.108C183.41 223.533 183.462 222.959 183.566 222.384V222.201C183.645 221.57 183.721 220.947 183.825 220.29C183.908 219.798 183.985 219.299 184.092 218.804C184.22 218.046 184.352 217.288 184.507 216.506C184.822 214.961 185.186 213.421 185.605 211.853L185.657 211.645C185.892 210.731 186.152 209.841 186.439 208.927C186.699 208.038 187.014 207.148 187.301 206.265C187.644 205.244 188.007 204.198 188.402 203.18C188.606 202.633 188.845 202.031 189.081 201.484C189.42 200.567 189.783 199.653 190.202 198.766C190.618 197.769 191.037 196.803 191.535 195.837C192.034 194.743 192.581 193.615 193.155 192.521C193.415 191.974 193.702 191.448 193.99 190.925C194.983 189.073 196.057 187.241 197.151 185.441C197.646 184.631 198.172 183.793 198.719 182.983C199.162 182.28 199.661 181.522 200.156 180.844C203.316 176.27 206.844 171.984 210.607 168.145C210.971 167.754 211.365 167.387 211.757 166.996C214.003 164.801 216.33 162.734 218.729 160.906C219.203 160.542 219.698 160.175 220.169 159.812C220.952 159.237 221.738 158.687 222.52 158.164C222.939 157.849 223.41 157.589 223.825 157.302C224.583 156.831 225.317 156.388 226.048 155.945C226.595 155.654 227.145 155.343 227.692 155.055C228.087 154.82 228.506 154.612 228.921 154.401C229.444 154.114 229.967 153.882 230.462 153.67C230.908 153.463 231.296 153.279 231.743 153.096L232.265 152.888C232.84 152.628 233.415 152.417 233.99 152.206L234.879 151.919C235.219 151.787 235.558 151.687 235.897 151.555C236.316 151.424 236.735 151.295 237.178 151.188C238.22 150.901 239.241 150.693 240.259 150.537L240.415 150.51C240.73 150.434 241.045 150.406 241.36 150.35C241.724 150.274 242.115 150.25 242.454 150.222L242.769 150.167C243.392 150.146 243.995 150.091 244.597 150.066C245.327 150.562 246.034 151.164 246.712 151.763C247.889 152.808 248.907 154.01 249.821 155.343C253.11 160.099 254.969 166.681 254.969 174.858C254.969 183.059 253.11 191.815 249.821 200.335C248.88 202.789 247.837 205.219 246.66 207.594C245.383 210.288 243.919 212.95 242.35 215.564C241.36 217.184 240.311 218.832 239.241 220.397C237.857 222.408 236.42 224.34 234.879 226.196C233.886 227.477 232.84 228.706 231.743 229.883C226.674 235.526 221.007 240.251 215.049 243.727C212.826 245.008 210.635 246.081 208.516 246.888C201.018 249.817 194.198 249.921 188.71 247.539C187.748 247.096 186.782 246.573 185.892 245.998Z" fill="url(#paint8_linear_10:3006)"/>
<path d="M183.046 230.087C183.046 229.253 183.071 228.363 183.123 227.528C183.147 226.878 183.175 226.223 183.23 225.569C183.251 225.074 183.306 224.603 183.358 224.108C183.41 223.533 183.462 222.959 183.566 222.384V222.201C183.645 221.57 183.721 220.947 183.825 220.29C183.908 219.798 183.985 219.299 184.092 218.804C184.22 218.046 184.352 217.288 184.507 216.506C184.822 214.961 185.186 213.421 185.605 211.853L185.657 211.645C185.892 210.731 186.152 209.841 186.439 208.927C186.699 208.038 187.014 207.148 187.301 206.265C187.644 205.244 188.007 204.198 188.402 203.18C188.606 202.633 188.845 202.031 189.081 201.484C189.42 200.567 189.783 199.653 190.202 198.766C190.618 197.769 191.037 196.803 191.535 195.837C192.034 194.743 192.581 193.615 193.155 192.521C193.415 191.974 193.702 191.448 193.99 190.925C194.983 189.073 196.057 187.241 197.151 185.441C197.646 184.631 198.172 183.793 198.719 182.983C199.162 182.28 199.661 181.522 200.156 180.844C203.316 176.27 206.844 171.984 210.607 168.145C210.971 167.754 211.365 167.387 211.757 166.996C214.003 164.801 216.33 162.734 218.729 160.906C219.203 160.542 219.698 160.175 220.169 159.812C220.952 159.237 221.738 158.687 222.52 158.164C222.939 157.849 223.41 157.589 223.825 157.302C224.583 156.831 225.317 156.388 226.048 155.945C226.595 155.654 227.145 155.343 227.692 155.055C228.087 154.82 228.506 154.612 228.921 154.401C229.444 154.114 229.967 153.882 230.462 153.67C230.908 153.463 231.296 153.279 231.743 153.096L232.265 152.888C232.84 152.628 233.415 152.417 233.99 152.206L234.879 151.919C235.219 151.787 235.558 151.687 235.897 151.555C236.316 151.424 236.735 151.295 237.178 151.188C238.22 150.901 239.241 150.693 240.259 150.537L240.415 150.51C240.73 150.434 241.045 150.406 241.36 150.35C241.724 150.274 242.115 150.25 242.454 150.222L242.769 150.167C243.392 150.146 243.995 150.091 244.597 150.066C245.327 150.562 246.034 151.164 246.712 151.763C247.889 152.808 248.907 154.01 249.821 155.343C253.11 160.099 254.969 166.681 254.969 174.858C254.969 183.059 253.11 191.815 249.821 200.335C248.88 202.789 247.837 205.219 246.66 207.594C245.383 210.288 243.919 212.95 242.35 215.564C241.36 217.184 240.311 218.832 239.241 220.397C237.857 222.408 236.42 224.34 234.879 226.196C233.886 227.477 232.84 228.706 231.743 229.883C226.674 235.526 221.007 240.251 215.049 243.727C212.826 245.008 210.635 246.081 208.516 246.888C201.018 249.817 194.198 249.921 188.71 247.539C187.748 247.096 186.782 246.573 185.892 245.998L185.605 245.24C185.394 244.748 185.241 244.222 185.03 243.699L184.975 243.467C184.795 242.941 184.639 242.422 184.507 241.899C184.352 241.324 184.22 240.722 184.092 240.123C183.933 239.521 183.825 238.894 183.697 238.268C183.566 237.537 183.49 236.803 183.41 236.073C183.251 234.868 183.175 233.642 183.095 232.365C183.071 231.631 183.046 230.873 183.046 230.087Z" fill="#949EA0"/>
<path d="M201.948 273.667C196.751 273.667 192.036 272.441 187.975 270.087C182.817 267.124 178.732 262.329 176.038 255.938C175.065 252.147 174.553 247.882 174.553 243.181C174.553 222.184 184.825 198.015 199.915 180.061C198.911 181.37 197.939 182.703 197 184.064C196.502 184.746 196.003 185.504 195.56 186.207C195.013 187.017 194.491 187.851 193.992 188.665C192.898 190.465 191.825 192.293 190.831 194.152C190.544 194.671 190.257 195.194 189.997 195.741C189.422 196.838 188.872 197.963 188.377 199.057C187.882 200.027 187.463 200.993 187.044 201.986C186.625 202.876 186.261 203.79 185.919 204.704C185.687 205.254 185.451 205.85 185.24 206.404C184.849 207.422 184.482 208.464 184.146 209.485C183.859 210.371 183.544 211.261 183.281 212.151C182.997 213.061 182.73 213.951 182.498 214.868L182.446 215.073C182.027 216.644 181.664 218.185 181.349 219.725C181.193 220.511 181.061 221.27 180.93 222.024C180.826 222.523 180.746 223.021 180.67 223.513C180.563 224.167 180.487 224.794 180.407 225.424V225.607C180.303 226.179 180.251 226.757 180.199 227.332C180.144 227.823 180.096 228.297 180.068 228.789C180.016 229.443 179.988 230.098 179.964 230.752C179.912 231.586 179.884 232.476 179.884 233.31C179.884 234.096 179.912 234.851 179.94 235.585C180.016 236.862 180.096 238.091 180.251 239.296C180.331 240.027 180.407 240.757 180.539 241.488C180.67 242.118 180.774 242.744 180.93 243.347C181.061 243.942 181.193 244.545 181.349 245.119C181.48 245.645 181.636 246.165 181.82 246.688L181.872 246.923C182.079 247.446 182.239 247.968 182.446 248.464L182.73 249.222C183.62 249.796 184.589 250.319 185.555 250.762C188.103 251.867 190.935 252.438 193.992 252.438C197.52 252.438 201.342 251.68 205.361 250.111C207.476 249.301 209.671 248.232 211.891 246.951C217.793 243.506 223.405 238.839 228.435 233.265C229.536 232.182 230.609 231.05 231.658 229.883C232.756 228.706 233.801 227.477 234.795 226.196C236.336 224.34 237.772 222.408 239.157 220.397C240.227 218.832 241.276 217.184 242.266 215.564C243.834 212.95 245.299 210.288 246.576 207.595C246.632 207.484 246.687 207.373 246.739 207.262C247.85 204.991 248.84 202.672 249.737 200.335C252.835 192.313 254.663 184.084 254.864 176.305C254.875 175.821 254.885 175.339 254.885 174.858C254.885 166.681 253.026 160.1 249.737 155.343C249.553 155.073 249.367 154.81 249.173 154.554C261.906 157.067 270.273 168.948 270.273 187.913C270.273 209.966 258.946 235.516 242.602 253.691C239.109 257.025 235.46 260.058 231.686 262.692H231.658C229.803 264.001 227.868 265.23 225.939 266.327C217.312 271.306 209.166 273.667 201.948 273.667Z" fill="#83D3ED"/>
<path d="M193.949 252.438C190.892 252.438 188.06 251.867 185.512 250.763C184.546 250.32 183.577 249.797 182.687 249.222L182.403 248.464C182.196 247.969 182.036 247.446 181.829 246.923L181.777 246.688C181.593 246.165 181.437 245.646 181.306 245.12C181.15 244.545 181.018 243.943 180.887 243.347C180.731 242.745 180.627 242.118 180.496 241.488C180.364 240.758 180.288 240.027 180.208 239.297C180.053 238.092 179.973 236.863 179.897 235.585C179.869 234.851 179.841 234.097 179.841 233.311C179.841 232.476 179.869 231.587 179.921 230.752C179.945 230.098 179.973 229.444 180.025 228.789C180.053 228.298 180.101 227.824 180.156 227.332C180.208 226.757 180.26 226.179 180.364 225.608V225.424C180.444 224.794 180.52 224.168 180.627 223.513C180.703 223.022 180.783 222.523 180.887 222.025C181.018 221.27 181.15 220.512 181.306 219.726C181.621 218.185 181.984 216.645 182.403 215.073L182.455 214.869C182.687 213.951 182.954 213.062 183.238 212.151C183.501 211.261 183.816 210.372 184.103 209.485C184.439 208.464 184.806 207.422 185.197 206.404C185.408 205.85 185.644 205.255 185.876 204.704C186.218 203.79 186.582 202.876 187.001 201.987C187.42 200.993 187.839 200.027 188.334 199.058C188.829 197.964 189.379 196.839 189.954 195.741C190.213 195.194 190.501 194.672 190.788 194.152C191.782 192.293 192.855 190.465 193.949 188.665C194.447 187.851 194.97 187.017 195.517 186.207C195.96 185.504 196.459 184.746 196.957 184.064C197.896 182.703 198.868 181.371 199.872 180.062C201.299 178.366 202.767 176.725 204.273 175.146C202.902 176.856 201.576 178.625 200.312 180.439C200.291 180.467 200.274 180.491 200.253 180.519C200.25 180.522 200.25 180.526 200.246 180.529C200.201 180.595 200.156 180.657 200.115 180.72C200.084 180.761 200.056 180.803 200.028 180.844C199.533 181.523 199.035 182.281 198.591 182.984C198.044 183.794 197.518 184.632 197.023 185.442C195.929 187.242 194.856 189.074 193.862 190.926C193.575 191.448 193.288 191.975 193.028 192.522C192.453 193.616 191.906 194.744 191.408 195.838C190.909 196.804 190.49 197.77 190.075 198.767C189.656 199.653 189.293 200.567 188.953 201.485C188.718 202.032 188.479 202.634 188.275 203.181C187.88 204.199 187.517 205.244 187.174 206.266C186.886 207.149 186.571 208.038 186.312 208.928C186.024 209.842 185.765 210.732 185.529 211.646L185.477 211.853C185.059 213.422 184.695 214.962 184.38 216.506C184.224 217.289 184.093 218.047 183.965 218.805C183.857 219.3 183.781 219.799 183.698 220.29C183.594 220.948 183.518 221.571 183.438 222.201V222.385C183.334 222.959 183.283 223.534 183.231 224.109C183.179 224.604 183.123 225.075 183.103 225.57C183.047 226.224 183.019 226.878 182.995 227.529C182.943 228.364 182.919 229.253 182.919 230.088C182.919 230.874 182.943 231.632 182.968 232.366C183.047 233.643 183.123 234.869 183.283 236.074C183.362 236.804 183.438 237.538 183.57 238.268C183.698 238.895 183.805 239.522 183.965 240.124C184.093 240.723 184.224 241.325 184.38 241.9C184.512 242.423 184.667 242.942 184.847 243.468L184.903 243.7C185.114 244.223 185.266 244.749 185.477 245.241L185.765 245.999C186.651 246.574 187.62 247.096 188.583 247.54C188.635 247.564 188.683 247.585 188.732 247.605C191.235 248.665 194.011 249.212 196.999 249.215H197.051C200.457 249.212 204.138 248.502 208.005 247.038C208.029 247.027 208.05 247.02 208.074 247.01C208.084 247.006 208.098 247 208.112 246.996C208.157 246.979 208.202 246.961 208.25 246.944C208.295 246.923 208.344 246.906 208.389 246.889C210.508 246.082 212.699 245.009 214.922 243.728C219.644 240.972 224.186 237.431 228.392 233.266C223.362 238.84 217.75 243.506 211.847 246.951C209.628 248.232 207.433 249.302 205.318 250.112C201.299 251.68 197.477 252.438 193.949 252.438Z" fill="#4D808A"/>
<path d="M197.151 249.225H197.178H197.151ZM197.126 249.225C194.139 249.222 191.362 248.675 188.859 247.615C191.362 248.675 194.139 249.222 197.126 249.225ZM208.132 247.048C208.156 247.037 208.177 247.03 208.201 247.02C208.177 247.03 208.156 247.037 208.132 247.048ZM208.239 247.006C208.284 246.989 208.329 246.971 208.378 246.954C208.329 246.971 208.284 246.989 208.239 247.006ZM183.046 230.098C183.046 229.263 183.071 228.374 183.123 227.539C183.147 226.888 183.175 226.234 183.23 225.58C183.251 225.085 183.306 224.614 183.358 224.119C183.41 223.544 183.462 222.969 183.566 222.395V222.211C183.645 221.581 183.721 220.958 183.825 220.3C183.908 219.809 183.985 219.31 184.092 218.815C184.22 218.057 184.352 217.299 184.507 216.516C184.822 214.972 185.186 213.432 185.605 211.863L185.657 211.656C185.892 210.742 186.152 209.852 186.439 208.938C186.699 208.048 187.014 207.159 187.301 206.276C187.644 205.254 188.007 204.209 188.402 203.191C188.606 202.644 188.845 202.042 189.081 201.495C189.42 200.577 189.783 199.663 190.202 198.777C190.618 197.78 191.037 196.814 191.535 195.848C192.034 194.754 192.581 193.626 193.155 192.532C193.415 191.985 193.702 191.458 193.99 190.936C194.983 189.083 196.057 187.252 197.151 185.452C197.646 184.642 198.172 183.804 198.719 182.994C199.162 182.291 199.661 181.533 200.156 180.854C200.183 180.813 200.211 180.771 200.242 180.73C200.211 180.771 200.183 180.813 200.156 180.854C199.661 181.533 199.162 182.291 198.719 182.994C198.172 183.804 197.646 184.642 197.151 185.452C196.057 187.252 194.983 189.083 193.99 190.936C193.702 191.458 193.415 191.985 193.155 192.532C192.581 193.629 192.034 194.754 191.535 195.848C191.037 196.814 190.618 197.78 190.202 198.777C189.783 199.663 189.42 200.577 189.081 201.495C188.845 202.042 188.606 202.644 188.402 203.191C188.007 204.209 187.644 205.254 187.301 206.276C187.014 207.159 186.699 208.048 186.439 208.938C186.152 209.852 185.892 210.742 185.657 211.656L185.605 211.863C185.186 213.432 184.822 214.972 184.507 216.516C184.352 217.299 184.22 218.057 184.092 218.815C183.985 219.31 183.908 219.809 183.825 220.3C183.721 220.958 183.645 221.581 183.566 222.211V222.395C183.462 222.969 183.41 223.544 183.358 224.119C183.306 224.614 183.251 225.085 183.23 225.58C183.175 226.234 183.147 226.888 183.123 227.539C183.071 228.374 183.046 229.263 183.046 230.098ZM246.823 207.273C247.934 205.002 248.925 202.682 249.821 200.342C252.92 192.324 254.748 184.095 254.948 176.316C254.748 184.095 252.92 192.324 249.821 200.345C248.925 202.682 247.934 205.002 246.823 207.273ZM200.374 180.539C200.377 180.536 200.377 180.532 200.381 180.529C200.377 180.532 200.377 180.536 200.374 180.539ZM200.439 180.449C201.703 178.635 203.029 176.866 204.4 175.156C204.445 175.114 204.487 175.069 204.528 175.024C203.116 176.78 201.741 178.583 200.439 180.449ZM254.969 174.869C254.969 166.691 253.11 160.11 249.821 155.353L249.208 154.554C249.226 154.557 249.24 154.561 249.257 154.564C249.451 154.82 249.638 155.083 249.821 155.353C253.11 160.11 254.969 166.691 254.969 174.869Z" fill="#5D92A2"/>
<path d="M284.807 214.688L288.874 214.743V228.951C288.874 229.26 288.684 229.564 288.293 229.786C287.514 230.26 286.233 230.291 285.423 229.845C285.004 229.623 284.807 229.315 284.807 229.007V214.688Z" fill="#C5CBCB"/>
<path d="M292.52 219.246V206.115L287.691 208.905V222.036L292.52 219.246Z" fill="#B8BFC1"/>
<path d="M292.52 219.246V206.115L288.363 209.251L287.691 222.036L292.52 219.246Z" fill="#949EA0"/>
<path d="M285.786 202.389L292.447 206.114L287.618 208.904L280.96 205.176L285.786 202.389Z" fill="#B6B3AF"/>
<path d="M280.96 205.193L287.618 208.922V222.053L280.96 218.325V205.193Z" fill="#5D6B6C"/>
<path d="M284.807 145.259L288.874 145.311V205.629C288.874 205.934 288.684 206.242 288.293 206.464C287.514 206.938 286.233 206.965 285.423 206.522C285.004 206.297 284.807 205.993 284.807 205.685V145.259Z" fill="#C5CBCB"/>
<path d="M292.52 150.257V137.126L287.691 139.913V153.044L292.52 150.257Z" fill="#B8BFC1"/>
<path d="M292.52 150.257V137.126L288.363 140.259L287.691 153.044L292.52 150.257Z" fill="#949EA0"/>
<path d="M285.786 133.4L292.447 137.125L287.618 139.912L280.96 136.184L285.786 133.4Z" fill="#B6B3AF"/>
<path d="M280.96 136.205L287.618 139.933V153.065L280.96 149.336V136.205Z" fill="#5D6B6C"/>
<path d="M284.807 128.993L288.874 129.045V136.617C288.874 136.925 288.684 137.233 288.293 137.458C287.514 137.929 286.233 137.956 285.423 137.51C285.004 137.288 284.807 136.984 284.807 136.675V128.993Z" fill="#C5CBCB"/>
<path d="M285.379 128.24C286.165 127.77 287.446 127.745 288.256 128.192C289.063 128.635 289.08 129.379 288.294 129.85C287.515 130.321 286.227 130.345 285.421 129.899C284.618 129.456 284.6 128.711 285.379 128.24Z" fill="#C5CBCB"/>
<path fill-rule="evenodd" clip-rule="evenodd" d="M177.437 231.099C177.437 200.246 199.231 162.652 226.116 147.129C240.785 138.661 253.92 138.526 262.852 145.145L262.869 145.135L269.966 149.376L268.751 151.408C272.601 157.183 274.799 165.104 274.799 174.884C274.799 205.737 253.006 243.334 226.116 258.858C216.838 264.217 208.163 266.239 200.782 265.328L199.66 267.211L191.188 262.074L191.192 262.057C182.682 256.909 177.437 246.228 177.437 231.099Z" fill="#CCCCCC"/>
<path d="M282.815 179.7C282.815 210.553 261.018 248.147 234.136 263.67C207.247 279.194 185.45 266.765 185.45 235.915C185.45 205.062 207.247 167.469 234.136 151.945C261.018 136.421 282.815 148.85 282.815 179.7Z" fill="white"/>
<path d="M186 235.854C186 266.435 207.49 278.765 234.005 263.369C234.798 262.908 235.58 262.436 236.377 261.933C261.786 245.768 282 209.806 282 180.144C282 174.306 281.221 169.136 279.767 164.693C273.619 145.874 255.464 140.169 234.005 152.632C207.49 168.01 186 205.272 186 235.854Z" fill="#ECECEC"/>
<path d="M197.789 228.768C197.789 250.869 212.78 260.32 231.72 250.797C232.517 250.385 233.323 249.959 234.133 249.488C254.206 237.89 270.477 209.838 270.477 186.791C270.477 180.695 269.331 175.55 267.289 171.507C261.583 160.311 248.885 157.562 234.133 166.071C214.057 177.669 197.789 205.735 197.789 228.768Z" fill="white"/>
<path d="M224.947 219.063C224.338 218.111 223.967 216.865 223.839 215.359L228.741 212.52L224.947 219.063ZM228.499 221.068L232.283 214.538V220.15C230.908 220.801 229.634 221.109 228.499 221.068ZM236.351 217.356V210.467L240.322 212.735C239.148 214.473 237.808 216.037 236.351 217.356ZM244.41 203.446C243.995 205.371 243.295 207.32 242.364 209.217L238.376 206.943L244.41 203.446ZM244.791 198.572L239.903 201.397L243.683 194.874C244.293 195.823 244.663 197.069 244.791 198.572ZM240.166 192.832L236.351 199.406V193.746C237.649 193.133 238.871 192.807 239.962 192.807L240.166 192.832ZM232.283 196.581V203.467L228.308 201.203C229.489 199.468 230.825 197.9 232.283 196.581ZM226.266 204.72L230.23 206.981L224.234 210.446C224.653 208.532 225.345 206.6 226.266 204.72ZM208.066 220.296C207.938 221.21 208.419 222.404 209.14 222.968C209.524 223.269 209.891 223.308 210.178 223.159L210.185 223.18L219.816 217.671L219.823 217.685L220.014 217.575C220.471 219.749 221.409 221.528 222.755 222.84L221.052 225.773L221.063 225.776L216.174 234.202L216.195 234.213L216.185 234.819C216.507 235.511 217.562 236.231 218.549 236.432C219.293 236.584 219.782 236.394 219.841 235.992L224.59 227.805V227.808L226.294 224.876C227.048 225.08 227.838 225.201 228.658 225.201C229.815 225.201 231.037 224.973 232.283 224.557V225.596H232.286V233.493C232.286 233.801 232.484 234.109 232.899 234.331C233.706 234.777 234.987 234.746 235.769 234.272C236.16 234.05 236.354 233.742 236.354 233.437V222.484C239.231 220.583 241.81 217.893 243.891 214.774L248.817 217.578H248.842L249.118 217.744C249.402 217.855 249.735 217.803 250.098 217.523C250.822 216.962 251.352 215.767 251.241 214.847C251.182 214.4 250.991 214.092 250.704 213.981L245.933 211.243C247.606 207.878 248.655 204.301 248.852 200.874L258.241 195.435V195.428C258.535 195.317 258.753 195.023 258.816 194.559C258.944 193.645 258.466 192.451 257.746 191.887L256.887 191.644L256.87 191.599L256.78 191.651L256.707 191.696L248.617 196.363C248.16 194.189 247.221 192.413 245.871 191.097L252.075 180.396L252.106 180.369L252.297 180.033V180.009L252.182 179.614C251.881 178.918 250.822 178.194 249.846 177.997C249.233 177.886 248.786 177.973 248.62 178.25L248.592 178.305L242.34 189.079C240.512 188.573 238.483 188.66 236.351 189.366V179.922L236.34 179.918C236.347 179.607 236.153 179.295 235.734 179.067C234.931 178.62 233.643 178.645 232.861 179.115C232.508 179.327 232.342 179.597 232.311 179.87H232.283V191.45C229.406 193.348 226.823 196.041 224.739 199.167L218.179 195.428L218.151 195.411L218.116 195.39L218.11 195.407C217.836 195.314 217.504 195.376 217.154 195.639C216.413 196.197 215.904 197.395 216.015 198.312C216.07 198.752 216.261 199.036 216.52 199.16V199.167L216.538 199.174L216.558 199.188L222.704 202.688C221.035 206.036 219.989 209.598 219.782 213.015L208.721 219.399L208.727 219.423C208.399 219.499 208.139 219.787 208.066 220.296Z" fill="#CACACA"/>
<path fill-rule="evenodd" clip-rule="evenodd" d="M230.182 246.857C250.258 235.269 266.529 207.2 266.529 184.167C266.529 174.56 263.67 167.39 258.913 163.087C265.969 166.622 270.4 174.837 270.4 186.819C270.4 209.855 254.125 237.921 234.056 249.512C222.351 256.27 211.972 255.889 205.321 249.869C211.826 253.13 220.554 252.42 230.182 246.857Z" fill="#CCCCCC"/>
<path d="M266.673 157.457C265.246 159.911 262.941 161.244 261.518 160.431C260.091 159.621 260.091 156.972 261.518 154.521C262.941 152.067 265.246 150.734 266.673 151.547C268.096 152.357 268.096 155.006 266.673 157.457Z" fill="#C5CBCB"/>
<path d="M276.593 187.451C274.578 188.611 272.948 187.679 272.948 185.37C272.948 183.065 274.578 180.253 276.593 179.09C278.605 177.93 280.235 178.862 280.235 181.167C280.235 183.477 278.605 186.288 276.593 187.451Z" fill="#C5CBCB"/>
<path d="M261.518 229.338C260.091 228.528 260.091 225.879 261.518 223.425C262.941 220.974 265.246 219.644 266.673 220.454C268.096 221.261 268.096 223.909 266.673 226.364C265.246 228.818 262.941 230.151 261.518 229.338Z" fill="#C5CBCB"/>
<path d="M230.481 258.612C230.481 256.303 232.111 253.489 234.126 252.325C236.138 251.166 237.765 252.097 237.765 254.406C237.765 256.712 236.138 259.523 234.126 260.686C232.111 261.849 230.481 260.922 230.481 258.612Z" fill="#C5CBCB"/>
<path d="M191.659 228.127C193.671 226.968 195.301 227.899 195.301 230.208C195.301 232.514 193.671 235.325 191.659 236.488C189.648 237.648 188.014 236.717 188.014 234.411C188.014 232.102 189.648 229.291 191.659 228.127Z" fill="#C5CBCB"/>
<path d="M238.73 158.412C238.73 160.718 237.099 163.533 235.088 164.696C233.076 165.859 231.442 164.924 231.442 162.619C231.442 160.309 233.076 157.498 235.088 156.335C237.099 155.175 238.73 156.103 238.73 158.412Z" fill="#B1B1B1"/>
<path d="M267.632 158.903C266.209 161.354 263.903 162.687 262.477 161.873C261.054 161.066 261.054 158.418 262.477 155.963C263.903 153.509 266.209 152.176 267.632 152.989C269.051 153.8 269.051 156.448 267.632 158.903Z" fill="#B1B1B1"/>
<path d="M277.544 188.894C275.536 190.057 273.909 189.122 273.909 186.817C273.909 184.508 275.536 181.696 277.544 180.533C279.556 179.373 281.189 180.301 281.189 182.61C281.189 184.916 279.556 187.731 277.544 188.894Z" fill="#B1B1B1"/>
<path d="M262.477 230.82C261.054 230.01 261.054 227.362 262.477 224.91C263.903 222.456 266.209 221.126 267.632 221.937C269.051 222.747 269.051 225.395 267.632 227.846C266.209 230.301 263.903 231.634 262.477 230.82Z" fill="#B1B1B1"/>
<path d="M231.442 260.093C231.442 257.784 233.076 254.97 235.088 253.81C237.099 252.647 238.73 253.578 238.73 255.887C238.73 258.196 237.099 261.007 235.088 262.167C233.076 263.33 231.442 262.403 231.442 260.093Z" fill="#B1B1B1"/>
<path d="M202.382 259.566C203.802 257.112 206.111 255.779 207.53 256.592C208.953 257.403 208.953 260.051 207.53 262.505C206.111 264.957 203.802 266.286 202.382 265.476C200.959 264.666 200.959 262.021 202.382 259.566Z" fill="#B1B1B1"/>
<path d="M192.621 229.572C194.632 228.409 196.263 229.34 196.263 231.649C196.263 233.958 194.632 236.769 192.621 237.929C190.61 239.092 188.975 238.161 188.975 235.852C188.975 233.543 190.61 230.732 192.621 229.572Z" fill="#B1B1B1"/>
<path d="M207.53 187.682C208.953 188.496 208.953 191.137 207.53 193.592C206.111 196.047 203.802 197.379 202.382 196.569C200.959 195.756 200.959 193.111 202.382 190.656C203.802 188.205 206.111 186.872 207.53 187.682Z" fill="#B1B1B1"/>
<path fill-rule="evenodd" clip-rule="evenodd" d="M207.63 186.837C207.63 186.837 206 193.653 203.992 194.813C203.144 195.305 202.413 195.665 202.413 195.665L201.184 194.913L200.8 194.484L200.499 193.833C200.405 193.515 200.353 193.148 200.353 192.739C200.353 190.43 201.984 187.622 203.992 186.463C204.934 185.919 205.796 185.833 206.443 186.137C207.174 186.48 207.63 186.837 207.63 186.837Z" fill="url(#paint9_linear_10:3006)"/>
<path d="M201.315 193.299C201.315 195.605 202.946 196.533 204.953 195.373C206.965 194.213 208.592 191.406 208.592 189.1C208.592 186.794 206.965 185.863 204.953 187.023C202.946 188.182 201.315 190.994 201.315 193.299Z" fill="#E2E2E2"/>
<path d="M201.502 193.41C201.502 191.104 203.133 188.293 205.14 187.133C206.501 186.347 207.588 186.541 208.211 187.455C207.616 186.427 206.38 186.202 204.953 187.022C202.946 188.182 201.315 190.993 201.315 193.299C201.315 194.04 201.488 194.639 201.782 195.075C201.54 194.653 201.502 194.078 201.502 193.41Z" fill="#E3E3E4"/>
<path fill-rule="evenodd" clip-rule="evenodd" d="M207.63 255.785C207.63 255.785 206 262.602 203.992 263.761C203.144 264.253 202.413 264.613 202.413 264.613L201.184 263.862L200.8 263.433L200.499 262.782C200.405 262.463 200.353 262.096 200.353 261.688C200.353 259.379 201.984 256.571 203.992 255.411C204.934 254.867 205.796 254.781 206.443 255.086C207.174 255.428 207.63 255.785 207.63 255.785Z" fill="url(#paint10_linear_10:3006)"/>
<path d="M201.315 262.244C201.315 264.554 202.946 265.481 204.953 264.322C206.965 263.162 208.592 260.354 208.592 258.048C208.592 255.743 206.965 254.811 204.953 255.971C202.946 257.131 201.315 259.939 201.315 262.244Z" fill="#E2E2E2"/>
<path d="M201.502 262.358C201.502 260.053 203.133 257.242 205.14 256.082C206.501 255.296 207.588 255.493 208.211 256.404C207.616 255.375 206.38 255.15 204.953 255.971C202.946 257.131 201.315 259.938 201.315 262.244C201.315 262.988 201.488 263.587 201.782 264.023C201.54 263.601 201.502 263.026 201.502 262.358Z" fill="#E3E3E4"/>
<path fill-rule="evenodd" clip-rule="evenodd" d="M195.127 228.499C195.127 228.499 193.497 235.319 191.489 236.478C190.641 236.967 189.91 237.327 189.91 237.327L188.681 236.579L188.3 236.15L187.999 235.495C187.902 235.177 187.854 234.813 187.854 234.405C187.854 232.096 189.477 229.288 191.489 228.128C192.434 227.585 193.296 227.498 193.94 227.803C194.667 228.145 195.127 228.499 195.127 228.499Z" fill="url(#paint11_linear_10:3006)"/>
<path d="M188.815 234.966C188.815 237.271 190.446 238.199 192.454 237.039C194.462 235.876 196.092 233.068 196.092 230.763C196.092 228.457 194.462 227.529 192.454 228.689C190.446 229.849 188.815 232.66 188.815 234.966Z" fill="#E2E2E2"/>
<path d="M189.002 235.077C189.002 232.771 190.626 229.96 192.641 228.8C193.998 228.014 195.088 228.208 195.708 229.122C195.113 228.094 193.88 227.866 192.454 228.689C190.446 229.849 188.815 232.66 188.815 234.966C188.815 235.707 188.985 236.306 189.283 236.739C189.037 236.32 189.002 235.745 189.002 235.077Z" fill="#E3E3E4"/>
<path fill-rule="evenodd" clip-rule="evenodd" d="M237.594 155.264C237.594 155.264 235.967 162.081 233.959 163.244C233.111 163.729 232.377 164.092 232.377 164.092L231.152 163.345L230.767 162.912L230.466 162.261C230.369 161.942 230.321 161.576 230.321 161.167C230.321 158.861 231.948 156.054 233.959 154.894C234.904 154.347 235.766 154.264 236.407 154.568C237.137 154.911 237.594 155.264 237.594 155.264Z" fill="url(#paint12_linear_10:3006)"/>
<path d="M231.282 161.73C231.282 164.036 232.913 164.964 234.921 163.804C236.929 162.644 238.556 159.833 238.556 157.527C238.556 155.222 236.929 154.294 234.921 155.454C232.913 156.617 231.282 159.425 231.282 161.73Z" fill="#E2E2E2"/>
<path d="M231.466 161.839C231.466 159.533 233.093 156.722 235.104 155.563C236.465 154.78 237.548 154.974 238.175 155.884C237.576 154.86 236.347 154.631 234.921 155.452C232.913 156.615 231.282 159.423 231.282 161.728C231.282 162.473 231.452 163.072 231.75 163.504C231.504 163.085 231.466 162.511 231.466 161.839Z" fill="#E3E3E4"/>
<path fill-rule="evenodd" clip-rule="evenodd" d="M267.725 152.182C267.725 152.182 266.098 158.999 264.083 160.158C263.235 160.65 262.504 161.01 262.504 161.01L261.279 160.259L260.898 159.829L260.593 159.179C260.5 158.86 260.448 158.497 260.448 158.085C260.448 155.775 262.072 152.968 264.083 151.811C265.028 151.264 265.894 151.178 266.534 151.483C267.265 151.825 267.725 152.182 267.725 152.182Z" fill="url(#paint13_linear_10:3006)"/>
<path d="M261.409 158.685C261.409 160.991 263.04 161.918 265.044 160.759C267.056 159.599 268.686 156.791 268.686 154.485C268.686 152.18 267.056 151.249 265.044 152.408C263.04 153.568 261.409 156.379 261.409 158.685Z" fill="#E2E2E2"/>
<path d="M261.596 158.795C261.596 156.49 263.223 153.679 265.235 152.519C266.592 151.733 267.683 151.93 268.299 152.841C267.703 151.813 266.474 151.588 265.044 152.408C263.04 153.568 261.409 156.379 261.409 158.685C261.409 159.425 261.579 160.024 261.877 160.461C261.634 160.038 261.596 159.464 261.596 158.795Z" fill="#E3E3E4"/>
<path fill-rule="evenodd" clip-rule="evenodd" d="M267.725 221.25C267.725 221.25 266.098 228.063 264.083 229.223C263.235 229.715 262.504 230.075 262.504 230.075L261.279 229.327L260.898 228.898L260.593 228.243C260.5 227.925 260.448 227.561 260.448 227.153C260.448 224.847 262.072 222.036 264.083 220.876C265.028 220.329 265.894 220.25 266.534 220.551C267.265 220.893 267.725 221.25 267.725 221.25Z" fill="url(#paint14_linear_10:3006)"/>
<path d="M261.409 227.717C261.409 230.023 263.04 230.947 265.044 229.787C267.056 228.628 268.686 225.82 268.686 223.514C268.686 221.208 267.056 220.277 265.044 221.437C263.04 222.6 261.409 225.411 261.409 227.717Z" fill="#E2E2E2"/>
<path d="M261.596 227.823C261.596 225.517 263.223 222.706 265.235 221.55C266.592 220.764 267.683 220.961 268.299 221.868C267.703 220.844 266.474 220.615 265.044 221.436C263.04 222.599 261.409 225.41 261.409 227.716C261.409 228.457 261.579 229.056 261.877 229.488C261.634 229.069 261.596 228.491 261.596 227.823Z" fill="#E3E3E4"/>
<path fill-rule="evenodd" clip-rule="evenodd" d="M280.221 179.461C280.221 179.461 278.598 186.278 276.59 187.441C275.741 187.929 275.008 188.289 275.008 188.289L273.782 187.542L273.394 187.109L273.097 186.458C273 186.14 272.948 185.776 272.948 185.364C272.948 183.058 274.578 180.251 276.59 179.091C277.535 178.547 278.39 178.461 279.037 178.766C279.768 179.108 280.221 179.461 280.221 179.461Z" fill="url(#paint15_linear_10:3006)"/>
<path d="M273.909 185.926C273.909 188.232 275.536 189.16 277.547 188C279.555 186.84 281.179 184.033 281.179 181.727C281.179 179.421 279.555 178.49 277.547 179.653C275.536 180.813 273.909 183.621 273.909 185.926Z" fill="#E2E2E2"/>
<path d="M274.092 186.037C274.092 183.731 275.716 180.92 277.728 179.76C279.088 178.977 280.175 179.171 280.802 180.082C280.203 179.057 278.97 178.829 277.547 179.653C275.536 180.812 273.909 183.62 273.909 185.926C273.909 186.67 274.075 187.269 274.373 187.702C274.131 187.283 274.092 186.708 274.092 186.037Z" fill="#E3E3E4"/>
<path fill-rule="evenodd" clip-rule="evenodd" d="M237.594 252.537C237.594 252.537 235.967 259.358 233.959 260.517C233.111 261.002 232.377 261.366 232.377 261.366L231.152 260.618L230.767 260.189L230.466 259.531C230.369 259.219 230.321 258.849 230.321 258.44C230.321 256.135 231.948 253.323 233.959 252.164C234.904 251.62 235.766 251.537 236.407 251.842C237.137 252.181 237.594 252.537 237.594 252.537Z" fill="url(#paint16_linear_10:3006)"/>
<path d="M231.282 259.002C231.282 261.308 232.913 262.239 234.921 261.079C236.929 259.916 238.556 257.105 238.556 254.799C238.556 252.493 236.929 251.569 234.921 252.725C232.913 253.885 231.282 256.696 231.282 259.002Z" fill="#E2E2E2"/>
<path d="M231.466 259.114C231.466 256.808 233.093 254 235.104 252.841C236.465 252.051 237.548 252.249 238.175 253.159C237.576 252.134 236.347 251.902 234.921 252.726C232.913 253.886 231.282 256.697 231.282 259.003C231.282 259.747 231.452 260.346 231.75 260.779C231.504 260.36 231.466 259.785 231.466 259.114Z" fill="#E3E3E4"/>
<path d="M245.282 212.998L247.297 209.463L221.18 194.576L219.584 198.347L245.282 212.998Z" fill="#ECECEC"/>
<path d="M221.802 195.466C221.913 196.383 221.404 197.578 220.663 198.135C219.922 198.693 219.23 198.405 219.119 197.488C219.004 196.574 219.517 195.38 220.258 194.822C220.999 194.261 221.691 194.552 221.802 195.466Z" fill="#C5CBCB"/>
<path d="M245.224 213.022L251.826 216.785H251.854L252.134 216.954C252.415 217.065 252.747 217.006 253.107 216.729C253.838 216.172 254.367 214.971 254.253 214.053C254.198 213.607 254 213.302 253.727 213.191L247.26 209.48L245.224 213.022Z" fill="#ECECEC"/>
<path d="M222.885 235.245L230.252 222.536L226.731 220.497L219.263 233.386L222.885 235.245Z" fill="#ECECEC"/>
<path d="M221.557 235.631C220.57 235.43 219.511 234.707 219.196 234.018C218.874 233.325 219.414 232.931 220.401 233.128C221.384 233.332 222.447 234.056 222.765 234.745C223.087 235.433 222.544 235.835 221.557 235.631Z" fill="#C5CBCB"/>
<path d="M224.071 224.972L227.609 227.008L255.09 179.596L255.118 179.568L255.312 179.232V179.204L255.204 178.813C254.896 178.117 253.837 177.394 252.861 177.197C252.248 177.086 251.805 177.169 251.635 177.449L251.607 177.505L224.071 224.972Z" fill="#ECECEC"/>
<path d="M235.289 224.798H239.353V179.127L235.289 179.072V224.798Z" fill="#ECECEC"/>
<path d="M235.865 178.318C236.648 177.847 237.935 177.826 238.739 178.269C239.542 178.716 239.559 179.457 238.78 179.928C237.994 180.402 236.71 180.423 235.907 179.976C235.1 179.533 235.079 178.789 235.865 178.318Z" fill="#C5CBCB"/>
<path d="M235.289 220.617V232.686C235.289 232.991 235.486 233.299 235.901 233.524C236.708 233.97 237.992 233.943 238.775 233.468C239.163 233.247 239.36 232.939 239.36 232.631V220.617H235.289Z" fill="#ECECEC"/>
<path d="M213.199 222.381L225.742 215.204L223.71 211.683L211.731 218.597L213.199 222.381Z" fill="#ECECEC"/>
<path d="M212.648 218.865C213.368 219.426 213.846 220.621 213.721 221.535C213.593 222.442 212.901 222.726 212.181 222.161C211.461 221.597 210.983 220.406 211.111 219.495C211.239 218.581 211.928 218.301 212.648 218.865Z" fill="#C5CBCB"/>
<path d="M259.786 190.864L259.862 190.822L259.948 190.771L259.959 190.816L260.824 191.061C261.537 191.622 262.022 192.82 261.897 193.727C261.825 194.198 261.614 194.492 261.319 194.596V194.603L222.898 216.857L220.866 213.336L259.786 190.864Z" fill="#ECECEC"/>
<path d="M238.444 193.456C232.164 197.077 226.857 206.227 226.857 213.428C226.857 216.516 227.795 218.76 229.502 219.739C231.233 220.74 233.677 220.425 236.408 218.85C242.685 215.222 247.992 206.078 247.992 198.878C247.992 195.789 247.047 193.55 245.344 192.563C244.682 192.179 243.917 191.992 243.069 191.992C241.702 191.992 240.123 192.487 238.444 193.456ZM227.47 223.267C224.451 221.526 222.789 218.029 222.789 213.428C222.789 204.663 228.771 194.339 236.408 189.935C240.435 187.612 244.329 187.29 247.376 189.039C250.395 190.78 252.053 194.277 252.053 198.878C252.053 207.643 246.078 217.96 238.444 222.374C236.125 223.714 233.857 224.386 231.766 224.386C230.215 224.386 228.764 224.015 227.47 223.267Z" fill="#ECECEC"/>
<path fill-rule="evenodd" clip-rule="evenodd" d="M243.649 202.227C243.649 202.227 240.014 210.131 237.331 211.682C236.199 212.336 235.939 213.24 235.939 213.24C235.939 213.24 235.399 213.174 234.869 212.863L234.821 212.835L234.758 212.797C234.225 212.478 233.637 212.046 233.228 211.737L233.031 211.471C232.854 211.208 232.712 210.9 232.612 210.557C232.477 210.114 232.404 209.598 232.404 209.027C232.404 205.797 234.682 201.86 237.504 200.233C238.234 199.811 238.933 199.586 239.567 199.544L239.747 199.62C240.149 199.807 240.692 199.88 241.492 200.233C241.803 200.368 242.157 200.552 242.551 200.801L242.579 200.815L242.749 200.929C243.088 201.147 243.649 202.227 243.649 202.227Z" fill="url(#paint17_linear_10:3006)"/>
<path d="M244.209 204.424L244.167 205.144C244.108 205.719 243.98 206.308 243.797 206.896L243.793 206.913C243.43 208.063 242.848 209.205 242.117 210.206C241.844 210.583 241.553 210.936 241.242 211.265C240.66 211.888 240.023 212.415 239.344 212.802C238.392 213.353 237.503 213.553 236.751 213.443C236.069 213.342 235.502 212.986 235.107 212.401C234.712 211.826 234.487 211.026 234.487 210.033C234.487 208.679 234.91 207.19 235.609 205.823C236.204 204.66 237.001 203.58 237.908 202.731C238.361 202.309 238.846 201.945 239.344 201.655C240.21 201.153 241.023 200.945 241.726 200.993L242.097 201.045C242.817 201.198 243.395 201.648 243.762 202.354L243.983 202.887V202.891C244.129 203.334 244.209 203.843 244.209 204.424Z" fill="#BFC1C2"/>
<path d="M239.261 212.807L239.285 212.793L239.261 207.236L238.333 213.239C238.634 213.136 238.946 212.994 239.261 212.807Z" fill="#ACAFB1"/>
<path d="M239.489 201.693L239.295 207.232L240.458 201.267L239.489 201.693Z" fill="#ACAFB1"/>
<path d="M243.712 202.347L239.295 207.225C239.295 207.225 241.008 202.662 241.676 200.987L242.047 201.039C242.767 201.191 243.345 201.641 243.712 202.347Z" fill="#ACAFB1"/>
<path d="M239.366 207.236L236.773 213.447C236.091 213.347 235.523 212.99 235.128 212.405L239.366 207.236Z" fill="#ACAFB1"/>
<path d="M242.916 208.864C242.272 210.086 241.503 210.941 241.192 211.27L239.295 207.236L242.916 208.864Z" fill="#CDD0D0"/>
<path d="M244.117 205.153C244.058 205.728 243.93 206.316 243.747 206.905L243.743 206.922L239.295 207.241L244.117 205.153Z" fill="#D0D2D3"/>
<path d="M239.327 207.236L235.041 207.593C234.889 207.839 234.671 208.611 234.532 209.141L234.487 209.615L239.327 207.236Z" fill="#D0D2D3"/>
<path d="M239.344 207.21L235.609 205.801C236.204 204.638 237.001 203.557 237.908 202.709L239.344 207.21Z" fill="#CDD0D0"/>
<path d="M234.795 210.378C234.795 207.297 236.973 203.544 239.656 201.997C241.474 200.944 242.862 201.014 243.693 202.232C242.896 200.861 241.249 200.553 239.344 201.654C236.661 203.202 234.487 206.954 234.487 210.032C234.487 211.029 234.712 211.829 235.11 212.407C234.785 211.846 234.795 211.271 234.795 210.378Z" fill="#E3E3E4"/>
<path d="M234.968 170.43L245.786 164.181L283.584 142.381L283.65 142.343L283.73 142.294L283.747 142.336L284.523 142.557C285.174 143.066 285.606 144.143 285.489 144.967C285.43 145.389 285.232 145.659 284.973 145.753V145.76L247.621 167.359L247.625 167.362L247.015 167.712L244.994 168.882L244.987 168.872L236.294 173.843L234.968 170.43Z" fill="#C9CFCE"/>
<path d="M235.894 170.68C236.545 171.189 236.977 172.266 236.863 173.093C236.745 173.914 236.126 174.167 235.475 173.661C234.824 173.152 234.391 172.072 234.506 171.248C234.623 170.428 235.243 170.171 235.894 170.68Z" fill="#C5CBCB"/>
<path d="M234.968 239.695L245.786 233.446L283.584 211.646L283.65 211.608L283.73 211.563L283.747 211.601L284.523 211.823C285.174 212.332 285.606 213.408 285.489 214.232C285.43 214.655 285.232 214.925 284.973 215.018V215.025L247.621 236.625L247.625 236.628L247.015 236.978L244.994 238.148L244.987 238.137L236.294 243.109L234.968 239.695Z" fill="#ECECEC"/>
<path d="M235.894 239.949C236.545 240.458 236.977 241.535 236.863 242.359C236.745 243.183 236.126 243.435 235.475 242.93C234.824 242.418 234.391 241.341 234.506 240.517C234.623 239.696 235.243 239.44 235.894 239.949Z" fill="#C5CBCB"/>
<path d="M239.77 172.988L228.398 179.555V173.978L239.77 167.414V172.988Z" fill="#B8BFC1"/>
<path d="M239.77 172.988L228.398 179.555L229.035 174.386L239.77 167.414V172.988Z" fill="#899395"/>
<path d="M225.673 177.915L228.436 179.56V173.983L225.673 172.342V177.915Z" fill="#B1B1B1"/>
<path d="M225.673 172.339L228.436 173.979L239.809 167.416L237.046 165.771L225.673 172.339Z" fill="#5D6B6C"/>
<path d="M239.77 243.181L228.398 249.745V244.172L239.77 237.604V243.181Z" fill="#B8BFC1"/>
<path d="M239.77 243.181L228.398 249.745L229.035 244.577L239.77 237.604V243.181Z" fill="#899395"/>
<path d="M225.673 248.109L228.436 249.75V244.176L225.673 242.532V248.109Z" fill="#B1B1B1"/>
<path d="M225.673 242.525L228.436 244.17L239.809 237.603L237.046 235.962L225.673 242.525Z" fill="#5D6B6C"/>
<path d="M54.0989 159.659C52.3972 159.364 50.367 159.796 48.1974 161.039C47.8572 161.229 47.528 161.44 47.1978 161.662C46.9005 158.173 45.4012 155.76 43.1686 154.664C41.776 153.979 40.0842 153.81 38.2128 154.222C37.0008 154.485 35.7148 154.991 34.386 155.749C30.3878 158.047 26.8155 162.157 24.4553 166.762C22.9669 166.35 21.1165 166.657 19.1174 167.795C18.7143 168.026 18.3203 168.29 17.9263 168.574C13.5779 171.726 10.218 177.88 10.218 183.012C10.218 183.855 10.3138 184.624 10.4834 185.309C10.208 185.436 9.93169 185.584 9.6435 185.742C4.3165 188.787 0 196.174 0 202.234C0 207.661 3.4665 210.19 8.01738 208.462C8.54908 208.262 9.09082 208.008 9.6435 207.682L12.1214 206.27L12.1533 206.249L13.4182 205.532L15.9491 204.078L21.8497 200.705L25.6454 198.524L27.464 197.492L31.536 195.163L32.8019 194.436L33.3755 194.109L34.0678 193.719L35.3318 192.991L39.9347 190.357L47.2617 186.162V186.111C47.3574 186.068 47.4642 186.015 47.5599 185.963C47.7724 185.868 47.9849 185.752 48.1974 185.626C54.1628 182.21 59 173.939 59 167.152C59 162.831 57.0547 160.154 54.0989 159.659Z" fill="#4970FF"/>
<path d="M81.9233 120.366C81.2022 120.243 80.342 120.424 79.4226 120.944C79.2785 121.023 79.139 121.111 78.9991 121.204C78.8731 119.745 78.2378 118.736 77.2918 118.278C76.7017 117.991 75.9848 117.921 75.1919 118.093C74.6783 118.203 74.1334 118.414 73.5704 118.731C71.8762 119.692 70.3625 121.411 69.3624 123.337C68.7317 123.165 67.9477 123.293 67.1006 123.769C66.9298 123.865 66.7628 123.976 66.5959 124.095C64.7533 125.413 63.3297 127.986 63.3297 130.132C63.3297 130.485 63.3703 130.806 63.4421 131.093C63.3254 131.146 63.2083 131.208 63.0862 131.274C60.829 132.547 59 135.636 59 138.171C59 140.44 60.4689 141.498 62.3972 140.775C62.6225 140.691 62.852 140.585 63.0862 140.449L64.1362 139.858L64.1497 139.85L64.6857 139.55L65.7581 138.942L68.2583 137.531L69.8667 136.619L70.6373 136.188L72.3627 135.213L72.8991 134.91L73.1422 134.773L73.4355 134.61L73.9711 134.305L75.9215 133.204L79.0261 131.45V131.428C79.0667 131.41 79.1119 131.388 79.1525 131.367C79.2425 131.326 79.3326 131.278 79.4226 131.226C81.9503 129.797 84 126.338 84 123.5C84 121.693 83.1757 120.573 81.9233 120.366Z" fill="#49DEFF"/>
<path d="M370.923 169.366C370.202 169.243 369.342 169.424 368.423 169.944C368.278 170.023 368.139 170.111 367.999 170.204C367.873 168.745 367.238 167.736 366.292 167.278C365.702 166.991 364.985 166.921 364.192 167.093C363.678 167.203 363.133 167.414 362.57 167.731C360.876 168.692 359.363 170.411 358.362 172.337C357.732 172.165 356.948 172.293 356.101 172.769C355.93 172.865 355.763 172.976 355.596 173.095C353.753 174.413 352.33 176.986 352.33 179.132C352.33 179.485 352.37 179.806 352.442 180.093C352.325 180.146 352.208 180.208 352.086 180.274C349.829 181.547 348 184.636 348 187.171C348 189.44 349.469 190.498 351.397 189.775C351.622 189.691 351.852 189.585 352.086 189.449L353.136 188.858L353.15 188.85L353.686 188.55L354.758 187.942L357.258 186.531L358.867 185.619L359.637 185.188L361.363 184.213L361.899 183.91L362.142 183.773L362.435 183.61L362.971 183.305L364.921 182.204L368.026 180.45V180.428C368.067 180.41 368.112 180.388 368.153 180.367C368.243 180.326 368.333 180.278 368.423 180.226C370.95 178.797 373 175.338 373 172.5C373 170.693 372.176 169.573 370.923 169.366Z" fill="#4970FF"/>
<path d="M348.923 220.366C348.202 220.243 347.342 220.424 346.423 220.944C346.278 221.023 346.139 221.111 345.999 221.204C345.873 219.745 345.238 218.736 344.292 218.278C343.702 217.991 342.985 217.921 342.192 218.093C341.678 218.203 341.133 218.414 340.57 218.731C338.876 219.692 337.363 221.411 336.362 223.337C335.732 223.165 334.948 223.293 334.101 223.769C333.93 223.865 333.763 223.976 333.596 224.095C331.753 225.413 330.33 227.986 330.33 230.132C330.33 230.485 330.37 230.806 330.442 231.093C330.325 231.146 330.208 231.208 330.086 231.274C327.829 232.547 326 235.636 326 238.171C326 240.44 327.469 241.498 329.397 240.775C329.622 240.691 329.852 240.585 330.086 240.449L331.136 239.858L331.15 239.85L331.686 239.55L332.758 238.942L335.258 237.531L336.867 236.619L337.637 236.188L339.363 235.213L339.899 234.91L340.142 234.773L340.435 234.61L340.971 234.305L342.921 233.204L346.026 231.45V231.428C346.067 231.41 346.112 231.388 346.153 231.367C346.243 231.326 346.333 231.278 346.423 231.226C348.95 229.797 351 226.338 351 223.5C351 221.693 350.176 220.573 348.923 220.366Z" fill="#49DEFF"/>
<defs>
<linearGradient id="paint0_linear_10:3006" x1="239.12" y1="129.788" x2="268.799" y2="81.3141" gradientUnits="userSpaceOnUse">
<stop stop-color="#43C9C7"/>
<stop offset="1" stop-color="#C0F8D1"/>
</linearGradient>
<linearGradient id="paint1_linear_10:3006" x1="63.155" y1="265.834" x2="162.971" y2="201.762" gradientUnits="userSpaceOnUse">
<stop stop-color="#43C9C7"/>
<stop offset="1" stop-color="#C0F8D1"/>
</linearGradient>
<linearGradient id="paint2_linear_10:3006" x1="129.183" y1="141.109" x2="175.247" y2="47.1574" gradientUnits="userSpaceOnUse">
<stop stop-color="#43C9C7"/>
<stop offset="1" stop-color="#C0F8D1"/>
</linearGradient>
<linearGradient id="paint3_linear_10:3006" x1="102.722" y1="191.89" x2="161.641" y2="117.397" gradientUnits="userSpaceOnUse">
<stop stop-color="#43C9C7"/>
<stop offset="1" stop-color="#C0F8D1"/>
</linearGradient>
<linearGradient id="paint4_linear_10:3006" x1="275.017" y1="148.899" x2="304.696" y2="100.425" gradientUnits="userSpaceOnUse">
<stop stop-color="#43C9C7"/>
<stop offset="1" stop-color="#C0F8D1"/>
</linearGradient>
<linearGradient id="paint5_linear_10:3006" x1="90.9757" y1="292.237" x2="172.122" y2="227.665" gradientUnits="userSpaceOnUse">
<stop stop-color="#43C9C7"/>
<stop offset="1" stop-color="#C0F8D1"/>
</linearGradient>
<linearGradient id="paint6_linear_10:3006" x1="168.359" y1="142.648" x2="200.695" y2="62.4161" gradientUnits="userSpaceOnUse">
<stop stop-color="#43C9C7"/>
<stop offset="1" stop-color="#C0F8D1"/>
</linearGradient>
<linearGradient id="paint7_linear_10:3006" x1="131.463" y1="209.265" x2="192.6" y2="131.947" gradientUnits="userSpaceOnUse">
<stop stop-color="#43C9C7"/>
<stop offset="1" stop-color="#C0F8D1"/>
</linearGradient>
<linearGradient id="paint8_linear_10:3006" x1="206.778" y1="222.945" x2="244.933" y2="289.031" gradientUnits="userSpaceOnUse">
<stop stop-color="#797C7A"/>
<stop offset="0.1" stop-color="#848584"/>
<stop offset="0.2" stop-color="#9B9D99"/>
<stop offset="0.3" stop-color="#A7AAA9"/>
<stop offset="0.6" stop-color="#ACAEAD"/>
<stop offset="0.7" stop-color="#BDBFBE"/>
<stop offset="1" stop-color="#BDBEBD"/>
</linearGradient>
<linearGradient id="paint9_linear_10:3006" x1="205.73" y1="187.114" x2="201.794" y2="193.931" gradientUnits="userSpaceOnUse">
<stop stop-color="#BCBDBB"/>
<stop offset="0.3" stop-color="#BDBEBD"/>
<stop offset="0.4" stop-color="#ACADAC"/>
<stop offset="0.7" stop-color="#A8A9A7"/>
<stop offset="0.8" stop-color="#9C9C9A"/>
<stop offset="0.9" stop-color="#838484"/>
<stop offset="1" stop-color="#7A7B7B"/>
</linearGradient>
<linearGradient id="paint10_linear_10:3006" x1="205.73" y1="256.062" x2="201.794" y2="262.879" gradientUnits="userSpaceOnUse">
<stop stop-color="#BCBDBB"/>
<stop offset="0.3" stop-color="#BDBEBD"/>
<stop offset="0.4" stop-color="#ACADAC"/>
<stop offset="0.7" stop-color="#A8A9A7"/>
<stop offset="0.8" stop-color="#9C9C9A"/>
<stop offset="0.9" stop-color="#838484"/>
<stop offset="1" stop-color="#7A7B7B"/>
</linearGradient>
<linearGradient id="paint11_linear_10:3006" x1="193.23" y1="228.779" x2="189.294" y2="235.596" gradientUnits="userSpaceOnUse">
<stop stop-color="#BCBDBB"/>
<stop offset="0.3" stop-color="#BDBEBD"/>
<stop offset="0.4" stop-color="#ACADAC"/>
<stop offset="0.7" stop-color="#A8A9A7"/>
<stop offset="0.8" stop-color="#9C9C9A"/>
<stop offset="0.9" stop-color="#838484"/>
<stop offset="1" stop-color="#7A7B7B"/>
</linearGradient>
<linearGradient id="paint12_linear_10:3006" x1="235.697" y1="155.545" x2="231.761" y2="162.362" gradientUnits="userSpaceOnUse">
<stop stop-color="#BCBDBB"/>
<stop offset="0.3" stop-color="#BDBEBD"/>
<stop offset="0.4" stop-color="#ACADAC"/>
<stop offset="0.7" stop-color="#A8A9A7"/>
<stop offset="0.8" stop-color="#9C9C9A"/>
<stop offset="0.9" stop-color="#838484"/>
<stop offset="1" stop-color="#7A7B7B"/>
</linearGradient>
<linearGradient id="paint13_linear_10:3006" x1="265.828" y1="152.459" x2="261.892" y2="159.276" gradientUnits="userSpaceOnUse">
<stop stop-color="#BCBDBB"/>
<stop offset="0.3" stop-color="#BDBEBD"/>
<stop offset="0.4" stop-color="#ACADAC"/>
<stop offset="0.7" stop-color="#A8A9A7"/>
<stop offset="0.8" stop-color="#9C9C9A"/>
<stop offset="0.9" stop-color="#838484"/>
<stop offset="1" stop-color="#7A7B7B"/>
</linearGradient>
<linearGradient id="paint14_linear_10:3006" x1="265.828" y1="221.527" x2="261.892" y2="228.344" gradientUnits="userSpaceOnUse">
<stop stop-color="#BCBDBB"/>
<stop offset="0.3" stop-color="#BDBEBD"/>
<stop offset="0.4" stop-color="#ACADAC"/>
<stop offset="0.7" stop-color="#A8A9A7"/>
<stop offset="0.8" stop-color="#9C9C9A"/>
<stop offset="0.9" stop-color="#838484"/>
<stop offset="1" stop-color="#7A7B7B"/>
</linearGradient>
<linearGradient id="paint15_linear_10:3006" x1="278.328" y1="179.742" x2="274.392" y2="186.559" gradientUnits="userSpaceOnUse">
<stop stop-color="#BCBDBB"/>
<stop offset="0.3" stop-color="#BDBEBD"/>
<stop offset="0.4" stop-color="#ACADAC"/>
<stop offset="0.7" stop-color="#A8A9A7"/>
<stop offset="0.8" stop-color="#9C9C9A"/>
<stop offset="0.9" stop-color="#838484"/>
<stop offset="1" stop-color="#7A7B7B"/>
</linearGradient>
<linearGradient id="paint16_linear_10:3006" x1="235.697" y1="252.818" x2="231.761" y2="259.635" gradientUnits="userSpaceOnUse">
<stop stop-color="#BCBDBB"/>
<stop offset="0.3" stop-color="#BDBEBD"/>
<stop offset="0.4" stop-color="#ACADAC"/>
<stop offset="0.7" stop-color="#A8A9A7"/>
<stop offset="0.8" stop-color="#9C9C9A"/>
<stop offset="0.9" stop-color="#838484"/>
<stop offset="1" stop-color="#7A7B7B"/>
</linearGradient>
<linearGradient id="paint17_linear_10:3006" x1="239.965" y1="201.272" x2="234.499" y2="210.74" gradientUnits="userSpaceOnUse">
<stop stop-color="#CFD0CE"/>
<stop offset="0.3" stop-color="#CFD0CE"/>
<stop offset="0.7" stop-color="#B9BBB9"/>
<stop offset="0.8" stop-color="#ACAEAA"/>
<stop offset="0.9" stop-color="#959694"/>
<stop offset="1" stop-color="#8A8C8B"/>
</linearGradient>
</defs>
</svg>
