<svg width="411" height="424" viewBox="0 0 411 424" fill="none" xmlns="http://www.w3.org/2000/svg">
<g clip-path="url(#clip0_10:2780)">
<path d="M8.94135 416.5C8.78487 416.487 8.63606 416.426 8.51533 416.326C8.3946 416.225 8.30783 416.09 8.26691 415.938C8.226 415.787 8.23294 415.626 8.28677 415.478C8.3406 415.331 8.43869 415.203 8.56762 415.114L116.323 352.83C116.495 352.731 116.7 352.704 116.892 352.756C117.084 352.808 117.248 352.934 117.347 353.107C117.446 353.28 117.472 353.485 117.421 353.677C117.369 353.87 117.243 354.033 117.07 354.133L9.30121 416.402C9.19114 416.464 9.06748 416.498 8.94135 416.5Z" fill="#85E2CD"/>
<path d="M157.293 159.049L183.592 2.97977L181.474 2.07891L184.657 0.263343C185.04 0.0578164 185.473 -0.035587 185.906 -0.00617263C186.34 0.0232417 186.756 0.174288 187.107 0.429658L397.081 121.823C397.976 122.384 398.705 123.174 399.192 124.113C399.679 125.051 399.906 126.103 399.849 127.159L373.329 284.49C373.299 284.829 373.181 285.154 372.987 285.434C372.793 285.714 372.529 285.937 372.222 286.083L369.121 287.871L368.581 284.975H368.761L160.02 164.385C159.132 163.819 158.411 163.026 157.932 162.088C157.453 161.15 157.232 160.101 157.293 159.049Z" fill="#9EB2FF"/>
<path d="M395.863 126.106L399.323 124.567C399.716 125.376 399.87 126.28 399.766 127.173L373.329 284.489C373.299 284.829 373.182 285.154 372.987 285.434C372.793 285.713 372.529 285.937 372.222 286.083L369.121 287.871L368.582 284.975H368.762L358.104 278.932L395.863 126.106Z" fill="#5578FF"/>
<path d="M156.726 166.284L366.699 287.663C368.319 288.606 369.703 288.065 369.993 286.374L396.472 129.016C396.53 127.958 396.303 126.904 395.817 125.963C395.33 125.022 394.6 124.229 393.704 123.666L183.772 2.34207C182.152 1.39964 180.768 1.94016 180.478 3.63099L153.999 160.892C153.929 161.953 154.146 163.013 154.625 163.962C155.105 164.91 155.831 165.712 156.726 166.284Z" fill="#0025AD"/>
<path d="M186.513 12.3901L388.915 129.39L363.82 277.546L161.557 160.615L186.513 12.3901Z" fill="url(#paint0_linear_10:2780)"/>
<path opacity="0.4" d="M26.506 287.012L234.348 407.158C235.513 407.812 236.816 408.182 238.151 408.237C239.485 408.293 240.814 408.032 242.03 407.477L366.048 335.783C368.027 334.647 367.778 332.651 365.508 331.348L157.667 211.188C156.5 210.537 155.198 210.169 153.864 210.114C152.529 210.059 151.201 210.317 149.985 210.869L25.9108 282.563C23.9869 283.7 24.236 285.626 26.506 287.012Z" fill="#0025AD"/>
<path d="M238.362 422.944C236.539 422.959 234.742 422.506 233.144 421.627L2.49145 288.287C1.80766 287.974 1.21784 287.486 0.780709 286.873C0.343582 286.261 0.0744018 285.544 0 284.794C0.042008 284.207 0.238239 283.642 0.56881 283.155C0.899381 282.668 1.35255 282.278 1.88242 282.023L147.715 197.509C149.188 196.82 150.805 196.493 152.43 196.556C154.055 196.618 155.642 197.069 157.058 197.869L387.696 331.195C388.385 331.508 388.978 331.997 389.418 332.612C389.858 333.228 390.128 333.949 390.202 334.702C390.158 335.289 389.961 335.854 389.631 336.34C389.301 336.827 388.848 337.218 388.319 337.474L242.487 421.974C241.219 422.649 239.797 422.983 238.362 422.944ZM3.30808 286.887L233.947 420.227C235.122 420.873 236.429 421.24 237.768 421.3C239.107 421.36 240.442 421.112 241.67 420.574L387.461 336.129C387.741 336.007 387.985 335.816 388.172 335.573C388.358 335.331 388.48 335.046 388.527 334.743C388.527 334.037 387.904 333.26 386.852 332.651L156.2 199.269C155.028 198.621 153.723 198.252 152.385 198.192C151.048 198.132 149.715 198.382 148.49 198.922L2.69906 283.353C2.41737 283.475 2.17082 283.666 1.98213 283.908C1.79345 284.15 1.66871 284.436 1.61944 284.739C1.61944 285.446 2.25614 286.222 3.30808 286.832V286.887Z" fill="#85E2CD"/>
<path d="M24.7346 240.764L36.1953 246.751L151.078 180.323C152.266 179.783 153.564 179.53 154.868 179.585C156.171 179.64 157.443 180.003 158.58 180.642L356.719 295.203C358.616 294.136 367.253 289.978 367.253 289.978L363.1 300.927C362.88 301.49 362.461 301.953 361.924 302.229L240.909 372.177C239.724 372.718 238.429 372.972 237.128 372.919C235.828 372.866 234.558 372.507 233.421 371.872L30.6172 254.623C29.8537 254.238 29.2507 253.594 28.9147 252.807L24.7346 240.764Z" fill="#0025AD"/>
<path d="M26.506 242.662L234.348 362.809C235.514 363.459 236.817 363.827 238.151 363.883C239.485 363.938 240.813 363.679 242.03 363.127L366.048 291.433C368.027 290.297 367.778 288.301 365.508 286.984L157.667 166.824C156.5 166.174 155.198 165.806 153.864 165.75C152.529 165.695 151.201 165.954 149.985 166.506L25.9108 238.2C23.9869 239.336 24.236 241.276 26.506 242.662Z" fill="url(#paint1_linear_10:2780)"/>
<path d="M366.049 289.188L242.03 360.882C240.814 361.434 239.485 361.693 238.151 361.637C236.817 361.582 235.515 361.214 234.348 360.563L26.5063 240.417C25.898 240.09 25.3834 239.613 25.0115 239.031C24.2087 240.154 24.7208 241.595 26.5063 242.635L234.348 362.781C235.515 363.431 236.817 363.799 238.151 363.855C239.485 363.91 240.814 363.651 242.03 363.099L366.049 291.405C366.336 291.292 366.594 291.116 366.805 290.889C367.015 290.663 367.172 290.392 367.263 290.096C367.355 289.801 367.379 289.489 367.334 289.183C367.289 288.877 367.176 288.585 367.004 288.329C366.75 288.68 366.424 288.973 366.049 289.188Z" fill="#809AFF"/>
<path d="M297.036 336.808V334.522C297.036 334.314 296.897 334.203 296.745 334.3L288.703 338.943C288.613 339.008 288.54 339.093 288.49 339.192C288.439 339.291 288.413 339.4 288.412 339.511V341.798C288.412 342.006 288.537 342.103 288.703 342.02L296.745 337.363C296.833 337.299 296.904 337.216 296.955 337.12C297.005 337.023 297.033 336.917 297.036 336.808Z" fill="#001B7C"/>
<path d="M285.008 343.752V341.479C285.008 341.257 284.883 341.16 284.717 341.257L276.675 345.9C276.589 345.965 276.518 346.049 276.468 346.145C276.418 346.241 276.389 346.346 276.384 346.454V348.741C276.384 348.963 276.523 349.06 276.675 348.963L284.717 344.32C284.807 344.255 284.88 344.169 284.93 344.071C284.98 343.972 285.007 343.863 285.008 343.752Z" fill="#001B7C"/>
<path d="M159.411 200.419L293.077 277.685L299.015 274.247L165.363 196.982L159.411 200.419Z" fill="#0025AD"/>
<path d="M144.836 208.846L270.211 281.316L276.149 277.879L150.788 205.408L144.836 208.846Z" fill="#0025AD"/>
<path d="M135.355 214.334L282.959 299.665L288.897 296.228L141.293 210.897L135.355 214.334Z" fill="#0025AD"/>
<path d="M125.86 219.808L273.464 305.14L279.416 301.703L131.811 216.385L125.86 219.808Z" fill="#0025AD"/>
<path d="M116.378 225.297L263.982 310.628L269.92 307.191L122.316 221.86L116.378 225.297Z" fill="#0025AD"/>
<path d="M301.146 282.355L307.098 285.792L313.036 282.355L307.098 278.918L301.146 282.355Z" fill="#0025AD"/>
<path d="M280.191 287.081L292.523 294.219L298.461 290.782L286.129 283.644L280.191 287.081Z" fill="#0025AD"/>
<g opacity="0.05">
<g opacity="0.05">
<path opacity="0.05" d="M157.404 166.575L365.301 286.721C366.466 287.375 367.769 287.744 369.104 287.8C370.438 287.855 371.767 287.595 372.983 287.04L497.001 215.345C498.981 214.209 498.731 212.213 496.461 210.91L288.62 90.7505C287.453 90.0997 286.151 89.7319 284.817 89.6765C283.482 89.6212 282.154 89.8798 280.938 90.4317L156.905 162.14C154.94 163.276 155.189 165.258 157.404 166.575Z" fill="url(#paint2_linear_10:2780)"/>
<path opacity="0.05" d="M365.91 188.112L319.347 161.197C317.52 160.144 317.52 158.426 319.347 157.386L351.183 138.981C352.203 138.461 353.332 138.19 354.477 138.19C355.622 138.19 356.751 138.461 357.771 138.981L404.333 165.896C406.16 166.949 406.16 168.668 404.333 169.707L372.498 188.112C371.477 188.63 370.349 188.899 369.204 188.899C368.059 188.899 366.931 188.63 365.91 188.112Z" fill="url(#paint3_linear_10:2780)"/>
<path opacity="0.05" d="M404.347 167.462L357.785 140.533C356.764 140.013 355.636 139.743 354.491 139.743C353.346 139.743 352.217 140.013 351.196 140.533L319.347 158.952C318.862 159.205 318.462 159.595 318.199 160.075C317.728 159.146 318.088 158.107 319.347 157.386L351.183 138.981C352.203 138.461 353.332 138.19 354.477 138.19C355.622 138.19 356.75 138.461 357.771 138.981L404.333 165.896C405.593 166.63 405.967 167.656 405.482 168.584C405.222 168.107 404.827 167.716 404.347 167.462Z" fill="#9198DB"/>
<path opacity="0.05" d="M424.818 230.189L252.106 130.402C251.543 130.075 250.903 129.902 250.251 129.902C249.6 129.902 248.96 130.075 248.397 130.402L186.886 165.979C186.697 166.105 186.543 166.277 186.436 166.477C186.329 166.678 186.273 166.902 186.273 167.129C186.273 167.356 186.329 167.58 186.436 167.781C186.543 167.981 186.697 168.153 186.886 168.279L359.515 268.066C360.081 268.393 360.723 268.566 361.377 268.566C362.03 268.566 362.672 268.393 363.238 268.066L424.818 232.476C425.004 232.348 425.156 232.178 425.261 231.978C425.365 231.779 425.42 231.557 425.42 231.332C425.42 231.107 425.365 230.885 425.261 230.686C425.156 230.487 425.004 230.316 424.818 230.189Z" fill="#ADB1F2"/>
<path opacity="0.05" d="M424.819 232.489L424.21 232.85L252.106 133.368C251.544 133.038 250.904 132.864 250.252 132.864C249.6 132.864 248.959 133.038 248.397 133.368L187.495 168.64L186.872 168.279C186.684 168.153 186.529 167.981 186.422 167.781C186.316 167.58 186.26 167.356 186.26 167.129C186.26 166.902 186.316 166.678 186.422 166.477C186.529 166.277 186.684 166.105 186.872 165.979L248.397 130.402C248.96 130.075 249.6 129.902 250.252 129.902C250.903 129.902 251.543 130.075 252.106 130.402L424.819 230.189C425.007 230.316 425.161 230.487 425.268 230.687C425.375 230.888 425.431 231.112 425.431 231.339C425.431 231.566 425.375 231.79 425.268 231.991C425.161 232.191 425.007 232.363 424.819 232.489Z" fill="#9198DB"/>
<path opacity="0.05" d="M202.983 163.54L353.439 250.535L347.487 253.972L197.017 166.991L202.983 163.54Z" fill="#24126A"/>
<path opacity="0.05" d="M218.831 154.379L361.854 237.063L355.888 240.5L212.88 157.83L218.831 154.379Z" fill="#24126A"/>
<path opacity="0.05" d="M372.526 243.231L385.883 250.95L379.917 254.401L366.56 246.682L372.526 243.231Z" fill="#24126A"/>
<path opacity="0.05" d="M360.733 254.747L370.035 260.111L364.069 263.562L354.768 258.185L360.733 254.747Z" fill="#24126A"/>
<path opacity="0.05" d="M228.769 148.641L395.82 245.213L389.855 248.65L222.804 152.078L228.769 148.641Z" fill="#24126A"/>
<path opacity="0.05" d="M238.708 142.903L405.745 239.461L399.793 242.912L232.742 146.34L238.708 142.903Z" fill="#24126A"/>
<path opacity="0.05" d="M248.632 137.152L415.683 233.723L409.718 237.174L242.68 140.603L248.632 137.152Z" fill="#24126A"/>
</g>
</g>
<path opacity="0.3" d="M275.235 80.5087L253.573 78.3189L222.569 76.24C222.569 76.24 214.098 147.74 275.235 223.564C336.372 218.422 327.901 137.138 327.901 137.138L275.235 80.5087Z" fill="#4896B9"/>
<path d="M318.448 143.652L265.781 87.0226L213.115 82.7539C213.115 82.7539 204.644 154.254 265.781 230.078C326.919 224.936 318.448 143.652 318.448 143.652Z" fill="#29B3B1"/>
<path d="M213.101 82.7539L201.253 89.6004L253.933 93.8691L265.782 87.0226L213.101 82.7539Z" fill="#189694"/>
<path d="M306.6 150.498L253.934 93.8688L232.272 91.679L201.254 89.6001C201.254 89.6001 192.797 161.1 253.934 236.924C315.071 231.783 306.6 150.498 306.6 150.498Z" fill="#29B3B1"/>
<path d="M300.205 151.385L252.909 100.466L233.379 98.5255L205.488 96.6545C205.488 96.6545 197.89 160.892 252.909 229.08C307.818 224.465 300.205 151.385 300.205 151.385Z" fill="url(#paint4_linear_10:2780)"/>
<path d="M306.6 150.498L253.933 93.8689L201.253 89.6002L202.748 88.741L256.12 93.0651L308.787 149.694C308.787 149.694 315.86 217.605 270.335 233.21C313.437 216.246 306.6 150.498 306.6 150.498Z" fill="#88E3CD"/>
</g>
<defs>
<linearGradient id="paint0_linear_10:2780" x1="520.089" y1="268.08" x2="148.685" y2="81.8783" gradientUnits="userSpaceOnUse">
<stop stop-color="#D5EEF3"/>
<stop offset="0.56" stop-color="#87D2F3"/>
<stop offset="1" stop-color="#65CEFF"/>
</linearGradient>
<linearGradient id="paint1_linear_10:2780" x1="-188151" y1="62883.2" x2="-272137" y2="-33458.4" gradientUnits="userSpaceOnUse">
<stop stop-color="#6A89FF"/>
<stop offset="0.838542" stop-color="#4269FF"/>
</linearGradient>
<linearGradient id="paint2_linear_10:2780" x1="383.156" y1="188.736" x2="40.4028" y2="188.736" gradientUnits="userSpaceOnUse">
<stop stop-color="#C0BFF6"/>
<stop offset="0.29" stop-color="#C5C4F7"/>
<stop offset="0.64" stop-color="#D3D2F9"/>
<stop offset="1" stop-color="#E9E9FD"/>
</linearGradient>
<linearGradient id="paint3_linear_10:2780" x1="44339.1" y1="9058.93" x2="49899.2" y2="9058.93" gradientUnits="userSpaceOnUse">
<stop stop-color="#C0BFF6"/>
<stop offset="0.29" stop-color="#C5C4F7"/>
<stop offset="0.64" stop-color="#D3D2F9"/>
<stop offset="1" stop-color="#E9E9FD"/>
</linearGradient>
<linearGradient id="paint4_linear_10:2780" x1="216.692" y1="203.232" x2="310.499" y2="113.936" gradientUnits="userSpaceOnUse">
<stop stop-color="#43C9C7"/>
<stop offset="1" stop-color="#C0F8D1"/>
</linearGradient>
<clipPath id="clip0_10:2780">
<rect width="411" height="423.319" fill="white"/>
</clipPath>
</defs>
</svg>
