<svg width="115" height="114" viewBox="0 0 115 114" fill="none" xmlns="http://www.w3.org/2000/svg">
<circle cx="57.3334" cy="57" r="57" fill="#BEF9CF"/>
<path d="M41.5419 58.2688H39.1048C37.5502 58.2688 36.2853 57.0119 36.2853 55.4671C36.2853 54.9978 35.905 54.6175 35.4357 54.6175C34.9663 54.6175 34.5861 54.9978 34.5861 55.4671C34.5861 57.9489 36.6132 59.968 39.105 59.968H41.5419C42.0112 59.968 42.3915 59.5877 42.3915 59.1184C42.3915 58.6491 42.0112 58.2688 41.5419 58.2688Z" fill="#224CE8"/>
<path d="M49.5254 64.5568H42.2672C39.87 64.5568 37.9196 66.4992 37.9196 68.8871C37.9196 69.3564 38.2999 69.7367 38.7692 69.7367C39.2385 69.7367 39.6188 69.3563 39.6188 68.8871C39.6188 67.4363 40.8068 66.256 42.2672 66.256H49.5254C49.9947 66.256 50.375 65.8757 50.375 65.4064C50.375 64.937 49.9947 64.5568 49.5254 64.5568Z" fill="#224CE8"/>
<path d="M56.448 64.5568H52.9239C52.4546 64.5568 52.0743 64.937 52.0743 65.4064C52.0743 65.8757 52.4546 66.256 52.9239 66.256H56.448C56.9173 66.256 57.2976 65.8757 57.2976 65.4064C57.2976 64.937 56.9172 64.5568 56.448 64.5568Z" fill="#224CE8"/>
<path d="M50.4741 48.0482C50.0048 48.0482 49.6245 48.4286 49.6245 48.8978C49.6245 51.3273 47.6364 53.3037 45.1927 53.3037C44.7234 53.3037 44.3431 53.684 44.3431 54.1533C44.3431 54.6226 44.7234 55.0029 45.1927 55.0029C48.5733 55.0029 51.3237 52.2642 51.3237 48.8978C51.3237 48.4286 50.9434 48.0482 50.4741 48.0482Z" fill="#224CE8"/>
<path d="M48.908 35.2042C46.8784 35.074 45.1187 36.6127 44.9871 38.6354C44.9566 39.1037 45.3115 39.5079 45.7797 39.5385C45.7985 39.5397 45.8172 39.5403 45.8358 39.5403C46.2799 39.5403 46.6535 39.1952 46.6828 38.7459C46.7535 37.6575 47.7028 36.8308 48.7988 36.8999C49.2674 36.9313 49.671 36.575 49.7012 36.1067C49.7314 35.6384 49.3763 35.2345 48.908 35.2042Z" fill="#224CE8"/>
<path d="M46.0507 68.3399C45.5814 68.3399 45.2011 68.7202 45.2011 69.1895C45.2011 69.6588 45.5814 70.0391 46.0507 70.0391C47.4537 70.0391 48.5951 71.173 48.5951 72.5665C48.5951 73.9605 47.4537 75.0943 46.0507 75.0943C45.5814 75.0943 45.2011 75.4746 45.2011 75.9439C45.2011 76.4132 45.5814 76.7935 46.0507 76.7935C48.3906 76.7935 50.2943 74.8974 50.2943 72.5665C50.2943 70.236 48.3906 68.3399 46.0507 68.3399Z" fill="#224CE8"/>
<path d="M54.7457 48.3332C54.2764 48.3332 53.8961 48.7135 53.8961 49.1828C53.8961 49.6521 54.2764 50.0324 54.7457 50.0324C55.8727 50.0324 56.7897 50.9429 56.7897 52.0621C56.7897 53.1814 55.8727 54.092 54.7457 54.092C54.2764 54.092 53.8961 54.4722 53.8961 54.9416C53.8961 55.4109 54.2764 55.7912 54.7457 55.7912C56.8098 55.7912 58.489 54.1182 58.489 52.0621C58.489 50.006 56.8098 48.3332 54.7457 48.3332Z" fill="#224CE8"/>
<path d="M39.7791 42.9313C39.3098 42.9313 38.9295 43.3116 38.9295 43.7809C38.9295 44.2502 39.3098 44.6305 39.7791 44.6305C41.7155 44.6305 43.2908 46.196 43.2908 48.1205C43.2908 50.045 41.7155 51.6107 39.7791 51.6107C39.3098 51.6107 38.9295 51.9909 38.9295 52.4603C38.9295 52.9296 39.3098 53.3099 39.7791 53.3099C42.6523 53.3099 44.99 50.9819 44.99 48.1205C44.99 45.2591 42.6523 42.9313 39.7791 42.9313Z" fill="#224CE8"/>
<path d="M79.7199 42.8928C78.123 42.8928 76.8238 44.1875 76.8238 45.7788C76.8238 47.3703 78.123 48.665 79.7199 48.665C81.3168 48.665 82.6161 47.3703 82.6161 45.7788C82.6161 44.1875 81.3168 42.8928 79.7199 42.8928ZM79.72 46.9659C79.06 46.9659 78.5231 46.4335 78.5231 45.7789C78.523 45.1245 79.0599 44.5921 79.72 44.5921C80.38 44.5921 80.917 45.1245 80.917 45.7789C80.917 46.4334 80.38 46.9659 79.72 46.9659Z" fill="#224CE8"/>
<path d="M82.5587 64.6372C80.9617 64.6372 79.6626 65.9319 79.6626 67.5234C79.6626 69.1149 80.9618 70.4095 82.5587 70.4095C84.1557 70.4095 85.4548 69.1148 85.4548 67.5234C85.4548 65.932 84.1557 64.6372 82.5587 64.6372ZM82.5587 68.7102C81.8988 68.7102 81.3618 68.1778 81.3618 67.5234C81.3618 66.869 81.8988 66.3364 82.5587 66.3364C83.2187 66.3364 83.7556 66.8688 83.7556 67.5234C83.7557 68.1778 83.2187 68.7102 82.5587 68.7102Z" fill="#224CE8"/>
<path d="M80.7761 54.4547C80.2861 54.4548 79.8243 54.5771 79.4192 54.7923L77.7631 53.1442C77.4303 52.8132 76.8925 52.8147 76.5616 53.1472C76.2306 53.4798 76.232 54.0176 76.5646 54.3487L78.2165 55.9925C78.0021 56.3953 77.88 56.854 77.88 57.3408C77.88 58.9322 79.1792 60.2269 80.7761 60.2269C82.3732 60.2269 83.6723 58.9322 83.6723 57.3408C83.6723 55.7494 82.3731 54.4547 80.7761 54.4547ZM80.7762 58.5278C80.1163 58.5278 79.5793 57.9954 79.5793 57.3409C79.5793 56.6866 80.1163 56.154 80.7762 56.154C81.4362 56.154 81.9732 56.6864 81.9732 57.3409C81.9732 57.9953 81.4362 58.5278 80.7762 58.5278Z" fill="#224CE8"/>
<path d="M78.8617 73.5057C77.2647 73.5057 75.9655 74.8004 75.9655 76.3919C75.9655 77.9834 77.2648 79.2781 78.8617 79.2781C80.4587 79.2781 81.7578 77.9834 81.7578 76.3919C81.7578 74.8004 80.4587 73.5057 78.8617 73.5057ZM78.8617 77.5788C78.2017 77.5788 77.6648 77.0463 77.6648 76.3918C77.6648 75.7374 78.2017 75.2048 78.8617 75.2048C79.5217 75.2048 80.0586 75.7373 80.0586 76.3918C80.0587 77.0463 79.5218 77.5788 78.8617 77.5788Z" fill="#224CE8"/>
<path d="M68.9207 43.9664C69.4607 43.9664 70.1051 43.7004 70.4879 43.3196L73.7701 40.0535C74.0999 40.1839 74.4588 40.2564 74.8346 40.2564C76.4316 40.2564 77.7307 38.9617 77.7307 37.3702C77.7307 35.7788 76.4315 34.4842 74.8346 34.4842C73.2376 34.4842 71.9385 35.7789 71.9385 37.3702C71.9385 37.9677 72.1217 38.5236 72.4353 38.9847L69.2896 42.1148C69.2231 42.1786 69.0126 42.2656 68.9207 42.2672H61.9079V36.6431H63.8805C64.2454 37.8211 65.348 38.6797 66.6484 38.6797C68.2454 38.6797 69.5446 37.385 69.5446 35.7935C69.5446 34.2021 68.2453 32.9075 66.6484 32.9075C65.348 32.9075 64.2454 33.7659 63.8805 34.9439H61.9079V34.8152C61.9079 31.0572 58.8374 28 55.0631 28C52.365 28 49.9446 29.5726 48.8401 31.9771C48.6703 31.9651 48.501 31.959 48.333 31.959C44.4103 31.959 41.2084 35.0907 41.1174 38.9751C40.7787 38.9269 40.4361 38.9025 40.0921 38.9025C36.1123 38.9025 32.8746 42.1263 32.8746 46.0887C32.8746 46.9585 33.0272 47.8001 33.329 48.6006C30.3583 50.3633 28.5452 53.5121 28.5452 57C28.5452 58.8728 29.0787 60.6932 30.0878 62.2643C30.919 63.5584 32.0389 64.6356 33.3562 65.4152C33.0397 66.2355 32.8746 67.1139 32.8746 67.9959C32.8746 69.7452 33.5133 71.4309 34.673 72.7426C34.9837 73.0941 35.5206 73.1272 35.8723 72.8163C36.2239 72.5055 36.2568 71.9686 35.946 71.617C35.0611 70.6162 34.5738 69.3301 34.5738 67.9958C34.5738 67.0981 34.786 66.2419 35.2038 65.4508C35.7025 64.5036 36.4772 63.7039 37.4572 63.1733C37.8699 62.9498 38.0231 62.4342 37.7996 62.0216C37.5762 61.6088 37.0605 61.4554 36.648 61.6792C35.6331 62.229 34.787 62.9998 34.1543 63.9124C31.7249 62.451 30.2444 59.8669 30.2444 57C30.2444 53.9346 31.9423 51.1866 34.6835 49.7958C34.6835 49.7958 36.2697 48.9133 38.3753 48.9133C38.8446 48.9133 39.2249 48.533 39.2249 48.0637C39.2249 47.5944 38.8446 47.2141 38.3753 47.2141C37.141 47.2141 35.9595 47.4423 34.8702 47.8577C34.6749 47.2913 34.5741 46.6994 34.5741 46.0889C34.5741 43.0632 37.0495 40.6019 40.0923 40.6019C40.6643 40.6019 41.2301 40.6894 41.7741 40.8622C42.0529 40.9507 42.3575 40.8896 42.5806 40.7004C42.8037 40.5112 42.9138 40.2208 42.872 39.9312C42.8341 39.6675 42.8148 39.4031 42.8148 39.1453C42.8148 36.1198 45.2904 33.6583 48.3332 33.6583C48.632 33.6583 48.9374 33.6839 49.2414 33.7338C51.8534 34.1659 53.8515 36.4273 53.8515 39.1453C53.8515 39.6146 54.2318 39.9949 54.7011 39.9949C55.1704 39.9949 55.5507 39.6146 55.5507 39.1453C55.5507 35.9619 53.4601 33.257 50.5744 32.3161C51.4714 30.7209 53.1763 29.6992 55.0631 29.6992C57.9004 29.6992 60.2087 31.9943 60.2087 34.8152V34.9096H58.5746C58.1053 34.9096 57.725 35.2899 57.725 35.7592C57.725 36.2285 58.1053 36.6088 58.5746 36.6088H60.2087V42.2671H53.3371C51.7823 42.2671 50.5174 41.0104 50.5174 39.4656C50.5174 38.9963 50.1371 38.616 49.6678 38.616C49.1984 38.616 48.8182 38.9963 48.8182 39.4656C48.8182 41.9473 50.8453 43.9663 53.3371 43.9663H60.2087V58.2688H46.4271C45.9578 58.2688 45.5775 58.649 45.5775 59.1184C45.5775 59.5877 45.9578 59.968 46.4271 59.968H60.2087V71.6332H57.5833C55.186 71.6332 53.2358 73.5757 53.2358 75.9634C53.2358 76.4327 53.6161 76.813 54.0854 76.813C54.5547 76.813 54.935 76.4327 54.935 75.9634C54.935 74.5127 56.123 73.3324 57.5833 73.3324H60.2087V79.1848C60.2087 79.3182 60.2019 79.4501 60.1918 79.5809H58.5746C58.1053 79.5809 57.725 79.9612 57.725 80.4305C57.725 80.8998 58.1053 81.2801 58.5746 81.2801H59.7555C58.9488 83.0589 57.1497 84.3008 55.0631 84.3008C53.189 84.3008 51.4904 83.2896 50.5887 81.7097C51.615 81.3745 52.5594 80.811 53.3551 80.0434C53.6928 79.7176 53.7024 79.1798 53.3766 78.8422C53.0508 78.5043 52.5129 78.4948 52.1754 78.8206C51.364 79.6033 50.3498 80.1087 49.2546 80.2913C48.9458 80.343 48.6358 80.3692 48.333 80.3692C45.2901 80.3692 42.8146 77.9078 42.8146 74.8821C42.8146 74.8048 42.8192 74.7244 42.823 74.6449C43.5088 74.3658 44.153 73.9838 44.7276 73.5042C45.0878 73.2035 45.136 72.6677 44.8352 72.3075C44.5344 71.9472 44.0074 71.91 43.6385 72.1999C41.9336 73.5391 40.2847 73.5182 39.625 73.4635C39.1561 73.4237 38.7469 73.7723 38.7079 74.2398C38.6691 74.7074 39.0167 75.118 39.4843 75.1569C40.0275 75.2018 40.5809 75.1861 41.119 75.1094C41.2398 78.9673 44.4295 82.0685 48.3331 82.0685C48.505 82.0685 48.6785 82.062 48.8525 82.0493C49.9629 84.438 52.3784 86 55.0631 86C58.8373 86 61.9079 82.9428 61.9079 79.1848V77.3073H66.4118C66.504 77.3088 66.7145 77.3957 66.7807 77.4594L68.8063 79.475C68.5323 79.9158 68.3736 80.4349 68.3736 80.9905C68.3736 82.582 69.6728 83.8767 71.2697 83.8767C72.8668 83.8767 74.1659 82.582 74.1659 80.9905C74.1659 79.399 72.8666 78.1043 71.2697 78.1043C70.8498 78.1043 70.4509 78.1946 70.0902 78.3554L67.9792 76.2549C67.5965 75.874 66.9521 75.608 66.4121 75.608H61.9079V71.0664H69.2939C69.6587 72.2444 70.7614 73.1029 72.0619 73.1029C73.6589 73.1029 74.958 71.8082 74.958 70.2168C74.958 68.6253 73.6588 67.3306 72.0619 67.3306C70.7615 67.3306 69.6587 68.189 69.2939 69.3671H61.9079V63.6759H70.7464C71.1112 64.8539 72.2139 65.7125 73.5144 65.7125C75.1114 65.7125 76.4105 64.4178 76.4105 62.8263C76.4105 61.2348 75.1113 59.9401 73.5144 59.9401C72.2139 59.9401 71.1112 60.7985 70.7464 61.9767H61.9079V55.7928H64.0125C64.3775 56.9707 65.4801 57.8292 66.7805 57.8292C68.3775 57.8292 69.6766 56.5345 69.6766 54.9432C69.6766 53.3517 68.3774 52.057 66.7805 52.057C65.4801 52.057 64.3773 52.9154 64.0125 54.0935H61.9079V49.1906H71.165C71.2571 49.1923 71.4677 49.2791 71.534 49.3428L73.2792 51.0796C73.4449 51.2445 73.6617 51.327 73.8785 51.327C74.0965 51.327 74.3147 51.2435 74.4807 51.0766C74.8117 50.744 74.8103 50.2061 74.4777 49.8751L72.7325 48.1382C72.3497 47.7574 71.7054 47.4914 71.1654 47.4914H61.9079V43.9664H68.9207ZM74.8346 36.1833C75.4945 36.1833 76.0315 36.7157 76.0315 37.3701C76.0315 38.0245 75.4945 38.557 74.8346 38.557C74.1746 38.557 73.6377 38.0246 73.6377 37.3701C73.6377 36.7157 74.1746 36.1833 74.8346 36.1833ZM66.6484 34.6067C67.3084 34.6067 67.8453 35.1391 67.8453 35.7935C67.8453 36.4479 67.3084 36.9805 66.6484 36.9805C65.9884 36.9805 65.4516 36.4481 65.4516 35.7935C65.4515 35.1391 65.9884 34.6067 66.6484 34.6067ZM71.2697 79.8034C71.9297 79.8034 72.4666 80.3359 72.4666 80.9904C72.4666 81.6448 71.9297 82.1773 71.2697 82.1773C70.6097 82.1773 70.0728 81.6449 70.0728 80.9904C70.0728 80.3359 70.6097 79.8034 71.2697 79.8034ZM72.0619 69.0298C72.7219 69.0298 73.2588 69.5622 73.2588 70.2168C73.2588 70.8712 72.7219 71.4037 72.0619 71.4037C71.4019 71.4037 70.865 70.8713 70.865 70.2168C70.865 69.5623 71.4019 69.0298 72.0619 69.0298ZM73.5143 61.6393C74.1742 61.6393 74.7112 62.1717 74.7112 62.8263C74.7112 63.4807 74.1742 64.0132 73.5143 64.0132C72.8543 64.0132 72.3173 63.4808 72.3173 62.8263C72.3173 62.1717 72.8543 61.6393 73.5143 61.6393ZM66.7805 53.7562C67.4405 53.7562 67.9774 54.2886 67.9774 54.9432C67.9774 55.5975 67.4405 56.13 66.7805 56.13C66.1205 56.13 65.5836 55.5976 65.5836 54.9432C65.5836 54.2886 66.1205 53.7562 66.7805 53.7562Z" fill="#224CE8"/>
</svg>
