<svg width="65" height="64" viewBox="0 0 65 64" fill="none" xmlns="http://www.w3.org/2000/svg">
<circle cx="32.6667" cy="32" r="32" fill="white" fill-opacity="0.2"/>
<g clip-path="url(#clip0_35:21368)">
<path d="M46.6323 21.289L33.1019 14.0793C32.9012 13.9722 32.6606 13.9737 32.4614 14.0831L19.3054 21.2928C19.0896 21.4112 18.9558 21.6375 18.9558 21.8837V31.3014C18.9637 39.0429 23.5504 46.0466 30.6435 49.1482L32.4696 49.9439C32.6403 50.0184 32.8346 50.0187 33.0057 49.9447L35.0633 49.0561C42.288 46.0218 46.9882 38.9505 46.989 31.1146V21.8837C46.989 21.6348 46.8518 21.4059 46.6323 21.289ZM45.6418 31.1146C45.6403 38.4103 41.263 44.9934 34.5359 47.8167L34.5314 47.819L32.7395 48.5926L31.1826 47.9133C24.58 45.0265 20.3102 38.5077 20.3026 31.3014V22.2825L32.7895 15.4389L45.6418 22.2874V31.1146Z" fill="white"/>
<path d="M27.8197 30.8646C27.578 30.5816 27.1529 30.5481 26.8698 30.7898C26.5868 31.0311 26.5533 31.4566 26.795 31.7393L30.3532 35.9061C30.5908 36.1843 31.0069 36.2223 31.2904 35.9915L39.5773 29.2494C39.866 29.0148 39.9096 28.5904 39.6747 28.3017C39.4401 28.0134 39.0158 27.9695 38.7271 28.2044L30.9505 34.5307L27.8197 30.8646Z" fill="white"/>
</g>
<defs>
<clipPath id="clip0_35:21368">
<rect width="36" height="36" fill="white" transform="translate(15 14)"/>
</clipPath>
</defs>
</svg>
