<svg width="282" height="370" viewBox="0 0 282 370" fill="none" xmlns="http://www.w3.org/2000/svg">
<path d="M0 63.946V365.379L7.52661 369.728V68.2945L0 63.946Z" fill="#D2D2D2"/>
<path d="M168.658 43.6212V277.26L7.37476 369.722V68.2887L118.093 4.36658L168.658 43.6212Z" fill="#F8F8F8"/>
<path d="M110.713 0L0.00012207 63.9221L7.52673 68.2705L118.245 4.34848L110.713 0Z" fill="#E8E8E8"/>
<path d="M168.753 43.6212L118.188 72.4734V4.36658L168.753 43.6212Z" fill="#D2D2D2"/>
<path d="M170.308 81.5093L25.2289 165.269V173.461L170.308 89.7054V81.5093Z" fill="#FBFBFB"/>
<path d="M170.308 115.957L25.2289 199.717V207.908L170.308 124.153V115.957Z" fill="#FBFBFB"/>
<path d="M170.308 150.501L25.2289 234.266V242.458L170.308 158.702V150.501Z" fill="#FBFBFB"/>
<path d="M170.308 184.948L25.2289 268.714V276.905L170.308 193.149V184.948Z" fill="#FBFBFB"/>
<path d="M170.308 219.493L25.2289 303.258V311.449L170.308 227.689V219.493Z" fill="#FBFBFB"/>
<path d="M50.6519 345.022L76.9903 329.919L50.6519 345.022Z" fill="#18898F"/>
<path d="M76.8517 329.907L99.511 316.916L76.8517 329.907Z" fill="#1D9093"/>
<path d="M50.5394 345.012C50.0138 343.406 49.6816 341.566 49.6816 339.429L49.6965 297.328L99.547 268.546L99.5371 316.918L76.8778 329.909L50.5394 345.012ZM49.6965 289.137L49.7015 262.824L99.5569 234.041L99.552 260.354L49.6965 289.137ZM49.7064 254.628L49.7114 228.314L99.5668 199.531L99.5569 225.845L49.7064 254.628ZM49.7163 220.118L49.7213 193.804L99.5767 165.022L99.5668 191.335L49.7163 220.118ZM49.7213 185.608L49.7312 159.295L99.5817 130.512L99.5767 156.826L49.7213 185.608Z" fill="#D2D2D2"/>
<path d="M161.017 37.592L146.717 26.4955V26.4905L161.017 37.592Z" fill="#1E9899"/>
<path d="M49.6816 151.092L49.6965 100.269C49.6965 90.4619 55.7158 78.9686 63.069 74.7243L118.071 42.9864V72.4832L168.636 43.631V52.0799L112.915 84.2294C105.561 88.4737 99.542 99.967 99.5371 109.77V122.309L49.6816 151.092Z" fill="#D2D2D2"/>
<path d="M118.188 72.4537V42.9569L146.718 26.4905L161.018 37.592L168.753 43.6015L118.188 72.4537Z" fill="#C0C0C0"/>
<path d="M49.6816 159.243V151.047L99.5371 122.264L99.5321 130.46L49.6816 159.243Z" fill="#E4E4E4"/>
<path d="M49.6816 193.787V185.591L99.5371 156.808V165.005L49.6816 193.787Z" fill="#E4E4E4"/>
<path d="M49.6816 228.235L49.6866 220.039L99.5371 191.256V199.452L49.6816 228.235Z" fill="#E4E4E4"/>
<path d="M49.6816 262.779L49.6866 254.583L99.5371 225.8V233.996L49.6816 262.779Z" fill="#E4E4E4"/>
<path d="M49.6816 297.319V289.128L99.5371 260.345L99.5321 268.536L49.6816 297.319Z" fill="#E4E4E4"/>
<path fill-rule="evenodd" clip-rule="evenodd" d="M119.227 368.393L104.174 359.701L104.184 359.686C101.358 358.04 99.5579 354.267 99.5579 348.917L99.5629 338.222L99.5678 316.896L99.5777 268.523L99.5827 260.332L99.5877 234.019V225.823L99.5976 199.509V191.313L99.6075 165V156.804L99.6125 130.49L99.6174 122.294V109.755C99.6223 99.952 105.642 88.4587 112.995 84.2145L168.716 52.065L216.514 24.482C218.378 23.411 220.153 22.9003 221.765 22.9003C223.505 22.9003 225.057 23.4904 226.326 24.5961L226.331 24.5763L237.423 30.9823L237.413 31.0021L237.264 30.893L235.266 29.7379C234.507 29.4602 233.699 29.3163 232.836 29.3163C231.23 29.3163 229.465 29.8172 227.605 30.8882L124.087 90.6205C116.733 94.8648 110.714 106.363 110.709 116.161L110.461 116.022L110.436 345.302L110.65 345.431V355.323C110.65 360.678 112.449 364.446 115.276 366.092L115.271 366.107L119.227 368.393Z" fill="#F0F0F0"/>
<path fill-rule="evenodd" clip-rule="evenodd" d="M119.198 368.381L115.241 366.096L115.246 366.081C112.42 364.434 110.62 360.666 110.62 355.311V345.419L114.79 347.829V357.716C114.79 362.937 116.49 366.671 119.198 368.376V368.381ZM114.844 118.564L110.679 116.154V116.149C110.684 106.351 116.704 94.8531 124.057 90.6088L227.576 30.8765C229.435 29.8055 231.2 29.3046 232.807 29.3046C233.669 29.3046 234.477 29.4485 235.236 29.7262L237.234 30.8813L237.383 30.9904L237.393 30.9706L239.277 32.0564C238.568 31.8184 237.814 31.6945 237.016 31.6945C235.4 31.6945 233.615 32.2052 231.745 33.2861L128.227 93.0185C120.873 97.2627 114.849 108.756 114.849 118.559L114.844 118.564Z" fill="#FCFCFC"/>
<path d="M110.426 345.334L110.45 116.054L114.863 118.607L114.839 347.888L110.426 345.334Z" fill="#0A2DB0"/>
<path d="M231.776 308.128L128.257 367.86C120.899 372.109 114.885 367.558 114.889 357.75L114.949 118.598C114.949 108.79 120.968 97.2968 128.326 93.0525L231.845 33.3202C239.198 29.0759 245.213 33.6276 245.213 43.4351L245.153 282.588C245.148 292.395 239.129 303.888 231.776 308.128Z" fill="#F0F0F0"/>
<path d="M114.919 347.818L114.889 347.009L114.944 118.537L245.208 43.3746L245.153 271.842L245.123 272.69L114.919 347.818Z" fill="#0A2DB0"/>
<path d="M143.03 93.9444C143.035 91.7578 144.577 89.0952 146.481 87.9994C148.385 86.8987 149.927 87.7812 149.927 89.9629C149.927 92.1445 148.385 94.8121 146.481 95.9079C144.577 97.0086 143.03 96.1261 143.03 93.9444Z" fill="#0A2DB0"/>
<path d="M154.673 86.7853C154.673 85.2879 155.734 83.4633 157.038 82.7047C158.347 81.956 159.403 82.556 159.403 84.0583C159.403 85.5557 158.347 87.3803 157.038 88.134C155.734 88.8827 154.673 88.2827 154.673 86.7853Z" fill="#6B383B"/>
<path d="M169.07 322.174L193.36 308.157C196.385 306.417 198.829 308.271 198.829 312.293C198.824 316.319 196.38 320.994 193.36 322.735L169.065 336.757C166.045 338.497 163.596 336.643 163.601 332.622C163.601 328.595 166.05 323.92 169.07 322.174Z" fill="white"/>
<path d="M166.4 335.184L190.696 321.167C193.716 319.427 196.16 314.746 196.165 310.725C196.165 309.396 195.892 308.31 195.426 307.507C197.444 307.418 198.872 309.217 198.872 312.287C198.867 316.313 196.423 320.988 193.403 322.729L169.108 336.751C167.085 337.916 165.324 337.46 164.377 335.829C165.002 335.799 165.686 335.595 166.4 335.184Z" fill="#D2D2D2"/>
<path fill-rule="evenodd" clip-rule="evenodd" d="M114.889 345.36L114.909 255.823L114.924 210.857L114.914 245.059C117.83 242.173 120.418 238.692 122.337 234.874L124.692 233.496L124.459 245.788L124.578 264.143C124.618 269.989 129.427 274.159 134.663 274.159C136.339 274.159 138.054 273.733 139.676 272.8L155.904 263.454L165.013 258.193L166.505 257.33V259.215C162.697 264.941 160.263 271.774 160.263 277.858C160.263 282.375 161.596 285.717 163.877 287.715L163.952 287.754C165.454 289.063 167.358 289.748 169.54 289.748H169.673C171.915 289.718 174.438 288.974 177.106 287.437C186.413 282.062 193.989 269.067 193.989 258.392C193.989 252.303 191.51 248.297 187.707 246.963V245.079L215.414 229.078C224.14 224.041 229.52 214.724 229.52 204.649V173L231.875 171.627C233.382 172.866 235.266 173.521 237.418 173.521C239.689 173.521 242.263 172.787 244.985 171.235L245.178 171.096L245.173 180.809L245.153 270.192L114.889 345.36ZM122.337 210.495C120.874 209.285 119.03 208.715 116.947 208.715C116.293 208.715 115.618 208.769 114.924 208.878L114.944 120.963L245.208 45.8005L245.178 166.485L245.188 132.417L244.985 132.521C239.684 135.585 234.974 141.084 231.875 147.247L229.52 148.615V118.107C229.52 112.227 224.69 108.022 219.435 108.022C217.759 108.022 216.038 108.448 214.422 109.38L198.303 118.662L187.974 124.632L187.707 124.786V122.902C191.51 117.17 193.949 110.337 193.949 104.259C193.949 99.7417 192.615 96.4047 190.335 94.3966L190.26 94.3619C188.758 93.0529 186.854 92.3686 184.672 92.3686C182.401 92.3686 179.828 93.1124 177.106 94.6742C167.799 100.054 160.223 113.05 160.223 123.73C160.223 129.814 162.697 133.82 166.505 135.149V137.038L138.798 153.038C130.072 158.076 124.692 167.387 124.692 177.467V209.116L122.337 210.495Z" fill="#416AFF"/>
<path fill-rule="evenodd" clip-rule="evenodd" d="M169.515 289.756C167.333 289.756 165.429 289.072 163.927 287.763L163.852 287.723C161.572 285.725 160.238 282.383 160.238 277.866C160.238 271.783 162.672 264.95 166.48 259.223V257.339L164.988 258.202L155.88 263.463L139.651 272.809C138.03 273.741 136.314 274.167 134.638 274.167C129.402 274.167 124.593 269.998 124.553 264.152L124.434 245.796L124.667 233.505L122.312 234.883C120.393 238.701 117.805 242.182 114.889 245.067L114.899 210.865V208.887C115.594 208.778 116.268 208.723 116.922 208.723C119.005 208.723 120.849 209.293 122.312 210.503L124.667 209.125V177.476C124.667 167.396 130.047 158.084 138.773 153.047L166.48 137.046V135.157C162.672 133.828 160.198 129.822 160.198 123.738C160.198 113.058 167.774 100.063 177.081 94.6828C179.803 93.121 182.377 92.3773 184.647 92.3773C186.829 92.3773 188.733 93.0615 190.235 94.3705L190.31 94.4052C192.591 96.4133 193.924 99.7503 193.924 104.267C193.924 110.346 191.485 117.178 187.682 122.91V124.794L187.95 124.641L198.278 118.671L214.397 109.389C216.013 108.457 217.734 108.031 219.41 108.031C224.666 108.031 229.495 112.235 229.495 118.116V148.624L231.85 147.255C234.949 141.092 239.659 135.594 244.96 132.529L245.163 132.425L245.153 166.494V171.105L244.96 171.244C242.238 172.796 239.664 173.529 237.394 173.529C235.242 173.529 233.357 172.875 231.85 171.635L229.495 173.009V204.657C229.495 214.733 224.115 224.049 215.389 229.087L187.682 245.087V246.971C191.485 248.305 193.964 252.311 193.964 258.4C193.964 269.075 186.388 282.071 177.081 287.446C174.414 288.983 171.89 289.727 169.649 289.756H169.515Z" fill="#0A2EB4"/>
<path d="M111.59 343.551L111.645 119.159L114.868 121.018L114.813 345.415L111.59 343.551Z" fill="#0D36CC"/>
<path d="M274.516 139.121L278.696 136.037C278.081 135.15 273.653 131.892 272.825 131.317C269.736 129.16 265.268 129.259 260.31 132.14C255.01 135.199 250.3 140.698 247.196 146.861L244.845 148.235V117.721C244.845 115.054 248.143 116.045 246.566 114.3C246.021 113.7 241.117 109.858 240.452 109.406C237.443 107.354 233.352 106.917 229.747 108.995L213.628 118.282L203.305 124.246L203.032 124.405V122.521C206.84 116.789 209.275 109.957 209.275 103.873C209.275 99.3607 210.187 102.4 207.911 100.397L210.936 98.2898L204.758 93.3514C201.703 91.3235 197.31 91.497 192.431 94.2935C183.13 99.6682 175.548 112.664 175.548 123.349C175.548 129.428 178.023 133.434 181.831 134.768V136.692V136.652L154.124 152.657C145.397 157.695 140.022 167.007 140.022 177.087V208.73L137.667 210.109C134.563 207.555 129.853 207.476 124.553 210.5C115.251 215.88 107.709 228.916 107.709 239.591C107.709 242.848 108.418 245.521 109.673 247.484L109.871 247.836C110.218 248.337 110.6 248.788 111.017 249.19C111.497 249.656 116.614 253.762 117.18 254.094C120.239 255.874 119.887 251.922 124.553 249.21C129.853 246.146 134.563 240.652 137.667 234.489L140.022 233.11L139.784 245.402L139.908 263.757C139.928 266.926 141.346 269.598 143.473 271.383C143.915 271.755 148.223 275.275 148.719 275.573C151.665 277.294 151.63 274.363 155.006 272.419L171.235 263.068L180.343 257.807L181.831 256.945V258.829C178.023 264.561 175.588 271.393 175.588 277.482C175.588 281.994 176.927 285.331 179.203 287.334L179.282 287.374C179.743 287.78 184.483 291.623 185.019 291.91C186.253 292.56 183.447 289.382 185.004 289.362C187.24 289.332 189.764 288.588 192.431 287.056C201.738 281.677 209.314 268.681 209.314 258.006C209.314 251.917 206.84 247.916 203.032 246.577V244.693L230.739 228.697C239.466 223.655 244.845 214.343 244.845 204.268V172.614L247.196 171.241C250.3 173.789 255.01 173.869 260.31 170.849C269.612 165.47 277.153 152.439 277.153 141.759C277.153 138.496 275.775 141.085 274.516 139.121Z" fill="url(#paint0_linear_3:16511)"/>
<path d="M280.037 137.752L279.843 137.4C276.938 133.2 271.444 132.372 265.162 136.022C259.861 139.086 255.146 144.585 252.047 150.748L249.692 152.121V121.608C249.692 113.863 241.308 109.014 234.594 112.881L218.48 122.163L208.152 128.133L207.879 128.292V126.408C211.687 120.676 214.121 113.843 214.121 107.76C214.121 103.243 212.788 99.9057 210.512 97.9075L210.432 97.8628C207.368 95.1953 202.618 95.1159 197.283 98.1751C187.976 103.555 180.4 116.556 180.4 127.231C180.4 133.315 182.874 137.321 186.682 138.655V140.578H186.677V140.539L158.97 156.539C150.244 161.582 144.869 170.893 144.869 180.968V212.622L142.514 213.996C139.415 211.442 134.7 211.363 129.399 214.387C120.098 219.767 112.561 232.797 112.561 243.477C112.561 246.735 113.265 249.403 114.52 251.371L114.718 251.718C117.623 255.923 123.122 256.746 129.399 253.096C134.7 250.032 139.415 244.538 142.514 238.375L144.869 237.002L144.636 249.289L144.755 267.644C144.805 275.364 153.164 280.159 159.853 276.301L176.081 266.955L185.19 261.694L186.677 260.831V262.715C182.874 268.442 180.44 275.275 180.44 281.364C180.44 285.876 181.774 289.218 184.049 291.216L184.129 291.255C185.661 292.589 187.609 293.278 189.851 293.249C192.087 293.219 194.611 292.475 197.283 290.938C206.585 285.563 214.161 272.568 214.161 261.892C214.161 255.804 211.687 251.802 207.879 250.464V248.58L235.591 232.579C244.317 227.541 249.692 218.225 249.692 208.15V176.501L252.047 175.128C255.146 177.681 259.861 177.756 265.162 174.736C274.464 169.356 282 156.321 282 145.646C282 142.383 281.291 139.711 280.037 137.752Z" fill="#D9FFF4"/>
<path d="M216.169 222.602C224.612 217.742 229.854 208.682 229.854 198.962V150.412C229.854 147.798 228.503 145.453 226.227 144.146C223.954 142.838 221.232 142.846 218.975 144.146L177.655 167.929C169.208 172.789 163.962 181.854 163.962 191.566V240.119C163.962 242.73 165.317 245.071 167.589 246.382C169.865 247.686 172.584 247.69 174.849 246.386L216.169 222.602ZM166.561 248.155C163.647 246.478 161.901 243.469 161.901 240.119V191.566C161.901 181.119 167.541 171.383 176.623 166.153L217.947 142.377C220.869 140.696 224.345 140.696 227.255 142.373C230.169 144.054 231.911 147.055 231.911 150.412V198.962C231.911 209.409 226.275 219.149 217.197 224.375L175.877 248.155C174.418 248.997 172.816 249.414 171.217 249.414C169.618 249.414 168.024 248.993 166.561 248.155Z" fill="#70DACB"/>
<path d="M197.422 156.427C178.967 167.13 163.948 193.396 163.948 214.975C163.948 225.259 167.337 232.889 173.483 236.457C179.558 239.997 187.704 239.152 196.398 234.105C214.857 223.398 229.864 197.132 229.864 175.553C229.864 165.269 226.475 157.635 220.329 154.071C217.861 152.636 215.048 151.922 211.988 151.922C207.536 151.922 202.576 153.437 197.422 156.427ZM172.459 238.235C165.65 234.284 161.901 226.029 161.901 214.975C161.901 192.743 177.372 165.679 196.398 154.649C205.755 149.22 214.619 148.386 221.357 152.289C228.166 156.239 231.911 164.499 231.911 175.553C231.911 197.785 216.44 224.849 197.422 235.879C191.946 239.06 186.633 240.663 181.82 240.663C178.411 240.663 175.249 239.853 172.459 238.235Z" fill="#70DACB"/>
<path d="M197.963 176.035C188.851 181.376 181.444 194.487 181.444 205.251C181.444 210.272 183.051 213.981 185.967 215.694C188.859 217.39 192.748 216.956 196.942 214.5C206.05 209.154 213.461 196.047 213.461 185.279C213.461 180.263 211.854 176.553 208.938 174.841C207.775 174.158 206.454 173.824 205.01 173.824C202.865 173.824 200.467 174.563 197.963 176.035ZM184.95 217.486C181.369 215.388 179.403 211.043 179.403 205.251C179.403 193.824 187.272 179.913 196.942 174.242C201.805 171.392 206.426 170.966 209.951 173.048C213.536 175.146 215.502 179.487 215.502 185.279C215.502 196.702 207.633 210.617 197.963 216.288C195.138 217.948 192.392 218.784 189.896 218.784C188.095 218.784 186.43 218.354 184.95 217.486Z" fill="#70DACB"/>
<path d="M199.094 196.535L195.812 199.094V193.999L199.094 191.436V196.535Z" fill="#70DACB"/>
<path d="M226.493 214.409L227.536 212.597L167.319 176.121L166.276 177.933L226.493 214.409Z" fill="#70DACB"/>
<path d="M168.085 248.32L228.63 143.241L226.821 142.21L166.276 247.293L168.085 248.32Z" fill="#70DACB"/>
<path d="M198 155.337H195.812V235.193H198V155.337Z" fill="#70DACB"/>
<path d="M162.929 216.596L231.911 176.798L230.887 175.027L161.901 214.83L162.929 216.596Z" fill="#70DACB"/>
<defs>
<linearGradient id="paint0_linear_3:16511" x1="128.421" y1="252.958" x2="269.232" y2="93.9466" gradientUnits="userSpaceOnUse">
<stop stop-color="#43C9C7"/>
<stop offset="1" stop-color="#C0F8D1"/>
</linearGradient>
</defs>
</svg>
