<svg width="417" height="365" viewBox="0 0 417 365" fill="none" xmlns="http://www.w3.org/2000/svg">
<path d="M66.748 68.385C66.748 73.0098 62.9989 76.759 58.374 76.759C53.7492 76.759 50 73.0098 50 68.385C50 65.9466 51.0422 63.7517 52.7054 62.2213C54.1968 60.849 56.1876 60.011 58.374 60.011C62.9989 60.011 66.748 63.7602 66.748 68.385Z" fill="#F7F7F7"/>
<path d="M90.916 68.385C90.916 73.0098 87.1668 76.759 82.542 76.759C77.9172 76.759 74.168 73.0098 74.168 68.385C74.168 67.7942 74.2292 67.2178 74.3455 66.6616C75.1401 62.8635 78.5079 60.011 82.542 60.011C87.1668 60.011 90.916 63.7602 90.916 68.385Z" fill="#F7F7F7"/>
<path d="M81.5117 58.374C81.5117 62.5887 78.3981 66.0762 74.3455 66.6616C73.9511 66.7185 73.5479 66.748 73.1377 66.748C69.0731 66.748 65.6849 63.8521 64.9237 60.011C64.8187 59.4816 64.7637 58.9342 64.7637 58.374C64.7637 57.6383 64.8586 56.9247 65.0368 56.2448C65.9788 52.6512 69.2486 50 73.1377 50C77.7626 50 81.5117 53.7492 81.5117 58.374Z" fill="#F7F7F7"/>
<path d="M66.748 68.385C66.748 73.0098 62.9989 76.759 58.374 76.759H82.542C77.9172 76.759 74.168 73.0098 74.168 68.385C74.168 67.7942 74.2292 67.2178 74.3455 66.6616C73.9511 66.7185 73.5479 66.748 73.1377 66.748C69.0731 66.748 65.6849 63.8521 64.9237 60.011H59.4612H58.374C62.9989 60.011 66.748 63.7602 66.748 68.385Z" fill="#F7F7F7"/>
<path d="M64.9237 60.011C64.8187 59.4816 64.7637 58.9342 64.7637 58.374C64.7637 57.6383 64.8586 56.9247 65.0368 56.2448C64.337 57.5002 62.2423 60.011 59.4612 60.011H64.9237Z" fill="#F7F7F7"/>
<path d="M351.489 111.742C351.489 114.639 349.141 116.987 346.245 116.987C343.348 116.987 341 114.639 341 111.742C341 110.215 341.653 108.841 342.694 107.882C343.628 107.023 344.875 106.498 346.245 106.498C349.141 106.498 351.489 108.846 351.489 111.742Z" fill="#F7F7F7"/>
<path d="M366.625 111.742C366.625 114.639 364.277 116.987 361.381 116.987C358.484 116.987 356.136 114.639 356.136 111.742C356.136 111.372 356.175 111.011 356.247 110.663C356.745 108.284 358.854 106.498 361.381 106.498C364.277 106.498 366.625 108.846 366.625 111.742Z" fill="#F7F7F7"/>
<path d="M360.736 105.473C360.736 108.112 358.786 110.296 356.247 110.663C356 110.699 355.748 110.717 355.491 110.717C352.945 110.717 350.823 108.904 350.347 106.498C350.281 106.166 350.246 105.823 350.246 105.473C350.246 105.012 350.306 104.565 350.417 104.139C351.007 101.888 353.055 100.228 355.491 100.228C358.388 100.228 360.736 102.576 360.736 105.473Z" fill="#F7F7F7"/>
<path d="M351.489 111.742C351.489 114.639 349.141 116.987 346.245 116.987H361.381C358.484 116.987 356.136 114.639 356.136 111.742C356.136 111.372 356.175 111.011 356.247 110.663C356 110.699 355.748 110.717 355.491 110.717C352.945 110.717 350.823 108.904 350.347 106.498H346.926H346.245C349.141 106.498 351.489 108.846 351.489 111.742Z" fill="#F7F7F7"/>
<path d="M350.347 106.498C350.281 106.166 350.246 105.823 350.246 105.473C350.246 105.012 350.306 104.565 350.417 104.139C349.979 104.925 348.667 106.498 346.926 106.498H350.347Z" fill="#F7F7F7"/>
<path d="M299.36 79.3072C299.36 81.3395 297.712 82.987 295.68 82.987C293.648 82.987 292 81.3395 292 79.3072C292 78.2356 292.458 77.2711 293.189 76.5985C293.844 75.9955 294.719 75.6273 295.68 75.6273C297.712 75.6273 299.36 77.2748 299.36 79.3072Z" fill="#F7F7F7"/>
<path d="M309.98 79.3072C309.98 81.3395 308.333 82.987 306.3 82.987C304.268 82.987 302.62 81.3395 302.62 79.3072C302.62 79.0475 302.647 78.7942 302.698 78.5498C303.048 76.8808 304.528 75.6273 306.3 75.6273C308.333 75.6273 309.98 77.2748 309.98 79.3072Z" fill="#F7F7F7"/>
<path d="M305.848 74.9079C305.848 76.76 304.479 78.2926 302.698 78.5498C302.525 78.5748 302.348 78.5878 302.168 78.5878C300.382 78.5878 298.893 77.3152 298.558 75.6273C298.512 75.3946 298.488 75.1541 298.488 74.9079C298.488 74.5846 298.529 74.271 298.608 73.9723C299.022 72.3931 300.459 71.228 302.168 71.228C304.2 71.228 305.848 72.8756 305.848 74.9079Z" fill="#F7F7F7"/>
<path d="M299.36 79.3072C299.36 81.3395 297.712 82.987 295.68 82.987H306.3C304.268 82.987 302.62 81.3395 302.62 79.3072C302.62 79.0475 302.647 78.7942 302.698 78.5498C302.525 78.5748 302.348 78.5878 302.168 78.5878C300.382 78.5878 298.893 77.3152 298.558 75.6273H296.158H295.68C297.712 75.6273 299.36 77.2748 299.36 79.3072Z" fill="#F7F7F7"/>
<path d="M298.558 75.6273C298.512 75.3946 298.488 75.1541 298.488 74.9079C298.488 74.5846 298.529 74.271 298.608 73.9723C298.3 74.5239 297.38 75.6273 296.158 75.6273H298.558Z" fill="#F7F7F7"/>
<path d="M49.25 253.025C49.25 287.66 77.3505 315.737 112.013 315.737H290.987C325.649 315.737 353.75 287.66 353.75 253.025C353.75 218.389 325.649 190.312 290.987 190.312H284.108V178.95C284.108 144.314 256.007 116.237 221.345 116.237C192.229 116.237 167.745 136.046 160.653 162.912C158.088 167.482 152.992 174.326 146.014 180.031C138.994 185.771 130.13 190.312 120.064 190.312H112.013C95.6262 190.312 80.7045 196.588 69.5271 206.865C57.0623 218.325 49.25 234.764 49.25 253.025Z" stroke="#EFEFEF" stroke-width="1.5"/>
<path d="M50 253.025C50 287.246 77.7642 314.987 112.013 314.987H290.987C325.236 314.987 353 287.246 353 253.025C353 218.804 325.236 191.062 290.987 191.062H283.358V178.95C283.358 144.729 255.593 116.987 221.345 116.987C192.544 116.987 168.329 136.604 161.354 163.195C156.172 172.484 140.659 191.062 120.064 191.062H112.013C95.8214 191.062 81.0791 197.263 70.0347 207.417C57.7178 218.741 50 234.982 50 253.025Z" fill="white"/>
</svg>
