<?xml version="1.0" encoding="utf-8"?>
<!-- Generator: Adobe Illustrator 23.0.1, SVG Export Plug-In . SVG Version: 6.00 Build 0)  -->
<svg version="1.1" id="Layer_1" xmlns="http://www.w3.org/2000/svg" xmlns:xlink="http://www.w3.org/1999/xlink" x="0px" y="0px"
	 viewBox="0 0 254.9 102.5" style="enable-background:new 0 0 254.9 102.5;" xml:space="preserve">
<style type="text/css">
	.st0{fill:#288ED9;}
	.st1{fill:#FFFFFF;}
</style>
<g>
	<polygon class="st0" points="42.8,55.2 41.3,53.7 38.8,51.2 35.8,54.2 38.3,56.7 42.8,61.3 45.1,59 49.8,54.2 46.8,51.2 	"/>
	<polygon class="st0" points="122.2,61.3 124.4,59 129.2,54.2 126.2,51.2 122.2,55.2 120.7,53.7 118.1,51.2 115.1,54.2 117.6,56.7 	
		"/>
	<path class="st0" d="M0,29.1v5.5h29.2c2.2,0,4,1.8,4,4s-1.8,4-4,4H0v5.5h29.2c2.7,0,5.1-1.1,6.8-2.8c1.7,1.8,4.1,2.8,6.8,2.8
		c5.3,0,9.6-4.3,9.6-9.6v-9.6h-5.5v9.6c0,2.2-1.8,4-4,4s-4-1.8-4-4c0-5.3-4.3-9.6-9.6-9.6h-17l11.5-5.6l-2.4-5L0,28.9L0,29.1L0,29.1
		z"/>
	<path class="st0" d="M104.8,46.4c0.4-0.3,0.8-0.6,1.1-0.9c0,0,0.1,0,0.1-0.1c0.8-0.8,1.4-1.7,1.8-2.6c0.2-0.4,0.4-0.8,0.5-1.3
		c0.2-0.6,0.3-1.2,0.4-1.9c0-0.3,0.1-0.7,0.1-1l0,0l0,0v-9.6h-5.5v9.6c0,0.9-0.3,1.7-0.8,2.4c-0.7,1-1.9,1.7-3.2,1.7h-9.6v5.5h9.6
		l0,0l0,0c0.3,0,0.7,0,1,0s0.6-0.1,0.9-0.1c0.8-0.2,1.5-0.4,2.2-0.8C103.8,47,104.3,46.7,104.8,46.4z"/>
	<path class="st0" d="M73.8,48.2L73.8,48.2c1,0,1.9-0.2,2.8-0.4c0.4-0.1,0.8-0.3,1.2-0.5c1-0.5,2-1.1,2.8-1.9c0,0,0,0,0.1-0.1
		c0.4-0.4,0.7-0.8,1-1.2c0.3-0.4,0.6-0.9,0.8-1.4c0.2-0.4,0.4-0.8,0.5-1.3c0.2-0.6,0.3-1.2,0.4-1.9c0-0.3,0.1-0.7,0.1-1l0,0l0,0v-4
		h15.8v-5.5H79.7l0,0h-1.9v9.6c0,0.9-0.3,1.7-0.8,2.4c-0.7,1-1.9,1.7-3.2,1.7h-5.7c-2.2,0-4-1.8-4-4v-9.6h-5.5v9.6
		c0,4.8,3.5,8.8,8.2,9.5v0.1L73.8,48.2L73.8,48.2z"/>
	<path class="st0" d="M126.2,29.1v9.6c0,2.2-1.8,4-4,4c-1.1,0-2.1-0.5-2.9-1.2s-1.2-1.7-1.2-2.9V18.5h-5.5v20.1l0,0l0,0
		c0,0.3,0,0.7,0.1,1c0.1,0.6,0.2,1.3,0.4,1.9c0.1,0.4,0.3,0.9,0.5,1.3c0.1,0.2,0.2,0.5,0.4,0.7c0.2,0.4,0.4,0.7,0.7,1
		c0.1,0.1,0.1,0.2,0.2,0.2c0.9,1.1,2,1.9,3.3,2.5c0.4,0.2,0.8,0.3,1.2,0.5c0.9,0.3,1.8,0.4,2.8,0.4l0,0l0,0c5.3,0,9.6-4.3,9.6-9.6
		v-9.6L126.2,29.1L126.2,29.1z"/>
	<path class="st0" d="M39.5,65.1L39.5,65.1c-0.4,0-0.8,0-1.2,0.1s-0.7,0.2-1.1,0.3s-0.7,0.3-1,0.5c-0.2,0.1-0.3,0.2-0.5,0.3
		c-0.3,0.2-0.5,0.5-0.8,0.8c-0.2,0.2-0.4,0.5-0.5,0.7c-0.1,0.2-0.3,0.4-0.4,0.7c-0.2,0.3-0.3,0.7-0.3,1.1s-0.1,0.8-0.1,1.2l0,0l0,0
		v12.2H37V70.9c0-0.4,0.1-0.9,0.3-1.2c0.1-0.2,0.2-0.3,0.3-0.4c0,0,0,0,0-0.1c0.4-0.4,1.1-0.7,1.7-0.7h5.8v-3.3L39.5,65.1L39.5,65.1
		z"/>
	<path class="st0" d="M103,70.9v6.4l0,0l0,0c0,0.4,0,0.8,0.1,1.2s0.2,0.7,0.3,1.1c0.2,0.3,0.3,0.7,0.5,1c0.2,0.3,0.4,0.6,0.7,0.8
		c0,0,0,0,0,0c0.5,0.5,1.2,0.9,1.8,1.2c0.3,0.2,0.7,0.3,1.1,0.3s0.8,0.1,1.2,0.1l0,0l0,0h5.8v-3.3h-5.8c-0.7,0-1.3-0.3-1.7-0.7
		c0,0,0,0-0.1-0.1c-0.1-0.1-0.2-0.3-0.3-0.4c-0.2-0.4-0.3-0.8-0.3-1.2v-6.4l0,0c0-1.3,1.1-2.4,2.4-2.4h5.8v-3.3h-5.8
		C105.6,65.1,103,67.7,103,70.9z"/>
	<path class="st0" d="M15.1,69.5c-0.1-0.4-0.2-0.7-0.3-1.1c-0.4-1-1.2-1.9-2.1-2.6c-0.3-0.2-0.6-0.4-1-0.5c-0.4-0.2-0.7-0.3-1.1-0.3
		c-0.4-0.1-0.8-0.1-1.2-0.1l0,0l0,0h-6H0v3.3v14.7h3.3V68.2h6c0.7,0,1.3,0.3,1.7,0.7c0.4,0.4,0.7,1.1,0.7,1.7c0,1.4-1.1,2.4-2.4,2.4
		H5.6v3.3h3.8c3.2,0,5.8-2.6,5.8-5.8l0,0l0,0C15.2,70.2,15.2,69.8,15.1,69.5z"/>
	<path class="st0" d="M83.7,69.8c-0.1-0.4-0.2-0.7-0.3-1.1c-0.1-0.2-0.2-0.5-0.4-0.7c-0.2-0.3-0.3-0.5-0.5-0.7
		c-0.2-0.3-0.5-0.6-0.8-0.8c-0.2-0.2-0.5-0.4-0.7-0.5c-0.2-0.1-0.4-0.3-0.7-0.4c-0.3-0.2-0.7-0.3-1.1-0.3c-0.4-0.1-0.8-0.1-1.2-0.1
		l0,0l0,0h-6h-3.3v3.3v14.7h3.3V68.5h6c0.7,0,1.3,0.3,1.7,0.7c0.4,0.4,0.7,1.1,0.7,1.7c0,1.4-1.1,2.4-2.4,2.4h-3.8v3.3H78
		c3.2,0,5.8-2.6,5.8-5.8l0,0l0,0C83.8,70.5,83.7,70.2,83.7,69.8z"/>
	<path class="st0" d="M93.7,65.1h-6v3.3h6c1.3,0,2.4,1.1,2.4,2.4l0,0v0.6h-6c-3.2,0-5.8,2.6-5.8,5.8l0,0l0,0c0,0.4,0,0.8,0.1,1.2
		s0.2,0.7,0.3,1.1c0.2,0.3,0.3,0.7,0.5,1c0.2,0.3,0.4,0.6,0.7,0.8c0,0,0,0,0,0c0.5,0.5,1.1,0.9,1.7,1.2c0.4,0.2,0.8,0.3,1.2,0.4
		c0.4,0.1,0.8,0.1,1.2,0.1h6h3.3v-3.3v-8.9C99.4,67.7,96.8,65.1,93.7,65.1z M90.1,79.8c-0.7,0-1.3-0.3-1.7-0.7
		c-0.4-0.4-0.7-1.1-0.7-1.7c0-1.4,1.1-2.4,2.4-2.4h6v4.9L90.1,79.8L90.1,79.8z"/>
	<path class="st0" d="M25.3,65.1h-6v3.3h6c1.4,0,2.5,1.1,2.5,2.4l0,0v0.6h-6c-3.2,0-5.8,2.6-5.8,5.8l0,0l0,0c0,0.4,0,0.8,0.1,1.2
		s0.2,0.7,0.3,1.1s0.3,0.7,0.5,1c0.2,0.3,0.4,0.6,0.7,0.8c0,0,0,0,0,0c0.5,0.5,1.1,0.9,1.9,1.2c0.4,0.2,0.7,0.3,1.1,0.3
		s0.8,0.1,1.2,0.1l0,0l0,0h6h3.4v-3.3v-8.9C31.1,67.7,28.5,65.1,25.3,65.1z M21.7,79.8c-0.7,0-1.3-0.3-1.7-0.7
		c-0.4-0.4-0.7-1.1-0.7-1.7c0-1.4,1.1-2.4,2.5-2.4h6v4.9L21.7,79.8L21.7,79.8z"/>
	<path class="st0" d="M56.1,71.6C56.1,71.6,56.1,71.6,56.1,71.6l-0.6,0h-2.9h-1.1c-0.8,0-1.5-0.7-1.5-1.5s0.7-1.5,1.5-1.5h1h3.6H58
		v-3.3h-6.5l0,0l0,0c-2.7,0-4.9,2.2-4.9,4.9s2.2,4.9,4.9,4.9l0,0l0,0h4c1.3,0,2.5,1.1,2.5,2.4s-1.1,2.4-2.5,2.4h-7.3v3.3h7.3
		c3.2,0,5.8-2.6,5.8-5.8C61.3,74.4,59,71.9,56.1,71.6z"/>
	<path class="st0" d="M125.9,71.6h-1.3l7-3.4l-1.5-3l-9.5,4.7v-4.7h-3.3v6.3l0,0l0,0v0.1h0v3.3h0v8.3h3.3v-8.3h5.4
		c1.4,0,2.5,1.1,2.5,2.4l0,0v5.8h3.4V77h0C131.6,74,129,71.6,125.9,71.6z"/>
</g>
<circle class="st0" cx="203.7" cy="51.3" r="51.2"/>
<path class="st1" d="M244.4,46.7l-22.6-22.6l-18.1,18.1l0,0l-18.1-18.1l-22.6,22.6L181,64.9l0,0l22.6,22.7l22.6-22.7l0,0L244.4,46.7
	z M221.8,33.1l13.6,13.6l-13.6,13.6l-13.6-13.6L221.8,33.1z M185.6,33.1l13.6,13.6l-13.6,13.6L172,46.7L185.6,33.1z M203.7,78.4
	l-13.6-13.6l13.6-13.6l13.6,13.6L203.7,78.4z"/>
</svg>
